<svg id="Non_Inscrits" data-name="Non Inscrits" xmlns="http://www.w3.org/2000/svg" viewBox="0 0 479.91 230.83"><defs><style>.cls-1{fill:#b3a18f;}</style></defs><title>ni</title><path class="cls-1" d="M193.94,224.1H170.16l-38.38-66.75h-.54q1.14,17.68,1.14,25.22V224.1H115.67V135.86h23.59L177.59,202H178q-.9-17.2-.91-24.32V135.86h16.84Z" transform="translate(-9.6 -134.47)"/><path class="cls-1" d="M288.45,179.86q0,21.9-10.86,33.68T246.45,225.3q-20.28,0-31.14-11.76t-10.87-33.8q0-22,10.9-33.65t31.23-11.62q20.34,0,31.11,11.71T288.45,179.86Zm-64.39,0q0,14.79,5.61,22.27t16.78,7.48q22.38,0,22.39-29.75T246.57,150q-11.17,0-16.84,7.52T224.06,179.86Z" transform="translate(-9.6 -134.47)"/><path class="cls-1" d="M377.23,224.1H353.45l-38.38-66.75h-.55q1.16,17.68,1.15,25.22V224.1H299V135.86h23.6L360.87,202h.43q-.92-17.2-.91-24.32V135.86h16.84Z" transform="translate(-9.6 -134.47)"/><path class="cls-1" d="M9.6,364.1V275.86H28.31V364.1Z" transform="translate(-9.6 -134.47)"/><path class="cls-1" d="M121,364.1H97.23L58.85,297.35H58.3q1.16,17.68,1.15,25.22V364.1H42.73V275.86h23.6L104.65,342h.43q-.92-17.2-.91-24.32V275.86H121Z" transform="translate(-9.6 -134.47)"/><path class="cls-1" d="M187.52,339.59q0,12-8.6,18.83T155,365.3q-14.13,0-25-5.31V342.61a101.25,101.25,0,0,0,15.12,5.61,44.5,44.5,0,0,0,11.31,1.63q6.16,0,9.45-2.35a8.06,8.06,0,0,0,3.29-7,7.71,7.71,0,0,0-1.45-4.62,16.17,16.17,0,0,0-4.26-3.89A109.36,109.36,0,0,0,152,326a53.69,53.69,0,0,1-12.13-7.3,27.3,27.3,0,0,1-6.46-8.15A23.19,23.19,0,0,1,131,299.7q0-11.7,7.93-18.41t21.94-6.7A52.13,52.13,0,0,1,174,276.22a90.73,90.73,0,0,1,13.06,4.59l-6,14.55a88,88,0,0,0-11.68-4.05,37.83,37.83,0,0,0-9.08-1.14q-5.31,0-8.15,2.47a8.17,8.17,0,0,0-2.84,6.46,7.91,7.91,0,0,0,1.15,4.31,12.42,12.42,0,0,0,3.65,3.56A112.18,112.18,0,0,0,166,313.16q12.38,5.91,17,11.86A23.12,23.12,0,0,1,187.52,339.59Z" transform="translate(-9.6 -134.47)"/><path class="cls-1" d="M233.2,290.17q-10.56,0-16.36,7.93t-5.79,22.12q0,29.52,22.15,29.51,9.3,0,22.51-4.64v15.69a62.46,62.46,0,0,1-24.26,4.52q-19.26,0-29.45-11.67T191.8,320.1q0-13.75,5-24.11a36.22,36.22,0,0,1,14.39-15.87q9.39-5.53,22-5.53A59.43,59.43,0,0,1,259,280.81L253,296a98.13,98.13,0,0,0-10-4.1A29.64,29.64,0,0,0,233.2,290.17Z" transform="translate(-9.6 -134.47)"/><path class="cls-1" d="M285.4,330.24V364.1H266.69V275.86H292.4q18,0,26.62,6.55t8.63,19.89a23.4,23.4,0,0,1-4.29,13.85,28.3,28.3,0,0,1-12.13,9.5q19.92,29.76,26,38.45H316.42l-21.06-33.86Zm0-15.21h6q8.87,0,13.09-3t4.23-9.29q0-6.28-4.32-8.93t-13.36-2.66H285.4Z" transform="translate(-9.6 -134.47)"/><path class="cls-1" d="M340.5,364.1V275.86h18.71V364.1Z" transform="translate(-9.6 -134.47)"/><path class="cls-1" d="M407.68,364.1H389V291.43H365V275.86h66.63v15.57h-24Z" transform="translate(-9.6 -134.47)"/><path class="cls-1" d="M489.51,339.59q0,12-8.6,18.83T457,365.3q-14.12,0-25-5.31V342.61a101.59,101.59,0,0,0,15.11,5.61,44.64,44.64,0,0,0,11.32,1.63q6.15,0,9.45-2.35a8,8,0,0,0,3.28-7,7.77,7.77,0,0,0-1.44-4.62,16.33,16.33,0,0,0-4.26-3.89A109.36,109.36,0,0,0,454,326a53.8,53.8,0,0,1-12.14-7.3,27.27,27.27,0,0,1-6.45-8.15A23.19,23.19,0,0,1,433,299.7q0-11.7,7.94-18.41t21.94-6.7A52.05,52.05,0,0,1,476,276.22a90.83,90.83,0,0,1,13.07,4.59l-6,14.55a88,88,0,0,0-11.67-4.05,37.85,37.85,0,0,0-9.09-1.14q-5.31,0-8.14,2.47a8.14,8.14,0,0,0-2.84,6.46,7.91,7.91,0,0,0,1.15,4.31,12.42,12.42,0,0,0,3.65,3.56A112.18,112.18,0,0,0,468,313.16q12.36,5.91,17,11.86A23.17,23.17,0,0,1,489.51,339.59Z" transform="translate(-9.6 -134.47)"/></svg>