<?xml version="1.0" encoding="UTF-8" standalone="no"?>
<!-- Created with Inkscape (http://www.inkscape.org/) -->

<svg
   xmlns:dc="http://purl.org/dc/elements/1.1/"
   xmlns:cc="http://creativecommons.org/ns#"
   xmlns:rdf="http://www.w3.org/1999/02/22-rdf-syntax-ns#"
   xmlns:svg="http://www.w3.org/2000/svg"
   xmlns="http://www.w3.org/2000/svg"
   xmlns:sodipodi="http://sodipodi.sourceforge.net/DTD/sodipodi-0.dtd"
   xmlns:inkscape="http://www.inkscape.org/namespaces/inkscape"
   width="74.385979mm"
   height="39.762287mm"
   viewBox="0 0 74.385979 39.762287"
   version="1.1"
   id="svg431"
   inkscape:version="0.92.4 (5da689c313, 2019-01-14)"
   sodipodi:docname="EELV.svg">
  <defs
     id="defs425">
    <clipPath
       clipPathUnits="userSpaceOnUse"
       id="clipPath50">
      <path
         d="M 192.208,78.627 H 403.066 V 191.339 H 192.208 Z"
         id="path48"
         inkscape:connector-curvature="0" />
    </clipPath>
  </defs>
  <sodipodi:namedview
     id="base"
     pagecolor="#ffffff"
     bordercolor="#666666"
     borderopacity="1.0"
     inkscape:pageopacity="0.0"
     inkscape:pageshadow="2"
     inkscape:zoom="2.8"
     inkscape:cx="116.79827"
     inkscape:cy="91.673912"
     inkscape:document-units="mm"
     inkscape:current-layer="layer1"
     showgrid="false"
     inkscape:pagecheckerboard="true"
     fit-margin-top="0"
     fit-margin-left="0"
     fit-margin-right="0"
     fit-margin-bottom="0"
     inkscape:window-width="1920"
     inkscape:window-height="1001"
     inkscape:window-x="-9"
     inkscape:window-y="-9"
     inkscape:window-maximized="1" />
  <metadata
     id="metadata428">
    <rdf:RDF>
      <cc:Work
         rdf:about="">
        <dc:format>image/svg+xml</dc:format>
        <dc:type
           rdf:resource="http://purl.org/dc/dcmitype/StillImage" />
        <dc:title></dc:title>
      </cc:Work>
    </rdf:RDF>
  </metadata>
  <g
     inkscape:label="Calque 1"
     inkscape:groupmode="layer"
     id="layer1"
     transform="translate(-49.741534,-160.70219)">
    <g
       transform="matrix(0.35277777,0,0,-0.35277777,-18.065564,228.20219)"
       id="g255">
      <g
         transform="translate(381.987,121.3155)"
         id="g32">
        <path
           inkscape:connector-curvature="0"
           id="path34"
           style="fill:#fcd205;fill-opacity:1;fill-rule:nonzero;stroke:none"
           d="m 0,0 -7.398,-6.161 9.652,-2.16 3.955,-8.678 5.027,8.051 9.844,0.797 -6.548,7.137 2.13,9.172 L 7.59,4.514 -0.939,9.387 Z" />
      </g>
      <g
         transform="translate(364.3151,87.9375)"
         id="g36">
        <path
           inkscape:connector-curvature="0"
           id="path38"
           style="fill:#fcd205;fill-opacity:1;fill-rule:nonzero;stroke:none"
           d="m 0,0 7.136,3.026 6.776,-3.698 -0.822,7.388 5.791,4.987 -7.644,1.538 L 8.036,20.02 4.137,13.585 -3.632,12.789 1.601,7.271 Z" />
      </g>
      <g
         transform="translate(350.5419,89.6616)"
         id="g40">
        <path
           inkscape:connector-curvature="0"
           id="path42"
           style="fill:#fcd205;fill-opacity:1;fill-rule:nonzero;stroke:none"
           d="m 0,0 -5.27,0.781 2.425,-4.515 -2.403,-4.522 5.262,0.796 3.78,-3.575 0.828,5.007 4.744,2.313 -4.753,2.298 -0.847,5.003 z" />
      </g>
      <g
         id="g44">
        <g
           clip-path="url(#clipPath50)"
           id="g46">
          <g
             transform="translate(259.7491,159.5845)"
             id="g52">
            <path
               inkscape:connector-curvature="0"
               id="path54"
               style="fill:#fcd205;fill-opacity:1;fill-rule:nonzero;stroke:none"
               d="m 0,0 c 1.546,-1.548 4.43,-0.962 5.863,0.275 4.645,4.002 5.491,11.193 5.624,11.264 l -0.003,0.003 C 11.414,11.409 4.247,10.55 0.265,5.886 -0.966,4.443 -1.546,1.551 0,0.001 Z" />
          </g>
          <g
             transform="translate(247.5821,165.1036)"
             id="g56">
            <path
               inkscape:connector-curvature="0"
               id="path58"
               style="fill:#fcd205;fill-opacity:1;fill-rule:nonzero;stroke:none"
               d="m 0,0 c 2.959,-0.018 5.15,3.923 5.332,6.966 0.602,9.847 -5.477,19.036 -5.418,19.267 l -0.007,0.002 C -0.032,26.002 -6.05,16.89 -5.385,7.036 -5.179,3.99 -2.962,0.019 -0.002,0.001 Z" />
          </g>
          <g
             transform="translate(241.2517,163.9415)"
             id="g60">
            <path
               inkscape:connector-curvature="0"
               id="path62"
               style="fill:#fcd205;fill-opacity:1;fill-rule:nonzero;stroke:none"
               d="M 0,0 C 2.798,0.956 3.529,5.498 2.672,8.508 -0.1,18.248 -8.952,25.153 -8.975,25.395 l -0.006,0.001 c 0.136,-0.207 -2.453,-11.018 1.516,-20.349 1.228,-2.885 4.664,-6 7.463,-5.045 z" />
          </g>
          <g
             transform="translate(234.9841,159.2895)"
             id="g64">
            <path
               inkscape:connector-curvature="0"
               id="path66"
               style="fill:#fcd205;fill-opacity:1;fill-rule:nonzero;stroke:none"
               d="m 0,0 c 3.026,2.913 1.745,8.715 -0.776,11.699 -8.155,9.672 -22.519,12.129 -22.665,12.398 l -0.007,-0.003 c 0.266,-0.154 2.258,-14.508 11.708,-22.933 2.921,-2.604 8.71,-4.07 11.738,-1.159 z" />
          </g>
          <g
             transform="translate(230.4525,151.3164)"
             id="g68">
            <path
               inkscape:connector-curvature="0"
               id="path70"
               style="fill:#fcd205;fill-opacity:1;fill-rule:nonzero;stroke:none"
               d="M 0,0 C 1.105,4.214 -3.706,8.779 -7.971,10.149 -21.772,14.601 -37.08,9.286 -37.387,9.452 l -0.005,-0.007 c 0.353,0.003 11.13,-11.907 25.406,-14.553 4.413,-0.819 10.875,0.894 11.984,5.108 z" />
          </g>
          <g
             transform="translate(229.4961,143.4153)"
             id="g72">
            <path
               inkscape:connector-curvature="0"
               id="path74"
               style="fill:#fcd205;fill-opacity:1;fill-rule:nonzero;stroke:none"
               d="m 0,0 c -0.684,4.065 -6.816,6.085 -11.186,5.577 -14.147,-1.639 -25.76,-12.28 -26.1,-12.258 l -10e-4,-0.008 c 0.314,0.14 14.717,-5.838 28.572,-2.46 4.281,1.047 9.395,5.081 8.713,9.147 z" />
          </g>
          <g
             transform="translate(231.175,133.6884)"
             id="g76">
            <path
               inkscape:connector-curvature="0"
               id="path78"
               style="fill:#fcd205;fill-opacity:1;fill-rule:nonzero;stroke:none"
               d="m 0,0 c -2.62,3.636 -9.4,2.792 -13.289,0.299 -12.59,-8.065 -18.413,-23.711 -18.747,-23.845 l 0.003,-0.009 c 0.229,0.282 16.757,1.066 28.226,10.685 3.544,2.975 6.424,9.234 3.806,12.869 z" />
          </g>
          <g
             transform="translate(236.5847,126.9207)"
             id="g80">
            <path
               inkscape:connector-curvature="0"
               id="path82"
               style="fill:#fcd205;fill-opacity:1;fill-rule:nonzero;stroke:none"
               d="m 0,0 c -3.348,1.988 -8.692,-1.479 -11.104,-5.154 -7.817,-11.894 -7.574,-27.402 -7.808,-27.652 l 0.005,-0.004 c 0.099,0.329 13.536,7.709 19.922,20.452 1.972,3.939 2.332,10.367 -1.016,12.356 z" />
          </g>
          <g
             transform="translate(244.8723,123.6077)"
             id="g84">
            <path
               inkscape:connector-curvature="0"
               id="path86"
               style="fill:#fcd205;fill-opacity:1;fill-rule:nonzero;stroke:none"
               d="m 0,0 c -3.416,0.352 -6.387,-3.959 -6.941,-7.455 -1.794,-11.315 4.196,-22.616 4.103,-22.876 l 0.005,-0.003 c -0.044,0.275 7.927,10.136 8.26,21.6 C 5.529,-5.19 3.415,-0.355 0,-0.001 Z" />
          </g>
          <g
             transform="translate(251.5219,125.2314)"
             id="g88">
            <path
               inkscape:connector-curvature="0"
               id="path90"
               style="fill:#fcd205;fill-opacity:1;fill-rule:nonzero;stroke:none"
               d="m 0,0 c -2.407,-0.481 -3.664,-3.5 -3.405,-5.578 0.824,-6.726 6.994,-11.896 6.978,-12.061 h 0.005 c -0.08,0.146 3.597,7.283 1.74,13.803 C 4.743,-1.82 2.41,0.481 0.001,0 Z" />
          </g>
          <g
             transform="translate(254.1251,163.8158)"
             id="g92">
            <path
               inkscape:connector-curvature="0"
               id="path94"
               style="fill:#fcd205;fill-opacity:1;fill-rule:nonzero;stroke:none"
               d="m 0,0 c 2.696,-1.199 6.088,1.047 7.328,3.385 4.021,7.567 1.709,17.291 1.843,17.45 L 9.168,20.838 C 9.141,20.631 0.431,15.817 -2.435,7.737 -3.322,5.239 -2.696,1.203 -0.001,0.002 Z" />
          </g>
          <path
             inkscape:connector-curvature="0"
             id="path96"
             style="fill:#66c430;fill-opacity:1;fill-rule:nonzero;stroke:none"
             d="m 268.46,106.424 h -4.392 v 21.211 h 4.392 z" />
          <g
             transform="translate(276.775,118.3121)"
             id="g98">
            <path
               inkscape:connector-curvature="0"
               id="path100"
               style="fill:#66c430;fill-opacity:1;fill-rule:nonzero;stroke:none"
               d="m 0,0 c -0.841,0 -1.498,-0.238 -1.97,-0.715 -0.473,-0.477 -0.784,-1.166 -0.935,-2.063 h 5.484 c 0,0.35 -0.046,0.689 -0.135,1.019 -0.09,0.333 -0.237,0.629 -0.439,0.886 -0.203,0.261 -0.47,0.471 -0.8,0.632 C 0.873,-0.08 0.471,0 0,0 m -0.086,3.032 c 0.973,0 1.864,-0.15 2.672,-0.454 C 3.394,2.275 4.088,1.835 4.668,1.26 5.249,0.684 5.702,-0.021 6.029,-0.858 6.355,-1.694 6.518,-2.641 6.518,-3.7 6.518,-4.03 6.504,-4.301 6.475,-4.507 6.447,-4.715 6.395,-4.88 6.319,-5.004 6.244,-5.126 6.142,-5.21 6.015,-5.257 5.888,-5.305 5.724,-5.329 5.526,-5.329 h -8.473 c 0.141,-1.229 0.513,-2.119 1.119,-2.67 0.605,-0.554 1.384,-0.829 2.338,-0.829 0.51,0 0.949,0.061 1.318,0.184 0.367,0.121 0.697,0.258 0.985,0.411 0.287,0.151 0.552,0.288 0.793,0.41 0.241,0.123 0.494,0.185 0.758,0.185 0.35,0 0.614,-0.128 0.793,-0.383 l 1.276,-1.573 c -0.454,-0.52 -0.943,-0.943 -1.468,-1.267 -0.524,-0.326 -1.063,-0.583 -1.614,-0.766 -0.553,-0.184 -1.106,-0.31 -1.658,-0.382 -0.554,-0.072 -1.081,-0.108 -1.581,-0.108 -1.029,0 -1.994,0.168 -2.896,0.502 -0.902,0.337 -1.691,0.835 -2.366,1.497 -0.675,0.661 -1.21,1.481 -1.601,2.465 -0.393,0.982 -0.588,2.125 -0.588,3.429 0,0.982 0.167,1.912 0.503,2.791 0.335,0.88 0.817,1.648 1.445,2.31 0.629,0.662 1.389,1.185 2.281,1.573 0.893,0.387 1.9,0.582 3.024,0.582" />
          </g>
          <g
             transform="translate(294.1356,117.9013)"
             id="g102">
            <path
               inkscape:connector-curvature="0"
               id="path104"
               style="fill:#66c430;fill-opacity:1;fill-rule:nonzero;stroke:none"
               d="m 0,0 c -0.113,-0.179 -0.234,-0.307 -0.36,-0.382 -0.128,-0.076 -0.291,-0.114 -0.488,-0.114 -0.208,0 -0.415,0.045 -0.622,0.135 -0.207,0.09 -0.432,0.188 -0.671,0.291 -0.241,0.103 -0.512,0.2 -0.814,0.289 -0.301,0.09 -0.645,0.135 -1.031,0.135 -0.556,0 -0.983,-0.106 -1.28,-0.318 -0.298,-0.212 -0.446,-0.507 -0.446,-0.885 0,-0.276 0.096,-0.502 0.29,-0.681 0.193,-0.18 0.45,-0.338 0.771,-0.474 0.321,-0.138 0.683,-0.268 1.09,-0.391 0.405,-0.123 0.82,-0.26 1.243,-0.411 0.424,-0.15 0.839,-0.328 1.245,-0.53 0.406,-0.203 0.767,-0.455 1.088,-0.752 0.321,-0.297 0.578,-0.659 0.771,-1.083 0.193,-0.426 0.29,-0.937 0.29,-1.531 0,-0.728 -0.131,-1.398 -0.397,-2.012 -0.264,-0.615 -0.659,-1.143 -1.183,-1.587 -0.524,-0.443 -1.172,-0.789 -1.942,-1.034 -0.77,-0.246 -1.654,-0.369 -2.655,-0.369 -0.502,0 -1.002,0.048 -1.502,0.143 -0.501,0.094 -0.984,0.221 -1.452,0.382 -0.468,0.162 -0.901,0.352 -1.298,0.574 -0.396,0.222 -0.736,0.46 -1.019,0.716 l 1.019,1.615 c 0.123,0.189 0.271,0.338 0.441,0.446 0.171,0.109 0.391,0.164 0.664,0.164 0.256,0 0.485,-0.057 0.688,-0.17 0.204,-0.114 0.423,-0.237 0.659,-0.369 0.236,-0.133 0.514,-0.256 0.829,-0.369 0.316,-0.113 0.717,-0.169 1.198,-0.169 0.339,0 0.628,0.034 0.864,0.106 0.236,0.071 0.425,0.167 0.567,0.289 0.142,0.123 0.245,0.259 0.311,0.412 0.066,0.151 0.099,0.306 0.099,0.468 0,0.292 -0.099,0.533 -0.298,0.722 -0.198,0.189 -0.458,0.353 -0.779,0.489 -0.321,0.137 -0.687,0.264 -1.098,0.383 -0.411,0.118 -0.828,0.252 -1.254,0.403 -0.425,0.152 -0.843,0.334 -1.254,0.546 -0.41,0.212 -0.777,0.482 -1.097,0.808 -0.323,0.325 -0.582,0.725 -0.78,1.197 -0.198,0.472 -0.298,1.044 -0.298,1.714 0,0.625 0.121,1.218 0.362,1.78 0.241,0.562 0.602,1.056 1.084,1.48 0.481,0.426 1.085,0.762 1.813,1.013 0.727,0.25 1.578,0.377 2.55,0.377 0.53,0 1.042,-0.049 1.538,-0.144 0.497,-0.094 0.961,-0.225 1.396,-0.395 0.434,-0.171 0.831,-0.372 1.189,-0.604 0.36,-0.23 0.676,-0.483 0.95,-0.758 z" />
          </g>
          <g
             transform="translate(311.9716,106.424)"
             id="g106">
            <path
               inkscape:connector-curvature="0"
               id="path108"
               style="fill:#66c430;fill-opacity:1;fill-rule:nonzero;stroke:none"
               d="m 0,0 h -4.828 l -6.882,17.754 h 4.419 c 0.376,0 0.692,-0.089 0.95,-0.265 0.256,-0.176 0.429,-0.396 0.523,-0.659 l 2.465,-7.962 c 0.195,-0.65 0.379,-1.284 0.556,-1.9 0.176,-0.616 0.328,-1.232 0.454,-1.849 0.125,0.616 0.279,1.232 0.461,1.849 0.182,0.616 0.378,1.25 0.582,1.9 l 2.567,7.962 c 0.093,0.263 0.262,0.482 0.515,0.659 0.25,0.177 0.546,0.265 0.89,0.265 h 4.211 z" />
          </g>
          <g
             transform="translate(324.3616,118.3121)"
             id="g110">
            <path
               inkscape:connector-curvature="0"
               id="path112"
               style="fill:#66c430;fill-opacity:1;fill-rule:nonzero;stroke:none"
               d="m 0,0 c -0.842,0 -1.497,-0.238 -1.97,-0.715 -0.473,-0.477 -0.785,-1.166 -0.934,-2.063 h 5.483 c 0,0.35 -0.044,0.689 -0.133,1.019 C 2.354,-1.426 2.21,-1.13 2.004,-0.873 1.802,-0.612 1.535,-0.402 1.205,-0.241 0.875,-0.081 0.472,0 0,0 m -0.084,3.032 c 0.972,0 1.863,-0.15 2.671,-0.454 C 3.394,2.275 4.088,1.835 4.669,1.26 5.25,0.684 5.704,-0.021 6.029,-0.858 6.355,-1.694 6.518,-2.641 6.518,-3.7 6.518,-4.03 6.505,-4.301 6.478,-4.507 6.449,-4.715 6.397,-4.88 6.321,-5.004 6.245,-5.127 6.143,-5.21 6.016,-5.257 5.889,-5.305 5.726,-5.329 5.527,-5.329 h -8.473 c 0.143,-1.229 0.514,-2.119 1.12,-2.67 0.605,-0.554 1.384,-0.829 2.339,-0.829 0.509,0 0.95,0.061 1.317,0.184 0.368,0.121 0.697,0.258 0.985,0.411 0.287,0.151 0.553,0.288 0.794,0.41 0.241,0.123 0.492,0.185 0.758,0.185 0.349,0 0.613,-0.128 0.793,-0.383 l 1.276,-1.573 c -0.452,-0.52 -0.943,-0.943 -1.468,-1.267 -0.524,-0.326 -1.062,-0.583 -1.614,-0.766 -0.553,-0.184 -1.106,-0.31 -1.657,-0.382 -0.554,-0.072 -1.08,-0.108 -1.581,-0.108 -1.03,0 -1.996,0.168 -2.899,0.502 -0.901,0.337 -1.69,0.835 -2.365,1.497 -0.676,0.661 -1.209,1.481 -1.602,2.465 -0.391,0.982 -0.588,2.125 -0.588,3.429 0,0.982 0.168,1.912 0.502,2.791 0.336,0.88 0.818,1.648 1.447,2.31 0.628,0.662 1.388,1.185 2.28,1.573 0.891,0.389 1.901,0.582 3.025,0.582" />
          </g>
          <g
             transform="translate(332.1457,106.424)"
             id="g114">
            <path
               inkscape:connector-curvature="0"
               id="path116"
               style="fill:#66c430;fill-opacity:1;fill-rule:nonzero;stroke:none"
               d="m 0,0 v 14.695 h 2.606 c 0.218,0 0.399,-0.019 0.547,-0.057 C 3.3,14.6 3.423,14.541 3.521,14.461 3.62,14.38 3.695,14.275 3.747,14.142 3.799,14.01 3.845,13.849 3.882,13.66 l 0.241,-1.374 c 0.539,0.831 1.143,1.489 1.814,1.97 0.671,0.482 1.402,0.723 2.197,0.723 0.669,0 1.208,-0.161 1.615,-0.482 L 9.182,11.267 C 9.144,11.068 9.068,10.929 8.954,10.849 8.841,10.769 8.69,10.729 8.502,10.729 c -0.161,0 -0.351,0.021 -0.568,0.064 -0.217,0.041 -0.491,0.063 -0.82,0.063 -1.153,0 -2.062,-0.614 -2.722,-1.841 V 0.003 H 0 Z" />
          </g>
          <g
             transform="translate(349.3018,106.197)"
             id="g118">
            <path
               inkscape:connector-curvature="0"
               id="path120"
               style="fill:#66c430;fill-opacity:1;fill-rule:nonzero;stroke:none"
               d="M 0,0 C -0.7,0 -1.315,0.101 -1.85,0.306 -2.384,0.509 -2.833,0.797 -3.195,1.17 -3.56,1.542 -3.836,1.994 -4.024,2.522 -4.213,3.05 -4.308,3.642 -4.308,4.293 v 7.595 h -1.245 c -0.23,0 -0.421,0.074 -0.582,0.219 -0.161,0.148 -0.241,0.363 -0.241,0.646 v 1.714 l 2.339,0.454 0.864,3.583 c 0.113,0.456 0.435,0.68 0.962,0.68 H 0.085 V 14.891 H 3.656 V 11.888 H 0.085 V 4.59 C 0.085,4.25 0.167,3.97 0.333,3.748 0.5,3.526 0.737,3.415 1.05,3.415 c 0.161,0 0.295,0.015 0.404,0.049 0.108,0.034 0.202,0.071 0.282,0.113 0.082,0.042 0.157,0.082 0.23,0.113 0.069,0.033 0.151,0.051 0.247,0.051 0.133,0 0.238,-0.032 0.32,-0.094 C 2.612,3.586 2.695,3.489 2.78,3.358 L 4.112,1.274 C 3.545,0.848 2.909,0.53 2.2,0.317 1.487,0.107 0.755,0 0,0" />
          </g>
          <g
             transform="translate(364.9091,117.9013)"
             id="g122">
            <path
               inkscape:connector-curvature="0"
               id="path124"
               style="fill:#66c430;fill-opacity:1;fill-rule:nonzero;stroke:none"
               d="m 0,0 c -0.114,-0.179 -0.234,-0.307 -0.361,-0.382 -0.127,-0.076 -0.29,-0.114 -0.488,-0.114 -0.207,0 -0.417,0.045 -0.621,0.135 -0.209,0.09 -0.433,0.188 -0.674,0.291 -0.241,0.103 -0.51,0.2 -0.813,0.289 -0.302,0.09 -0.645,0.135 -1.033,0.135 -0.554,0 -0.982,-0.106 -1.279,-0.318 -0.298,-0.212 -0.446,-0.507 -0.446,-0.885 0,-0.276 0.096,-0.502 0.29,-0.681 0.192,-0.18 0.448,-0.338 0.77,-0.474 0.321,-0.138 0.684,-0.268 1.088,-0.391 0.406,-0.123 0.821,-0.26 1.244,-0.411 0.425,-0.15 0.84,-0.328 1.246,-0.53 0.403,-0.203 0.77,-0.455 1.088,-0.752 0.32,-0.297 0.578,-0.659 0.771,-1.083 0.194,-0.426 0.29,-0.937 0.29,-1.531 0,-0.728 -0.133,-1.398 -0.396,-2.012 -0.266,-0.615 -0.66,-1.143 -1.183,-1.587 -0.525,-0.443 -1.172,-0.789 -1.942,-1.034 -0.769,-0.246 -1.656,-0.369 -2.657,-0.369 -0.501,0 -1.002,0.048 -1.501,0.143 -0.502,0.094 -0.986,0.221 -1.452,0.382 -0.468,0.162 -0.901,0.352 -1.298,0.574 -0.396,0.222 -0.736,0.46 -1.02,0.716 l 1.02,1.615 c 0.121,0.189 0.27,0.338 0.441,0.446 0.171,0.109 0.392,0.164 0.665,0.164 0.255,0 0.484,-0.057 0.687,-0.17 0.203,-0.114 0.423,-0.237 0.659,-0.369 0.236,-0.133 0.514,-0.256 0.828,-0.369 0.317,-0.113 0.717,-0.169 1.199,-0.169 0.339,0 0.628,0.034 0.864,0.106 0.235,0.071 0.423,0.167 0.566,0.289 0.143,0.123 0.245,0.259 0.313,0.412 0.065,0.151 0.098,0.306 0.098,0.468 0,0.292 -0.098,0.533 -0.298,0.722 -0.199,0.189 -0.458,0.353 -0.78,0.489 -0.322,0.137 -0.688,0.264 -1.098,0.383 -0.411,0.118 -0.827,0.252 -1.255,0.403 -0.424,0.152 -0.843,0.334 -1.255,0.546 -0.41,0.212 -0.775,0.482 -1.096,0.808 -0.322,0.325 -0.582,0.725 -0.781,1.197 -0.196,0.472 -0.296,1.044 -0.296,1.714 0,0.625 0.12,1.218 0.361,1.78 0.241,0.562 0.603,1.056 1.084,1.48 0.481,0.426 1.088,0.762 1.815,1.013 0.726,0.25 1.579,0.377 2.55,0.377 0.528,0 1.041,-0.049 1.538,-0.144 0.495,-0.094 0.96,-0.225 1.395,-0.395 C -0.72,2.736 -0.322,2.535 0.037,2.303 0.396,2.073 0.712,1.82 0.986,1.545 Z" />
          </g>
          <g
             transform="translate(285.3461,172.7696)"
             id="g126">
            <path
               inkscape:connector-curvature="0"
               id="path128"
               style="fill:#66c430;fill-opacity:1;fill-rule:nonzero;stroke:none"
               d="M 0,0 C -1.015,0 -1.808,-0.289 -2.379,-0.864 -2.951,-1.44 -3.328,-2.272 -3.51,-3.355 h 6.626 c 0,0.422 -0.055,0.833 -0.163,1.232 -0.109,0.399 -0.286,0.756 -0.532,1.07 C 2.176,-0.74 1.853,-0.484 1.454,-0.291 1.056,-0.097 0.571,0 0,0 M -0.103,3.664 C 1.073,3.664 2.149,3.48 3.125,3.116 4.1,2.751 4.939,2.221 5.642,1.525 c 0.702,-0.697 1.25,-1.55 1.643,-2.56 0.394,-1.01 0.591,-2.154 0.591,-3.432 0,-0.401 -0.018,-0.726 -0.051,-0.978 C 7.79,-5.694 7.727,-5.895 7.636,-6.043 7.544,-6.192 7.422,-6.295 7.268,-6.353 7.114,-6.409 6.917,-6.437 6.678,-6.437 H -3.561 c 0.171,-1.484 0.622,-2.559 1.353,-3.228 0.729,-0.669 1.671,-1.001 2.824,-1.001 0.618,0 1.148,0.074 1.592,0.222 0.446,0.148 0.842,0.313 1.19,0.497 0.348,0.182 0.668,0.347 0.96,0.496 0.29,0.148 0.596,0.222 0.915,0.222 0.422,0 0.742,-0.153 0.959,-0.462 l 1.541,-1.901 C 7.225,-12.22 6.635,-12.73 6.001,-13.125 5.368,-13.517 4.716,-13.827 4.05,-14.049 3.382,-14.271 2.714,-14.426 2.046,-14.512 1.378,-14.597 0.742,-14.64 0.137,-14.64 c -1.244,0 -2.411,0.203 -3.501,0.61 -1.09,0.403 -2.043,1.006 -2.86,1.805 -0.816,0.799 -1.461,1.792 -1.934,2.98 -0.473,1.187 -0.711,2.568 -0.711,4.143 0,1.187 0.203,2.312 0.608,3.373 0.405,1.061 0.986,1.991 1.746,2.79 0.759,0.798 1.679,1.434 2.757,1.901 1.078,0.468 2.296,0.702 3.655,0.702" />
          </g>
          <g
             transform="translate(299.233,173.0985)"
             id="g130">
            <path
               inkscape:connector-curvature="0"
               id="path132"
               style="fill:#66c430;fill-opacity:1;fill-rule:nonzero;stroke:none"
               d="m 0,0 v -9.323 c 0,-0.728 0.165,-1.291 0.497,-1.687 0.33,-0.396 0.816,-0.595 1.459,-0.595 0.482,0 0.933,0.099 1.352,0.298 0.42,0.198 0.83,0.476 1.227,0.836 v 10.47 H 8.929 V -14.693 H 6.208 c -0.548,0 -0.906,0.245 -1.077,0.736 l -0.27,0.851 C 4.579,-13.381 4.286,-13.629 3.983,-13.85 3.68,-14.073 3.356,-14.261 3.011,-14.417 2.667,-14.573 2.296,-14.695 1.9,-14.786 1.503,-14.876 1.069,-14.92 0.596,-14.92 c -0.803,0 -1.514,0.139 -2.132,0.418 -0.62,0.279 -1.142,0.668 -1.567,1.169 -0.425,0.501 -0.746,1.091 -0.963,1.771 -0.217,0.682 -0.326,1.428 -0.326,2.239 V 0 Z" />
          </g>
          <g
             transform="translate(310.4465,158.4056)"
             id="g134">
            <path
               inkscape:connector-curvature="0"
               id="path136"
               style="fill:#66c430;fill-opacity:1;fill-rule:nonzero;stroke:none"
               d="m 0,0 v 14.693 h 2.609 c 0.217,0 0.399,-0.019 0.545,-0.056 0.147,-0.039 0.27,-0.096 0.369,-0.177 0.098,-0.081 0.175,-0.188 0.226,-0.319 0.052,-0.133 0.096,-0.293 0.135,-0.482 l 0.241,-1.374 c 0.538,0.831 1.145,1.489 1.813,1.969 0.671,0.483 1.404,0.724 2.197,0.724 0.67,0 1.209,-0.161 1.615,-0.482 L 9.183,11.266 C 9.146,11.067 9.071,10.928 8.957,10.848 8.843,10.767 8.692,10.727 8.503,10.727 c -0.159,0 -0.35,0.021 -0.566,0.064 -0.219,0.043 -0.492,0.063 -0.822,0.063 -1.154,0 -2.061,-0.614 -2.721,-1.842 V 0.002 H 0 Z" />
          </g>
          <g
             transform="translate(327.6509,161.4368)"
             id="g138">
            <path
               inkscape:connector-curvature="0"
               id="path140"
               style="fill:#66c430;fill-opacity:1;fill-rule:nonzero;stroke:none"
               d="M 0,0 C 1.012,0 1.755,0.356 2.231,1.069 2.708,1.782 2.947,2.867 2.947,4.322 2.947,5.776 2.709,6.858 2.231,7.566 1.755,8.275 1.01,8.629 0,8.629 c -1.04,0 -1.799,-0.354 -2.282,-1.063 -0.483,-0.708 -0.722,-1.79 -0.722,-3.244 0,-1.455 0.24,-2.54 0.722,-3.253 C -1.799,0.356 -1.04,0 0,0 m 0,11.887 c 1.115,0 2.129,-0.173 3.046,-0.524 C 3.962,11.014 4.748,10.513 5.405,9.862 6.06,9.21 6.573,8.419 6.936,7.488 7.299,6.557 7.481,5.512 7.481,4.349 7.481,3.178 7.299,2.124 6.936,1.183 6.571,0.244 6.06,-0.555 5.405,-1.211 4.748,-1.868 3.962,-2.374 3.046,-2.727 2.13,-3.082 1.115,-3.257 0,-3.257 c -1.123,0 -2.148,0.175 -3.067,0.53 -0.922,0.355 -1.717,0.86 -2.381,1.516 -0.666,0.656 -1.181,1.455 -1.544,2.394 -0.365,0.941 -0.545,1.995 -0.545,3.166 0,1.164 0.18,2.208 0.545,3.139 0.363,0.931 0.878,1.721 1.544,2.374 0.664,0.651 1.46,1.152 2.381,1.501 0.919,0.351 1.944,0.524 3.067,0.524" />
          </g>
          <g
             transform="translate(343.725,170.0235)"
             id="g142">
            <path
               inkscape:connector-curvature="0"
               id="path144"
               style="fill:#66c430;fill-opacity:1;fill-rule:nonzero;stroke:none"
               d="m 0,0 c -0.322,0 -0.611,-0.032 -0.872,-0.091 -0.26,-0.062 -0.5,-0.149 -0.722,-0.265 -0.222,-0.112 -0.428,-0.255 -0.617,-0.431 -0.188,-0.175 -0.377,-0.375 -0.567,-0.602 v -6.234 c 0.332,-0.369 0.689,-0.626 1.077,-0.772 0.388,-0.147 0.795,-0.221 1.218,-0.221 0.407,0 0.78,0.08 1.122,0.243 0.338,0.16 0.635,0.418 0.883,0.771 0.253,0.355 0.448,0.815 0.588,1.382 0.143,0.567 0.213,1.256 0.213,2.069 0,0.774 -0.056,1.426 -0.169,1.955 C 2.041,-1.667 1.882,-1.24 1.68,-0.913 1.477,-0.586 1.234,-0.353 0.949,-0.211 0.666,-0.069 0.349,0 0,0 M -7.169,-16.28 V 3.074 h 2.72 c 0.274,0 0.502,-0.063 0.687,-0.185 0.184,-0.121 0.314,-0.306 0.389,-0.551 L -3.047,1.26 c 0.285,0.311 0.588,0.596 0.914,0.85 0.326,0.255 0.675,0.475 1.049,0.658 0.373,0.186 0.775,0.33 1.204,0.434 0.43,0.104 0.9,0.155 1.41,0.155 0.766,0 1.474,-0.17 2.124,-0.51 C 4.306,2.508 4.868,2.016 5.342,1.374 5.813,0.731 6.184,-0.055 6.453,-0.985 6.724,-1.916 6.858,-2.972 6.858,-4.152 6.858,-5.258 6.704,-6.279 6.398,-7.213 6.089,-8.148 5.659,-8.961 5.107,-9.65 c -0.551,-0.689 -1.212,-1.228 -1.982,-1.615 -0.771,-0.387 -1.623,-0.582 -2.558,-0.582 -0.766,0 -1.407,0.108 -1.927,0.327 -0.52,0.217 -0.992,0.509 -1.418,0.878 v -5.64 H -7.17 Z" />
          </g>
          <g
             transform="translate(359.1618,170.2932)"
             id="g146">
            <path
               inkscape:connector-curvature="0"
               id="path148"
               style="fill:#66c430;fill-opacity:1;fill-rule:nonzero;stroke:none"
               d="M 0,0 C -0.841,0 -1.497,-0.239 -1.968,-0.716 -2.441,-1.193 -2.752,-1.88 -2.903,-2.777 h 5.484 c 0,0.349 -0.045,0.689 -0.135,1.019 -0.09,0.331 -0.235,0.626 -0.44,0.886 -0.202,0.259 -0.47,0.47 -0.801,0.631 C 0.873,-0.081 0.473,0 0,0 M -0.086,3.031 C 0.889,3.031 1.778,2.88 2.586,2.578 3.393,2.275 4.088,1.836 4.668,1.261 5.25,0.684 5.703,-0.022 6.03,-0.858 6.357,-1.694 6.519,-2.642 6.519,-3.699 6.519,-4.03 6.505,-4.299 6.478,-4.508 6.448,-4.715 6.396,-4.88 6.321,-5.003 6.245,-5.125 6.145,-5.211 6.016,-5.259 5.889,-5.305 5.725,-5.329 5.528,-5.329 h -8.475 c 0.143,-1.228 0.516,-2.119 1.12,-2.671 0.605,-0.553 1.384,-0.828 2.339,-0.828 0.509,0 0.951,0.061 1.317,0.184 0.369,0.123 0.697,0.26 0.986,0.412 0.287,0.151 0.553,0.288 0.793,0.41 0.241,0.123 0.494,0.185 0.759,0.185 0.349,0 0.613,-0.129 0.793,-0.384 l 1.275,-1.573 c -0.452,-0.519 -0.94,-0.941 -1.466,-1.268 -0.525,-0.326 -1.064,-0.582 -1.616,-0.766 -0.553,-0.184 -1.103,-0.309 -1.657,-0.381 -0.553,-0.072 -1.079,-0.107 -1.581,-0.107 -1.029,0 -1.995,0.167 -2.896,0.502 -0.904,0.336 -1.692,0.834 -2.367,1.495 -0.675,0.661 -1.209,1.483 -1.6,2.464 -0.393,0.983 -0.589,2.127 -0.589,3.43 0,0.983 0.168,1.913 0.504,2.792 0.335,0.88 0.816,1.648 1.446,2.309 0.627,0.662 1.388,1.185 2.28,1.573 0.89,0.389 1.897,0.582 3.021,0.582" />
          </g>
          <g
             transform="translate(247.9267,148.6101)"
             id="g150">
            <path
               inkscape:connector-curvature="0"
               id="path152"
               style="fill:#003f18;fill-opacity:1;fill-rule:nonzero;stroke:none"
               d="m 0,0 c -1.258,0 -2.242,-0.358 -2.949,-1.071 -0.707,-0.715 -1.174,-1.744 -1.399,-3.087 h 8.21 c 0,0.522 -0.067,1.032 -0.2,1.527 C 3.526,-2.136 3.307,-1.694 3.003,-1.306 2.699,-0.917 2.299,-0.602 1.805,-0.362 1.307,-0.121 0.706,0 0,0 m -0.127,4.539 c 1.456,0 2.79,-0.225 3.999,-0.677 C 5.081,3.408 6.121,2.75 6.991,1.887 7.861,1.024 8.54,-0.033 9.028,-1.284 9.516,-2.537 9.759,-3.954 9.759,-5.538 9.759,-6.033 9.74,-6.437 9.697,-6.748 9.654,-7.059 9.576,-7.307 9.463,-7.49 9.349,-7.674 9.198,-7.802 9.007,-7.872 8.816,-7.943 8.572,-7.977 8.275,-7.977 H -4.413 c 0.212,-1.839 0.77,-3.173 1.675,-4 0.906,-0.827 2.073,-1.241 3.501,-1.241 0.765,0 1.422,0.092 1.973,0.275 0.552,0.184 1.043,0.39 1.475,0.616 0.431,0.226 0.827,0.431 1.188,0.615 0.361,0.184 0.738,0.276 1.135,0.276 0.523,0 0.919,-0.19 1.189,-0.573 l 1.909,-2.356 c -0.68,-0.777 -1.411,-1.41 -2.196,-1.898 -0.786,-0.489 -1.592,-0.871 -2.42,-1.146 -0.826,-0.277 -1.654,-0.467 -2.481,-0.574 -0.828,-0.106 -1.616,-0.158 -2.366,-0.158 -1.543,0 -2.989,0.251 -4.34,0.753 -1.35,0.502 -2.531,1.248 -3.543,2.237 -1.011,0.991 -1.81,2.223 -2.397,3.694 -0.587,1.47 -0.88,3.182 -0.88,5.133 0,1.471 0.25,2.865 0.752,4.181 0.502,1.315 1.225,2.468 2.165,3.458 0.94,0.99 2.079,1.774 3.415,2.355 1.338,0.58 2.848,0.869 4.532,0.869" />
          </g>
          <g
             transform="translate(273.6567,144.2347)"
             id="g154">
            <path
               inkscape:connector-curvature="0"
               id="path156"
               style="fill:#003f18;fill-opacity:1;fill-rule:nonzero;stroke:none"
               d="m 0,0 c -0.16,-0.193 -0.31,-0.346 -0.458,-0.457 -0.147,-0.116 -0.358,-0.171 -0.629,-0.171 -0.26,0 -0.496,0.062 -0.705,0.187 -0.209,0.124 -0.444,0.262 -0.703,0.416 -0.262,0.152 -0.567,0.29 -0.917,0.415 -0.351,0.124 -0.786,0.188 -1.307,0.188 -0.645,0 -1.202,-0.121 -1.672,-0.357 -0.47,-0.237 -0.857,-0.577 -1.162,-1.02 -0.305,-0.441 -0.532,-0.982 -0.679,-1.62 -0.147,-0.641 -0.221,-1.361 -0.221,-2.165 0,-1.685 0.325,-2.981 0.976,-3.885 0.651,-0.907 1.546,-1.359 2.69,-1.359 0.611,0 1.095,0.077 1.451,0.229 0.357,0.152 0.659,0.322 0.909,0.509 0.249,0.186 0.478,0.359 0.687,0.519 0.209,0.156 0.473,0.236 0.79,0.236 0.417,0 0.735,-0.152 0.949,-0.457 l 1.529,-1.886 c -0.544,-0.622 -1.116,-1.128 -1.715,-1.518 -0.599,-0.39 -1.214,-0.697 -1.841,-0.917 -0.628,-0.221 -1.26,-0.373 -1.893,-0.458 -0.634,-0.085 -1.25,-0.126 -1.85,-0.126 -1.075,0 -2.103,0.203 -3.081,0.61 -0.979,0.407 -1.839,0.998 -2.58,1.773 -0.741,0.776 -1.33,1.729 -1.766,2.861 -0.435,1.131 -0.653,2.421 -0.653,3.869 0,1.268 0.191,2.455 0.57,3.558 0.378,1.103 0.939,2.059 1.68,2.869 0.741,0.808 1.657,1.443 2.75,1.908 1.091,0.465 2.356,0.696 3.794,0.696 1.381,0 2.591,-0.221 3.632,-0.662 1.041,-0.441 1.98,-1.086 2.817,-1.934 z" />
          </g>
          <g
             transform="translate(284.8955,134.4409)"
             id="g158">
            <path
               inkscape:connector-curvature="0"
               id="path160"
               style="fill:#003f18;fill-opacity:1;fill-rule:nonzero;stroke:none"
               d="M 0,0 C 1.211,0 2.102,0.428 2.673,1.282 3.243,2.136 3.529,3.435 3.529,5.177 3.529,6.92 3.243,8.216 2.673,9.063 2.102,9.913 1.211,10.337 0,10.337 -1.244,10.337 -2.156,9.913 -2.733,9.063 -3.309,8.216 -3.599,6.92 -3.599,5.177 c 0,-1.742 0.29,-3.041 0.866,-3.895 C -2.155,0.428 -1.245,0 0,0 m 0,14.241 c 1.335,0 2.552,-0.21 3.649,-0.629 1.098,-0.418 2.039,-1.017 2.825,-1.8 C 7.263,11.032 7.873,10.085 8.308,8.97 8.744,7.855 8.963,6.603 8.963,5.21 8.963,3.807 8.745,2.543 8.308,1.417 7.873,0.29 7.263,-0.666 6.474,-1.451 5.688,-2.238 4.747,-2.843 3.649,-3.267 2.551,-3.692 1.334,-3.903 0,-3.903 c -1.347,0 -2.57,0.21 -3.675,0.636 -1.103,0.424 -2.054,1.029 -2.852,1.816 -0.797,0.787 -1.414,1.742 -1.85,2.868 -0.435,1.127 -0.653,2.391 -0.653,3.794 0,1.392 0.218,2.644 0.653,3.76 0.436,1.115 1.053,2.062 1.85,2.843 0.798,0.781 1.749,1.38 2.852,1.798 1.104,0.419 2.327,0.629 3.675,0.629" />
          </g>
          <path
             inkscape:connector-curvature="0"
             id="path162"
             style="fill:#003f18;fill-opacity:1;fill-rule:nonzero;stroke:none"
             d="m 301.224,130.808 h -5.263 v 25.409 h 5.263 z" />
          <g
             transform="translate(312.3571,134.4409)"
             id="g164">
            <path
               inkscape:connector-curvature="0"
               id="path166"
               style="fill:#003f18;fill-opacity:1;fill-rule:nonzero;stroke:none"
               d="M 0,0 C 1.212,0 2.102,0.428 2.673,1.282 3.244,2.136 3.53,3.435 3.53,5.177 3.53,6.92 3.244,8.216 2.673,9.063 2.102,9.913 1.211,10.337 0,10.337 -1.245,10.337 -2.154,9.913 -2.731,9.063 -3.309,8.216 -3.598,6.92 -3.598,5.177 -3.598,3.435 -3.309,2.136 -2.731,1.282 -2.154,0.428 -1.245,0 0,0 m 0,14.241 c 1.336,0 2.552,-0.21 3.65,-0.629 1.097,-0.418 2.039,-1.017 2.826,-1.8 C 7.262,11.032 7.873,10.085 8.309,8.97 8.745,7.855 8.962,6.603 8.962,5.21 8.962,3.807 8.745,2.543 8.309,1.417 7.874,0.29 7.263,-0.666 6.476,-1.451 5.689,-2.238 4.747,-2.843 3.65,-3.268 2.551,-3.693 1.335,-3.904 0,-3.904 c -1.346,0 -2.571,0.211 -3.675,0.636 -1.103,0.425 -2.053,1.03 -2.851,1.817 -0.798,0.785 -1.414,1.741 -1.85,2.868 -0.437,1.126 -0.653,2.39 -0.653,3.793 0,1.393 0.218,2.645 0.653,3.76 0.436,1.115 1.052,2.062 1.85,2.842 0.798,0.783 1.748,1.382 2.851,1.8 1.104,0.419 2.329,0.629 3.675,0.629" />
          </g>
          <g
             transform="translate(330.8441,140.5351)"
             id="g168">
            <path
               inkscape:connector-curvature="0"
               id="path170"
               style="fill:#003f18;fill-opacity:1;fill-rule:nonzero;stroke:none"
               d="M 0,0 C 0.871,0 1.502,0.217 1.892,0.653 2.283,1.089 2.477,1.651 2.477,2.342 2.477,3.054 2.283,3.615 1.892,4.021 1.502,4.43 0.871,4.633 0,4.633 -0.873,4.633 -1.503,4.43 -1.893,4.021 -2.283,3.615 -2.478,3.055 -2.478,2.342 -2.478,2.004 -2.43,1.691 -2.333,1.408 -2.238,1.125 -2.088,0.88 -1.883,0.671 -1.68,0.46 -1.424,0.297 -1.112,0.178 -0.802,0.06 -0.43,0 0,0 m 3.904,-10.372 c 0,0.284 -0.088,0.51 -0.264,0.679 -0.174,0.17 -0.413,0.306 -0.711,0.407 -0.3,0.103 -0.65,0.176 -1.053,0.221 -0.4,0.045 -0.835,0.08 -1.298,0.103 -0.467,0.022 -0.946,0.041 -1.444,0.059 -0.499,0.016 -0.99,0.054 -1.477,0.111 -0.328,-0.227 -0.596,-0.479 -0.806,-0.756 -0.208,-0.276 -0.315,-0.591 -0.315,-0.942 0,-0.249 0.054,-0.476 0.161,-0.679 0.108,-0.203 0.298,-0.378 0.569,-0.525 0.272,-0.148 0.637,-0.265 1.096,-0.35 0.457,-0.084 1.037,-0.127 1.739,-0.127 0.757,0 1.38,0.045 1.866,0.136 0.487,0.091 0.874,0.215 1.163,0.372 0.287,0.16 0.489,0.349 0.603,0.57 0.114,0.22 0.171,0.461 0.171,0.721 M 0,8.18 C 0.747,8.18 1.451,8.107 2.113,7.96 2.775,7.813 3.391,7.604 3.956,7.332 H 9.268 V 5.414 C 9.268,5.119 9.184,4.888 9.022,4.718 8.859,4.548 8.579,4.417 8.182,4.328 L 6.894,4.04 C 7.052,3.529 7.131,3.004 7.131,2.46 7.131,1.578 6.947,0.785 6.579,0.085 6.212,-0.618 5.707,-1.215 5.068,-1.707 4.43,-2.2 3.675,-2.578 2.803,-2.843 c -0.873,-0.267 -1.805,-0.4 -2.8,-0.4 -0.556,0 -1.076,0.035 -1.562,0.102 -0.386,-0.226 -0.58,-0.486 -0.58,-0.78 0,-0.295 0.156,-0.508 0.466,-0.637 0.312,-0.13 0.724,-0.222 1.232,-0.272 0.51,-0.05 1.093,-0.085 1.75,-0.1 0.655,-0.019 1.323,-0.058 2.002,-0.12 0.68,-0.062 1.348,-0.167 2.003,-0.314 0.657,-0.148 1.24,-0.384 1.75,-0.713 0.509,-0.327 0.919,-0.766 1.23,-1.315 0.312,-0.549 0.467,-1.248 0.467,-2.097 0,-0.791 -0.193,-1.566 -0.578,-2.324 -0.384,-0.759 -0.95,-1.431 -1.698,-2.02 -0.745,-0.588 -1.662,-1.061 -2.749,-1.419 -1.086,-0.356 -2.331,-0.535 -3.734,-0.535 -1.381,0 -2.572,0.131 -3.573,0.391 -1.002,0.262 -1.833,0.604 -2.495,1.028 -0.662,0.423 -1.151,0.914 -1.469,1.467 -0.317,0.555 -0.475,1.133 -0.475,1.732 0,0.781 0.238,1.439 0.712,1.977 0.476,0.538 1.127,0.959 1.953,1.264 -0.396,0.261 -0.714,0.594 -0.951,1.001 -0.237,0.408 -0.354,0.923 -0.354,1.545 0,0.26 0.043,0.535 0.133,0.824 0.091,0.288 0.233,0.568 0.424,0.839 0.194,0.272 0.436,0.534 0.73,0.781 0.294,0.249 0.645,0.47 1.052,0.664 -0.915,0.485 -1.637,1.131 -2.164,1.934 -0.525,0.804 -0.789,1.737 -0.789,2.801 0,0.883 0.187,1.678 0.561,2.385 0.373,0.706 0.885,1.307 1.536,1.799 0.651,0.492 1.418,0.87 2.3,1.136 C -1.987,8.048 -1.03,8.18 0,8.18" />
          </g>
          <path
             inkscape:connector-curvature="0"
             id="path172"
             style="fill:#003f18;fill-opacity:1;fill-rule:nonzero;stroke:none"
             d="m 347.959,130.808 h -5.263 v 17.601 h 5.263 z m 0.611,22.422 c 0,-0.419 -0.085,-0.813 -0.255,-1.18 -0.17,-0.367 -0.402,-0.689 -0.695,-0.967 -0.295,-0.279 -0.638,-0.498 -1.028,-0.661 -0.389,-0.165 -0.806,-0.246 -1.248,-0.246 -0.43,0 -0.832,0.081 -1.204,0.246 -0.374,0.163 -0.705,0.383 -0.994,0.661 -0.288,0.278 -0.515,0.599 -0.678,0.967 -0.164,0.367 -0.246,0.761 -0.246,1.18 0,0.43 0.083,0.832 0.246,1.206 0.163,0.372 0.39,0.7 0.678,0.983 0.289,0.283 0.62,0.504 0.994,0.662 0.372,0.159 0.774,0.238 1.204,0.238 0.442,0 0.858,-0.079 1.248,-0.238 0.392,-0.157 0.733,-0.378 1.028,-0.662 0.293,-0.283 0.525,-0.611 0.695,-0.983 0.17,-0.374 0.255,-0.776 0.255,-1.206" />
          <g
             transform="translate(358.2388,145.05)"
             id="g174">
            <path
               inkscape:connector-curvature="0"
               id="path176"
               style="fill:#003f18;fill-opacity:1;fill-rule:nonzero;stroke:none"
               d="m 0,0 c -1.005,0 -1.794,-0.286 -2.359,-0.858 -0.565,-0.572 -0.939,-1.394 -1.12,-2.47 h 6.568 c 0,0.419 -0.053,0.828 -0.161,1.223 C 2.82,-1.709 2.646,-1.356 2.402,-1.045 2.159,-0.734 1.839,-0.482 1.444,-0.289 1.049,-0.097 0.567,0 0,0 m -0.1,3.631 c 1.165,0 2.233,-0.18 3.198,-0.542 C 4.064,2.726 4.898,2.2 5.593,1.51 6.288,0.819 6.831,-0.027 7.223,-1.028 7.612,-2.028 7.807,-3.164 7.807,-4.432 7.807,-4.829 7.79,-5.15 7.756,-5.399 7.724,-5.648 7.661,-5.846 7.57,-5.993 7.479,-6.141 7.357,-6.243 7.205,-6.299 7.052,-6.355 6.856,-6.383 6.62,-6.383 H -3.531 c 0.171,-1.472 0.617,-2.538 1.341,-3.2 0.723,-0.662 1.658,-0.994 2.799,-0.994 0.613,0 1.14,0.074 1.579,0.221 0.443,0.145 0.835,0.312 1.181,0.492 0.346,0.181 0.662,0.345 0.948,0.492 0.291,0.147 0.592,0.221 0.909,0.221 0.419,0 0.737,-0.153 0.951,-0.458 l 1.528,-1.885 c -0.544,-0.622 -1.129,-1.128 -1.757,-1.519 -0.629,-0.39 -1.274,-0.694 -1.935,-0.915 -0.661,-0.221 -1.324,-0.373 -1.986,-0.459 -0.663,-0.085 -1.293,-0.126 -1.892,-0.126 -1.235,0 -2.391,0.2 -3.472,0.602 -1.081,0.402 -2.026,0.998 -2.836,1.791 -0.808,0.791 -1.448,1.776 -1.916,2.954 -0.47,1.176 -0.705,2.545 -0.705,4.107 0,1.177 0.199,2.293 0.602,3.344 0.402,1.052 0.978,1.975 1.733,2.766 0.751,0.793 1.662,1.42 2.733,1.885 1.072,0.464 2.279,0.695 3.626,0.695" />
          </g>
          <g
             transform="translate(252.2969,160.8589)"
             id="g178">
            <path
               inkscape:connector-curvature="0"
               id="path180"
               style="fill:#003f18;fill-opacity:1;fill-rule:nonzero;stroke:none"
               d="M 0,0 C -0.867,1.257 -2.916,1.215 -4.054,0.546 -7.74,-1.614 -9.222,-6.44 -9.321,-6.471 l 10e-4,-0.004 c 0.064,0.084 5.084,-0.226 8.4,2.472 1.026,0.836 1.786,2.747 0.92,4.002 z" />
          </g>
        </g>
      </g>
    </g>
  </g>
</svg>
