<?xml version="1.0" encoding="UTF-8" standalone="no"?>
<!-- Created with Inkscape (http://www.inkscape.org/) -->

<svg
   xmlns:dc="http://purl.org/dc/elements/1.1/"
   xmlns:cc="http://creativecommons.org/ns#"
   xmlns:rdf="http://www.w3.org/1999/02/22-rdf-syntax-ns#"
   xmlns:svg="http://www.w3.org/2000/svg"
   xmlns="http://www.w3.org/2000/svg"
   xmlns:sodipodi="http://sodipodi.sourceforge.net/DTD/sodipodi-0.dtd"
   xmlns:inkscape="http://www.inkscape.org/namespaces/inkscape"
   viewBox="0 0 437.62082 165.89375"
   version="1.1"
   id="svg8"
   inkscape:version="0.92.1 r15371"
   sodipodi:docname="MoDem logo.svg">
  <defs
     id="defs2" />
  <sodipodi:namedview
     id="base"
     pagecolor="#ffffff"
     bordercolor="#666666"
     borderopacity="1.0"
     inkscape:pageopacity="0.0"
     inkscape:pageshadow="2"
     inkscape:zoom="0.67882206"
     inkscape:cx="826.99997"
     inkscape:cy="77.797635"
     inkscape:document-units="px"
     inkscape:current-layer="layer1"
     showgrid="false"
     units="px"
     inkscape:showpageshadow="false"
     borderlayer="true"
     fit-margin-top="0"
     fit-margin-left="0"
     fit-margin-right="0"
     fit-margin-bottom="0"
     inkscape:window-width="1920"
     inkscape:window-height="1017"
     inkscape:window-x="-8"
     inkscape:window-y="-8"
     inkscape:window-maximized="1" />
  <metadata
     id="metadata5">
    <rdf:RDF>
      <cc:Work
         rdf:about="">
        <dc:format>image/svg+xml</dc:format>
        <dc:type
           rdf:resource="http://purl.org/dc/dcmitype/StillImage" />
        <dc:title></dc:title>
      </cc:Work>
    </rdf:RDF>
  </metadata>
  <g
     inkscape:label="Layer 1"
     inkscape:groupmode="layer"
     id="layer1"
     transform="translate(20.37291,-151.48682)">
    <rect
       style="fill:#f79a33;fill-opacity:1;stroke:none;stroke-width:0.0138439;stroke-linejoin:round;stroke-miterlimit:4;stroke-dasharray:none;stroke-dashoffset:0;stroke-opacity:1"
       id="rect4528"
       width="437.62082"
       height="165.89375"
       x="-20.372906"
       y="151.48682" />
    <path
       style="fill:#ffffff;fill-opacity:1;stroke-width:0.26490143"
       d="m 2.675237,234.43401 v -61.72317 h 61.589633 61.5896 v 61.71986 61.71985 l -61.5896,0.003 -61.589633,0.003 v -61.72317 z m 100.495683,42.38317 c 1.92676,-4.15236 4.86542,-10.52485 6.53033,-14.1611 2.73491,-5.9732 3.04685,-6.53579 3.23129,-5.82785 0.11229,0.43095 0.92287,6.26703 1.80129,12.96904 0.87843,6.70203 1.65009,12.33449 1.7148,12.51661 0.14142,0.398 6.63391,0.47941 6.87691,0.0862 0.0831,-0.1347 -0.0342,-1.47575 -0.26097,-2.98014 -0.22678,-1.50438 -0.82125,-5.53658 -1.32105,-8.96045 -0.49982,-3.42381 -1.51133,-10.33775 -2.24783,-15.36426 -0.7365,-5.0265 -1.63637,-11.2252 -1.9997,-13.77488 -0.89534,-6.28301 -0.77124,-5.87592 -1.76128,-5.77771 -0.82207,0.0816 -0.88746,0.2055 -6.81947,12.93005 -3.2942,7.06625 -6.81089,14.63582 -7.81486,16.82126 -1.00399,2.18543 -1.900901,4.06315 -1.993149,4.17269 -0.132219,0.157 -8.158365,-17.16317 -14.730842,-31.78869 -0.933636,-2.07759 -1.023942,-2.18544 -1.830013,-2.18544 H 81.69846 l -0.298782,2.053 c -0.164334,1.12913 -0.953127,6.22519 -1.752876,11.32454 -4.044791,25.7904 -5.183225,33.13707 -5.183225,33.449 0,0.26502 0.783176,0.3248 3.503145,0.26742 l 3.503138,-0.0739 1.861121,-13.02578 c 1.023612,-7.16419 1.921525,-13.08554 1.995357,-13.15857 0.07381,-0.073 0.604688,0.90113 1.179682,2.16482 0.574994,1.26369 1.426755,3.13203 1.892786,4.15191 0.466042,1.01987 2.177963,4.77485 3.80429,8.34439 6.558499,14.39503 6.126928,13.54465 6.829269,13.45692 0.554968,-0.0693 1.078735,-1.03487 4.138555,-7.62906 z m -81.804857,5.06075 c 4.467611,-0.92207 7.443547,-2.45832 10.744744,-5.54671 3.152185,-2.94898 5.214151,-6.42538 6.241422,-10.52277 0.697198,-2.78087 0.624834,-9.08285 -0.13634,-11.87299 -1.92164,-7.04404 -7.009902,-12.47791 -13.799318,-14.73664 -3.256721,-1.08345 -5.583491,-1.32217 -12.886291,-1.32217 H 5.0593453 v 22.25173 22.25173 l 6.9536887,-0.003 c 5.749673,-0.003 7.369093,-0.0892 9.353029,-0.4987 z m -9.154365,-21.74955 v -15.6292 l 2.980154,0.005 c 3.65273,0.006 6.112041,0.4965 8.543068,1.70515 4.494963,2.2348 7.252703,6.20245 8.071654,11.61297 1.008558,6.66322 -2.290418,13.34202 -8.030833,16.25852 -2.233683,1.13485 -4.958613,1.67714 -8.427585,1.67714 h -3.136458 z m 57.425584,19.00668 -0.0744,-3.24505 -8.543076,-0.0698 -8.543076,-0.0699 v -7.14867 -7.14867 h 8.344399 8.344395 v -3.31127 -3.31126 h -8.344391 -8.344399 v -5.16192 -5.16191 l 8.543066,-0.0698 8.543086,-0.0698 0.0744,-3.24506 0.0744,-3.24503 H 57.518045 45.324412 v 22.25173 22.25174 h 12.193633 12.19362 z M 51.463943,233.79809 c 0.04707,-0.20347 2.946587,-6.57942 6.443283,-14.16881 4.419559,-9.59237 6.414572,-13.65858 6.544383,-13.33872 0.16019,0.39472 2.309808,16.05481 3.135778,22.84433 0.423337,3.47991 0.06039,3.17881 3.832036,3.17881 1.882587,0 3.346937,-0.11188 3.440258,-0.26287 0.178194,-0.28831 0.116166,-0.77515 -1.4515,-11.39279 -1.431042,-9.69232 -2.741278,-18.63864 -4.073595,-27.81469 l -1.096191,-7.54968 H 67.36965 66.500915 l -3.396114,7.28479 c -1.867855,4.00664 -4.9188,10.56297 -6.779871,14.56959 -1.861064,4.00662 -3.921453,8.41726 -4.578626,9.80136 l -1.194875,2.51655 -0.344766,-0.7947 c -0.189615,-0.43708 -3.683933,-8.12586 -7.765146,-17.08614 l -7.4204,-16.29145 h -0.868673 -0.868656 l -2.034442,13.11263 c -1.118937,7.21194 -2.753979,17.70205 -3.633422,23.31133 -0.879452,5.60931 -1.506635,10.29196 -1.39374,10.40591 0.112896,0.11395 1.685553,0.17355 3.494787,0.13244 l 3.289508,-0.0748 0.456125,-2.91391 c 0.250871,-1.60265 1.055365,-7.20533 1.787761,-12.45037 0.732406,-5.24506 1.399621,-9.93897 1.482705,-10.4309 0.134332,-0.79535 0.873568,0.6941 6.672263,13.44374 6.306482,13.86612 6.545088,14.33822 7.24707,14.33822 0.403828,0 0.763885,-0.16413 0.81154,-0.36993 z m 53.728197,-1.49535 c 8.19035,-1.95351 14.60876,-8.21733 17.01111,-16.60142 0.84956,-2.96492 0.84956,-8.5787 0,-11.54362 -1.98349,-6.92222 -6.38627,-12.11724 -12.85452,-15.16751 -7.49603,-3.53495 -17.152126,-2.40413 -23.705668,2.77615 -5.762431,4.55494 -9.050013,11.05339 -9.05479,17.89827 -0.003,4.14181 0.820314,7.40418 2.87341,11.38727 1.598291,3.10076 5.209821,6.83988 8.379429,8.67543 2.172177,1.25793 5.43207,2.48867 7.549699,2.8503 2.498313,0.42666 7.44125,0.28804 9.80133,-0.27487 z m -8.476818,-6.24786 c -5.7617,-1.11166 -10.701332,-5.6552 -12.491204,-11.48959 -0.895085,-2.91767 -0.849159,-7.06137 0.108157,-9.75753 1.731615,-4.87697 4.95769,-8.23459 9.866462,-10.26881 1.753095,-0.72649 2.056772,-0.76766 5.562942,-0.75436 3.242941,0.0123 3.906201,0.0919 5.282341,0.63398 2.60812,1.02735 4.4686,2.27252 6.30646,4.22075 7.4246,7.87046 5.59139,20.26117 -3.79366,25.6414 -2.26398,1.29787 -3.97854,1.73538 -7.13289,1.82011 -1.675492,0.0448 -3.344381,0.0243 -3.708608,-0.046 z m 50.596178,56.47733 c -8.63955,-1.91768 -14.84818,-7.61626 -17.39368,-15.96475 -0.63034,-2.06735 -0.7137,-2.78574 -0.73173,-6.30664 -0.0237,-4.62949 0.28782,-6.11102 2.06094,-9.80137 2.84548,-5.92219 8.38458,-10.51996 14.88429,-12.3548 2.8292,-0.79869 8.29203,-0.86423 11.24644,-0.13494 4.47624,1.10493 9.33823,4.17501 12.32668,7.78358 1.65364,1.99673 3.8698,6.24945 4.52315,8.67968 0.57011,2.12059 0.78525,7.37693 0.38793,9.47806 -0.8674,4.58708 -2.75299,8.34619 -5.84988,11.66233 -3.37342,3.6122 -7.73684,6.061 -12.40457,6.96153 -2.32449,0.44846 -7.0234,0.44706 -9.04957,-0.003 z m 7.89199,-6.13173 c 6.81724,-1.39126 12.23981,-7.25479 12.9889,-14.04514 0.81024,-7.3448 -2.96277,-14.28262 -9.35768,-17.20688 -2.45997,-1.12489 -4.17182,-1.49697 -6.88743,-1.49697 -2.90386,0 -4.51245,0.38073 -7.2848,1.72419 -4.08329,1.97874 -7.4689,6.08721 -8.58673,10.42005 -0.53737,2.08288 -0.5468,6.37122 -0.0186,8.44919 1.14548,4.50625 4.62926,8.87881 8.60532,10.80069 3.45152,1.66834 6.85889,2.10632 10.54101,1.35487 z m 42.43931,6.13173 c -3.86107,-0.85702 -7.23606,-2.47334 -10.16226,-4.86676 -3.29472,-2.69489 -5.62977,-6.12269 -7.10113,-10.42432 -0.7577,-2.21519 -0.85909,-2.87124 -0.95934,-6.20729 -0.0963,-3.20704 -0.03,-4.06165 0.47328,-6.09274 2.00498,-8.09173 7.89958,-14.21621 16.08367,-16.71095 2.06472,-0.62939 2.77745,-0.71158 6.30156,-0.72665 3.44602,-0.0147 4.23727,0.0649 5.96029,0.60006 2.4015,0.74587 5.81047,2.47566 6.91818,3.51041 l 0.80927,0.75596 -0.0889,3.93031 -0.0889,3.93028 -2.17141,-1.89834 c -3.80204,-3.32388 -7.11072,-4.68173 -11.44335,-4.69623 -2.95892,-0.01 -4.84027,0.45427 -7.57736,1.86956 -2.21363,1.14462 -5.13756,3.96421 -6.47602,6.24493 -2.86047,4.8742 -3.09583,10.99809 -0.61217,15.92763 2.81259,5.58237 9.71696,9.56208 15.65559,9.02395 3.87049,-0.35075 7.60524,-2.01994 10.58847,-4.73241 2.19987,-2.00021 2.02917,-2.10316 2.12219,1.27974 0.0454,1.65674 0.002,3.54839 -0.0958,4.20367 -0.16944,1.12999 -0.26938,1.24484 -1.93868,2.22779 -2.21411,1.30375 -4.88202,2.36563 -7.15269,2.84692 -2.11894,0.44912 -7.03037,0.45156 -9.0445,0.004 z m 25.16565,-22.28968 v -22.15388 l 6.68878,0.10848 c 6.11586,0.0992 6.83623,0.16012 8.41061,0.71124 3.99381,1.39806 6.51679,3.96869 7.82713,7.97492 0.61026,1.86584 0.6295,5.67929 0.0385,7.62504 -1.23881,4.07836 -4.38586,7.18941 -8.35319,8.2577 -0.81645,0.21983 -1.07189,0.39701 -0.89806,0.62287 0.91336,1.18677 13.30622,18.70499 13.30622,18.80933 0,0.0719 -1.7187,0.14718 -3.81935,0.16716 l -3.81936,0.0363 -0.65716,-0.87173 c -0.36145,-0.47944 -1.97388,-2.77903 -3.58319,-5.11015 -1.60933,-2.33112 -4.1545,-6.00708 -5.65598,-8.16881 l -2.72993,-3.93039 -0.13245,8.96352 -0.13245,8.9635 -3.24504,0.0744 -3.24506,0.0744 z m 11.15593,-2.76555 c 3.17096,-0.59395 5.1387,-2.31405 5.66556,-4.95255 0.66241,-3.3174 -0.47065,-5.97888 -3.12278,-7.33522 -1.31869,-0.6744 -1.88748,-0.79361 -4.29798,-0.90083 l -2.77819,-0.12354 v 6.78971 6.78972 h 1.55326 c 0.85427,0 2.19535,-0.12028 2.98013,-0.26729 z m 17.0284,24.51725 c 0.0657,-0.15201 1.67052,-3.79296 3.56635,-8.09097 1.89583,-4.29803 6.35669,-14.43052 9.91302,-22.51665 l 6.46605,-14.70204 h 0.872 c 0.86323,0 0.88638,0.0333 2.30276,3.31127 6.03668,13.97094 18.09972,42.09664 18.09972,42.20068 0,0.0706 -1.55406,0.14621 -3.45345,0.16782 l -3.45345,0.0393 -0.87019,-1.93229 c -0.47859,-1.06276 -1.63646,-3.80654 -2.57304,-6.0973 l -1.70289,-4.16502 -8.51949,-0.007 -8.51948,-0.007 -2.58908,6.11205 -2.58911,6.112 -3.53458,-0.0741 c -2.32817,-0.0488 -3.49382,-0.16837 -3.41514,-0.35041 z m 26.33859,-18.24737 c -0.27099,-1.12337 -5.42194,-13.12795 -5.60898,-13.07204 -0.21949,0.0656 -5.73497,12.7662 -5.73497,13.20605 0,0.12156 2.57166,0.22103 5.71482,0.22103 4.64306,0 5.69872,-0.0666 5.62913,-0.35504 z m 19.91441,-0.46744 v -19.04514 h -5.16554 -5.16558 v -3.04637 -3.04638 h 13.50996 13.50997 v 3.04638 3.04637 h -5.16557 -5.16557 v 19.0833 19.08328 l -3.17883,-0.0382 -3.17884,-0.0382 z m 21.63367,18.92409 c -0.0971,-0.0971 -0.17662,-10.05082 -0.17662,-22.11929 v -21.94269 h 11.75976 c 10.47902,0 11.77729,0.0456 11.92059,0.41903 0.23415,0.61025 0.18924,4.9539 -0.0554,5.33879 -0.15634,0.24614 -2.296,0.34471 -8.62614,0.39736 l -8.41826,0.0699 -0.004,5.29802 -0.005,5.29803 8.36991,0.0699 8.36986,0.0699 v 3.03893 3.03893 l -8.35617,0.0699 -8.35617,0.0699 -0.007,7.28479 -0.007,7.2848 8.4159,0.0699 c 6.32832,0.0527 8.46752,0.1512 8.62384,0.39735 0.2439,0.38401 0.28164,4.55879 0.049,5.42668 l -0.15972,0.59604 H 330.6362 c -6.36935,0 -11.66009,-0.0795 -11.75722,-0.1766 z M 183.1189,232.77728 c -1.26565,-3.37084 -6.26294,-16.44417 -7.11343,-18.60933 -0.51506,-1.31128 -1.56666,-4.05301 -2.33687,-6.09276 -2.52012,-6.674 -7.5971,-19.86292 -7.72733,-20.07388 -0.07,-0.11346 1.50797,-0.17306 3.50665,-0.13246 l 3.63399,0.0738 1.24072,3.31126 c 0.68239,1.8212 3.18941,8.55633 5.57116,14.96694 2.38176,6.41062 4.37598,11.71182 4.43159,11.78044 0.19802,0.24431 0.56756,-0.69749 6.02654,-15.35927 l 5.52228,-14.83182 h 3.52946 3.52945 l -0.49031,1.25828 c -0.26966,0.69206 -4.27672,11.12255 -8.90457,23.1789 -8.37777,21.82549 -8.41749,21.9206 -9.1557,21.9206 -0.65153,0 -0.80477,-0.16866 -1.26363,-1.39074 z m 167.7283,-9.92135 c -5.95088,-6.22163 -13.07148,-13.67198 -15.82358,-16.55635 -2.75205,-2.88435 -5.10636,-5.24427 -5.23181,-5.24427 -0.12539,0 -0.228,6.97721 -0.228,15.50489 v 15.5049 l -3.24505,-0.0744 -3.24506,-0.0744 v -23.17891 c 0,-20.66366 0.044,-23.17887 0.40671,-23.17887 0.36064,0 4.60083,4.36624 23.41011,24.10603 2.77658,2.91392 5.9724,6.25168 7.10185,7.41725 l 2.05359,2.11921 0.004,-15.69543 0.004,-15.6954 h 3.31125 3.31128 v 23.17887 c 0,22.61854 -0.012,23.17891 -0.50473,23.17891 -0.31959,0 -4.47379,-4.14964 -11.32456,-11.31209 z m -91.59663,9.67567 c -0.34756,-0.77547 -2.31945,-5.10533 -4.38195,-9.6219 -2.06253,-4.51658 -4.71358,-10.32784 -5.89128,-12.91397 -1.1777,-2.58608 -2.2228,-4.70199 -2.32245,-4.70199 -0.0996,0 -0.988,5.69207 -1.9741,12.64904 -0.98611,6.95698 -1.85547,12.97688 -1.93193,13.37754 l -0.13902,0.72848 h -3.27816 c -1.80299,0 -3.27815,-0.0758 -3.27815,-0.16867 0,-0.0927 0.23561,-1.61264 0.5236,-3.3775 0.28798,-1.76486 1.30295,-8.21546 2.25549,-14.33468 0.95253,-6.11924 1.96243,-12.55634 2.2442,-14.30469 0.28178,-1.74835 0.89837,-5.71195 1.3702,-8.80799 l 0.85788,-5.62915 0.67897,0.003 c 0.7355,0.003 0.27583,-0.95377 12.56102,26.14302 2.06094,4.54571 3.83,8.18147 3.93127,8.0795 0.10125,-0.10197 1.51465,-3.04632 3.1409,-6.54302 1.62623,-3.49672 4.98121,-10.70866 7.4555,-16.02655 2.47433,-5.3179 4.67987,-10.11593 4.90113,-10.6623 0.33462,-0.82608 0.53141,-0.99337 1.16833,-0.99337 0.43334,0 0.76828,0.14379 0.77132,0.33113 0.003,0.18212 0.11345,1.04636 0.24568,1.92053 0.13221,0.87418 0.48382,3.25829 0.7814,5.29803 0.29762,2.03974 0.77977,5.3179 1.07146,7.2848 2.28613,15.41529 4.51865,30.87354 4.51865,31.28802 0,0.46259 -0.23953,0.50018 -3.18714,0.50018 -2.31148,0 -3.2189,-0.091 -3.30274,-0.33114 -0.0635,-0.18211 -0.83711,-5.81459 -1.7189,-12.5166 -1.86558,-14.17936 -1.82544,-13.90936 -2.06815,-13.90061 -0.10266,0.004 -3.13397,6.41099 -6.73623,14.23846 -7.28514,15.83003 -7.11496,15.56259 -8.2668,12.99269 z m -115.51525,0.043 c -6.60142,-0.90448 -11.95194,-5.66591 -13.24217,-11.78412 -0.319,-1.51257 -0.3919,-4.72246 -0.39567,-17.41727 l -0.005,-15.56297 h 3.30342 3.3034 l 0.0816,16.09276 c 0.0609,12.04439 0.16529,16.33989 0.41461,17.07508 0.52821,1.55765 2.69318,3.72156 4.60799,4.60574 1.48799,0.68711 1.95053,0.76959 4.31564,0.76959 2.3086,0 2.84032,-0.0898 4.13776,-0.69806 1.79103,-0.8398 3.54102,-2.36506 4.19319,-3.65475 0.99525,-1.96813 1.07306,-3.3438 1.07306,-18.97156 v -15.2188 h 3.32624 3.32624 l -0.094,16.09276 c -0.1028,17.60174 -0.0856,17.39662 -1.73244,20.72854 -0.9396,1.90112 -3.97916,4.93253 -6.01813,6.00203 -3.21561,1.68665 -7.1684,2.41076 -10.59605,1.94108 z m 62.91414,-22.64241 v -22.122 h 11.92056 11.92058 v 3.04636 3.04636 h -8.6093 -8.60931 v 5.43049 5.43048 h 8.34439 8.34441 l 1.2e-4,3.11258 1.3e-4,3.11261 h -8.27832 -8.27826 l -0.0703,7.48347 -0.0703,7.48348 h 8.62208 8.62212 l -0.0749,2.98014 -0.0749,2.98014 -11.85436,0.069 -11.85434,0.069 z m 83.97381,0 v -22.122 h 11.92057 11.92058 v 3.04636 3.04636 h -8.60933 -8.60931 v 5.43049 5.43048 h 8.34443 8.34438 v 3.04637 3.04638 h -8.34438 -8.34443 v 7.55647 7.55651 l 8.54309,-0.021 8.54308,-0.021 v 2.99441 2.99439 l -11.85433,0.0689 -11.85435,0.069 v -22.12202 z m 86.88771,3.05181 v -19.08109 h -5.16557 -5.16558 v -3.04636 -3.04636 h 13.50995 13.50999 v 3.04636 3.04636 l -5.09934,-3e-5 -5.09937,-3e-5 v 19.00673 19.00672 l -3.24503,0.0744 -3.24505,0.0744 z"
       id="path4524-4-5"
       inkscape:connector-curvature="0" />
  </g>
</svg>
