<svg xmlns="http://www.w3.org/2000/svg" xmlns:xlink="http://www.w3.org/1999/xlink" width="127" height="88" viewBox="0 0 127 88">
    <defs>
        <path id="a" d="M.25.289h96.224v4.963H.25z"/>
        <path id="c" d="M0 .314h57.865v61.038H0z"/>
    </defs>
    <g fill="none" fill-rule="evenodd">
        <g transform="translate(17.214 74.435)">
            <mask id="b" fill="#fff">
                <use xlink:href="#a"/>
            </mask>
            <path fill="#e4002b" d="M.25 4.019h.816V2.6h.597c.78 0 1.371-.263 1.371-1.116 0-.862-.638-1.104-1.408-1.104H.25V4.02zm.816-2.96h.419c.314 0 .701.052.701.426 0 .34-.287.438-.576.438h-.544v-.864zm2.273 2.96h.9l.309-.77h1.44l.319.77h.921L5.616.38h-.675L3.34 4.02zM5.71 2.57h-.906l.45-1.131.456 1.13zm2.544 1.448h.816V2.565h.404l.775 1.454h.978l-.941-1.537c.522-.092.799-.488.799-.997 0-.846-.638-1.104-1.397-1.104H8.254V4.02zm.816-2.96h.534c.299 0 .634.056.634.423 0 .395-.388.404-.686.404H9.07V1.06zm3.855 2.96h.816v-2.93h1.057V.382h-2.931v.709h1.058v2.929zm2.93 0h.817V.38h-.816V4.02zM23.325.823C23.01.427 22.487.29 22.074.29c-1.158 0-2 .745-2 1.91 0 1.168.842 1.912 2 1.912.507 0 1.031-.2 1.34-.632l-.681-.498a.892.892 0 0 1-.765.39c-.591 0-1.047-.493-1.047-1.171s.456-1.172 1.074-1.172c.304 0 .539.108.701.298l.628-.503zm.99 1.377c0 1.167.843 1.91 2 1.91s1.999-.743 1.999-1.91c0-1.166-.842-1.911-2-1.911-1.156 0-1.999.745-1.999 1.91zm.847 0c0-.678.456-1.172 1.153-1.172.696 0 1.152.494 1.152 1.172 0 .678-.456 1.172-1.152 1.172-.697 0-1.153-.494-1.153-1.172zm4.361 1.819h.816v-2.79h.011l.938 2.79h.622l.974-2.79h.01v2.79h.816V.38H32.48l-.859 2.374h-.01L30.757.38h-1.235V4.02zm5.595 0h.817v-2.79h.011l.937 2.79h.622l.974-2.79h.01v2.79h.816V.38h-1.229l-.858 2.374h-.01L36.352.38h-1.235V4.02zM43.837.38h-.815v2.205c0 .447-.314.786-.744.786-.434 0-.75-.339-.75-.786V.38h-.815v2.235c0 .859.534 1.495 1.565 1.495 1.027 0 1.56-.636 1.56-1.495V.381zm1.41 3.638h.815v-2.59h.012l1.617 2.59h1.067V.38h-.816V2.91h-.01L46.356.38h-1.11V4.02zm4.91 0h.816V.38h-.816V4.02zm4.605-3.35c-.314-.273-.716-.38-1.136-.38-.728 0-1.413.405-1.413 1.181 0 1.213 1.738.853 1.738 1.521 0 .258-.298.38-.566.38a.917.917 0 0 1-.712-.343l-.58.625c.35.32.77.458 1.245.458.765 0 1.429-.385 1.429-1.197 0-1.274-1.706-.847-1.706-1.511 0-.273.32-.375.55-.375.199 0 .46.077.592.242l.56-.6zm1.984 3.35h.816v-2.93h1.057V.382h-2.93v.709h1.057v2.929zm2.974 0h2.61v-.74h-1.794v-.745h1.606v-.74h-1.606v-.673h1.7V.38H59.72V4.02zm6.155 0h.816V2.6h1.544v-.74H66.69v-.74h1.67V.38h-2.486V4.02zm3.727 0h.816V2.565h.403l.775 1.454h.979l-.942-1.537c.523-.092.8-.488.8-.997 0-.846-.638-1.104-1.397-1.104h-1.434V4.02zm.816-2.96h.534c.298 0 .634.056.634.423 0 .395-.387.404-.687.404h-.481V1.06zm2.848 2.96h.9l.31-.77h1.438l.319.77h.922L75.542.38h-.675l-1.6 3.638zm2.37-1.448h-.904l.45-1.131.454 1.13zm2.545 1.448h.816v-2.59h.01l1.618 2.59h1.068V.38h-.816V2.91h-.011L79.29.38h-1.11V4.02zm6.684 0h-.35l-.326.478.169.148a.48.48 0 0 1 .188-.04c.105 0 .262.051.262.174 0 .134-.184.165-.346.165-.178 0-.32-.056-.403-.088l-.131.242c.184.086.445.154.655.154.266 0 .726-.123.726-.498 0-.38-.35-.426-.658-.426l.214-.31zM86.152.823C85.84.427 85.315.29 84.902.29c-1.158 0-2 .745-2 1.91 0 1.168.842 1.912 2 1.912.507 0 1.031-.2 1.34-.632l-.681-.498a.892.892 0 0 1-.765.39c-.59 0-1.046-.493-1.046-1.171s.455-1.172 1.074-1.172c.303 0 .538.108.7.298l.628-.503zm.808 3.196h.9l.307-.77h1.44l.319.77h.922L89.235.38h-.675l-1.6 3.638zm2.37-1.448h-.905l.45-1.131.454 1.13zm2.533 1.448h.816V.38h-.816V4.02zM96.47.669c-.314-.273-.717-.38-1.135-.38-.728 0-1.413.405-1.413 1.181 0 1.213 1.737.853 1.737 1.521 0 .258-.299.38-.565.38a.916.916 0 0 1-.712-.343l-.581.625c.35.32.769.458 1.246.458.765 0 1.428-.385 1.428-1.197 0-1.274-1.706-.847-1.706-1.511 0-.273.32-.375.55-.375.2 0 .461.077.591.242l.56-.6z" mask="url(#b)"/>
        </g>
        <g transform="translate(7 6.164)">
            <mask id="d" fill="#fff">
                <use xlink:href="#c"/>
            </mask>
            <path fill="#e4002b" d="M57.865 27.245c-13.957 3.711-20.92-2.665-20.92-2.665-5.369-4.407-5.187-10.444-5.187-10.444C44.076 12.053 43.072.545 43.072.545 36.634-.626 32.575 3.03 32.575 3.03c-6.726 5.12-4.622 13.928-4.622 13.928.985 5.56 4.74 9.212 4.74 9.212 6.682 6.412 14.2 6.085 14.2 6.085l-8.924 8.526 2.278 13.035-11.919-6.16-11.939 6.16 2.28-13.035-9.652-9.237 13.315-1.89 3.405-6.565c-1.409-2.515-1.802-5.601-1.802-5.601l-4.352 8.388L0 28.668l14.159 13.548-3.342 19.131 17.5-9.032 17.502 9.037-3.342-19.136 15.388-14.97zM38.195 4.763s-1.219 3.762-5.652 4.954c0 0 1.266-3.66 5.653-4.954z" mask="url(#d)"/>
        </g>
        <path fill="#e4002b" d="M62.433 68.03h4.316v-7.497h3.155c4.123 0 7.25-1.385 7.25-5.894 0-4.563-3.375-5.84-7.444-5.84h-7.277V68.03zm4.316-15.645h2.215c1.66 0 3.707.271 3.707 2.254 0 1.793-1.521 2.309-3.043 2.309h-2.879v-4.563zm29.525-1.25c-1.66-2.091-4.427-2.825-6.614-2.825-6.115 0-10.57 3.94-10.57 10.105 0 6.166 4.455 10.104 10.57 10.104 2.685 0 5.452-1.06 7.085-3.34l-3.598-2.635c-.884 1.303-2.296 2.064-4.04 2.064-3.126 0-5.533-2.607-5.533-6.193 0-3.585 2.407-6.193 5.672-6.193 1.605 0 2.85.57 3.708 1.576l3.32-2.663zm3.265 16.895h4.317v-7.497h8.164v-3.911h-8.164V52.71h8.827V48.8H99.54v19.23z"/>
    </g>
</svg>
