<?xml version="1.0" encoding="utf-8"?>
<!-- Generator: Adobe Illustrator 18.1.1, SVG Export Plug-In . SVG Version: 6.00 Build 0)  -->
<!DOCTYPE svg PUBLIC "-//W3C//DTD SVG 1.1//EN" "http://www.w3.org/Graphics/SVG/1.1/DTD/svg11.dtd">
<svg version="1.1" id="logo" xmlns="http://www.w3.org/2000/svg" xmlns:xlink="http://www.w3.org/1999/xlink" x="0px" y="0px"
	 viewBox="0 0 1559.1 1559.1" enable-background="new 0 0 1559.1 1559.1" xml:space="preserve">
<g>
	<path fill="#E50040" d="M232.3,1221.8c-4.4-3.2-10-4.8-16.8-4.8c-2.8,0-5.5,0.3-8.2,0.8c-2.7,0.6-5.1,1.5-7.1,2.8
		c-2.1,1.3-3.7,3-5,5.2c-1.2,2.2-1.9,4.9-1.9,8.1c0,3,0.9,5.5,2.7,7.4c1.8,1.9,4.2,3.4,7.2,4.6c3,1.2,6.4,2.2,10.2,3
		c3.8,0.8,7.6,1.6,11.6,2.6c3.9,0.9,7.8,2,11.6,3.3c3.8,1.2,7.2,2.9,10.2,5c3,2.1,5.4,4.8,7.2,8c1.8,3.2,2.7,7.3,2.7,12.2
		c0,5.3-1.2,9.8-3.5,13.5c-2.4,3.7-5.4,6.8-9.1,9.1c-3.7,2.4-7.8,4.1-12.4,5.1s-9.1,1.6-13.6,1.6c-5.5,0-10.8-0.7-15.7-2.1
		c-4.9-1.4-9.3-3.5-13-6.3c-3.7-2.8-6.7-6.4-8.9-10.8c-2.2-4.4-3.3-9.6-3.3-15.6h12.5c0,4.2,0.8,7.7,2.4,10.7c1.6,3,3.7,5.5,6.4,7.4
		c2.6,1.9,5.7,3.4,9.2,4.3c3.5,0.9,7.1,1.4,10.8,1.4c3,0,5.9-0.3,8.9-0.8c3-0.6,5.7-1.5,8.1-2.8c2.4-1.3,4.3-3.2,5.8-5.5
		c1.5-2.3,2.2-5.3,2.2-8.9c0-3.4-0.9-6.2-2.7-8.3c-1.8-2.1-4.2-3.9-7.2-5.2s-6.4-2.4-10.2-3.3c-3.8-0.8-7.6-1.7-11.6-2.6
		c-3.9-0.9-7.8-1.9-11.6-3c-3.8-1.2-7.2-2.7-10.2-4.6c-3-1.9-5.4-4.3-7.2-7.3c-1.8-3-2.7-6.8-2.7-11.3c0-5,1-9.3,3.1-12.9
		c2-3.6,4.7-6.6,8.1-9c3.4-2.4,7.2-4.1,11.5-5.3c4.3-1.1,8.7-1.7,13.2-1.7c5.1,0,9.8,0.6,14.1,1.8c4.3,1.2,8.2,3.1,11.4,5.7
		c3.3,2.6,5.9,5.8,7.8,9.8c1.9,3.9,2.9,8.6,3.1,14H240C239.3,1230.1,236.7,1225,232.3,1221.8z"/>
	<path fill="#E50040" d="M270,1238.2c2-6.2,5-11.7,8.9-16.5c4-4.8,8.9-8.6,14.8-11.5c5.9-2.9,12.8-4.3,20.6-4.3
		c7.8,0,14.7,1.4,20.6,4.3c5.9,2.9,10.9,6.7,14.8,11.5c4,4.8,6.9,10.3,8.9,16.5c2,6.2,3,12.7,3,19.4s-1,13.2-3,19.4
		c-2,6.2-5,11.7-8.9,16.5c-4,4.8-8.9,8.6-14.8,11.4c-5.9,2.8-12.8,4.2-20.6,4.2c-7.9,0-14.7-1.4-20.6-4.2
		c-5.9-2.8-10.9-6.6-14.8-11.4c-4-4.8-7-10.3-8.9-16.5c-2-6.2-3-12.7-3-19.4S268,1244.5,270,1238.2z M282.1,1272.4
		c1.3,4.8,3.3,9.2,6.1,13.1c2.8,3.9,6.3,7,10.7,9.3c4.3,2.4,9.5,3.5,15.5,3.5c6,0,11.2-1.2,15.5-3.5c4.3-2.4,7.9-5.5,10.7-9.3
		c2.8-3.9,4.8-8.2,6.1-13.1c1.3-4.8,1.9-9.8,1.9-14.7c0-5-0.6-9.9-1.9-14.7c-1.3-4.8-3.3-9.2-6.1-13.1c-2.8-3.9-6.3-7-10.7-9.3
		c-4.3-2.4-9.5-3.5-15.5-3.5c-6,0-11.2,1.2-15.5,3.5c-4.3,2.4-7.9,5.5-10.7,9.3c-2.8,3.9-4.8,8.2-6.1,13.1
		c-1.3,4.8-1.9,9.8-1.9,14.7C280.2,1262.7,280.8,1267.6,282.1,1272.4z"/>
	<path fill="#E50040" d="M437.6,1222.3c-5-3.5-11-5.3-17.9-5.3c-5.9,0-11,1.1-15.2,3.3c-4.2,2.2-7.7,5.2-10.4,8.9
		c-2.7,3.7-4.7,8-6,12.8s-1.9,9.8-1.9,14.9c0,5.6,0.6,11,1.9,16c1.3,5,3.3,9.4,6,13.1c2.7,3.7,6.2,6.7,10.5,8.9
		c4.2,2.2,9.3,3.3,15.2,3.3c4.3,0,8.2-0.7,11.6-2.1c3.4-1.4,6.3-3.4,8.7-6c2.4-2.5,4.4-5.6,5.7-9.1c1.4-3.5,2.2-7.3,2.5-11.3h13.2
		c-1.3,12.5-5.6,22.1-12.9,29.1c-7.3,6.9-17.3,10.4-29.9,10.4c-7.7,0-14.4-1.3-20.1-3.9c-5.7-2.6-10.5-6.2-14.3-10.9
		c-3.8-4.6-6.6-10.1-8.5-16.3c-1.9-6.3-2.8-13-2.8-20.2c0-7.2,1-14,3.1-20.3c2-6.3,5-11.8,8.9-16.5c3.9-4.7,8.8-8.4,14.7-11.1
		c5.9-2.7,12.6-4.1,20.2-4.1c5.2,0,10.1,0.7,14.7,2.1c4.6,1.4,8.7,3.4,12.3,6.1c3.6,2.7,6.6,6,9,10c2.4,4,4,8.6,4.7,13.9h-13.2
		C445.9,1231,442.7,1225.8,437.6,1222.3z"/>
	<path fill="#E50040" d="M491.6,1208.3v98.8h-13.2v-98.8H491.6z"/>
	<path fill="#E50040" d="M555.2,1208.3l38.7,98.8h-14.5l-10.8-29.7h-41.8l-11.1,29.7h-13.4l38.5-98.8H555.2z M564.3,1266.3
		l-16.5-46.1h-0.3l-16.8,46.1H564.3z"/>
	<path fill="#E50040" d="M616.7,1208.3v87.7h52.4v11.1h-65.5v-98.8H616.7z"/>
	<path fill="#E50040" d="M716.7,1263.1v11.1h-40v-11.1H716.7z"/>
	<path fill="#E50040" d="M807.2,1208.3v18.3H755v21.2h47.9v16.9H755v24.2h53.3v18.3h-75.1v-98.8H807.2z M772.8,1175l-14.7,24.5h13.7
		l22.6-24.5H772.8z"/>
	<path fill="#E50040" d="M886.4,1234.6c-1.3-2.1-2.9-3.9-4.8-5.5c-1.9-1.6-4.1-2.8-6.6-3.7s-5-1.3-7.7-1.3c-4.9,0-9.1,0.9-12.5,2.8
		c-3.4,1.9-6.2,4.4-8.3,7.6s-3.7,6.8-4.6,10.9c-1,4.1-1.5,8.3-1.5,12.6c0,4.1,0.5,8.2,1.5,12.1c1,3.9,2.5,7.4,4.6,10.6
		s4.9,5.6,8.3,7.5c3.4,1.9,7.6,2.8,12.5,2.8c6.6,0,11.8-2,15.6-6.1c3.7-4.1,6-9.4,6.9-16.1h21.1c-0.6,6.2-2,11.8-4.3,16.7
		c-2.3,5-5.4,9.2-9.1,12.7c-3.8,3.5-8.2,6.2-13.3,8c-5.1,1.8-10.7,2.8-16.8,2.8c-7.6,0-14.4-1.3-20.4-3.9c-6-2.6-11.2-6.2-15.3-10.9
		c-4.2-4.6-7.3-10-9.6-16.3c-2.2-6.2-3.3-12.9-3.3-20.1c0-7.4,1.1-14.2,3.3-20.5c2.2-6.3,5.4-11.8,9.6-16.5
		c4.2-4.7,9.3-8.4,15.3-11.1c6-2.7,12.9-4,20.4-4c5.4,0,10.6,0.8,15.4,2.4c4.8,1.6,9.2,3.9,13,6.9c3.8,3,7,6.7,9.5,11.1
		c2.5,4.4,4.1,9.5,4.7,15.2h-21.1C888.6,1239,887.7,1236.7,886.4,1234.6z"/>
	<path fill="#E50040" d="M924.7,1237.6c2.2-6.3,5.4-11.8,9.6-16.5c4.2-4.7,9.3-8.4,15.3-11.1c6-2.7,12.9-4,20.4-4
		c7.7,0,14.5,1.3,20.5,4c6,2.7,11.1,6.4,15.2,11.1c4.2,4.7,7.3,10.2,9.6,16.5c2.2,6.3,3.3,13.2,3.3,20.5c0,7.2-1.1,13.9-3.3,20.1
		c-2.2,6.2-5.4,11.6-9.6,16.3c-4.2,4.6-9.2,8.2-15.2,10.9c-6,2.6-12.8,3.9-20.5,3.9c-7.6,0-14.4-1.3-20.4-3.9
		c-6-2.6-11.2-6.2-15.3-10.9c-4.2-4.6-7.3-10-9.6-16.3c-2.2-6.2-3.3-12.9-3.3-20.1C921.4,1250.7,922.5,1243.9,924.7,1237.6z
		 M944.6,1270.2c1,3.9,2.5,7.4,4.6,10.6c2.1,3.1,4.9,5.6,8.3,7.5c3.4,1.9,7.6,2.8,12.5,2.8c4.9,0,9-0.9,12.5-2.8
		c3.4-1.9,6.2-4.4,8.3-7.5c2.1-3.1,3.7-6.7,4.6-10.6c1-3.9,1.5-8,1.5-12.1c0-4.3-0.5-8.5-1.5-12.6c-1-4.1-2.5-7.7-4.6-10.9
		c-2.1-3.2-4.9-5.7-8.3-7.6c-3.4-1.9-7.6-2.8-12.5-2.8c-4.9,0-9.1,0.9-12.5,2.8c-3.4,1.9-6.2,4.4-8.3,7.6c-2.1,3.2-3.7,6.8-4.6,10.9
		c-1,4.1-1.5,8.3-1.5,12.6C943.1,1262.3,943.6,1266.3,944.6,1270.2z"/>
	<path fill="#E50040" d="M1055.2,1208.3v80.5h48.2v18.3h-70v-98.8H1055.2z"/>
	<path fill="#E50040" d="M1114.6,1237.6c2.2-6.3,5.4-11.8,9.6-16.5c4.2-4.7,9.3-8.4,15.3-11.1c6-2.7,12.9-4,20.4-4
		c7.7,0,14.5,1.3,20.5,4c6,2.7,11.1,6.4,15.2,11.1c4.2,4.7,7.3,10.2,9.6,16.5c2.2,6.3,3.3,13.2,3.3,20.5c0,7.2-1.1,13.9-3.3,20.1
		c-2.2,6.2-5.4,11.6-9.6,16.3c-4.2,4.6-9.2,8.2-15.2,10.9c-6,2.6-12.8,3.9-20.5,3.9c-7.6,0-14.4-1.3-20.4-3.9
		c-6-2.6-11.2-6.2-15.3-10.9c-4.2-4.6-7.3-10-9.6-16.3c-2.2-6.2-3.3-12.9-3.3-20.1C1111.3,1250.7,1112.4,1243.9,1114.6,1237.6z
		 M1134.5,1270.2c1,3.9,2.5,7.4,4.6,10.6c2.1,3.1,4.9,5.6,8.3,7.5c3.4,1.9,7.6,2.8,12.5,2.8c4.9,0,9-0.9,12.5-2.8
		c3.4-1.9,6.2-4.4,8.3-7.5c2.1-3.1,3.7-6.7,4.6-10.6c1-3.9,1.5-8,1.5-12.1c0-4.3-0.5-8.5-1.5-12.6c-1-4.1-2.5-7.7-4.6-10.9
		c-2.1-3.2-4.9-5.7-8.3-7.6c-3.4-1.9-7.6-2.8-12.5-2.8c-4.9,0-9.1,0.9-12.5,2.8c-3.4,1.9-6.2,4.4-8.3,7.6c-2.1,3.2-3.7,6.8-4.6,10.9
		c-1,4.1-1.5,8.3-1.5,12.6C1133.1,1262.3,1133.5,1266.3,1134.5,1270.2z"/>
	<path fill="#E50040" d="M1282,1306.3c-4.7,2-9.5,3-14.3,3c-7.6,0-14.4-1.3-20.4-3.9c-6-2.6-11.2-6.2-15.3-10.9
		c-4.2-4.6-7.3-10-9.6-16.3c-2.2-6.2-3.3-12.9-3.3-20.1c0-7.4,1.1-14.2,3.3-20.5c2.2-6.3,5.4-11.8,9.6-16.5
		c4.2-4.7,9.3-8.4,15.3-11.1c6-2.7,12.9-4,20.4-4c5.1,0,10,0.8,14.8,2.3c4.8,1.5,9,3.8,12.9,6.7c3.8,2.9,7,6.6,9.5,10.9
		c2.5,4.3,4,9.3,4.6,14.9h-20.8c-1.3-5.5-3.8-9.7-7.5-12.5c-3.7-2.8-8.2-4.2-13.4-4.2c-4.9,0-9.1,0.9-12.5,2.8
		c-3.4,1.9-6.2,4.4-8.3,7.6c-2.1,3.2-3.7,6.8-4.6,10.9c-1,4.1-1.5,8.3-1.5,12.6c0,4.1,0.5,8.2,1.5,12.1c1,3.9,2.5,7.4,4.6,10.6
		c2.1,3.1,4.9,5.6,8.3,7.5c3.4,1.9,7.6,2.8,12.5,2.8c7.2,0,12.8-1.8,16.7-5.5c3.9-3.6,6.2-8.9,6.9-15.8h-21.9v-16.2h41.6v53.4h-13.9
		l-2.2-11.2C1291,1300.9,1286.7,1304.3,1282,1306.3z"/>
	<path fill="#E50040" d="M1350.3,1208.3v98.8h-21.8v-98.8H1350.3z"/>
	<path fill="#E50040" d="M1443.4,1208.3v18.3h-52.2v21.2h47.9v16.9h-47.9v24.2h53.3v18.3h-75.1v-98.8H1443.4z"/>
</g>
<path fill="#E50040" d="M1159.8,1114.7l0.8-80.8c34.9,18.5,89,30.6,124.9,30.6c43.7,0,61.9-13.3,61.9-39.7c0-27-20.9-35-70.5-47.1
	c-54.4-13.2-122-28.8-122-117.2c0-80.5,57.5-125.6,157.2-125.6c49.7,0,83.3,6.4,110.7,13.5l-6.6,70.9c-24.8-6-59.8-12-96.5-12
	c-51.7,0-69.7,14.1-69.7,40.6c0,26.3,22.8,36.7,68.5,48.1c92.9,23.2,124.6,56.1,124.6,118.4c0,80.3-66.3,124.5-158.6,124.5
	C1238,1138.9,1198.3,1130.7,1159.8,1114.7z"/>
<g>
	<path fill="#C4CF00" d="M942.8,736.6c69.8,0,137,5.6,168.9,56.7c145.4-220,157.6-472.1,157.6-472.1
		C952,265.9,734,308.6,584.3,396.8c4.1,11.9,6.3,24.7,6.3,38c0,12.4-1.9,24.4-5.4,35.6c15.2,19.9,24.3,44.9,24.3,72
		c0,15.6-3.2,30.6-8.8,44.5c4.8,1.3,9.6,2.8,14,4.3c0.5,0.3,1.1,0.5,1.7,0.7c0.2,0.1,0.2,0.1,0.3,0.2c9.2,3.5,17.6,7.5,25.4,11.8
		C763.4,553.1,859,547.6,859,547.6c-63.9,24.9-121,55.7-172.1,89.9c13,13,20.1,23.5,21.5,25.6v0.1l0.2,0.2c0.6,0.7,0.9,1.4,1.2,2
		c0,0.1,0,0.4,0.1,0.5c0.1,0.7,0.4,1.3,0.4,1.9c0.2,0.3,0.2,0.5,0.4,0.8c0.2,1.6,0.2,3.4,0,5c-0.2,0.3-0.2,0.5-0.4,0.7
		c0,0.6-0.3,1.2-0.4,1.8c-0.1,0.3-0.1,0.4-0.1,0.6c-0.3,0.5-0.7,1.2-1.2,2c0,0-0.1,0.1-0.2,0.2c0,0,0,0,0,0.1
		c-1.9,2.9-14.8,22.3-39.9,41.9c-11.4,8.8-25.1,17.6-41.5,24.9c-0.5,0.2-0.9,0.4-1.2,0.5c-11.6,5.1-24.7,9.5-39.1,12.3
		c28.7,20.6,50,51,59,86.3h58.9c3.8,0,7.3,1.6,10.1,4.1c2.6,2.7,4.1,6.4,4.1,10.1v224.3c35-9.9,67.7-22,98.4-35.7V736.6H942.8z"/>
</g>
<g>
	<path fill="#E50040" d="M914.7,1134.8h-97.6V736.6h125.7c96.6,0,188.2,10.6,188.2,137.6c0,124.7-104.4,156.5-216.3,143.4V1134.8
		L914.7,1134.8z M914.7,804.9V950c86.9,5.2,116.1-14.2,116.1-75.2c0-52.9-27.2-69.9-78.1-69.9H914.7L914.7,804.9z"/>
</g>
<g>
	<path d="M714.6,849c-2.7-2.5-6.3-4.1-10.1-4.1h-58.9c-9-35.3-30.3-65.7-59-86.3c14.5-2.8,27.5-7.2,39.1-12.3
		c0.4-0.1,0.7-0.3,1.2-0.5c16.4-7.3,30.1-16.1,41.5-24.9c25.1-19.6,38-39,39.9-41.9c0-0.1,0-0.1,0-0.1c0.1-0.1,0.2-0.2,0.2-0.2
		c0.6-0.8,0.9-1.5,1.2-2c0-0.2,0-0.3,0.1-0.6c0.1-0.6,0.4-1.2,0.4-1.8c0.2-0.2,0.2-0.5,0.4-0.7c0.2-1.7,0.2-3.4,0-5
		c-0.2-0.3-0.2-0.4-0.4-0.8c0-0.5-0.3-1.2-0.4-1.9c-0.1-0.1-0.1-0.4-0.1-0.5c-0.3-0.6-0.7-1.3-1.2-2l-0.2-0.2v-0.1
		c-1.9-3-14.8-22.3-39.9-42c-13.7-10.7-31-21.2-51.8-29c-0.1-0.1-0.1-0.1-0.3-0.2c-0.6-0.3-1.1-0.4-1.7-0.7c-4.5-1.5-9.2-3.1-14-4.3
		c5.5-13.9,8.8-28.9,8.8-44.5c0-27.1-9.1-52-24.3-72c3.5-11.2,5.4-23.2,5.4-35.6c0-54.3-36.8-99.9-86.7-113.2
		c-13.8-41.9-53.1-72-99-72c-44.2,0-82.1,27.7-97.3,66.8c-3.5-0.4-7.1-0.6-10.7-0.6c-57.6,0-104.6,47.1-104.7,105.5
		c0,13.1,2.4,25.7,7,37.5c-27.1,19.7-45,52-45,88.3c0,36.3,17.9,68.6,45,88.4c-1.7,0.6-3.4,1.3-5,1.8c-0.2,0-0.5,0-0.6,0.2
		c0,0-0.4,0.1-0.4,0.1c-19.4,7.2-35.6,17-48.1,26.9c-23.2,17.9-34.9,35.6-36.7,38.4c-0.1,0.2-0.1,0.3-0.3,0.4
		c-0.3,0.6-0.6,1.2-1,1.9c-0.1,0.2-0.1,0.5-0.1,0.7c-0.5,0.5-0.5,1.2-0.8,1.9v0.5c-0.4,1.7-0.4,3.4,0,5.2v0.6
		c0.3,0.7,0.3,1.3,0.8,1.9c0,0.2,0,0.4,0.1,0.6c0.4,0.6,0.7,1.3,1,1.9c0.2,0.1,0.2,0.1,0.3,0.3c1.7,2.8,13.5,20.6,36.7,38.5
		c10.5,8.3,23.5,16.5,39,23.4c9.1,3.9,18.8,7.3,29.3,9.9l-49.6,12.6c-26.6,7.1-44.1,31.1-44.1,57.5c0,4.9,0.6,9.9,1.9,14.9
		c3.3,12.6,10.2,23.1,19.4,30.7c-15,11.2-24.3,28.8-24.3,48.1c0,4.9,0.6,10,1.9,15.1c4,15.2,13.5,27.4,25.6,35.3
		c-9.3,10.7-14.8,24.6-14.8,39.4c0,4.9,0.6,9.9,1.9,15.1c5.9,23.3,24.8,39.6,47,43.3c-1.5,4.7-2.2,9.7-2.2,14.8
		c0,4.1,0.3,8.2,1.4,12.3c5.6,22.2,25.5,37,47.3,37c4,0,8.1-0.4,12.1-1.6l96.4-24.5c33,24.4,73.6,38.9,117.8,38.9
		c58.3-0.1,111.1-25.4,147.6-65.9h105.8c3.8,0,7.3-1.6,10.1-4.1c2.6-2.6,4.1-6.4,4.1-10.2v-240C718.6,855.5,717.2,851.7,714.6,849z
		 M330.2,1111.9l-100.1,25.6c-1.9,0.6-3.6,0.7-5.3,0.7c-9.2,0-17.6-6.2-20.1-15.7c-0.6-1.8-0.6-3.5-0.6-5.3c0-9.2,6-17.7,15.6-20.2
		l100-25.5c2.1-0.4,3.6-0.7,5.2-0.7c9.3,0,17.9,6.3,20.1,15.6c0.5,1.7,0.7,3.6,0.7,5.3C345.8,1100.9,339.6,1109.4,330.2,1111.9z
		 M323.3,1041l-127.5,32.8c-2.7,0.7-5.5,1-7.8,1c-13.6,0-26.1-9.1-29.6-23c-0.7-2.6-1.1-5.3-1.1-7.8c0-13.7,9.2-26.2,22.9-29.8
		l9.8-2.5c0-0.1,0.3-0.1,0.3-0.1l117.5-30.2c2.8-0.6,5.5-1,8-1c13.4,0,25.9,9.2,29.4,23c0.6,2.7,0.9,5.2,1.1,7.9
		C346.1,1024.8,337.1,1037.5,323.3,1041z M346.1,921.2c-1.4,12.5-9.8,23.5-22.9,26.9l-22.4,5.7l-117.8,30.3
		c-2.6,0.7-5.2,0.9-7.8,0.9c-13.4,0-25.8-9-29.5-22.9c-0.6-2.8-0.8-5.3-0.8-7.8c0-13.7,9-26.2,22.7-29.9l21.5-5.5
		c1.4-0.2,2.8-0.5,4.1-0.9l116-29.9c2.3-0.4,4.4-0.7,6.7-0.7c13.4,0,25.9,9.1,29.4,23c0.6,1.8,0.6,3.8,0.9,5.7
		c0,0.6,0.2,1.5,0.2,2.1C346.3,919.2,346.1,920.2,346.1,921.2z M346.1,832.3c-2.6,10.8-10.8,19.8-22.1,22.8l-20.4,5.2
		c-1,0.3-1.9,0.5-3,0.7l-116.8,30c-2.1,0.3-3.7,0.6-5.4,0.6c-13.5,0-26.1-9.3-29.8-23.1c-0.6-2.8-0.8-5.4-0.8-7.8
		c0-13.7,9.2-26.3,23-29.9l137.9-35.4c2.7-0.7,5.3-1,7.7-1c13.5,0,26.1,9.2,29.5,23.1c0.3,0.3,0.3,0.5,0.3,0.8
		c0.6,2.3,0.7,4.7,0.7,6.9C346.9,827.7,346.7,830,346.1,832.3z M571.8,1100.7c-31,31-73.9,50.3-120.7,50.3c-33.3,0-64-9.5-90.1-26.1
		c8-8.9,12.9-20.8,12.9-33.3c0-4-0.4-8.2-1.6-12.2v-0.2c-0.4-1.4-0.8-2.6-1.2-4.1c7.6,2.2,15.7,3.4,23.8,3.4
		c29.9,0,56.5-15,72.6-37.9c16.5,30.6,48.7,51.4,85.6,51.4c10.9,0,21.5-1.8,31.4-5.2C580.4,1091.6,576.3,1096.2,571.8,1100.7z
		 M553.1,1063.5c-38.2,0-69.2-31.1-69.2-69.7v-5c0-0.1,0-0.1,0-0.1v-141c0-7.8-6.2-14.1-14.2-14.1c-7.7,0-13.9,6.3-13.9,14.1v141
		c-0.1,33.9-27.4,61.2-60.9,61.3c-7,0-13.6-1.2-19.7-3.4V883.3c0-27.5,8.9-52.8,23.6-73.5c3.8-5.1,8.1-10.1,12.6-14.7
		c4.8-4.9,10.1-9.3,15.7-13.4c20.2-14.6,44.8-23,71.6-23c3.9,0,7.9,0.1,11.7,0.7c4.2,0.7,8.4,1.3,12.9,1.7
		c24.3,4.9,45.9,17.1,62.8,34c22.5,22.7,36.2,53.7,36.2,88.2v96.1c0,13.5-1.6,26.6-4.6,39.1C607.7,1044.8,582.6,1063.5,553.1,1063.5
		z M690.5,1085h-70.2c10.9-17.7,19.3-37.1,24.4-57.8c0,0,0-0.1,0.1-0.2c0.3-1.1,0.5-2.2,0.6-3.2c3.3-14.2,5.1-29,5.1-44.3v-96.1
		c0-3.4-0.1-6.7-0.2-10h40.3V1085z"/>
	<path fill="#E50040" d="M544.4,469.8c0.8,6,1.1,12.1,1.1,18.5c0,34.8-11.1,67.2-29.9,93.6c10-1.6,20.4-2.4,31.5-2.4
		c8.7,0,17.4,0.6,25.5,1.7c5.7-11.8,8.8-24.8,8.8-38.8C581.3,512.4,566.8,486.1,544.4,469.8z M274.9,417c-13,20.6-20.5,45-20.6,71.3
		c0.2,36.6,14.6,69.6,38.6,93.7c23.8,24.1,56.6,38.8,92.9,38.8c31.8,0,60.6-11.3,83.3-29.9c-4.9,0.2-9.7,0.6-14.7,0.6
		C357.4,591.5,278.5,514,274.9,417z M463.1,413.1c0-11-1.8-21.4-5.3-31.1c-8.4,23.2-20.9,44.3-37.1,62.4c4.5,0.4,9.1,0.6,13.6,0.6
		c8.1,0,16.1-0.6,23.8-1.8C461.4,433.8,463.1,423.7,463.1,413.1z M400.6,342.4l-0.7,42.5c14.1-2.1,26.2-11,32.6-23.6
		C421.5,354.3,409.9,347.2,400.6,342.4z M303.2,417.9c1.2,28.4,10.3,54.8,25.2,77.2c12.7,6.8,27.2,10.7,42.9,10.7
		c25.3-0.1,48-10.4,64.8-27.3c1.7-1.6,3.2-3.4,5-5.2c-2.2,0-4.5,0-6.7,0C382.9,473.4,336.5,452.2,303.2,417.9z M491.1,409
		c0,1.3,0,2.7,0,4.1c0,16.2-3.1,31.6-8.7,45.7c-0.5,1.8-1.2,3.5-2.2,5c-19.2,41.5-60.8,70.2-108.9,70.2c-2.2,0.1-4-0.1-5.8-0.1
		c24.9,18.5,55.6,29.2,88.9,29.2c15.3,0,30.4-2.4,44.1-6.7c11.9-19.8,18.9-43.1,18.9-68.1C517.3,458.5,507.7,431.1,491.1,409z
		 M462.8,347.3c14.3,9.5,25,17.1,25,17.1l0.8,0.7c21.6,18.3,38.1,42.1,47.7,69.1l0.4-1.2c9,3.6,17.3,8.4,25,14.1
		c0.5-4,0.7-8,0.7-12.4c0-24.4-9.9-46.5-25.7-62.6c-16-16-37.9-26-62.1-26c-4.1,0-8,0.3-11.9,0.9
		C462.8,347.2,462.8,347.2,462.8,347.3z M385.8,307.6c5.8,0.2,9.6,1.6,14.3,3.3c4.6,1.9,9.3,4.2,14.6,6.8c4.9,2.7,10.4,5.8,15.8,8.9
		c12.9-5.2,26.7-8.3,41.4-8.6c-13.2-23.8-38.1-40-66.9-40c-34.3-0.1-63.4,22.9-72.8,54.3c13.8-8.8,28-17,39.4-21.5
		C376.2,309.2,380.2,307.7,385.8,307.6z M351,353.8c3.5,11,10.7,20.2,20.6,25.8l0.9-38c-5.1,2.6-11,6-17.1,9.5
		C354,352.1,352.6,352.9,351,353.8z M387.7,437.8c8.5-7.8,16.4-16.6,23.2-26.2c-5.6,1.4-11.5,2.1-17.5,2.1
		c-29.9,0-55.7-18.3-66.6-44.5c-5.5,3.7-10.5,7.2-14.6,10c-1.2,0.7-2,1.3-3,2C328.6,407.7,355.9,427.8,387.7,437.8z M228.4,455.5
		l0.7,1.9c7.1-36.7,26.5-69.1,53.7-92.2l1-0.7c0.1,0,11.6-8.2,26.8-18.5c-0.4-0.1-0.7-0.3-1.2-0.7c-4.1-0.7-8.3-1.1-12.7-1.1
		c-42.4,0.2-76.3,34.5-76.3,77.1c0,12,2.6,23.4,7.5,33.5L228.4,455.5z M226.1,488.3c0-4.9,0.4-9.6,0.8-14.3c-0.9,1-2,1.9-3.2,2.6
		c-24.7,13.7-41.3,40.1-41.3,70.5c0.2,40,29,73.2,67.1,79.4c2.2,0,4.4-0.2,6.9-0.2c23.5,0,44.4,4.3,62.3,10.9l2.4-1.8
		C265.1,610.2,226.1,553.8,226.1,488.3z"/>
	<path fill="#C4CF00" d="M374.4,795.8V662.2c0-6.9,5.5-12.5,12.2-12.5c2.5,0,5,0.9,6.9,2.3c3.2,2.2,5.3,6,5.3,10.1v106L374.4,795.8z
		"/>
	<path fill="#C4CF00" d="M418.6,670.1c0,0,35.8-61.5,134.9-61.5c59.3,0,102.1,33.7,122.9,61.5c0,0-34,62.8-130.3,62.8
		C546.1,733,464.4,736.7,418.6,670.1z"/>
	<path fill="#C4CF00" d="M138.6,711.7c0,0,36.7-56.4,122.1-56.4c42.1,0,71.3,19.4,85.4,28.5v54.2c-7.4,5.1-36.5,29.7-86.7,29.7
		C259.4,767.8,184.6,772.8,138.6,711.7z"/>
</g>
<g>
	<path fill="#FFFFFF" d="M617.3,1018.6c3-12.5,4.6-25.6,4.6-39.1v-96.1c0-34.5-13.7-65.5-36.2-88.2c-17-16.9-38.5-29.1-62.8-34
		c-4.4-0.4-8.6-1-12.9-1.7c-3.8-0.5-7.8-0.7-11.7-0.7c-26.8,0-51.4,8.4-71.6,23c-5.6,4.2-10.8,8.5-15.7,13.4
		c-4.6,4.6-8.8,9.6-12.6,14.7c-14.8,20.6-23.6,45.9-23.6,73.5v163.3c6.1,2.3,12.7,3.4,19.7,3.4c33.5-0.2,60.8-27.4,60.9-61.3v-141
		c0-7.8,6.2-14.1,13.9-14.1c8,0,14.2,6.3,14.2,14.1v141c0,0,0,0,0,0.1v5c0,38.6,31,69.7,69.2,69.7
		C582.1,1063.5,607.3,1044.8,617.3,1018.6z"/>
	<path fill="#FFFFFF" d="M690.1,873.3h-40.3c0.1,3.3,0.2,6.6,0.2,10v96.1c0,15.3-1.7,30.1-5.1,44.3c-0.1,1-0.3,2.1-0.6,3.2
		c-0.1,0.1-0.1,0.2-0.1,0.2c-5.1,20.6-13.5,40.1-24.4,57.8h70.2V873.3z"/>
	<path fill="#FFFFFF" d="M450.7,1151c46.8,0,89.7-19.2,120.7-50.3c4.5-4.5,8.6-9.1,12.7-13.9c-9.9,3.3-20.5,5.2-31.4,5.2
		c-36.8,0-69.1-20.8-85.6-51.4c-16.1,22.9-42.7,37.9-72.6,37.9c-8.2,0-16.2-1.2-23.8-3.4c0.4,1.5,0.8,2.7,1.2,4.1v0.2
		c1.1,4,1.6,8.2,1.6,12.2c0,12.5-4.9,24.4-12.9,33.3C386.7,1141.4,417.3,1151,450.7,1151z"/>
	<path fill="#FFFFFF" d="M345.7,916.1c-0.3-1.9-0.4-3.9-0.9-5.7c-3.5-13.9-16-23-29.4-23c-2.4,0-4.4,0.3-6.7,0.7l-116,29.9
		c-1.2,0.3-2.7,0.7-4.1,0.9l-21.5,5.5c-13.7,3.7-22.7,16.2-22.7,29.9c0,2.5,0.2,5.1,0.8,7.8c3.7,13.9,16.1,22.9,29.5,22.9
		c2.6,0,5.2-0.2,7.8-0.9l117.8-30.3l22.4-5.7c13-3.4,21.5-14.5,22.9-26.9c0-1,0.2-2,0.2-3C345.9,917.7,345.7,916.8,345.7,916.1z"/>
	<path fill="#FFFFFF" d="M344.8,1003.4c-3.5-13.8-16-23-29.4-23c-2.6,0-5.3,0.3-8,1l-117.5,30.2c0,0-0.3,0-0.3,0.1l-9.8,2.5
		c-13.7,3.6-22.9,16.1-22.9,29.8c0,2.6,0.4,5.2,1.1,7.8c3.5,13.9,16,23,29.6,23c2.4,0,5.1-0.3,7.8-1l127.5-32.8
		c13.8-3.6,22.9-16.3,23-29.7C345.7,1008.6,345.4,1006.1,344.8,1003.4z"/>
	<path fill="#FFFFFF" d="M345.7,818.3c0-0.3,0-0.5-0.3-0.8c-3.4-13.9-16-23.1-29.5-23.1c-2.3,0-5,0.3-7.7,1l-137.9,35.4
		c-13.8,3.6-23,16.2-23,29.9c0,2.4,0.3,5.1,0.8,7.8c3.7,13.8,16.3,23.1,29.8,23.1c1.8,0,3.4-0.3,5.4-0.6l116.8-30
		c1.1-0.3,2-0.4,3-0.7l20.4-5.2c11.2-2.9,19.5-12,22.1-22.8c0.6-2.3,0.7-4.5,0.7-7C346.5,823,346.3,820.6,345.7,818.3z"/>
	<path fill="#FFFFFF" d="M324.5,1070.7c-1.6,0-3.2,0.3-5.2,0.7l-100,25.5c-9.5,2.5-15.6,11.1-15.6,20.2c0,1.8,0,3.4,0.6,5.3
		c2.4,9.5,10.9,15.7,20.1,15.7c1.7,0,3.4,0,5.3-0.7l100.1-25.6c9.4-2.4,15.6-11,15.6-20.2c0-1.7-0.2-3.6-0.7-5.3
		C342.4,1077,333.8,1070.7,324.5,1070.7z"/>
</g>
</svg>
