<svg xmlns="http://www.w3.org/2000/svg" viewBox="0 0 59.83 17.43">
  <defs>
    <clipPath id="a">
      <path d="M0 127.56h255.12V0H0z"/>
    </clipPath>
  </defs>
  <g clip-path="url(#a)" transform="matrix(.35278 0 0 -.35278 -15.1 31.12)">
    <path d="M68.91 85.29s-2.1-2.67-3.23-8.68c-1.15-6-.3-9.72-.3-9.72-1.33 3.62-2.47 3.72-2.47 3.72s-.86-7.92-2.48-11.44c-1.62-3.53-2.03-6.22-.76-9.54 2.38-5.9 9.24-7.9 9.24-7.9s-3.43 3.8-2.1 7.9c2.3 5.44 9.07 7.44 5.54 17.45-3.15 9.82-3.44 18.2-3.44 18.2" style="fill:#fff;fill-opacity:1;fill-rule:nonzero;stroke:none"/>
    <path d="M63.4 69.18s3.94-7.53 1.56-13.25c-3.29-7.01 2.81-13.54 2.81-13.54s-11.1 5.67-7.45 14.34c3.16 7.5 3.09 12.45 3.09 12.45" style="fill:#1b4677;fill-opacity:1;fill-rule:nonzero;stroke:none"/>
    <path d="M68.36 82.8s-4.2-10.12-1.65-17.75c2.55-7.63-2.47-10.8-.63-15.94 1.06 6.05 8.73 6.97 5.58 17.09-3.15 10.1-3.3 16.6-3.3 16.6" style="fill:#c4122d;fill-opacity:1;fill-rule:nonzero;stroke:none"/>
    <path d="M83.39 45.93A23.6 23.6 0 0 0 67.5 39.8a23.73 23.73 0 0 0-23.7 23.7 23.73 23.73 0 0 0 23.7 23.7 23.6 23.6 0 0 0 15.3-5.6h1.5a24.61 24.61 0 0 1-16.8 6.6 24.73 24.73 0 0 1-24.7-24.7 24.73 24.73 0 0 1 24.7-24.7c6.75 0 12.87 2.73 17.33 7.13z" style="fill:#1b4677;fill-opacity:1;fill-rule:nonzero;stroke:none"/>
    <path d="M84.73 71.43c1.28 0 2.03.65 2.03 1.88 0 1.22-.75 1.84-2.03 1.84h-2.25v-3.72zm.08-2.34h-2.33v-3.28H79.5v11.67h5.22c3.08 0 4.85-1.47 4.85-4.07 0-1.78-.75-3.07-2.12-3.75l2.46-3.85h-3.37zM97.44 68.84v1.05h-2.73c-1.47 0-2.24-.45-2.24-1.42 0-.96.78-1.6 2.02-1.6 1.48 0 2.62.75 2.95 1.97m.02-1.68c-.7-.95-1.82-1.42-3.22-1.42-1.82 0-2.99 1.17-2.99 2.68 0 1.54 1.22 2.5 3.29 2.52h2.88v.52c0 1.28-.8 2.05-2.35 2.05-.96 0-1.86-.37-2.78-1l-.55.95a5.9 5.9 0 0 0 3.58 1.19c2.17 0 3.37-1.16 3.39-3.04l.02-5.8h-1.27zM106.77 73.84l-.5-1.03c-.69.43-1.57.72-2.39.72-.98 0-1.73-.35-1.73-1.17 0-1.95 4.9-.95 4.9-4.1 0-1.74-1.53-2.5-3.22-2.5-1.25 0-2.53.43-3.37 1.23l.5.98a4.45 4.45 0 0 1 2.92-1.11c1.04 0 1.87.38 1.89 1.25.05 2.12-4.87 1.03-4.86 4.15 0 1.69 1.46 2.39 3.06 2.39 1.05 0 2.06-.3 2.8-.8M114.33 73.84l-.5-1.03c-.69.43-1.57.72-2.39.72-.98 0-1.73-.35-1.73-1.17 0-1.95 4.9-.95 4.9-4.1 0-1.74-1.54-2.5-3.22-2.5-1.25 0-2.54.43-3.37 1.23l.5.98a4.45 4.45 0 0 1 2.92-1.11c1.03 0 1.87.38 1.88 1.25.05 2.12-4.87 1.03-4.85 4.15 0 1.69 1.45 2.39 3.05 2.39 1.05 0 2.07-.3 2.8-.8M123.15 70.76c-.08 1.68-1.22 2.75-2.94 2.75a2.97 2.97 0 0 1-3.06-2.75zm1.17-1.07h-7.17a3.08 3.08 0 0 1 3.18-2.8c1.09 0 2.04.38 2.72 1.1l.72-.77a4.62 4.62 0 0 0-3.54-1.46c-2.58 0-4.37 1.81-4.37 4.43 0 2.62 1.8 4.44 4.35 4.44 2.84.02 4.24-1.95 4.1-4.94M141.08 71.23V65.8h-1.3v5.07c0 1.56-.92 2.48-2.43 2.48-1.82-.05-2.87-1.35-2.87-3.23V65.8h-1.32v5.07c0 1.56-.9 2.48-2.43 2.48-1.8-.05-2.89-1.35-2.89-3.23V65.8h-1.28v8.79h1.28V72.6c.58 1.37 1.77 2.02 3.35 2.04 1.65 0 2.79-.86 3.16-2.3.55 1.55 1.78 2.28 3.46 2.3 2.06 0 3.27-1.3 3.27-3.42M151.65 70.2c0 1.9-1.3 3.28-3.14 3.28-1.85 0-3.15-1.37-3.15-3.27 0-1.92 1.3-3.27 3.15-3.27 1.84 0 3.14 1.37 3.14 3.27m1.31-.03c0-2.6-1.7-4.42-4.18-4.42-1.57 0-2.77.71-3.42 1.93v-1.88h-1.3v12.37h1.3V72.7a3.65 3.65 0 0 0 3.38 1.96c2.49 0 4.22-1.84 4.22-4.47M155.34 78.18h1.3V65.81h-1.3zM166.3 70.76c-.09 1.68-1.22 2.75-2.94 2.75a2.97 2.97 0 0 1-3.07-2.75zm1.16-1.07h-7.17a3.08 3.08 0 0 1 3.19-2.8c1.08 0 2.03.38 2.72 1.1l.71-.77a4.62 4.62 0 0 0-3.53-1.46c-2.59 0-4.37 1.81-4.37 4.43 0 2.62 1.8 4.44 4.35 4.44 2.84.02 4.24-1.95 4.1-4.94M184.23 71.23V65.8h-1.3v5.07c0 1.56-.92 2.48-2.44 2.48-1.82-.05-2.87-1.35-2.87-3.23V65.8h-1.31v5.07c0 1.56-.9 2.48-2.44 2.48-1.8-.05-2.88-1.35-2.88-3.23V65.8h-1.29v8.79H171V72.6c.58 1.37 1.76 2.02 3.35 2.04 1.65 0 2.78-.86 3.15-2.3.55 1.55 1.79 2.28 3.47 2.3 2.05 0 3.27-1.3 3.27-3.42M193.52 70.76c-.08 1.68-1.21 2.75-2.93 2.75a2.97 2.97 0 0 1-3.07-2.75zm1.17-1.07h-7.17a3.08 3.08 0 0 1 3.19-2.8c1.08 0 2.03.38 2.71 1.1l.72-.77a4.62 4.62 0 0 0-3.53-1.46c-2.59 0-4.37 1.81-4.37 4.43 0 2.62 1.8 4.44 4.35 4.44 2.83.02 4.24-1.95 4.1-4.94M204.97 71.23V65.8h-1.3v5.07c0 1.55-.93 2.46-2.49 2.46-1.73-.01-2.8-1.15-2.95-2.81V65.8h-1.3v8.79h1.3v-1.94c.62 1.34 1.8 1.97 3.4 1.99 2.1 0 3.34-1.3 3.34-3.42M212.41 66.4a3.69 3.69 0 0 0-1.98-.66c-1.29 0-2.24.77-2.24 2.5v5.02h-1.27v1.05h1.27v2.32h1.29v-2.32l2.78.02v-1.07h-2.78v-4.79c0-1.06.41-1.46 1.16-1.46.45 0 .92.15 1.4.45zM87.66 48.96l-5.37 7.2v-7.2h-2.78v11.68h2.62l5.38-7.2v7.2h2.77V48.96zM97.73 52.02v.8H95.9c-.87 0-1.3-.3-1.3-.97 0-.65.46-1.07 1.26-1.07.9 0 1.67.5 1.86 1.24m2.83 2.81v-5.87h-2.82V50c-.58-.77-1.53-1.17-2.75-1.17-1.92 0-3.08 1.17-3.08 2.82 0 1.7 1.21 2.7 3.45 2.72h2.37v.13c0 .88-.59 1.42-1.76 1.42-.75 0-1.73-.27-2.68-.75l-.82 1.9a9.49 9.49 0 0 0 4.17 1.02c2.47 0 3.9-1.22 3.92-3.26M108.42 49.45a4.9 4.9 0 0 0-2.4-.62c-1.74 0-2.99.98-2.99 2.85v3.97h-1.25v1.89h1.25v2.5h2.87v-2.49h2.35v-1.9h-2.35v-3.52c0-.7.3-1 .83-.98.3 0 .69.12 1.12.3zM109.87 57.95h2.87v-8.98h-2.87zm2.97 2.59c0-.9-.63-1.54-1.52-1.54-.88 0-1.51.64-1.51 1.54 0 .88.63 1.52 1.51 1.52.89 0 1.52-.64 1.52-1.52M117.21 53.43c0-1.4.82-2.33 2.02-2.33 1.19 0 2 .93 2 2.33 0 1.39-.81 2.34-2 2.34-1.2 0-2.02-.95-2.02-2.34m6.92.04c0-2.77-1.96-4.6-4.9-4.6-2.95 0-4.92 1.83-4.92 4.6 0 2.77 1.97 4.58 4.92 4.58 2.94 0 4.9-1.81 4.9-4.58M134.86 54.63v-5.67H132v4.87c0 1.05-.61 1.7-1.58 1.7-1.05 0-1.72-.75-1.84-1.81v-4.76h-2.88v9h2.88v-1.47a3.34 3.34 0 0 0 3 1.6c2 0 3.3-1.35 3.3-3.46M142.04 52.02v.8h-1.82c-.87 0-1.3-.3-1.3-.97 0-.65.47-1.07 1.27-1.07.9 0 1.66.5 1.85 1.24m2.83 2.81v-5.87h-2.82V50c-.58-.77-1.53-1.17-2.75-1.17-1.91 0-3.08 1.17-3.08 2.82 0 1.7 1.21 2.7 3.45 2.72h2.37v.13c0 .88-.59 1.42-1.75 1.42a6.3 6.3 0 0 1-2.69-.75l-.82 1.9a9.49 9.49 0 0 0 4.17 1.02c2.47 0 3.9-1.22 3.92-3.26M147.01 61.34h2.89V48.96H147z" style="fill:#1b4677;fill-opacity:1;fill-rule:nonzero;stroke:none"/>
  </g>
</svg>
