<?xml version="1.0" encoding="UTF-8" standalone="no"?>
<!-- Created with Inkscape (http://www.inkscape.org/) -->

<svg
   xmlns:dc="http://purl.org/dc/elements/1.1/"
   xmlns:cc="http://creativecommons.org/ns#"
   xmlns:rdf="http://www.w3.org/1999/02/22-rdf-syntax-ns#"
   xmlns:svg="http://www.w3.org/2000/svg"
   xmlns="http://www.w3.org/2000/svg"
   xmlns:xlink="http://www.w3.org/1999/xlink"
   xmlns:sodipodi="http://sodipodi.sourceforge.net/DTD/sodipodi-0.dtd"
   xmlns:inkscape="http://www.inkscape.org/namespaces/inkscape"
   width="750.00006"
   height="500"
   id="svg6047"
   version="1.1"
   inkscape:version="0.48.5 r10040"
   sodipodi:docname="Nouveau document 25">
  <defs
     id="defs6049">
    <radialGradient
       gradientTransform="matrix(0,2.342476,-2.291353,0,562.9128,1323.77)"
       gradientUnits="userSpaceOnUse"
       xlink:href="#linearGradient2955"
       id="radialGradient14758"
       fy="153.9283"
       fx="-483.50824"
       r="300.00003"
       cy="153.9283"
       cx="-483.50824" />
    <radialGradient
       gradientTransform="matrix(0,2.342476,-2.291353,0,562.9128,1323.77)"
       gradientUnits="userSpaceOnUse"
       xlink:href="#linearGradient2955"
       id="radialGradient13767"
       fy="153.9283"
       fx="-483.50824"
       r="300.00003"
       cy="153.9283"
       cx="-483.50824" />
    <radialGradient
       gradientTransform="matrix(0,2.342476,-2.291353,0,562.9128,1323.77)"
       gradientUnits="userSpaceOnUse"
       xlink:href="#linearGradient2955"
       id="radialGradient1357"
       fy="153.9283"
       fx="-483.50824"
       r="300.00003"
       cy="153.9283"
       cx="-483.50824" />
    <radialGradient
       gradientTransform="matrix(-4.167939e-4,2.182867,-1.884232,-3.599562e-4,1395.597,-309.1214)"
       gradientUnits="userSpaceOnUse"
       xlink:href="#linearGradient2955"
       id="radialGradient1911"
       fy="218.90099"
       fx="225.52438"
       r="300"
       cy="218.90099"
       cx="225.52438" />
    <clipPath
       id="clip">
      <path
         id="path10"
         d="m 0,-200 0,800 300,0 0,-800 -300,0 z"
         inkscape:connector-curvature="0" />
    </clipPath>
    <polygon
       id="star"
       transform="scale(53,53)"
       points="-0.95105652,-0.30901699 0.95105652,-0.30901699 -0.58778525,0.80901699 0,-1 0,-1 0.58778525,0.80901699 " />
    <radialGradient
       gradientTransform="matrix(-4.167939e-4,2.182867,-1.884232,-3.599562e-4,615.5972,-289.1214)"
       gradientUnits="userSpaceOnUse"
       xlink:href="#linearGradient2955"
       id="radialGradient2961"
       fy="218.90099"
       fx="225.52438"
       r="300"
       cy="218.90099"
       cx="225.52438" />
    <linearGradient
       id="linearGradient2955">
      <stop
         id="stop2965"
         offset="0"
         style="stop-color:#ffffff;stop-opacity:0" />
      <stop
         id="stop2959"
         offset="1"
         style="stop-color:#000000;stop-opacity:0.64583331" />
    </linearGradient>
  </defs>
  <sodipodi:namedview
     id="base"
     pagecolor="#ffffff"
     bordercolor="#666666"
     borderopacity="1.0"
     inkscape:pageopacity="0.0"
     inkscape:pageshadow="2"
     inkscape:zoom="0.49497475"
     inkscape:cx="781.48206"
     inkscape:cy="328.96489"
     inkscape:document-units="px"
     inkscape:current-layer="layer1"
     showgrid="false"
     inkscape:object-nodes="true"
     inkscape:object-paths="true"
     showguides="true"
     inkscape:guide-bbox="true"
     inkscape:snap-object-midpoints="true"
     inkscape:snap-center="true"
     fit-margin-top="0"
     fit-margin-left="0"
     fit-margin-right="0"
     fit-margin-bottom="0"
     inkscape:window-width="1280"
     inkscape:window-height="672"
     inkscape:window-x="0"
     inkscape:window-y="1"
     inkscape:window-maximized="1" />
  <metadata
     id="metadata6052">
    <rdf:RDF>
      <cc:Work
         rdf:about="">
        <dc:format>image/svg+xml</dc:format>
        <dc:type
           rdf:resource="http://purl.org/dc/dcmitype/StillImage" />
        <dc:title></dc:title>
      </cc:Work>
    </rdf:RDF>
  </metadata>
  <g
     inkscape:label="Calque 1"
     inkscape:groupmode="layer"
     id="layer1"
     transform="translate(-801.04522,-101.62976)">
    <path
       transform="matrix(1.0006228,0,0,0.98209275,746.46301,4.6204226)"
       style="fill:#ffffff;fill-opacity:1;fill-rule:nonzero;stroke:none"
       d="m 54.548237,98.778183 749.533203,0 0,509.116887 -749.533203,0 z"
       id="rect6070"
       inkscape:connector-curvature="0" />
    <rect
       style="fill:#75c5f0;fill-opacity:1;fill-rule:nonzero;stroke:none"
       id="rect6073"
       width="856.09766"
       height="132.161"
       x="801.04523"
       y="101.62976"
       ry="0"
       transform="matrix(0.87606835,0,0,1.032428,99.274859,-3.295648)" />
    <rect
       transform="matrix(0.87606835,0,0,1.032428,99.274847,360.25763)"
       ry="0"
       y="101.62976"
       x="801.04523"
       height="132.161"
       width="856.09766"
       id="rect6075"
       style="fill:#75c5f0;fill-opacity:1;fill-rule:nonzero;stroke:none" />
    <g
       id="g6229"
       transform="translate(810.64959,-1.8867889)"
       style="fill:#f8c300;fill-opacity:1">
      <path
         transform="matrix(0.54328228,0,0,0.54328228,324.64946,312.77038)"
         inkscape:connector-curvature="0"
         d="M 75,13.879749 90.3454,60.62831 139.26563,60.571469 99.5471,89.611899 114.71834,136.12025 74.825551,107.31967 35.281661,136.12024 50.345081,89.280069 10.73437,60.571459 59.936881,60.423219 75,13.879749 z"
         style="fill:#f8c300;fill-opacity:1;stroke:none"
         id="path8347" />
      <path
         id="path6197"
         style="fill:#f8c300;fill-opacity:1;stroke:none"
         d="M 75,13.879749 90.3454,60.62831 139.26563,60.571469 99.5471,89.611899 114.71834,136.12025 74.825551,107.31967 35.281661,136.12024 50.345081,89.280069 10.73437,60.571459 59.936881,60.423219 75,13.879749 z"
         inkscape:connector-curvature="0"
         transform="matrix(0.54328228,0,0,0.54328228,409.29232,312.77038)" />
      <path
         id="path6199"
         style="fill:#f8c300;fill-opacity:1;stroke:none"
         d="M 75,13.879749 90.3454,60.62831 139.26563,60.571469 99.5471,89.611899 114.71834,136.12025 74.825551,107.31967 35.281661,136.12024 50.345081,89.280069 10.73437,60.571459 59.936881,60.423219 75,13.879749 z"
         inkscape:connector-curvature="0"
         transform="matrix(0.54328228,0,0,0.54328228,240.0066,312.77038)" />
      <path
         id="path6221"
         style="fill:#f8c300;fill-opacity:1;stroke:none"
         d="M 75,13.879749 90.3454,60.62831 139.26563,60.571469 99.5471,89.611899 114.71834,136.12025 74.825551,107.31967 35.281661,136.12024 50.345081,89.280069 10.73437,60.571459 59.936881,60.423219 75,13.879749 z"
         inkscape:connector-curvature="0"
         transform="matrix(0.54328228,0,0,0.54328228,324.64946,241.04955)" />
      <path
         id="path6225"
         style="fill:#f8c300;fill-opacity:1;stroke:none"
         d="M 75,13.879749 90.3454,60.62831 139.26563,60.571469 99.5471,89.611899 114.71834,136.12025 74.825551,107.31967 35.281661,136.12024 50.345081,89.280069 10.73437,60.571459 59.936881,60.423219 75,13.879749 z"
         inkscape:connector-curvature="0"
         transform="matrix(0.54328228,0,0,0.54328228,324.64946,384.49121)" />
    </g>
  </g>
</svg>
