<?xml version="1.0" standalone="no"?>
<!DOCTYPE svg PUBLIC "-//W3C//DTD SVG 20010904//EN"
 "http://www.w3.org/TR/2001/REC-SVG-20010904/DTD/svg10.dtd">
<svg version="1.0" xmlns="http://www.w3.org/2000/svg"
 width="1500.000000pt" height="1500.000000pt" viewBox="0 0 1500.000000 1500.000000"
 preserveAspectRatio="xMidYMid meet">
<metadata>
Created by potrace 1.11, written by Peter Selinger 2001-2013
</metadata>
<g transform="translate(0.000000,1500.000000) scale(0.100000,-0.100000)"
fill="#000000" stroke="none">
<path d="M7700 14168 c-29 -8 -405 -122 -900 -274 -227 -70 -269 -84 -307
-106 -58 -33 -142 -117 -170 -172 -54 -105 -56 -122 -58 -536 -1 -269 -5 -394
-14 -414 -27 -66 -65 -98 -256 -211 -71 -42 -84 -50 -150 -91 -27 -17 -57 -34
-65 -37 -8 -4 -28 -16 -45 -26 -16 -10 -122 -74 -235 -141 -113 -67 -216 -130
-230 -139 -14 -10 -65 -41 -115 -70 -49 -29 -112 -66 -140 -83 -27 -17 -66
-40 -86 -52 -20 -11 -111 -66 -202 -121 -92 -55 -175 -105 -184 -110 -10 -6
-157 -93 -326 -195 -169 -102 -316 -189 -325 -195 -10 -5 -51 -30 -91 -54 -63
-39 -149 -71 -231 -87 -14 -3 -88 -21 -165 -40 -77 -20 -147 -37 -155 -39 -8
-2 -80 -20 -160 -40 -80 -20 -152 -38 -160 -40 -8 -1 -69 -17 -135 -34 -66
-17 -129 -33 -140 -35 -11 -2 -193 -48 -405 -101 -212 -53 -392 -98 -400 -100
-8 -2 -148 -37 -311 -78 -256 -64 -304 -80 -355 -112 -95 -60 -157 -139 -192
-248 -17 -50 -18 -97 -17 -578 1 -519 1 -525 24 -589 34 -96 92 -172 196 -253
271 -214 551 -479 755 -716 30 -36 60 -69 66 -75 25 -26 235 -309 291 -391
183 -274 354 -597 465 -880 21 -55 43 -109 48 -120 33 -73 162 -499 175 -580
2 -11 13 -63 25 -115 11 -52 23 -108 26 -125 42 -242 49 -292 60 -390 2 -27 7
-70 10 -95 34 -272 38 -887 9 -1185 -2 -22 -6 -69 -10 -105 -10 -110 -17 -171
-35 -300 -19 -143 -21 -154 -25 -170 -2 -8 -7 -35 -10 -60 -5 -37 -25 -143
-60 -315 -11 -52 -29 -129 -51 -220 -14 -55 -27 -108 -29 -117 -32 -150 -146
-502 -226 -698 -65 -161 -68 -262 -10 -385 35 -76 108 -153 178 -188 42 -22
137 -53 268 -87 17 -5 102 -29 190 -55 88 -26 174 -50 190 -55 51 -13 1016
-290 1088 -311 37 -12 74 -22 82 -23 8 -1 18 -5 21 -9 4 -4 14 -7 23 -7 8 0
45 -9 81 -20 82 -25 303 -89 350 -101 49 -13 55 -15 140 -40 103 -30 233 -32
325 -7 67 19 146 55 153 71 2 4 8 7 13 7 9 0 36 22 103 85 66 62 126 192 143
310 13 97 8 6162 -5 6211 -16 54 -71 117 -128 143 -44 21 -58 22 -374 22 -198
0 -344 -4 -367 -10 -53 -14 -116 -71 -144 -128 l-23 -47 0 -2615 -1 -2616 -22
-41 c-23 -44 -66 -85 -115 -110 -68 -35 -100 -31 -441 66 -177 51 -342 103
-367 116 -48 26 -84 70 -106 131 -20 56 -18 73 25 248 22 88 43 176 46 195 3
19 8 43 11 52 3 9 7 27 9 40 3 13 9 46 15 73 15 75 20 97 25 130 3 17 8 41 10
55 3 14 7 39 9 55 5 31 23 145 30 180 2 11 7 47 11 80 4 32 8 67 10 76 2 10 6
46 10 81 3 35 8 74 10 88 13 88 24 227 40 505 9 155 10 669 1 758 -4 34 -9
100 -12 147 -3 47 -6 101 -8 120 -10 101 -18 178 -21 200 -2 14 -7 52 -10 85
-3 33 -8 67 -10 75 -2 8 -7 33 -10 55 -3 23 -8 52 -10 65 -3 14 -7 41 -10 60
-3 19 -7 46 -10 60 -4 22 -8 40 -20 110 -2 8 -17 76 -35 150 -17 74 -33 142
-35 150 -43 187 -136 482 -220 700 -199 514 -449 968 -769 1395 -220 293 -406
500 -731 814 -94 91 -125 144 -125 213 0 90 52 177 125 212 26 13 466 128 575
151 8 1 35 8 60 15 25 7 52 13 60 15 8 2 71 17 140 35 69 18 132 33 140 35 8
2 53 13 100 25 47 12 92 23 100 25 8 2 62 15 120 30 58 15 112 28 120 30 8 2
62 15 120 30 58 15 112 28 120 30 176 37 170 34 684 343 270 162 505 302 521
312 47 27 518 309 535 320 8 5 31 19 50 30 19 11 49 29 65 39 17 10 48 29 71
42 43 26 278 167 305 184 22 13 146 87 168 100 9 6 99 60 200 120 233 141 252
152 276 164 11 6 27 15 35 21 36 24 208 126 233 139 48 25 141 117 174 172 58
97 65 149 66 471 0 245 3 295 17 338 41 122 167 183 293 142 53 -17 83 -44
277 -252 63 -67 138 -147 167 -177 42 -45 168 -178 299 -318 16 -17 97 -102
179 -189 83 -87 152 -161 155 -165 5 -6 126 -110 181 -156 13 -10 71 -51 129
-90 177 -117 296 -171 765 -341 39 -14 111 -41 160 -59 146 -55 618 -227 645
-236 14 -4 54 -19 90 -32 36 -13 259 -95 495 -181 237 -86 441 -162 455 -167
14 -6 63 -24 110 -40 47 -16 93 -34 102 -39 10 -6 26 -10 36 -10 10 0 22 -4
28 -9 5 -5 61 -27 124 -49 311 -110 329 -119 369 -178 34 -49 49 -101 45 -154
-3 -37 -110 -316 -184 -475 -5 -11 -32 -76 -60 -145 -65 -160 -63 -155 -91
-219 -13 -30 -24 -57 -25 -60 0 -3 -6 -18 -12 -34 -6 -15 -55 -134 -107 -265
-53 -130 -103 -251 -111 -269 -8 -17 -14 -36 -14 -42 0 -6 -4 -19 -10 -29 -13
-23 -127 -312 -217 -552 -266 -709 -366 -1047 -366 -1235 1 -45 11 -180 17
-210 5 -29 19 -126 22 -155 2 -29 9 -73 31 -190 21 -118 21 -116 47 -245 18
-83 38 -172 56 -240 12 -44 23 -87 25 -95 12 -54 81 -288 120 -405 174 -527
436 -1063 704 -1445 56 -80 185 -252 203 -271 7 -8 31 -37 53 -64 22 -28 54
-66 72 -85 105 -112 101 -247 -11 -365 -535 -559 -627 -651 -666 -664 -76 -24
-106 -21 -245 22 -263 82 -370 114 -544 163 -204 57 -247 76 -285 127 -54 74
-51 -37 -51 1882 l-1 1780 -24 49 c-14 27 -41 62 -60 78 -63 52 -102 57 -460
55 -293 -2 -329 -4 -362 -21 -66 -32 -121 -99 -133 -162 -7 -41 -7 -4186 1
-4231 39 -229 222 -398 464 -428 78 -9 99 -14 372 -86 256 -66 359 -94 513
-139 39 -11 126 -36 195 -56 69 -20 154 -45 190 -55 36 -11 79 -24 95 -28 43
-13 209 -66 285 -92 45 -15 95 -23 162 -25 106 -4 166 9 258 54 67 32 187 151
824 815 37 40 123 129 190 198 231 241 511 532 578 602 116 122 167 249 162
404 -3 89 -19 148 -65 233 -37 69 -85 121 -174 189 -325 248 -630 605 -857
1006 -48 86 -154 297 -188 375 -18 41 -41 95 -52 120 -95 211 -238 660 -303
950 -7 31 -54 266 -60 300 -9 47 -12 65 -20 130 -4 30 -9 58 -11 62 -2 3 -7
42 -10 86 -5 66 -2 94 20 175 24 87 95 304 115 352 5 11 59 157 121 325 62
168 116 310 121 315 4 6 8 15 8 20 1 10 72 195 96 250 7 17 52 129 100 250 48
121 93 234 100 250 7 17 32 77 55 135 23 58 48 119 55 135 7 17 34 82 60 145
26 63 57 140 70 170 13 30 47 111 76 180 28 69 64 154 79 190 15 36 58 137 95
225 37 88 73 174 81 190 75 168 203 478 209 510 33 178 -57 378 -209 464 -28
16 -134 59 -236 95 -102 37 -201 73 -220 81 -33 13 -69 26 -80 30 -3 1 -12 5
-20 8 -8 3 -98 36 -200 72 -102 36 -194 70 -205 75 -20 9 -198 74 -875 321
-184 67 -369 134 -410 149 -41 15 -145 53 -230 84 -85 31 -164 60 -175 65 -11
5 -47 19 -80 30 -33 11 -116 41 -185 66 -270 99 -626 230 -775 283 -60 22
-148 54 -195 72 -94 37 -92 35 -350 309 -74 80 -153 163 -175 186 -22 24 -90
96 -151 161 -61 66 -133 142 -160 170 -27 28 -103 109 -169 179 -66 71 -136
145 -155 165 -19 20 -93 99 -165 175 -260 277 -288 302 -395 341 -53 18 -190
26 -240 12z"/>
<path d="M6789 9358 c-98 -9 -162 -50 -206 -131 -17 -30 -18 -225 -18 -3992 0
-3828 1 -3961 18 -3997 24 -47 61 -85 112 -111 38 -20 55 -21 375 -22 184 -1
350 3 367 7 51 14 115 69 142 123 l26 49 1 3941 c0 2730 -3 3949 -10 3970 -32
93 -107 152 -201 162 -80 7 -533 9 -606 1z"/>
<path d="M8317 5416 c-59 -22 -103 -62 -132 -120 l-27 -54 2 -629 c0 -345 1
-635 1 -643 -5 -1018 0 -2045 10 -2079 16 -55 69 -114 126 -142 46 -22 54 -22
382 -22 322 0 338 1 384 21 55 24 99 67 124 121 17 34 18 142 17 1711 l0 1675
-22 41 c-27 53 -90 107 -141 122 -58 18 -674 16 -724 -2z"/>
</g>
</svg>
