<svg id="Layer_1" data-name="Layer 1" xmlns="http://www.w3.org/2000/svg" viewBox="0 0 238.06 228.59"><defs><style>.cls-1{fill:#404041;}</style></defs><title>Logo</title><path class="cls-1" d="M242.19,193.57l-4.65-1.2a16,16,0,0,1-5.27-2.68,63.58,63.58,0,0,1-16.91-24.6,169.79,169.79,0,0,1-6.87-24.17c-.31-1.64-.57-3-.57-3.08s0-.2,0-.33.06-1.59.19-3.25c0,0,.35-4.48,12.23-31.81,6.57-15.09,12-26.44,12-26.44L235,70.55l.43-.88a2.65,2.65,0,0,0-1.54-3.73L165.37,42a14.26,14.26,0,0,1-4.9-3.24l-24-26.26a5.07,5.07,0,0,0-4.92-1.27l-18.2,6.06a4.79,4.79,0,0,0-3,4l-.67,13.44a6.25,6.25,0,0,1-2.77,4.56L66.39,62.9a24.18,24.18,0,0,1-5.57,2.22L8.57,77.41a4,4,0,0,0-2.94,3.72v8.56a6.38,6.38,0,0,0,2.51,4.72s32.45,21.69,40.08,40c8.38,20.08,7.24,42,4.8,56.85-2.69,16.41-6.4,25.42-6.4,25.42l-2.79,6.71a2.55,2.55,0,0,0,1.76,3.55L95,239.54a1.12,1.12,0,0,0,1.47-1.14V121.07a1.52,1.52,0,0,0-1.51-1.52H86.33a1.52,1.52,0,0,0-1.51,1.52V222.44a1.13,1.13,0,0,1-1.47,1.14l-21-5.34a2.88,2.88,0,0,1-2-3.63,196.12,196.12,0,0,0,5-21c3.94-23.73,2-45.86-5.52-64-7.36-17.69-35.13-40.4-35.13-40.4-1.29-1.06-1-2.21.62-2.56l40.25-8.79a22.42,22.42,0,0,0,5.57-2.19L119.1,47.15a6.3,6.3,0,0,0,2.76-4.57l.61-12.13a4.78,4.78,0,0,1,3-4l2.32-.77A5.08,5.08,0,0,1,132.73,27l20.6,22.57a14.33,14.33,0,0,0,4.9,3.23l58.26,20.39a2.7,2.7,0,0,1,1.58,3.75S212.43,89,208.36,98.43s-7.16,17.13-9.32,23.28c-4,11.39-3.76,14.86-3.76,14.86.12,1.66.21,3,.21,3s.27,1.34.59,3a203.61,203.61,0,0,0,7.12,25.85c5.44,14.94,17.42,28.69,17.42,28.69a3.35,3.35,0,0,1-.12,4.45l-14.37,14.69a4.83,4.83,0,0,1-4.91,1s-.85-.35-2.24-.89c-4.49-2.14-13.11-4.44-13.11-4.44A2.09,2.09,0,0,1,184.4,210V139a1.52,1.52,0,0,0-1.51-1.51h-8.58A1.52,1.52,0,0,0,172.8,139l0,81.49a1.92,1.92,0,0,0,1.48,1.8s6.35,1.21,10.14,2.31h0a138.63,138.63,0,0,1,15.44,5.73c1.52.69,3.68,1.7,4.81,2.27s3,.05,4.17-1.14l34.19-35C244.17,195.3,243.8,194,242.19,193.57Z" transform="translate(-5.63 -11)"/><rect class="cls-1" x="138.27" y="148.33" width="11.6" height="63.61" rx="1.51"/><rect class="cls-1" x="108.94" y="89.43" width="11.6" height="134.98" rx="1.51"/></svg>