<?xml version="1.0" encoding="utf-8"?>
<!-- Generator: Adobe Illustrator 24.0.1, SVG Export Plug-In . SVG Version: 6.00 Build 0)  -->
<svg version="1.1" id="Layer_1" xmlns="http://www.w3.org/2000/svg" xmlns:xlink="http://www.w3.org/1999/xlink" x="0px" y="0px"
	 viewBox="0 0 250 50" style="enable-background:new 0 0 250 50;" xml:space="preserve">
<path d="M24,4.5c0.4,0,0.7,0.1,0.8,0.3c0.2,0.2,0.2,0.5,0,0.9L10.1,44.3c-0.1,0.3-0.3,0.6-0.7,0.8c-0.3,0.2-0.7,0.4-1.1,0.4H1.7
	c-0.4,0-0.7-0.1-0.8-0.4c-0.2-0.2-0.2-0.5,0-0.8L15.6,5.7c0.1-0.3,0.3-0.6,0.7-0.9c0.3-0.2,0.7-0.3,1.1-0.3H24z M43.5,44.3
	c0.1,0.3,0.1,0.6,0,0.8c-0.2,0.2-0.4,0.4-0.8,0.4h-6.6c-0.4,0-0.7-0.1-1.1-0.4c-0.3-0.2-0.6-0.5-0.7-0.8l-2.9-7.5l-11.4,0.1
	c-0.2,0-0.4-0.1-0.5-0.3c-0.1-0.2-0.1-0.4,0-0.7l2.6-6.8c0.1-0.2,0.3-0.5,0.5-0.7c0.3-0.2,0.5-0.3,0.8-0.3h4.8l-2.6-6.7
	c-0.2-0.6-0.2-1.2,0-1.8l3.8-10c0.1-0.3,0.3-0.5,0.4-0.5c0.2,0,0.4,0.2,0.5,0.5L43.5,44.3z"/>
<path d="M82.6,4.4c0.3,0,0.5,0.1,0.7,0.3c0.2,0.2,0.3,0.4,0.3,0.7v24.3c0,1.2-0.1,2.4-0.4,3.6c-0.3,1.2-0.8,2.6-1.6,4.1
	c-0.8,1.5-1.9,2.9-3.1,4c-1.3,1.2-3,2.1-5.2,2.9c-2.2,0.8-4.8,1.2-7.7,1.2c-2.9,0-5.4-0.4-7.7-1.2c-2.2-0.8-4-1.8-5.3-2.9
	c-1.3-1.2-2.3-2.5-3.1-4c-0.8-1.5-1.4-2.9-1.6-4.1c-0.3-1.3-0.4-2.5-0.4-3.6V5.3c0-0.2,0.1-0.5,0.3-0.7c0.2-0.2,0.4-0.3,0.7-0.3H55
	c0.3,0,0.5,0.1,0.7,0.3c0.2,0.2,0.3,0.4,0.3,0.7c0,15.9,0,23.9,0,24c0,0.7,0.1,1.3,0.2,1.8c0.1,0.6,0.4,1.2,0.8,2
	c0.4,0.8,1,1.4,1.6,1.9c0.7,0.5,1.6,0.9,2.8,1.3c1.2,0.4,2.6,0.6,4.2,0.6c1.1,0,2.2-0.1,3.1-0.3c0.9-0.2,1.7-0.4,2.3-0.6
	c0.6-0.2,1.2-0.6,1.6-1c0.5-0.4,0.8-0.8,1.1-1.2c0.3-0.3,0.5-0.8,0.7-1.3c0.2-0.5,0.3-1,0.4-1.3c0.1-0.3,0.1-0.8,0.2-1.3V5.3
	c0-0.2,0.1-0.5,0.3-0.7c0.2-0.2,0.4-0.3,0.7-0.3H82.6z"/>
<path d="M123,22.1v19c0,0.1,0,0.2,0,0.3c0,0.1-0.1,0.3-0.4,0.6c-0.2,0.3-0.6,0.6-0.9,0.9c-0.4,0.3-1,0.6-1.8,0.9
	c-0.8,0.3-1.8,0.6-3,0.9l-1.6,0.3c-2.2,0.4-4.4,0.6-6.8,0.6c-1.1,0-2.2-0.1-3.2-0.2c-1.1-0.1-2.3-0.3-3.7-0.7
	c-1.4-0.4-2.7-0.8-4-1.4c-1.2-0.6-2.5-1.4-3.7-2.4c-1.2-1-2.3-2.2-3.1-3.6c-0.9-1.4-1.6-3.1-2.1-5.1c-0.5-2.1-0.8-4.3-0.8-6.8
	c0-2.5,0.3-4.7,0.8-6.8c0.5-2.1,1.2-3.8,2.1-5.2c0.9-1.4,1.9-2.7,3.1-3.8s2.4-2,3.6-2.6c1.2-0.6,2.5-1.1,3.9-1.5
	c1.4-0.4,2.6-0.7,3.8-0.8c1.1-0.1,2.2-0.2,3.3-0.2c2.7,0,5.2,0.3,7.7,0.8l3.3,0.9c0.2,0.1,0.4,0.2,0.5,0.4c0.1,0.2,0.1,0.5,0,0.7
	l-2.2,5.7c-0.1,0.2-0.3,0.4-0.7,0.5c-0.4,0.1-0.7,0.1-1,0.1H116c-1-0.2-2-0.4-3.1-0.6c-1-0.1-2.2-0.2-3.6-0.2
	c-1.3,0-2.6,0.1-3.8,0.3c-1.2,0.2-2.3,0.6-3.5,1.1c-1.2,0.6-2.2,1.3-3,2.2c-0.8,0.9-1.5,2.1-2,3.6c-0.5,1.5-0.8,3.2-0.8,5.2
	c0,2,0.2,3.7,0.7,5.2c0.5,1.5,1,2.7,1.7,3.6c0.7,0.9,1.6,1.7,2.6,2.2c1.1,0.6,2.1,0.9,3.1,1.2c1,0.2,2.2,0.3,3.5,0.3
	c1.3,0,2.5-0.1,3.4-0.2c1-0.1,2.1-0.3,3.3-0.5v-7.4h-7.7c-0.2,0-0.4-0.1-0.5-0.2c-0.1-0.2-0.1-0.4,0-0.6L109,22
	c0.1-0.2,0.3-0.5,0.5-0.6c0.2-0.2,0.5-0.3,0.7-0.3h11.9c0.2,0,0.5,0.1,0.6,0.3C122.9,21.6,123,21.8,123,22.1z"/>
<path d="M131.1,9.5c3.1-3.4,8-5.1,14.7-5.1c6.7,0,11.6,1.7,14.7,5.1s4.6,8.5,4.6,15.5c0,13.7-6.5,20.5-19.4,20.5
	c-6.4,0-11.3-1.7-14.5-5.2c-3.2-3.5-4.8-8.6-4.8-15.4C126.4,18.1,128,12.9,131.1,9.5z M145.8,37.1c0.5,0,0.9,0,1.4-0.1
	c0.5,0,1.1-0.1,1.8-0.3c0.8-0.2,1.5-0.4,2.1-0.7c0.6-0.3,1.3-0.8,2-1.4c0.7-0.6,1.3-1.3,1.8-2.2c0.5-0.8,0.9-1.9,1.2-3.2
	c0.3-1.3,0.5-2.8,0.5-4.4c0-1.6-0.2-3-0.5-4.4c-0.3-1.3-0.7-2.4-1.2-3.2c-0.5-0.8-1.1-1.5-1.7-2.2s-1.4-1.1-2-1.4
	c-0.6-0.3-1.3-0.5-2.1-0.7c-0.8-0.2-1.4-0.3-1.9-0.3c-0.5,0-1-0.1-1.5-0.1c-0.6,0-1.1,0-1.5,0.1c-0.5,0-1.1,0.1-1.9,0.3
	c-0.8,0.2-1.5,0.4-2.1,0.7c-0.6,0.3-1.3,0.7-2,1.4c-0.7,0.6-1.3,1.3-1.8,2.2c-0.5,0.8-0.9,1.9-1.2,3.2c-0.3,1.3-0.5,2.8-0.5,4.4
	c0,1.6,0.2,3.1,0.5,4.4c0.3,1.3,0.7,2.4,1.2,3.2c0.5,0.8,1.1,1.6,1.8,2.2c0.7,0.6,1.4,1.1,2,1.4c0.6,0.3,1.3,0.5,2.1,0.7
	c0.8,0.2,1.4,0.3,1.8,0.3C144.8,37.1,145.3,37.1,145.8,37.1z"/>
<path d="M202.8,44.3c0.1,0.3,0.1,0.6-0.1,0.8c-0.2,0.2-0.4,0.4-0.8,0.4h-6.6c-0.3,0-0.7-0.1-1.1-0.4c-0.4-0.3-0.6-0.5-0.7-0.8
	l-4.1-10.7h-11.7v11c0,0.2-0.1,0.5-0.3,0.7c-0.2,0.2-0.4,0.3-0.7,0.3h-6.7c-0.3,0-0.5-0.1-0.7-0.3c-0.2-0.2-0.3-0.4-0.3-0.7V5.3
	c0-0.2,0.1-0.5,0.3-0.7c0.2-0.2,0.4-0.3,0.6-0.3h18.4c1.1,0,2.2,0.1,3.3,0.3c1.1,0.2,2.3,0.6,3.7,1.1c1.4,0.6,2.6,1.4,3.5,2.3
	c1,1,1.8,2.4,2.6,4.2c0.7,1.8,1.1,3.9,1.1,6.3c0,5-1.7,8.9-5.1,11.5L202.8,44.3z M187.3,24.9c0.3,0,0.7-0.1,1.3-0.1
	c0.6-0.1,1.2-0.2,1.7-0.5c0.5-0.2,1.1-0.6,1.6-1c0.5-0.4,1-1,1.3-1.7c0.3-0.7,0.5-1.6,0.5-2.6c0-1.2-0.2-2.2-0.6-3.1
	c-0.4-0.9-0.9-1.5-1.4-1.8c-0.6-0.4-1.1-0.7-1.7-0.9c-0.6-0.2-1-0.3-1.5-0.3h-0.6h-10.3v11.9h8.8h0.1
	C186.8,24.9,187,24.9,187.3,24.9z"/>
<path d="M229.4,4.5c0.4,0,0.7,0.1,0.8,0.3c0.2,0.2,0.2,0.5,0,0.9l-14.8,38.6c-0.1,0.3-0.3,0.6-0.7,0.8c-0.3,0.2-0.7,0.4-1.1,0.4
	h-6.6c-0.4,0-0.7-0.1-0.8-0.4c-0.2-0.2-0.2-0.5,0-0.8L221,5.7c0.1-0.3,0.3-0.6,0.7-0.9c0.3-0.2,0.7-0.3,1.1-0.3H229.4z M248.9,44.3
	c0.1,0.3,0.1,0.6,0,0.8c-0.2,0.2-0.4,0.4-0.8,0.4h-6.6c-0.4,0-0.7-0.1-1.1-0.4c-0.3-0.2-0.6-0.5-0.7-0.8l-2.9-7.5l-11.4,0.1
	c-0.2,0-0.4-0.1-0.5-0.3c-0.1-0.2-0.1-0.4,0-0.7l2.6-6.8c0.1-0.2,0.3-0.5,0.5-0.7c0.3-0.2,0.5-0.3,0.8-0.3h4.8l-2.6-6.7
	c-0.2-0.6-0.2-1.2,0-1.8l3.8-10c0.1-0.3,0.3-0.5,0.4-0.5c0.2,0,0.4,0.2,0.5,0.5L248.9,44.3z"/>
</svg>
