<?xml version="1.0" encoding="UTF-8" standalone="no"?>
<svg
   xmlns:dc="http://purl.org/dc/elements/1.1/"
   xmlns:cc="http://creativecommons.org/ns#"
   xmlns:rdf="http://www.w3.org/1999/02/22-rdf-syntax-ns#"
   xmlns:svg="http://www.w3.org/2000/svg"
   xmlns="http://www.w3.org/2000/svg"
   width="424.37747mm"
   height="101.40565mm"
   viewBox="0 0 1503.6997 359.31137"
   id="svg2"
   version="1.1">
  <defs
     id="defs4" />
  <metadata
     id="metadata7">
    <rdf:RDF>
      <cc:Work
         rdf:about="">
        <dc:format>image/svg+xml</dc:format>
        <dc:type
           rdf:resource="http://purl.org/dc/dcmitype/StillImage" />
        <dc:title></dc:title>
      </cc:Work>
    </rdf:RDF>
  </metadata>
  <g
     id="layer1"
     transform="translate(413.06158,-489.82563)">
    <g
       id="layer1-5"
       transform="matrix(2.3504693,0,0,2.3705666,-510.3094,561.08526)">
      <text
         xml:space="preserve"
         style="font-style:normal;font-weight:normal;font-size:40px;line-height:125%;font-family:sans-serif;letter-spacing:0px;word-spacing:9.13000011px;opacity:0.62000002;fill:#000000;fill-opacity:1;stroke:none;stroke-width:1px;stroke-linecap:butt;stroke-linejoin:miter;stroke-opacity:1"
         x="-715.7547"
         y="497.84354"
         id="text4140"><tspan
           id="tspan4142"
           x="-715.7547"
           y="497.84354" /></text>
      <g
         style="font-style:normal;font-weight:normal;font-size:40px;line-height:125%;font-family:sans-serif;letter-spacing:-67.14020538px;word-spacing:0.04px;opacity:1;fill:#000000;fill-opacity:1;stroke:none;stroke-width:1px;stroke-linecap:butt;stroke-linejoin:miter;stroke-opacity:1"
         id="text4194">
        <path
           d="m 53.232148,38.503264 -11.858359,81.919476 61.348851,0 2.05707,-14.64144 -40.294222,0 2.783084,-20.207606 29.040879,0 2.05706,-14.64145 -28.798869,0 2.541076,-17.78753 33.155002,0 2.05706,-14.64145 -54.088632,0 z"
           style="font-style:italic;font-variant:normal;font-weight:900;font-stretch:normal;line-height:0%;font-family:'Gill Sans MT Pro';-inkscape-font-specification:'Gill Sans MT Pro Heavy Italic';letter-spacing:-1.97000003px;word-spacing:0.04px;opacity:1;fill:#000000;fill-opacity:1"
           id="path4201" />
        <path
           d="m 115.80048,60.283924 -8.95427,60.138816 19.72359,0 5.32416,-36.422096 c 6.05019,-5.68717 9.6803,-8.83327 14.03643,-8.83327 6.05018,0 4.96115,6.5342 4.84014,7.74424 l -5.44516,37.511126 19.6026,0 5.32416,-36.301096 c 0.24201,-1.93606 0.60502,-4.71914 0.60502,-6.6552 0,-6.7762 -3.02509,-18.27155 -16.69851,-18.27155 -9.43829,0 -15.60948,5.20316 -19.7236,8.10724 l 0.96803,-7.01821 -19.60259,0 z"
           style="font-style:italic;font-variant:normal;font-weight:900;font-stretch:normal;line-height:0%;font-family:'Gill Sans MT Pro';-inkscape-font-specification:'Gill Sans MT Pro Heavy Italic';letter-spacing:-1.97000003px;word-spacing:0.04px;opacity:1;fill:#000000;fill-opacity:1"
           id="path4203" />
        <path
           d="m 316.42267,120.42274 -3.87211,-81.919476 -21.41765,0 -28.07285,52.03158 -12.94739,-52.03158 -22.02267,0 -26.98381,81.919476 20.57062,0 17.78754,-54.088636 13.55241,54.088636 12.58438,0 28.43586,-52.394576 2.29907,52.394576 20.0866,0 z"
           style="font-style:italic;font-variant:normal;font-weight:900;font-stretch:normal;line-height:0%;font-family:'Gill Sans MT Pro';-inkscape-font-specification:'Gill Sans MT Pro Heavy Italic';letter-spacing:-1.97000003px;word-spacing:0.04px;opacity:1;fill:#000000;fill-opacity:1"
           id="path4205" />
        <path
           d="m 386.8468,61.130954 c -7.98624,-1.33104 -11.85836,-1.93606 -19.23958,-1.93606 -37.51113,0 -44.89236,22.50668 -44.89236,36.18009 0,13.794416 8.22825,26.136786 21.53866,26.136786 7.38122,0 11.61635,-3.63011 14.88345,-6.53419 l -0.96803,5.44516 19.60259,0 9.07527,-59.291786 z m -25.65277,40.294216 c -5.44517,3.5091 -7.98624,4.35613 -10.40632,4.35613 -5.44516,0 -7.98624,-4.59814 -7.98624,-9.801296 0,-12.10036 8.10725,-22.26467 19.11858,-22.26467 l 3.63011,0 -4.35613,27.709836 z"
           style="font-style:italic;font-variant:normal;font-weight:900;font-stretch:normal;line-height:0%;font-family:'Gill Sans MT Pro';-inkscape-font-specification:'Gill Sans MT Pro Heavy Italic';letter-spacing:-1.97000003px;word-spacing:0.04px;opacity:1;fill:#000000;fill-opacity:1"
           id="path4207" />
        <path
           d="m 407.71993,120.42274 5.08216,-34.365036 c 3.02509,-5.20316 6.7762,-8.34925 10.64832,-8.34925 4.59814,0 7.01821,4.23513 8.47026,6.6552 l 9.31728,-18.99757 c -3.1461,-3.0251 -6.5342,-6.17119 -11.37435,-6.17119 -6.41319,0 -12.58438,7.50223 -14.39943,9.68029 l 1.21004,-8.59126 -19.48159,0 -8.95427,60.138816 19.48158,0 z"
           style="font-style:italic;font-variant:normal;font-weight:900;font-stretch:normal;line-height:0%;font-family:'Gill Sans MT Pro';-inkscape-font-specification:'Gill Sans MT Pro Heavy Italic';letter-spacing:-1.97000003px;word-spacing:0.04px;opacity:1;fill:#000000;fill-opacity:1"
           id="path4209" />
        <path
           d="m 487.05862,98.521084 c -9.07528,4.235126 -13.67342,5.566166 -19.36059,5.566166 -12.82639,0 -13.67341,-8.470256 -13.67341,-11.374346 0,-5.32416 4.59814,-15.73047 19.36058,-15.73047 2.29907,0 4.59814,0.36301 7.01821,0.84702 2.29907,0.60502 4.71915,1.33104 7.26022,2.17807 l 2.66208,-18.63457 c -4.84014,-1.08903 -10.0433,-2.17806 -17.78753,-2.17806 -31.58196,0 -38.60017,22.74869 -38.60017,33.276 0,8.833266 3.87212,29.040876 33.51801,29.040876 5.32416,0 9.9223,-0.60502 16.4565,-2.78308 l 3.1461,-20.207606 z"
           style="font-style:italic;font-variant:normal;font-weight:900;font-stretch:normal;line-height:0%;font-family:'Gill Sans MT Pro';-inkscape-font-specification:'Gill Sans MT Pro Heavy Italic';letter-spacing:-1.97000003px;word-spacing:0.04px;opacity:1;fill:#000000;fill-opacity:1"
           id="path4211" />
        <path
           d="m 502.2181,38.503264 -12.22136,81.919476 19.72359,0 5.32416,-36.301096 c 5.56617,-5.32416 9.6803,-8.83326 13.91542,-8.83326 4.35614,0 5.44517,4.84014 4.96115,8.10724 l -5.56616,37.027116 19.72359,0 5.08216,-34.486036 c 0.72602,-4.71915 0.84702,-7.98624 0.84702,-8.83327 0,-5.92918 -2.54108,-17.90854 -16.94051,-17.90854 -8.10725,0 -13.91542,3.87212 -19.60259,8.10724 l 4.23512,-28.79887 -19.48159,0 z"
           style="font-style:italic;font-variant:normal;font-weight:900;font-stretch:normal;line-height:0%;font-family:'Gill Sans MT Pro';-inkscape-font-specification:'Gill Sans MT Pro Heavy Italic';letter-spacing:-1.97000003px;word-spacing:0.04px;opacity:1;fill:#000000;fill-opacity:1"
           id="path4213" />
        <path
           d="m 615.26768,95.495994 c 0.24201,-1.33104 0.84702,-3.99312 0.84702,-8.83327 0,-18.75557 -11.97936,-27.46783 -25.65277,-27.46783 -19.23958,0 -32.79199,15.73047 -32.79199,34.36504 0,10.164306 4.71914,27.951836 31.46095,27.951836 8.71226,0 12.82639,-1.57304 19.7236,-4.35613 l 3.02509,-14.76245 c -5.44517,2.29907 -12.94739,5.56617 -22.38568,5.56617 -12.94739,0 -12.22137,-11.132326 -12.22137,-12.463366 l 37.99515,0 z m -36.4221,-10.64833 c 1.81505,-4.84014 4.71914,-12.10036 11.25334,-12.10036 7.62323,0 7.13921,9.43828 7.01821,12.10036 l -18.27155,0 z"
           style="font-style:italic;font-variant:normal;font-weight:900;font-stretch:normal;line-height:0%;font-family:'Gill Sans MT Pro';-inkscape-font-specification:'Gill Sans MT Pro Heavy Italic';letter-spacing:-1.97000003px;word-spacing:0.04px;opacity:1;fill:#000000;fill-opacity:1"
           id="path4215" />
        <path
           d="m 669.1389,92.954914 9.31728,-32.67099 c 1.69405,-5.80817 2.66208,-9.80129 2.66208,-14.03642 0,-3.50911 -2.29907,-8.83327 -10.40631,-8.83327 -7.38122,0 -10.40632,4.35613 -11.37434,6.89721 -0.96803,2.66208 -1.45205,8.22825 -1.57305,10.64832 l -1.08904,37.99515 12.46338,0 z m -8.59126,28.556856 c 6.77621,0 12.34237,-5.56617 12.34237,-12.34237 0,-6.77621 -5.56616,-12.342366 -12.34237,-12.342366 -6.7762,0 -12.34237,5.566156 -12.34237,12.342366 0,6.7762 5.56617,12.34237 12.34237,12.34237 z"
           style="font-style:italic;font-variant:normal;font-weight:900;font-stretch:normal;line-height:0%;font-family:'Gill Sans MT Pro';-inkscape-font-specification:'Gill Sans MT Pro Heavy Italic';letter-spacing:-1.97000003px;word-spacing:0.04px;opacity:1;fill:#000000;fill-opacity:1"
           id="path4217" />
      </g>
    </g>
    <g
       id="text3378"
       style="font-style:normal;font-weight:normal;font-size:122.97116852px;line-height:125%;font-family:sans-serif;letter-spacing:1.36000991px;word-spacing:0px;fill:#000000;fill-opacity:1;stroke:none;stroke-width:1px;stroke-linecap:butt;stroke-linejoin:miter;stroke-opacity:1">
      <path
         id="path3350"
         style="font-style:normal;font-variant:normal;font-weight:500;font-stretch:normal;font-family:GillSans;-inkscape-font-specification:'GillSans Medium';letter-spacing:12px"
         d="m -160.39731,513.43609 0,73.04488 37.87512,0 0,10.82146 -49.9263,0 0,-83.86634 12.05118,0 0,0 z" />
      <path
         id="path3352"
         style="font-style:normal;font-variant:normal;font-weight:500;font-stretch:normal;font-family:GillSans;-inkscape-font-specification:'GillSans Medium';letter-spacing:12px"
         d="m -64.748094,512.94421 37.506207,84.35822 -12.297117,0 -11.190376,-24.71721 -35.661639,0 -10.575521,24.71721 -12.29712,0 36.030556,-84.35822 8.48501,0 0,0 z m -4.426962,18.44567 -12.543059,30.37388 26.069888,0 -13.526829,-30.37388 0,0 z" />
      <path
         id="path3354"
         style="font-style:normal;font-variant:normal;font-weight:500;font-stretch:normal;font-family:GillSans;-inkscape-font-specification:'GillSans Medium';letter-spacing:12px"
         d="m 40.451309,513.43609 21.151041,0 q 12.789001,0.12297 20.167271,6.3945 7.37827,6.27153 7.37827,17.21597 0,7.2553 -3.689135,12.54306 -3.566164,5.28776 -10.329578,7.99312 3.566164,2.33645 6.394501,5.5337 2.951308,3.19725 5.656674,7.2553 1.598625,2.33646 3.19725,5.04182 1.721596,2.5824 3.443193,5.41073 0.737827,1.22971 1.352683,2.33645 0.737827,1.10675 1.475654,2.09051 0.122971,0.24595 0.245942,0.61486 0.245942,0.24594 0.491885,0.49189 1.475654,2.21348 3.32022,4.79587 1.84457,2.45942 4.54993,6.14856 l -14.387622,0 -11.067405,-17.21596 q -7.009357,-10.82147 -11.313348,-14.5106 -4.303991,-3.81211 -8.116097,-4.30399 -0.737827,-0.12297 -1.475654,-0.12297 -0.614856,-0.12298 -1.352683,-0.12298 l -5.041818,-0.12297 0,36.39947 -12.051174,0 0,-83.86634 0,0 z m 12.051174,10.32958 0,26.31583 7.747184,0 q 9.591751,0.12297 13.034944,-3.93508 3.443192,-4.18102 3.443192,-9.34581 0,0 0,0 0,-0.12297 0,-0.12297 0,0 0,0 0,-0.12297 0,-0.12297 -0.122971,-5.90261 -3.935077,-9.22284 -3.812106,-3.44319 -12.543059,-3.44319 l -7.747184,-0.12297 0,0 z" />
      <path
         id="path3356"
         style="font-style:normal;font-variant:normal;font-weight:500;font-stretch:normal;font-family:GillSans;-inkscape-font-specification:'GillSans Medium';letter-spacing:12px"
         d="m 174.01024,513.43609 0,10.82147 -35.53867,0 0,25.33206 34.30895,0 0,10.82146 -34.30895,0 0,26.06989 36.64541,0 0,10.82146 -48.69659,0 0,-83.86634 47.58985,0 0,0 z m -24.59424,-23.61046 12.29712,0 -13.77277,18.07676 -6.76342,0 8.23907,-18.07676 0,0 z" />
      <path
         id="path3358"
         style="font-style:normal;font-variant:normal;font-weight:500;font-stretch:normal;font-family:GillSans;-inkscape-font-specification:'GillSans Medium';letter-spacing:12px"
         d="m 199.2911,513.43609 26.19286,0 q 13.77277,0.12297 20.16727,7.2553 6.51747,7.00936 6.51747,16.97002 0,9.8377 -6.88638,16.72408 -6.76341,6.76342 -21.39698,6.76342 l -12.54306,-0.12298 0,36.2765 -12.05118,0 0,-83.86634 0,0 z m 12.05118,10.82147 0,25.94691 13.6498,0 q 6.76341,0.12297 10.69849,-3.32022 4.05805,-3.44319 4.05805,-9.71472 0,-0.36892 0,-0.61486 0,-0.36891 0,-0.61485 -0.36892,-4.30399 -3.56617,-7.87016 -3.07428,-3.68913 -10.69849,-3.68913 l -14.14168,-0.12297 0,0 z" />
      <path
         id="path3360"
         style="font-style:normal;font-variant:normal;font-weight:500;font-stretch:normal;font-family:GillSans;-inkscape-font-specification:'GillSans Medium';letter-spacing:12px"
         d="m 345.05493,513.43609 0,50.91007 q 0,15.49436 -9.34581,24.84017 -9.22284,9.22284 -27.91445,9.22284 -13.28089,0 -24.10235,-7.74718 -10.82147,-7.87016 -10.82147,-24.96315 l 0,-52.26275 12.05118,0 0,49.55738 q 0,7.2553 1.10674,10.94444 1.10674,3.56616 3.93508,6.3945 3.56616,3.56616 8.11609,5.41073 4.54994,1.7216 9.96067,1.7216 6.88638,0 11.80523,-1.96754 5.04182,-1.96754 7.87016,-4.79588 3.19725,-3.19725 4.18102,-7.74718 1.10674,-4.67291 1.10674,-10.57552 l 0,-48.94253 12.05117,0 0,0 z" />
      <path
         id="path3362"
         style="font-style:normal;font-variant:normal;font-weight:500;font-stretch:normal;font-family:GillSans;-inkscape-font-specification:'GillSans Medium';letter-spacing:12px"
         d="m 373.77708,597.30243 0,-83.86634 24.34829,0 q 13.28089,0.12297 19.42945,6.64045 6.14856,6.3945 6.3945,14.14168 0,0.24594 0,0.49188 0,0.12298 0,0.24595 0,6.51747 -3.19725,10.94443 -3.07428,4.30399 -9.59175,7.00936 l 0,0.12297 q 9.46878,1.84457 14.75654,7.74718 5.41073,5.77965 5.41073,14.26466 0,0.98377 -0.12297,1.96754 0,0.98377 -0.24594,1.96754 -1.35269,6.88638 -7.99313,12.66603 -6.64044,5.65667 -20.41321,5.65667 l -28.77526,0 0,0 z m 12.05118,-37.13729 0,26.31583 15.12545,0 q 9.59175,0.12297 13.40386,-3.4432 3.93508,-3.56616 4.42696,-7.87015 0.12297,-0.49189 0.12297,-0.8608 0,-0.49188 0,-0.98377 0,-5.77964 -4.54993,-9.34581 -4.54993,-3.68913 -14.01871,-3.68913 l -14.5106,-0.12297 0,0 z m 0,-35.90758 0,25.08611 7.99312,0 q 8.9769,0.12297 13.28089,-3.19725 4.42696,-3.32022 4.42696,-10.08363 0,-4.67291 -3.19725,-8.1161 -3.07428,-3.56616 -11.43632,-3.56616 l -11.0674,-0.12297 0,0 z" />
      <path
         id="path3364"
         style="font-style:normal;font-variant:normal;font-weight:500;font-stretch:normal;font-family:GillSans;-inkscape-font-specification:'GillSans Medium';letter-spacing:12px"
         d="m 466.87655,513.43609 0,73.04488 37.87512,0 0,10.82146 -49.92629,0 0,-83.86634 12.05117,0 0,0 z" />
      <path
         id="path3366"
         style="font-style:normal;font-variant:normal;font-weight:500;font-stretch:normal;font-family:GillSans;-inkscape-font-specification:'GillSans Medium';letter-spacing:12px"
         d="m 539.40722,513.43609 0,83.86634 -12.05117,0 0,-83.86634 12.05117,0 0,0 z" />
      <path
         id="path3368"
         style="font-style:normal;font-variant:normal;font-weight:500;font-stretch:normal;font-family:GillSans;-inkscape-font-specification:'GillSans Medium';letter-spacing:12px"
         d="m 621.74674,597.30243 0,-0.12297 0,0.24594 q 8.11609,3.44319 13.89574,5.16479 5.90261,1.7216 10.69849,1.7216 1.7216,0 3.44319,-0.24595 1.7216,-0.24594 3.32022,-0.73782 l 0.36892,0.36891 -10.82147,10.69849 q -12.17414,-0.8608 -22.38075,-5.77964 -10.08363,-4.79588 -18.81459,-11.31335 -15.61734,-2.82834 -25.45503,-14.5106 -9.71472,-11.68226 -9.71472,-27.2996 0,-19.06053 12.91197,-30.98873 12.91197,-12.05118 33.32519,-12.05118 18.81459,0 31.48062,12.42009 12.66603,12.42009 12.66603,30.86576 0,15.24843 -9.8377,27.05366 -9.83769,11.68226 -25.08611,14.5106 l 0,0 z m -9.71473,-73.90567 q -13.89574,0.12297 -21.39698,6.88638 -7.50124,6.64045 -10.08364,14.63357 -0.98376,2.82834 -1.47565,5.5337 -0.36891,2.70537 -0.36891,5.16479 0,12.66603 8.36204,22.25778 8.48501,9.59176 25.20909,9.59176 14.01871,0 22.9956,-9.34581 8.9769,-9.46878 8.9769,-22.25778 0,-13.77278 -9.22284,-22.99561 -9.09986,-9.34581 -22.99561,-9.34581 l 0,-0.12297 z" />
      <path
         id="path3370"
         style="font-style:normal;font-variant:normal;font-weight:500;font-stretch:normal;font-family:GillSans;-inkscape-font-specification:'GillSans Medium';letter-spacing:12px"
         d="m 753.55328,513.43609 0,50.91007 q 0,15.49436 -9.34581,24.84017 -9.22283,9.22284 -27.91445,9.22284 -13.28089,0 -24.10235,-7.74718 -10.82146,-7.87016 -10.82146,-24.96315 l 0,-52.26275 12.05117,0 0,49.55738 q 0,7.2553 1.10674,10.94444 1.10674,3.56616 3.93508,6.3945 3.56616,3.56616 8.1161,5.41073 4.54993,1.7216 9.96066,1.7216 6.88639,0 11.80523,-1.96754 5.04182,-1.96754 7.87016,-4.79588 3.19725,-3.19725 4.18102,-7.74718 1.10674,-4.67291 1.10674,-10.57552 l 0,-48.94253 12.05117,0 0,0 z" />
      <path
         id="path3372"
         style="font-style:normal;font-variant:normal;font-weight:500;font-stretch:normal;font-family:GillSans;-inkscape-font-specification:'GillSans Medium';letter-spacing:12px"
         d="m 829.86528,513.43609 0,10.82147 -35.53867,0 0,25.33206 34.30896,0 0,10.82146 -34.30896,0 0,26.06989 36.64541,0 0,10.82146 -48.69659,0 0,-83.86634 47.58985,0 0,0 z" />
    </g>
  </g>
</svg>
