<svg id="LREM" xmlns="http://www.w3.org/2000/svg" viewBox="0 0 1202.96 287.45"><title>lrem</title><g id="La_république" data-name="La république"><path id="path3350" d="M202.13,18.89V77.32h30.3V86H192.49V18.89Z" transform="translate(0)"/><path id="path3352" d="M278.65,18.49l30,67.49h-9.84l-8.95-19.77H261.34L252.88,86H243l28.82-67.49Zm-3.54,14.76-10,24.3h20.86l-10.82-24.3Z" transform="translate(0)"/><path id="path3354" d="M362.81,18.89h16.92Q390,19,395.86,24t5.91,13.78a17.13,17.13,0,0,1-2.95,10,17.54,17.54,0,0,1-8.27,6.4,25.4,25.4,0,0,1,5.12,4.42,46.94,46.94,0,0,1,4.52,5.81c.86,1.24,1.71,2.59,2.56,4s1.84,2.82,2.76,4.33c.39.65.75,1.28,1.08,1.87s.79,1.15,1.18,1.67c.06.13.13.3.2.49l.39.4c.79,1.18,1.67,2.46,2.66,3.83s2.19,3,3.63,4.92H403.14l-8.85-13.77q-5.61-8.65-9.05-11.61a12.64,12.64,0,0,0-6.49-3.44,6.8,6.8,0,0,0-1.18-.1,5.25,5.25,0,0,0-1.09-.1l-4-.1V86h-9.64V18.89Zm9.64,8.26V48.2h6.2q7.67.11,10.43-3.14a11.51,11.51,0,0,0,2.75-7.48h0v-.1h0v-.1A9.54,9.54,0,0,0,388.68,30q-3-2.74-10-2.75l-6.2-.1Z" transform="translate(0)"/><path id="path3356" d="M469.66,18.89v8.66H441.23V47.81h27.44v8.66H441.23V77.32h29.31V86h-39V18.89ZM450,0h9.84l-11,14.46h-5.41L450,0Z" transform="translate(0)"/><path id="path3358" d="M489.88,18.89h21q11,.09,16.13,5.8a19.21,19.21,0,0,1,5.21,13.58,18.21,18.21,0,0,1-5.5,13.38q-5.41,5.41-17.12,5.41l-10-.1V86h-9.64V18.89Zm9.64,8.66V48.3h10.92c3.61.07,6.46-.82,8.56-2.65a9.63,9.63,0,0,0,3.25-7.77v-1a10.69,10.69,0,0,0-2.85-6.29c-1.64-2-4.5-3-8.56-3l-11.32-.09Z" transform="translate(0)"/><path id="path3360" d="M606.49,18.89V59.62q0,12.39-7.47,19.87t-22.34,7.38a32.37,32.37,0,0,1-19.28-6.2q-8.65-6.3-8.65-20V18.89h9.64V58.53a32.6,32.6,0,0,0,.88,8.76,12.37,12.37,0,0,0,3.15,5.12,19.42,19.42,0,0,0,6.49,4.32,22.35,22.35,0,0,0,8,1.38,25.47,25.47,0,0,0,9.45-1.57,18.14,18.14,0,0,0,6.29-3.84A12.21,12.21,0,0,0,596,66.5a36.83,36.83,0,0,0,.88-8.46V18.89Z" transform="translate(0)"/><path id="path3362" d="M629.47,86V18.89H649q10.62.09,15.54,5.31a16.8,16.8,0,0,1,5.12,11.31v.59a14.53,14.53,0,0,1-2.56,8.76,17.27,17.27,0,0,1-7.67,5.61v.1Q667,52,671.18,56.76a16.07,16.07,0,0,1,4.33,11.42,11.93,11.93,0,0,1-.1,1.57,6.48,6.48,0,0,1-.19,1.57c-.73,3.68-2.86,7.05-6.4,10.14s-9,4.52-16.33,4.52Zm9.64-29.71v21h12.1q7.68.11,10.73-2.75a10.07,10.07,0,0,0,3.54-6.3,3.19,3.19,0,0,0,.1-.68V66.8a9.07,9.07,0,0,0-3.64-7.48q-3.65-3-11.22-3l-11.61-.1Zm0-28.72V47.61h6.4c4.78.07,8.33-.78,10.62-2.55s3.54-4.46,3.54-8.07a9.2,9.2,0,0,0-2.56-6.49q-2.45-2.87-9.14-2.86l-8.86-.09Z" transform="translate(0)"/><path id="path3364" d="M704,18.89V77.32h30.3V86H694.31V18.89Z" transform="translate(0)"/><path id="path3366" d="M762,18.89V86h-9.65V18.89Z" transform="translate(0)"/><path id="path3368" d="M827.85,86v.1A108.83,108.83,0,0,0,839,90.21a30.8,30.8,0,0,0,8.56,1.38,19.71,19.71,0,0,0,2.76-.2,17.58,17.58,0,0,0,2.65-.59l.3.3-8.66,8.56A48.63,48.63,0,0,1,826.67,95a89,89,0,0,1-15.06-9,33.63,33.63,0,0,1-20.36-11.61,33.12,33.12,0,0,1-7.77-21.84q0-15.24,10.33-24.79t26.66-9.64q15,0,25.18,9.94t10.14,24.69a32.87,32.87,0,0,1-7.87,21.64A33.45,33.45,0,0,1,827.85,86Zm-7.78-59.12Q809,27,803,32.37a26.67,26.67,0,0,0-8.07,11.7,30.07,30.07,0,0,0-1.18,4.43,30.09,30.09,0,0,0-.3,4.13,26.28,26.28,0,0,0,6.69,17.81q6.79,7.66,20.17,7.67,11.22,0,18.4-7.48a25,25,0,0,0,7.18-17.8,25,25,0,0,0-7.38-18.4Q831.2,27,820.07,27v-.1Z" transform="translate(0)"/><path id="path3370" d="M933.29,18.89V59.62q0,12.39-7.47,19.87t-22.34,7.38a32.37,32.37,0,0,1-19.28-6.2q-8.66-6.3-8.66-20V18.89h9.65V58.53a32.6,32.6,0,0,0,.88,8.76,12.37,12.37,0,0,0,3.15,5.12,19.42,19.42,0,0,0,6.49,4.32,22.31,22.31,0,0,0,8,1.38,25.38,25.38,0,0,0,9.44-1.57,18.1,18.1,0,0,0,6.3-3.84,12.21,12.21,0,0,0,3.35-6.2,36.83,36.83,0,0,0,.88-8.46V18.89Z" transform="translate(0)"/><path id="path3372" d="M994.34,18.89v8.66H965.91V47.81h27.45v8.66H965.91V77.32h29.32V86h-39V18.89Z" transform="translate(0)"/></g><g id="En_Marche" data-name="En Marche"><path id="path4201" d="M22.3,130,0,285.38H115.36l3.87-27.76H43.46l5.23-38.33H103.3l3.87-27.76H53l4.77-33.74h62.35L124,130Z" transform="translate(0)"/><path id="path4203" d="M140,171.33l-16.84,114H160.2l10-69.07c11.38-10.78,18.2-16.75,26.4-16.75,11.37,0,9.32,12.39,9.1,14.69l-10.24,71.13h36.86l10-68.84a119.5,119.5,0,0,0,1.14-12.62c0-12.85-5.69-34.65-31.4-34.65-17.75,0-29.35,9.87-37.09,15.37l1.82-13.31Z" transform="translate(0)"/><path id="path4205" d="M517.2,285.38,509.91,130H469.64L416.85,228.7,392.51,130H351.1L300.36,285.38H339l33.44-102.57L398,285.38h23.66L475.1,186l4.32,99.36Z" transform="translate(0)"/><path id="path4207" d="M649.62,172.94c-15-2.52-22.3-3.67-36.18-3.67C542.91,169.27,529,212,529,237.88c0,26.16,15.47,49.57,40.5,49.57,13.88,0,21.84-6.89,28-12.39l-1.82,10.32h36.86Zm-48.24,76.42c-10.24,6.65-15,8.26-19.57,8.26-10.23,0-15-8.72-15-18.59,0-22.95,15.24-42.22,36-42.22h6.82Z" transform="translate(0)"/><path id="path4209" d="M688.87,285.38l9.55-65.17c5.69-9.87,12.75-15.83,20-15.83,8.64,0,13.19,8,15.92,12.62l17.52-36c-5.91-5.74-12.28-11.7-21.38-11.7-12.06,0-23.67,14.23-27.08,18.36l2.28-16.3H669.07l-16.83,114Z" transform="translate(0)"/><path id="path4211" d="M838.05,243.85c-17.06,8-25.71,10.55-36.4,10.55-24.12,0-25.71-16.06-25.71-21.57,0-10.09,8.64-29.83,36.4-29.83a66.63,66.63,0,0,1,13.2,1.61q6.48,1.72,13.65,4.13l5-35.34a137.72,137.72,0,0,0-33.45-4.13c-59.39,0-72.58,43.14-72.58,63.1,0,16.76,7.28,55.08,63,55.08,10,0,18.66-1.15,30.95-5.28l5.91-38.32Z" transform="translate(0)"/><path id="path4213" d="M866.56,130l-23,155.35h37.09l10-68.84c10.47-10.1,18.2-16.75,26.16-16.75,8.2,0,10.24,9.18,9.33,15.37l-10.46,70.22h37.08l9.56-65.4a125.48,125.48,0,0,0,1.59-16.75c0-11.24-4.77-34-31.85-34-15.25,0-26.17,7.34-36.86,15.37l8-54.61Z" transform="translate(0)"/><path id="path4215" d="M1079.14,238.11a80.28,80.28,0,0,0,1.59-16.75c0-35.57-22.53-52.09-48.24-52.09-36.18,0-61.66,29.83-61.66,65.17,0,19.28,8.87,53,59.16,53,16.38,0,24.12-3,37.09-8.26l5.69-28c-10.24,4.36-24.35,10.56-42.1,10.56-24.34,0-23-21.11-23-23.64Zm-68.49-20.19c3.41-9.18,8.87-22.95,21.16-22.95,14.33,0,13.42,17.9,13.2,22.95Z" transform="translate(0)"/><path id="path4217" d="M1180.43,233.29l17.52-62c3.19-11,5-18.58,5-26.62,0-6.65-4.32-16.75-19.57-16.75-13.88,0-19.57,8.26-21.39,13.08-1.82,5.05-2.73,15.61-3,20.2l-2,72Zm-16.15,54.16A23.41,23.41,0,1,0,1141.07,264,23.41,23.41,0,0,0,1164.28,287.45Z" transform="translate(0)"/></g></svg>