<?xml version="1.0" encoding="UTF-8"?>
<svg id="Layer_1" data-name="Layer 1" xmlns="http://www.w3.org/2000/svg" viewBox="0 0 500 300">
  <defs>
    <style>
      .cls-1 {
        fill: #0b419a;
      }

      .cls-2 {
        fill: #e7162c;
      }

      .cls-3 {
        fill: #dddfe7;
      }

      .cls-4 {
        fill: #083f9a;
      }
    </style>
  </defs>
  <g>
    <path class="cls-1" d="m112.65,97.61s-6.82,42.43,29.35,75.76l-5.83,7.13s-40.67-32.04-31.67-82.88h8.15Z"/>
    <path class="cls-1" d="m80.3,95.17s-14.76,60.46,37.37,108.5l-7.67,9.67s-53.14-44.9-40.17-118.17h10.47Z"/>
    <path class="cls-1" d="m19.67,93h12.67S-4.11,173,78.78,253.67l-10.98,15.78S-20.78,196.11,19.67,93Z"/>
  </g>
  <g>
    <path class="cls-2" d="m186.33,53.22c-.22-.05.44,3.56.44,3.56,0,0,17.94,2.83,39.28,20.33l2.11-1.83s-15.11-15.94-41.83-22.06Z"/>
    <path class="cls-2" d="m181.83,40.83l1.67,3.22s28.33,6.94,49.67,27.17l1.67-1.61s-15.61-18.39-53-28.78Z"/>
    <path class="cls-2" d="m176.72,26.61l1.44,3.67s35.33,9.61,62.61,34.89l2-1.56s-27.67-27-66.06-37Z"/>
  </g>
  <g>
    <path class="cls-3" d="m108.44,84.89h8.44s12.39-33.89,59.83-30.61v-3.94s-49.83-7.31-68.28,34.56Z"/>
    <path class="cls-3" d="m75.42,81.5h9.5s20.42-48.08,88.08-40.67l-1.14-3.08s-70.78-12.92-96.44,43.75Z"/>
    <path class="cls-3" d="m27.75,77.5h12.33S74,10.42,168.25,27.08l-.47-2.66S76.83-1.33,27.75,77.5Z"/>
  </g>
  <g>
    <path class="cls-4" d="m185.17,200.83h-16.5l-12.33,76.5h11.5l2-15.17h13.83l1.83,15.17h11.83l-12.17-76.5Zm-14.33,51l5.75-39.33,5.75,39.33h-11.5Z"/>
    <polygon class="cls-4" points="162.83 182.83 174.17 195 183.17 195 175.83 182.83 162.83 182.83"/>
    <path class="cls-4" d="m257.17,239.42c0-22.08,0-38.58-15.5-38.58h-20.67v76.5h20.17c16.12-.33,16.17-16.5,16-37.92Zm-11.67,21.5c0,5.08-4.58,5.5-4.58,5.5h-8v-54.75h7c5.5,0,5.58,4.75,5.58,4.75v44.5Z"/>
    <path class="cls-4" d="m300.83,272.25v-21s-.57-12.42-7.57-12.81c1.5-.02,7.41-1.16,7.41-18.19,0-19.5-13.25-19.42-13.25-19.42h-21.67v76.5h11.58v-33.17h6.08s5.75.25,5.75,5.75v22.83s-.08,4.5,2.67,4.58c2.75.08,11.08,0,11.08,0,0,0-2.08-2.25-2.08-5.08Zm-11.58-54.83v9.92c0,6.17-5.67,6.42-5.67,6.42h-6.17v-22.08h6.92c5.08,0,4.92,5.75,4.92,5.75Z"/>
    <path class="cls-4" d="m345,260.56v-45.67s.48-14.06-17.98-14.06-18.14,13.5-18.14,13.5v46.22s-1.1,16.81,19.01,16.81,17.11-16.81,17.11-16.81Zm-11.67-44.89v45.56s-.33,6.33-6.32,6.33-6.35-5.89-6.35-5.89v-45.56s-.22-5.78,6.33-5.78,6.33,5.33,6.33,5.33Z"/>
    <rect class="cls-4" x="353.33" y="200.83" width="12" height="76.5"/>
    <polygon class="cls-4" points="371.11 200.83 408.33 200.83 408.33 211.67 395.44 211.67 395.44 277.33 383.56 277.33 383.56 211.67 371.11 211.67 371.11 200.83"/>
    <polygon class="cls-4" points="414.11 200.83 414.11 277.33 447.11 277.33 447.11 266.22 426.11 266.22 426.11 242.78 443 242.78 443 231.89 426 231.89 426 211.22 447.11 211.22 447.11 200.83 414.11 200.83"/>
    <polygon class="cls-4" points="472.44 200.83 484.22 200.83 484.22 236.11 483 256.89 473.89 256.89 472.44 236.11 472.44 200.83"/>
    <rect class="cls-4" x="472.44" y="266.22" width="11.78" height="11.11"/>
  </g>
  <g>
    <path class="cls-4" d="m185,155.75c-12.36,0-25.5-8.99-25.5-25.64s13.02-25.72,25.61-25.72,18.47,6.48,18.7,6.76l-2.29,1.93c-.2-.23-5.01-5.69-16.41-5.69s-22.61,8.5-22.61,22.72,11.59,22.64,22.5,22.64c9.86,0,14.31-3.45,15.5-4.57v-18.11h3v19.24l-.34.41c-.2.25-5.05,6.03-18.16,6.03Z"/>
    <path class="cls-4" d="m254.23,134.32c2.96-2.85,4.46-6.88,4.46-11.99,0-16.61-15.72-17.16-15.92-17.17h-21.83v50.17h3v-16.72h18.78c.06,0,.48.01,1.13-.03l12.11,17.6,2.47-1.7-11.29-16.4c2.2-.54,4.86-1.61,7.09-3.75Zm-11.45,1.29h-18.83v-27.44h18.79c.53.01,12.96.52,12.96,14.17,0,4.25-1.19,7.55-3.52,9.81-3.74,3.61-9.29,3.46-9.39,3.47Z"/>
    <path class="cls-4" d="m294.44,156.24c-14.43,0-26.17-11.74-26.17-26.17s11.74-26.17,26.17-26.17,26.17,11.74,26.17,26.17-11.74,26.17-26.17,26.17Zm0-49.33c-12.77,0-23.17,10.39-23.17,23.17s10.39,23.17,23.17,23.17,23.17-10.39,23.17-23.17-10.39-23.17-23.17-23.17Z"/>
    <path class="cls-4" d="m353.33,156.24c-19.28,0-19.5-19.7-19.5-19.9v-30.93h3v30.93c0,.69.24,16.9,16.5,16.9s17.73-15.09,17.83-16.28v-31.55h3v31.72c-.02.19-1.66,19.11-20.83,19.11Z"/>
    <path class="cls-4" d="m395.17,155.33h-3v-50.06h21.94c.25,0,6.92-.1,11.65,4.53,3,2.93,4.51,7.03,4.51,12.19s-1.52,9.26-4.52,12.17c-4.74,4.6-11.41,4.45-11.7,4.44l-18.9-.41v17.13Zm0-20.13l18.98.41c.06,0,5.74.1,9.55-3.62,2.38-2.32,3.59-5.68,3.59-10s-1.21-7.69-3.59-10.03c-3.81-3.74-9.49-3.7-9.54-3.69h-18.97v26.92Z"/>
    <polygon class="cls-4" points="446.61 153.24 446.61 131.57 474.22 131.57 474.22 128.57 446.61 128.57 446.61 108.28 476.67 108.28 476.67 105.28 443.61 105.28 443.61 156.24 478.33 156.24 478.33 153.24 446.61 153.24"/>
  </g>
</svg>