<svg id="Agir_Ensemble" data-name="Agir Ensemble" xmlns="http://www.w3.org/2000/svg" viewBox="0 0 484.33 239.12"><defs><style>.cls-1{fill:#274c5f;}.cls-2{fill:#4eb669;}</style></defs><title>ae</title><g id="Agir"><path class="cls-1" d="M105.11,139H77.44L4.94,311.32H32.61l16.33-40.5h83.5l16.34,40.5h28.66ZM58.78,246l32.41-78.17L122.44,246Z" transform="translate(-4.94 -136.29)"/><rect class="cls-1" x="346.67" width="32" height="30.22"/><rect class="cls-1" x="346.67" y="53.33" width="32" height="121.69"/><path class="cls-1" d="M436.44,186.82V165.15h-26.5V311.32h26.5V232.18c1.14-14.33,8.93-42.56,52.84-42.56V165.15S460.78,159.82,436.44,186.82Z" transform="translate(-4.94 -136.29)"/><path class="cls-1" d="M297.78,167.82V189.1a76.18,76.18,0,0,0-55-23.19c-41.61,0-75.34,32.72-75.34,73.09s33.73,73.09,75.34,73.09A76.21,76.21,0,0,0,297.71,289c-2.9,98.59-95.49,52.36-109.43,42.35l-13.17,20.39c40.67,31.78,150.22,47.11,150.22-57.11V167.82ZM246.89,288.37c-28.11,0-50.89-22.1-50.89-49.37s22.78-49.38,50.89-49.38,50.89,22.11,50.89,49.38S275,288.37,246.89,288.37Z" transform="translate(-4.94 -136.29)"/></g><g id="Ensemble"><path class="cls-2" d="M168.33,309c-1.44-.44-12.22,13.78-12.22,13.78s-14.55,18.67-23.78,15.67c-.33-2.23-.55-6.34.23-6.45s3.33,1.33,6.22-1.33,21.78-23.22,18.11-29.22-3.56-3.78-5.45-4.45c0,0-9.33,2.67-17.66,14.78s-10.67,23.22-4.56,29.33,13.34,6.22,27.78-8.78S169.78,309.49,168.33,309Zm-18.66-4.78c0,4.78-13.89,18.56-13.89,18.56C136.56,318.93,143.33,308.15,149.67,304.26Z" transform="translate(-4.94 -136.29)"/><path class="cls-2" d="M171.53,299.07s-1.67,11.08-1.75,15.33-4.25,20.17-3.84,24.09,4.75,3.08,5.59,3.41,1.83-1.5,1.83-3.08,2.75-16.42,7.33-23,9.34-15.25,11.42-15.25-7.83,25.25-6.5,34.92.83,9.83,6.79,11.41,8.63-1.33,12.38-8.91,11.41-23.17,11.33-23.75-2.08-2.84-2.58-2.84c0,0-16.84,29.25-19.5,28s8.58-42.75,8.16-44.83-6.5-4.75-7.91-4.25-9.84,5.83-14.34,12C179.94,302.32,178.44,299.24,171.53,299.07Z" transform="translate(-4.94 -136.29)"/><path class="cls-2" d="M242.24,296.74s-2.88-.92-4.17.29a4.58,4.58,0,0,0-.94,1.05,20.65,20.65,0,0,1-.24-2.43c0-3.83,4.05-5.94,3.83-7.22-1.83-3.33-7.89-2.56-7.89-2.56-2.66,2.28-4.89,7.62-4.94,10.28s.44,8.61.44,8.61c-10,6.89-15.5,22.61-15.5,27.56s4.23,10.78,15.28,10.78,13.78-9.67,13.78-15.17c0-3.61-2.16-14.75-3.64-23.06Zm-16.85,42.8c-4.11,0-4.72-2.67-4.72-6.67s2.83-16.38,9.89-21.27c0,0,4.66,7.83,4.66,15.66S229.5,339.54,225.39,339.54Z" transform="translate(-4.94 -136.29)"/><path class="cls-2" d="M297.44,290.65s-2.37-.16-2.37,4.63-5.17,24.58-5.17,34V334s4,4.79,9,4.29c1.13-.17,2.25-12,3.08-14.17s4.59-11.37,5.5-12.25-1.29,8.79-1.12,11.67-.83,5,3.54,7.16,5,1.84,6.63-1.2,8.83-23.63,11.91-25.34c0,0-5.79,26.71-5.79,34s6.92,11.71,12.83,4,21.67-40.7,21.34-42-1.89-1.67-2.95-.22-22.16,35.44-22.16,35.44a49,49,0,0,1,.5-10.11c.83-4.28,7.22-32.22,7.16-34.83s-4.77-9.72-10.94-2.95c-3.17,3.39-9.78,17.45-9.78,17.45s1.06-9.06.17-10.22-5.28-7-10-1.5-4.45,6.5-4.45,6.5.67-4.23.06-5.06A8.27,8.27,0,0,0,297.44,290.65Z" transform="translate(-4.94 -136.29)"/><path class="cls-2" d="M386.36,286.82c-7.67-2.5-15.25,2.83-18.33,7.92,0,0,6.33-24.59,5.58-27.34s-7.58-3.08-8.25-1.66c-.05,1.63.58,1.72.25,2.5,0,0-6,31.75-7.83,36s-8.25,30.5-7,31.5,7.58,2.5,8.66-2.59a10.08,10.08,0,0,0,5.5,1.84c3.09,0,12-.31,21.42-19.66S394,289.32,386.36,286.82Zm-20.42,42.33c-2.38.11-1.72-13.22-1.33-14.83,14.95-25.72,20-22.17,20-22.17C386.28,316,365.94,329.15,365.94,329.15Z" transform="translate(-4.94 -136.29)"/><path class="cls-2" d="M409.86,264.92s-10.92,34-13.17,63.32c0,8.08,3.67,8,5.84,8.08s7.91,3.33,19-23.83c2-4.84-.09-12.67-1.67-10s-10.17,25.91-15.33,26.66c0,0,2.91-37.83,14.66-61.66C420,265.82,411.28,260.26,409.86,264.92Z" transform="translate(-4.94 -136.29)"/><path class="cls-2" d="M290.11,302.46c-1.44-.45-12.22,13.77-12.22,13.77s-14.56,18.67-23.78,15.67c-.33-2.22-.55-6.33.22-6.44s3.34,1.33,6.23-1.34,21.77-23.22,18.11-29.22-3.56-3.78-5.45-4.44c0,0-9.33,2.66-17.66,14.77s-10.67,23.23-4.56,29.34,13.33,6.22,27.78-8.78S291.56,302.9,290.11,302.46Zm-18.67-4.78c0,4.78-13.88,18.55-13.88,18.55C258.33,312.34,265.11,301.57,271.44,297.68Z" transform="translate(-4.94 -136.29)"/><path class="cls-2" d="M465.9,292.17c-1.44-.44-12.22,13.78-12.22,13.78s-14.55,18.66-23.78,15.66c-.33-2.22-.55-6.33.23-6.44s3.33,1.33,6.22-1.33,21.78-23.23,18.11-29.23-3.56-3.77-5.45-4.44c0,0-9.33,2.67-17.66,14.78s-10.67,23.22-4.56,29.33,13.34,6.22,27.78-8.78S467.35,292.61,465.9,292.17Zm-18.66-4.78c0,4.78-13.89,18.56-13.89,18.56C434.13,302.06,440.9,291.28,447.24,287.39Z" transform="translate(-4.94 -136.29)"/></g></svg>