<?xml version="1.0" encoding="UTF-8"?>
<svg id="Layer_1" data-name="Layer 1" xmlns="http://www.w3.org/2000/svg" viewBox="0 0 500 150">
  <defs>
    <style>
      .cls-1 {
        fill: #e15432;
      }
    </style>
  </defs>
  <path class="cls-1" d="m8.78,59.5h22.92c3.76,0,6.81,3.05,6.81,6.81v66.64c0,2.51-2.04,4.56-4.56,4.56H8.78c-2.51,0-4.56-2.04-4.56-4.56v-68.89c0-2.51,2.04-4.56,4.56-4.56Z"/>
  <path class="cls-1" d="m46,101.6v6.36c0,.5.37.92.87.97,6.21.63,43.63,2.8,43.63-36.94,0-37.69-43.39-34.75-44.48-34.67-.02,0-.03,0-.05,0l-31.65.65c-.54.01-.99-.43-.99-.97v-4.41c0-.52.42-.95.94-.97,51.07-1.98,80.72-3.03,83.89,40.16,0,.03,0,.06,0,.09-.03,48.53-43.84,44.23-51.4,43.13-.59-.09-1.1.37-1.1.96v20.62c0,.51.39.94.9.97,31.94,2.2,76.26-10.59,76.26-65.57C122.83,2.05,46.61,7.68,44.7,7.83c-.03,0-.05,0-.08,0H9.47c-.54,0-.97.44-.97.97v6.72c0,.54.44.97.98.97,65.15-.03,97.7-3.37,105.01,55.83,0,.05,0,.09,0,.14-.04,55.03-51,57.34-58.7,57.37-.54,0-.97-.43-.97-.97v-4.37c0-.54.44-.98.98-.97,7.18.12,51.35-1.16,51.35-51.53,0-54.07-60.45-50.12-62.13-50-.02,0-.05,0-.07,0H5.19c-.54,0-.97.44-.97.97v22.26c0,.52.41.95.93.98,41.85,1.96,75.69-8.78,76.68,26.52,0,30.12-28.79,28.55-34.76,27.91-.58-.06-1.08.39-1.08.97Z"/>
  <g>
    <path class="cls-1" d="m178,12.52v8.42c0,.76-.81,1.24-1.47.88-2.76-1.51-8.97-4.48-14.86-4.48-7.89,0-12.56,5-12.56,15.22s2.22,17.22,12.11,17.22c7,0,6.67-1.78,6.67-1.78v-6.89c0-.55-.45-1-1-1h-5.67c-.55,0-1-.45-1-1v-7.22c0-.55.45-1,1-1h18c.55,0,1,.45,1,1v20.85c0,.31-.14.61-.39.8-1.63,1.22-8.26,5.64-18.61,5.64-12,0-24.56-5.06-24.56-26.06s12.89-25,24.78-25c9.78,0,14.67,2.63,16.1,3.57.28.19.45.5.45.84Z"/>
    <path class="cls-1" d="m187.75,57.08v-31.38c0-.3.14-.59.37-.78,1.45-1.18,7.1-5.18,17.13-5.18,5.59,0,7.02,1.37,7.38,1.97.08.14.12.31.12.47v6.31c0,.55-.45,1-1,1h-12.17c-.55,0-1,.45-1,1v26.58c0,.55-.45,1-1,1h-8.83c-.55,0-1-.45-1-1Z"/>
    <path class="cls-1" d="m252.29,38.47s1.53-19.05-18.72-19.05-18.76,19.05-18.76,19.05c0,0-2.12,20.7,18.86,20.7s18.61-20.7,18.61-20.7Zm-18.68,11.7c-9.33,0-8.39-11.25-8.39-11.25,0,0-.67-10.53,8.34-10.53s8.33,10.53,8.33,10.53c0,0,1.06,11.25-8.28,11.25Z"/>
    <path class="cls-1" d="m258.72,20.78h8.94c.55,0,1,.45,1,1v21.27s0,.08,0,.12c.08.67.98,6.61,6.38,6.61s6.45-4.9,6.59-5.63c.01-.06.02-.12.02-.18v-22.19c0-.55.45-1,1-1h8.33c.55,0,1,.45,1,1v23.81s0,.04,0,.05c-.04.66-1.03,13.53-17.14,13.53s-17.09-11.88-17.14-12.53c0-.02,0-.04,0-.06v-24.8c0-.55.45-1,1-1Z"/>
    <path class="cls-1" d="m316.58,19.42c-17,0-17.25,9.33-17.25,9.33v41.42c0,.55.45,1,1,1h9c.55,0,1-.45,1-1v-10.99c0-.71.71-1.17,1.38-.93,1.23.46,3.54.92,7.87.92,13,0,16.25-11.83,16.25-19.88s-2.25-19.88-19.25-19.88Zm.17,30.75c-2.69,0-5.05-1.08-6.06-1.62-.33-.17-.52-.51-.52-.88v-16.25c0-1.58,1.58-2.5,6.33-2.5s8.25,2.25,8.25,11.06-4.42,10.19-8,10.19Z"/>
    <path class="cls-1" d="m357.28,19.42c-19.56,0-18.39,19.72-18.39,20.12s-1.22,19.57,19.17,19.57c7.24,0,11.32-1.82,12.69-2.57.32-.18.53-.51.53-.88v-7.11c0-.75-.78-1.23-1.45-.89-1.8.91-5.13,2.23-9.16,2.23-5.44,0-9.24-2.81-10.02-6.13-.15-.64.32-1.26.97-1.26h22.26c.54,0,.98-.43,1-.97.12-4.38-.46-22.12-17.6-22.12Zm-5.97,15.62c-.65,0-1.13-.6-.97-1.23.48-1.98,1.98-5.64,6.56-5.64s6.08,3.66,6.56,5.64c.15.63-.33,1.23-.97,1.23h-11.17Z"/>
  </g>
  <g>
    <path class="cls-1" d="m158.44,63.56h-20.78c-.55,0-1,.45-1,1v47c0,.55.45,1,1,1h18s25.67,1,25.67-24.5-22.89-24.5-22.89-24.5Zm-2.22,39.44h-6.33c-.55,0-1-.45-1-1v-28.27c0-.55.45-1,1-1h6.67s12.33-.4,12.33,15.13-12.67,15.13-12.67,15.13Z"/>
    <path class="cls-1" d="m203.19,73.42c-19.56,0-18.39,19.72-18.39,20.12s-1.22,19.57,19.17,19.57c7.24,0,11.32-1.82,12.69-2.57.32-.18.53-.51.53-.88v-7.11c0-.75-.78-1.23-1.45-.89-1.8.91-5.13,2.23-9.16,2.23-5.44,0-9.24-2.81-10.02-6.13-.15-.64.32-1.26.97-1.26h22.26c.54,0,.98-.43,1-.97.12-4.38-.46-22.12-17.6-22.12Zm-5.97,15.62c-.65,0-1.13-.6-.97-1.23.48-1.98,1.98-5.64,6.56-5.64s6.08,3.66,6.56,5.64c.15.63-.33,1.23-.97,1.23h-11.17Z"/>
    <path class="cls-1" d="m201.07,70.54h4.66c.3,0,.58-.13.77-.36l5.73-6.96c.54-.65.07-1.64-.77-1.64h-7.71c-.39,0-.74.22-.9.57-.63,1.34-2.16,4.75-2.76,7.15-.16.63.33,1.23.98,1.23Z"/>
    <path class="cls-1" d="m225.2,111.56v-32.3c0-.38.21-.72.54-.89,2-1.03,9.37-4.46,19.35-4.46,4.43,0,8.31,1.15,9.71,2.17.26.19.59.25.9.15,1.72-.58,7.3-2.31,12.3-2.31,6,0,14.92,1.71,14.92,11.69v25.96c0,.55-.45,1-1,1h-8.92c-.55,0-1-.45-1-1v-21.73s.75-6.58-7.25-6.58c-2.75,0-4.01.62-4.55,1.04-.24.18-.36.47-.36.77v26.5c0,.55-.45,1-1,1h-8.83c-.55,0-1-.45-1-1v-22.52s.85-5.71-7.08-5.71c-2.91,0-4.21.54-4.77.93-.26.18-.4.49-.4.8v26.5c0,.55-.45,1-1,1h-9.55c-.55,0-1-.45-1-1Z"/>
    <path class="cls-1" d="m325.64,92.41s1.53-19.05-18.72-19.05-18.76,19.05-18.76,19.05c0,0-2.12,20.7,18.86,20.7s18.61-20.7,18.61-20.7Zm-18.68,11.7c-9.33,0-8.39-11.25-8.39-11.25,0,0-.67-10.53,8.34-10.53s8.33,10.53,8.33,10.53c0,0,1.06,11.25-8.28,11.25Z"/>
    <path class="cls-1" d="m360.17,84.37v-6.93c0-.31-.14-.59-.38-.78-1-.81-4.16-2.73-11.45-2.73-9.22,0-19.61,4.45-19.61,19.32s9.94,19.88,19.94,19.88c7.81,0,10.44-1.8,11.21-2.59.19-.19.29-.44.29-.7v-7.39c0-.76-.81-1.23-1.48-.87-1.74.94-4.88,2.27-8.52,2.27-5.61,0-9.94-1.91-9.94-10.59s5.33-9.79,10.17-9.79c3.28,0,6.62,1.13,8.42,1.85.65.26,1.36-.22,1.36-.93Z"/>
    <path class="cls-1" d="m365.86,111.39v-31.38c0-.3.14-.59.37-.78,1.45-1.18,7.1-5.18,17.13-5.18,5.59,0,7.02,1.37,7.38,1.97.08.14.12.31.12.47v6.31c0,.55-.45,1-1,1h-12.17c-.55,0-1,.45-1,1v26.58c0,.55-.45,1-1,1h-8.83c-.55,0-1-.45-1-1Z"/>
    <path class="cls-1" d="m410.17,74.06c-8.1,0-12.37,2.18-13.7,3.01-.29.18-.46.5-.46.85v6.91c0,.74.77,1.23,1.43.9,2.09-1.03,6.21-2.73,10.62-2.73,6.6,0,7.74,4.38,7.85,6.87.03.74-.73,1.25-1.4.94-1.57-.7-4.61-1.65-9.62-1.65-10.06,0-12.44,6.94-12.44,10.94s.83,13.28,16.5,13.28c18.11,0,17.94-8.67,17.94-8.67v-19c0-8.22-6.72-11.66-16.72-11.66Zm5.67,29.57c0,.22-.06.44-.2.6-.38.46-1.45,1.19-4.38,1.19-4.25,0-7.88-1.12-7.88-4.92s4.29-3.92,6.83-3.92c1.69,0,3.63.17,4.73.28.51.05.9.48.9.99v5.77Z"/>
    <path class="cls-1" d="m437.34,64.92h9.99c.55,0,1,.45,1,1v8.08c0,.55.45,1,1,1h5.92c.55,0,1,.45,1,1v6.67c0,.55-.45,1-1,1h-5.92c-.55,0-1,.45-1,1v15.92s-.17,3.5,2.58,3.5c1.55,0,3.04-.34,4.05-.64.64-.19,1.28.3,1.28.97v7.01c0,.34-.16.66-.45.83-.84.53-2.99,1.5-7.47,1.5-6.17,0-12-3.33-12-10.67v-18.5c0-.55-.45-1-1-1h-3.42c-.55,0-1-.45-1-1v-6.58c0-.55.45-1,1-1h3.49c.56,0,1-.45,1-1.01l-.07-8.07c0-.56.44-1.01,1-1.01Z"/>
    <path class="cls-1" d="m478.16,73.42c-19.56,0-18.39,19.72-18.39,20.12s-1.22,19.57,19.17,19.57c7.24,0,11.32-1.82,12.69-2.57.32-.18.53-.51.53-.88v-7.11c0-.75-.78-1.23-1.45-.89-1.8.91-5.13,2.23-9.16,2.23-5.44,0-9.24-2.81-10.02-6.13-.15-.64.32-1.26.97-1.26h22.26c.54,0,.98-.43,1-.97.12-4.38-.46-22.12-17.6-22.12Zm-5.97,15.62c-.65,0-1.13-.6-.97-1.23.48-1.98,1.98-5.64,6.56-5.64s6.08,3.66,6.56,5.64c.15.63-.33,1.23-.97,1.23h-11.17Z"/>
  </g>
  <g>
    <path class="cls-1" d="m138.29,137.38h2c.55,0,1-.45,1-1v-12.84c0-.08.11-.11.15-.04.86,1.95,5.25,11.75,6.98,11.75s6.23-9.82,7.1-11.76c.03-.08.15-.05.15.04v12.85c0,.55.45,1,1,1h1.58c.55,0,1-.45,1-1v-18.5c0-.55-.45-1-1-1h-2.39c-.37,0-.72.21-.89.54l-6.36,12.25c-.03.06-.11.06-.14,0l-6.48-12.25c-.17-.33-.51-.53-.88-.53h-2.81c-.55,0-1,.45-1,1v18.5c0,.55.45,1,1,1Z"/>
    <path class="cls-1" d="m170.88,121.19c-4.57,0-8.27,3.7-8.27,8.27s3.7,8.27,8.27,8.27,8.27-3.7,8.27-8.27-3.7-8.27-8.27-8.27Zm0,13.15c-2.51,0-4.54-2.18-4.54-4.88s2.03-4.88,4.54-4.88,4.54,2.18,4.54,4.88-2.03,4.88-4.54,4.88Z"/>
    <path class="cls-1" d="m191.99,116.88h-8.57c-.55,0-1,.45-1,1v18.5c0,.55.45,1,1,1h8.1s.03,0,.05,0c.52-.03,10.06-.72,10.06-10.25s-9.04-10.21-9.58-10.25c-.02,0-.04,0-.06,0Zm-.04,17.21h-4.79c-.55,0-1-.45-1-1v-12.08c0-.55.45-1,1-1h4.09c.05,0,.1,0,.15.01.71.11,6.43,1.18,6.43,7.11s-5.09,6.85-5.74,6.95c-.05,0-.09,0-.14,0Z"/>
    <path class="cls-1" d="m211.21,121.5c-7.21,0-7.92,5.62-7.92,7.96s.46,7.92,7.96,7.92c3.61,0,5.19-1.13,5.87-1.94.33-.4.31-.97-.05-1.34l-.69-.7c-.36-.37-.96-.43-1.36-.09-.56.48-1.55,1.03-3.1,1.03-2.48,0-4.54-1.29-4.87-2.88-.05-.23.12-.45.35-.45h10.25c.54,0,.99-.43,1-.97.07-2.42-.46-8.53-7.44-8.53Zm-3.85,6.52c-.29,0-.5-.27-.44-.55.23-.99,1.07-2.97,4.05-2.97s3.89,1.96,4.16,2.96c.08.29-.14.56-.43.56h-7.34Z"/>
    <path class="cls-1" d="m221.5,122.5v13.88c0,.55.45,1,1,1h1.7c.55,0,1-.45,1-1v-8.01c0-.12.02-.22.06-.33.24-.67,1.31-3.08,4.25-3.08,2.09,0,2.93,1.42,3.17,1.96.06.13.08.26.08.4v9.06c0,.55.45,1,1,1h1.83c.55,0,1-.45,1-1v-8.35s.17-3.06,4.17-3.06c2.3.17,3.13,1.73,3.35,2.27.05.12.07.24.07.36v8.78c0,.55.45,1,1,1h1.71c.55,0,1-.45,1-1v-10.01c0-.07,0-.13-.02-.2-.15-.69-1.22-4.66-5.9-4.66-3,0-4.81,1.62-5.56,2.48-.18.21-.52.19-.67-.05-.51-.87-1.9-2.43-5.23-2.43-2.24,0-3.8,1.15-4.47,1.76-.19.17-.49.11-.61-.12l-.53-1.08c-.17-.34-.52-.56-.9-.56h-1.5c-.55,0-1,.45-1,1Z"/>
    <path class="cls-1" d="m265.98,121.5c-7.21,0-7.92,5.62-7.92,7.96s.46,7.92,7.96,7.92c3.61,0,5.19-1.13,5.87-1.94.33-.4.31-.97-.05-1.34l-.69-.7c-.36-.37-.96-.43-1.36-.09-.56.48-1.55,1.03-3.1,1.03-2.48,0-4.54-1.29-4.87-2.88-.05-.23.12-.45.35-.45h10.25c.54,0,.99-.43,1-.97.07-2.42-.46-8.53-7.44-8.53Zm-3.85,6.52c-.29,0-.5-.27-.44-.55.23-.99,1.07-2.97,4.05-2.97s3.89,1.96,4.16,2.96c.08.29-.14.56-.43.56h-7.34Z"/>
    <path class="cls-1" d="m276.51,125.01c.22.02.39.2.39.42v8.43s-.06,3.63,4.77,3.63c2.9,0,3.51-1.1,3.51-2.03s-.57-1.62-1.35-1.62h-2.08s-1.19.12-1.19-1.61v-6.81c0-.21.17-.38.38-.38h2.99c.55,0,1-.45,1-1v-.85c0-.55-.45-1-1-1h-3.01c-.21,0-.38-.17-.38-.38v-2.7c0-.55-.45-1-1-1h-1.65c-.55,0-1,.45-1,1v2.64c0,.21-.17.38-.39.38-.57,0-1.57.17-1.57,1.27,0,1.3.84,1.58,1.57,1.63Z"/>
    <rect class="cls-1" x="295.86" y="117.18" width="3.61" height="20.19" rx="1" ry="1"/>
    <path class="cls-1" d="m304.49,122.5v13.88c0,.55.45,1,1,1h1.7c.55,0,1-.45,1-1v-8.01c0-.12.02-.22.06-.33.24-.67,1.31-3.08,4.25-3.08,2.09,0,2.93,1.42,3.17,1.96.06.13.08.26.08.4v9.06c0,.55.45,1,1,1h1.83c.55,0,1-.45,1-1v-8.35s.39-6.52-6.08-6.52c-2.24,0-3.8,1.15-4.47,1.76-.19.17-.49.11-.61-.12l-.53-1.08c-.17-.34-.52-.56-.9-.56h-1.5c-.55,0-1,.45-1,1Z"/>
    <path class="cls-1" d="m337.56,115.75h-1.61c-.55,0-1,.45-1,1v6.71c-1.16-.86-3.07-1.96-5.28-1.96-3.61,0-7.47,2.4-7.47,7.94s3.5,8.09,7.92,8.09c2.02,0,3.65-1.11,4.83-2.32v1.16c0,.55.45,1,1,1h1.61c.55,0,1-.45,1-1v-19.62c0-.55-.45-1-1-1Zm-7.22,18.58c-2.55,0-4.61-2.16-4.61-4.82s2.06-4.82,4.61-4.82,4.61,2.16,4.61,4.82-2.06,4.82-4.61,4.82Z"/>
    <path class="cls-1" d="m349.94,121.5c-7.21,0-7.92,5.62-7.92,7.96s.46,7.92,7.96,7.92c3.61,0,5.19-1.13,5.87-1.94.33-.4.31-.97-.05-1.34l-.69-.7c-.36-.37-.96-.43-1.36-.09-.56.48-1.55,1.03-3.1,1.03-2.48,0-4.54-1.29-4.87-2.88-.05-.23.12-.45.35-.45h10.25c.54,0,.99-.43,1-.97.07-2.42-.46-8.53-7.44-8.53Zm-3.85,6.52c-.29,0-.5-.27-.44-.55.23-.99,1.07-2.97,4.05-2.97s3.89,1.96,4.16,2.96c.08.29-.14.56-.43.56h-7.34Z"/>
    <path class="cls-1" d="m351.74,115.66l.92.58c.54.35.62,1.11.16,1.56l-1.53,1.5c-.19.18-.44.28-.7.28h-2.36c-.25,0-.43-.24-.36-.48.18-.65.77-1.89,2.71-3.38.34-.26.8-.29,1.16-.06Z"/>
    <path class="cls-1" d="m361.49,143.28h1.61c.55,0,1-.45,1-1v-6.71c1.16.86,3.07,1.96,5.28,1.96,3.61,0,7.47-2.4,7.47-7.94s-3.5-8.09-7.92-8.09c-2.02,0-3.65,1.11-4.83,2.32v-1.16c0-.55-.45-1-1-1h-1.61c-.55,0-1,.45-1,1v19.62c0,.55.45,1,1,1Zm7.22-18.58c2.55,0,4.61,2.16,4.61,4.82s-2.06,4.82-4.61,4.82-4.61-2.16-4.61-4.82,2.06-4.82,4.61-4.82Z"/>
    <path class="cls-1" d="m386.63,121.5c-7.21,0-7.92,5.62-7.92,7.96s.46,7.92,7.96,7.92c3.61,0,5.19-1.13,5.87-1.94.33-.4.31-.97-.05-1.34l-.69-.7c-.36-.37-.96-.43-1.36-.09-.56.48-1.55,1.03-3.1,1.03-2.48,0-4.54-1.29-4.87-2.88-.05-.23.12-.45.35-.45h10.25c.54,0,.99-.43,1-.97.07-2.42-.46-8.53-7.44-8.53Zm-3.85,6.52c-.29,0-.5-.27-.44-.55.23-.99,1.07-2.97,4.05-2.97s3.89,1.96,4.16,2.96c.08.29-.14.56-.43.56h-7.34Z"/>
    <path class="cls-1" d="m397.11,122.5v13.88c0,.55.45,1,1,1h1.7c.55,0,1-.45,1-1v-8.01c0-.12.02-.22.06-.33.24-.67,1.31-3.08,4.25-3.08,2.09,0,2.93,1.42,3.17,1.96.06.13.08.26.08.4v9.06c0,.55.45,1,1,1h1.83c.55,0,1-.45,1-1v-8.35s.39-6.52-6.08-6.52c-2.24,0-3.8,1.15-4.47,1.76-.19.17-.49.11-.61-.12l-.53-1.08c-.17-.34-.52-.56-.9-.56h-1.5c-.55,0-1,.45-1,1Z"/>
    <path class="cls-1" d="m430.33,115.75h-1.61c-.55,0-1,.45-1,1v6.71c-1.16-.86-3.07-1.96-5.28-1.96-3.61,0-7.47,2.4-7.47,7.94s3.5,8.09,7.92,8.09c2.02,0,3.65-1.11,4.83-2.32v1.16c0,.55.45,1,1,1h1.61c.55,0,1-.45,1-1v-19.62c0-.55-.45-1-1-1Zm-7.22,18.58c-2.55,0-4.61-2.16-4.61-4.82s2.06-4.82,4.61-4.82,4.61,2.16,4.61,4.82-2.06,4.82-4.61,4.82Z"/>
    <path class="cls-1" d="m453,122.5v13.88c0,.55.45,1,1,1h1.7c.55,0,1-.45,1-1v-8.01c0-.12.02-.22.06-.33.24-.67,1.31-3.08,4.25-3.08,2.09,0,2.93,1.42,3.17,1.96.06.13.08.26.08.4v9.06c0,.55.45,1,1,1h1.83c.55,0,1-.45,1-1v-8.35s.39-6.52-6.08-6.52c-2.24,0-3.8,1.15-4.47,1.76-.19.17-.49.11-.61-.12l-.53-1.08c-.17-.34-.52-.56-.9-.56h-1.5c-.55,0-1,.45-1,1Z"/>
    <path class="cls-1" d="m472.29,125.01c.22.02.39.2.39.42v8.43s-.06,3.63,4.77,3.63c2.9,0,3.51-1.1,3.51-2.03s-.57-1.62-1.35-1.62h-2.08s-1.19.12-1.19-1.61v-6.81c0-.21.17-.38.38-.38h2.99c.55,0,1-.45,1-1v-.85c0-.55-.45-1-1-1h-3.01c-.21,0-.38-.17-.38-.38v-2.7c0-.55-.45-1-1-1h-1.65c-.55,0-1,.45-1,1v2.64c0,.21-.17.38-.39.38-.57,0-1.57.17-1.57,1.27,0,1.3.84,1.58,1.57,1.63Z"/>
    <path class="cls-1" d="m442.11,121.39c-2.73,0-4.7,1.07-5.72,1.81-.46.33-.56.97-.2,1.41l.61.75c.32.39.87.46,1.3.19.63-.4,1.7-.86,3.28-.86,1.95,0,3.16,1.08,3.71,2.03.27.47-.08,1.05-.62,1.05h-5.26s-.07,0-.11,0c-.53.06-4.44.64-4.44,4.71,0,4.36,3.47,4.98,5.39,4.98s4.67-.73,5.39-1.59v.51c0,.54.44.97.97.97h1.55c.54,0,.97-.44.97-.97v-9.93s-.11-5.08-6.83-5.08Zm3.08,10.19c0,2.02-2.79,3.02-4.04,3.02s-3.06-.5-3.06-1.94c0-1.04.75-1.63,1.17-1.88.15-.09.33-.14.51-.14h5.43v.94Z"/>
    <path class="cls-1" d="m488.96,121.42s-6.04-.35-6.04,4.75c0,3.44,3.92,4.27,4.75,4.62s3.06,1.19,3.06,2.33-1.08,1.46-2.23,1.46-3.83-1.46-4.69-1.46-2.15,1.4-1.19,2.35,2.52,2,5.73,2,6.21-1.65,6.21-4.19-.73-4.23-4.5-5.17-3.6-1.9-3.6-2.38.31-1.23,2.17-1.23,3.31,1.12,4.21.81,1.08-.83,1.06-1.71-.98-1.44-1.65-1.69-1.98-.52-3.29-.52Z"/>
  </g>
</svg>