<svg id="Layer_1" data-name="Layer 1" xmlns="http://www.w3.org/2000/svg" viewBox="0 0 463.03 85.98"><defs><style>.cls-1{fill:#80bb41;}.cls-2{fill:#024c2b;}</style></defs><title>ecologistes</title><polygon class="cls-1" points="0 33.25 35.67 33.25 35.67 47.69 17 47.69 17 52.36 34.44 52.36 34.44 65.81 17 65.81 17 70.03 37.11 70.03 37.11 84.69 0 84.69 0 33.25"/><polygon class="cls-1" points="17.33 18.92 33.11 18.92 21.67 29.14 9.33 29.14 17.33 18.92"/><path class="cls-1" d="M107.74,246.15,97.62,258.37s-1.33-3.44-9-3.44-10,8.55-10,11.05S79.74,277,88.18,277c7.11,0,9.22-4.11,9.22-4.11l10.34,12.33c-7.45,10.67-47.56,14.89-47.56-19.55C60.18,246.26,83.07,227.48,107.74,246.15Z" transform="translate(-18.07 -207.01)"/><path class="cls-1" d="M138.51,238.46c-15.89,0-28.78,12.19-28.78,27.23s12.89,27.22,28.78,27.22,28.78-12.19,28.78-27.22S154.41,238.46,138.51,238.46Zm0,38.91c-5.83,0-10.55-5.23-10.55-11.68S132.68,254,138.51,254s10.56,5.23,10.56,11.69S144.34,277.37,138.51,277.37Z" transform="translate(-18.07 -207.01)"/><polygon class="cls-1" points="156.08 33.25 173.92 33.25 173.92 69.58 190.42 69.58 190.42 84.25 156.08 84.25 156.08 33.25"/><path class="cls-1" d="M238,238.54c-15.9,0-28.78,12.19-28.78,27.22S222.06,293,238,293s28.78-12.19,28.78-27.23S253.85,238.54,238,238.54Zm0,38.91c-5.83,0-10.56-5.23-10.56-11.69s4.73-11.68,10.56-11.68,10.55,5.23,10.55,11.68S243.79,277.45,238,277.45Zm12.51-11.69c0-7.41-5.6-13.41-12.51-13.41s-12.51,6-12.51,13.41h-1.8c0-8.37,6.41-15.16,14.31-15.16s14.3,6.79,14.3,15.16Zm3.38,0c0-9.23-7.12-16.72-15.89-16.72s-15.89,7.49-15.89,16.72H220c0-10.33,8-18.71,18-18.71s17.94,8.38,17.94,18.71Zm4.18,0a20.07,20.07,0,1,0-40.14,0h-2.32a22.39,22.39,0,0,1,44.78,0ZM238,242.05a23.85,23.85,0,0,0-24,23.71h-2.3c0-14.22,11.77-25.75,26.28-25.75s26.28,11.53,26.28,25.75h-2.3A23.85,23.85,0,0,0,238,242.05Z" transform="translate(-18.07 -207.01)"/><path class="cls-1" d="M297.07,260.48v12.39h8.17V276a16.66,16.66,0,0,1-4.95,1.41c-5.83,0-10.55-5.23-10.55-11.69s4.72-11.68,10.55-11.68a10.26,10.26,0,0,1,8.6,4.92l11-13.16a29.57,29.57,0,0,0-19.61-7.3c-15.89,0-28.78,12.19-28.78,27.22S284.4,293,300.29,293a29.53,29.53,0,0,0,20.28-7.91v-24.6Z" transform="translate(-18.07 -207.01)"/><rect class="cls-1" x="311.56" y="33.25" width="17.11" height="50.56"/><path class="cls-1" d="M373.25,256.47a2.27,2.27,0,0,1-1.29-1.93c0-2.17,3.39-2.06,4.28-2.06a12.79,12.79,0,0,1,9.11,4.12l10.44-10.67s-5.83-7.39-20.11-7.39S355,246.82,355,255.37c.21,9.72,5.06,12.79,18.51,17.41,1.17.47,3.65,1.66,3.65,3.32,0,2.16-4.22,2.18-5.11,2.18a14.32,14.32,0,0,1-9.63-4.35L351.94,284.6s6.35,7.63,20.62,7.63,22.12-8.28,22.12-16.84C394.46,265.31,387.89,261.4,373.25,256.47Z" transform="translate(-18.07 -207.01)"/><polygon class="cls-1" points="378.67 33.25 420.56 33.25 420.56 46.92 408 46.92 408 83.81 390.92 83.81 390.92 47 378.67 47 378.67 33.25"/><polygon class="cls-1" points="425.92 33.25 461.58 33.25 461.58 47.69 442.92 47.69 442.92 52.36 460.36 52.36 460.36 65.81 442.92 65.81 442.92 70.03 463.03 70.03 463.03 84.69 425.92 84.69 425.92 33.25"/><path class="cls-2" d="M69.29,216.25v5.21h3.44v1.33a7,7,0,0,1-2.08.6,4.95,4.95,0,0,1,0-9.84,4.31,4.31,0,0,1,3.61,2.07l4.64-5.53A12.42,12.42,0,0,0,70.65,207c-6.69,0-12.11,5.13-12.11,11.46S64,229.92,70.65,229.92a12.45,12.45,0,0,0,8.53-3.32V216.25Z" transform="translate(-18.07 -207.01)"/><path class="cls-2" d="M102.61,229.09l-5.39-8.31a6,6,0,0,0,3.51-5.84c0-8.37-11-7.71-11-7.71H82.86v21.85h7v-7.4l.25,0,4,7.37ZM89.75,213.15H92.4A1.7,1.7,0,0,1,94,214.9a1.68,1.68,0,0,1-1.55,1.75H89.75Z" transform="translate(-18.07 -207.01)"/><path class="cls-2" d="M115.91,207c-6.69,0-12.11,5.13-12.11,11.46s5.42,11.45,12.11,11.45S128,224.79,128,218.47,122.59,207,115.91,207Zm0,16.38a4.95,4.95,0,1,1,4.44-4.92A4.71,4.71,0,0,1,115.91,223.39Z" transform="translate(-18.07 -207.01)"/><polygon class="cls-2" points="157.42 0.18 172.57 0.18 172.57 6.31 164.65 6.31 164.65 8.29 172.05 8.29 172.05 14.01 164.65 14.01 164.65 15.8 173.19 15.8 173.19 22.03 157.42 22.03 157.42 0.18"/><path class="cls-2" d="M161.78,207.18H154.9V229h7v-7.4s10.92,1.62,10.92-6.75S161.78,207.18,161.78,207.18Zm2.69,9.42H161.8v-3.5h2.64a1.76,1.76,0,0,1,0,3.5Z" transform="translate(-18.07 -207.01)"/><path class="cls-2" d="M131,207.22h6.91V220.8a2.85,2.85,0,0,0,3,2.59,2.66,2.66,0,0,0,2.82-2.57v-13.6l7-.06v16.23s-.63,6.29-9.85,6.29-9.84-6.29-9.84-6.29Z" transform="translate(-18.07 -207.01)"/><path class="cls-2" d="M211,229l-1.23-.69-4-9.78-4.09,9.86-1.18.61h3.77l-1.14-.59,1.27-3.06h2.45l1.27,3-1.29.65Zm-6.2-4.65.94-2.92.73,2.92Z" transform="translate(-18.07 -207.01)"/><path class="cls-2" d="M217.14,229h5.3a2.87,2.87,0,0,0,1.78-2.75c0-2.12-5.3-3-5.3-5,0-1.5,1.19-1.49,2.16-1.49s2.77,1.35,2.77,1.86l0-2.41a8.72,8.72,0,0,0-2.79-.71c-1.18,0-3.94.43-3.94,2.9s5.55,3.79,5.55,5.35-1.84,1.46-2.62,1.46-2.93-.84-2.93-2.3Z" transform="translate(-18.07 -207.01)"/><path class="cls-2" d="M231.29,229h5.3a2.87,2.87,0,0,0,1.78-2.75c0-2.12-5.31-3-5.31-5,0-1.5,1.2-1.49,2.17-1.49s2.76,1.35,2.76,1.86l0-2.41a8.72,8.72,0,0,0-2.79-.71c-1.18,0-3.94.43-3.94,2.9s5.55,3.79,5.55,5.35-1.85,1.46-2.62,1.46-2.93-.84-2.93-2.3Z" transform="translate(-18.07 -207.01)"/><path class="cls-2" d="M253.38,226.07v3h-8.54l1.23-.59v-8.56l-1.23-.63h8.54v3s0-2.21-1.58-2.21h-4.29v3.21h4.06v1.11h-4.06v3.77h4.41C253,228.16,253.38,226.07,253.38,226.07Z" transform="translate(-18.07 -207.01)"/><polygon class="cls-2" points="242.21 12.25 245.21 12.25 248.04 19.52 251.42 12.25 252.64 12.25 253.82 12.25 252.6 12.85 253.9 21.38 255 22.03 250.67 22.03 252.04 21.42 251.58 14.42 247.96 22.03 244.04 14.1 244.04 21.48 245.23 22.03 241.5 22.03 242.83 21.46 243.17 12.83 242.21 12.25"/><path class="cls-2" d="M285.63,223.8a3,3,0,0,0,1.34-2.43,2.31,2.31,0,0,0-1.57-2.11h-6.12l1.19.59v8.6l-1.19.59H285c1.54,0,2.41-1.3,2.41-3A2.43,2.43,0,0,0,285.63,223.8ZM282.36,220h1.86a1.71,1.71,0,0,1,0,3.33h-1.83Zm2.46,8.17h-2.46v-3.63h2.48s1.25.17,1.25,1.82A1.63,1.63,0,0,1,284.82,228.16Z" transform="translate(-18.07 -207.01)"/><polygon class="cls-2" points="276.02 12.25 280.25 12.25 279.06 12.81 279.06 20.83 283.85 20.83 285.17 19.06 285.17 22.03 276.02 22.03 277.25 21.33 277.25 12.83 276.02 12.25"/><path class="cls-2" d="M317.94,226.07v3H309.4l1.23-.59v-8.56l-1.23-.63h8.54v3s0-2.21-1.58-2.21h-4.29v3.21h4.06v1.11h-4.06v3.77h4.42C317.57,228.16,317.94,226.07,317.94,226.07Z" transform="translate(-18.07 -207.01)"/><polygon class="cls-2" points="297.49 7.35 295.72 7.35 294.46 10.33 296.92 7.9 297.49 7.35"/><path class="cls-2" d="M332.65,226.07v3h-8.54l1.23-.59v-8.56l-1.23-.63h8.54v3s0-2.21-1.58-2.21h-4.29v3.21h4.06v1.11h-4.06v3.77h4.41C332.28,228.16,332.65,226.07,332.65,226.07Z" transform="translate(-18.07 -207.01)"/><polygon class="cls-2" points="329.56 22.03 330.73 21.27 330.73 12.71 329.56 11.98 332.58 11.98 337.92 18.96 337.92 12.71 336.92 11.98 340 11.98 339 12.75 339 22.03 338.21 22.03 331.73 13.77 331.73 21.25 333.02 22.03 329.56 22.03"/><path class="cls-2" d="M374.27,229l-1.23-.69-4-9.78-4.09,9.86-1.19.61h3.78l-1.14-.59,1.27-3.06h2.45l1.27,3-1.29.65Zm-6.2-4.65.93-2.92.74,2.92Z" transform="translate(-18.07 -207.01)"/><polygon class="cls-2" points="362.19 11.56 372 11.56 372 14.17 371.03 12.58 367.69 12.58 367.69 21.03 368.92 22.03 365 22.03 366.33 21.03 366.33 12.58 362.97 12.56 362.19 14.19 362.19 11.56"/><polygon class="cls-2" points="378.14 11.56 382.39 11.56 380.92 12.53 380.92 21.06 382 21.78 378.36 21.78 379.64 21.08 379.64 12.56 378.14 11.56"/><path class="cls-2" d="M411.87,218.43a5.26,5.26,0,1,0,5.23,5.25A5.24,5.24,0,0,0,411.87,218.43Zm0,9.58c-1.88,0-3.41-1.94-3.41-4.33s1.53-4.33,3.41-4.33,3.42,1.94,3.42,4.33S413.76,228,411.87,228Z" transform="translate(-18.07 -207.01)"/><polygon class="cls-2" points="405.48 22.03 406.65 21.27 406.65 12.71 405.48 11.98 408.5 11.98 413.83 18.96 413.83 12.71 412.83 11.98 415.92 11.98 414.92 12.75 414.92 22.03 414.13 22.03 407.65 13.77 407.65 21.25 408.94 22.03 405.48 22.03"/><path class="cls-2" d="M450.42,229l-1.23-.69-4-9.78-4.08,9.86-1.19.61h3.77l-1.13-.59,1.27-3.06h2.45l1.27,3-1.3.65Zm-6.19-4.65.93-2.92.73,2.92Z" transform="translate(-18.07 -207.01)"/><polygon class="cls-2" points="437.96 11.91 442.19 11.91 441 12.47 441 20.49 445.79 20.49 447.1 18.72 447.1 21.68 437.96 21.68 439.19 20.99 439.19 12.49 437.96 11.91"/><path class="cls-2" d="M479.9,225.39v3h-8.54l1.23-.59V219.2l-1.23-.63h8.54v3s0-2.21-1.58-2.21H474v3.21h4.06v1.1H474v3.77h4.41C479.53,227.47,479.9,225.39,479.9,225.39Z" transform="translate(-18.07 -207.01)"/></svg>