<?xml version="1.0" encoding="UTF-8"?>
<svg id="Layer_1" data-name="Layer 1" xmlns="http://www.w3.org/2000/svg" viewBox="0 0 500 250">
  <defs>
    <style>
      .cls-1 {
        fill: #42885a;
      }
    </style>
  </defs>
  <g>
    <path class="cls-1" d="m101.14,15.84c2.63,1.43,4.66,3.3,6.07,5.62v-7.04h15.16v49.64c0,4.58-.9,8.72-2.71,12.43-1.8,3.71-4.55,6.67-8.25,8.87-3.7,2.2-8.29,3.3-13.79,3.3-7.33,0-13.27-1.74-17.82-5.21-4.55-3.48-7.15-8.19-7.8-14.13h14.99c.47,1.9,1.6,3.4,3.37,4.5,1.77,1.1,3.96,1.65,6.56,1.65,3.13,0,5.63-.91,7.49-2.72,1.86-1.81,2.79-4.71,2.79-8.69v-7.04c-1.48,2.32-3.52,4.2-6.12,5.66-2.6,1.46-5.65,2.18-9.13,2.18-4.08,0-7.77-1.05-11.08-3.16-3.31-2.11-5.93-5.11-7.85-9-1.92-3.89-2.88-8.39-2.88-13.5s.96-9.6,2.88-13.46c1.92-3.86,4.54-6.83,7.85-8.91,3.31-2.08,7.01-3.12,11.08-3.12,3.49,0,6.55.71,9.18,2.14Zm2.93,14.44c-2.1-2.2-4.66-3.3-7.67-3.3s-5.57,1.08-7.67,3.25c-2.1,2.17-3.15,5.16-3.15,8.96s1.05,6.82,3.15,9.05c2.1,2.23,4.66,3.34,7.67,3.34s5.57-1.1,7.67-3.3c2.1-2.2,3.15-5.2,3.15-9s-1.05-6.8-3.15-9Z"/>
    <path class="cls-1" d="m155.19,16.24c2.66-1.57,5.62-2.36,8.87-2.36v16.13h-4.17c-3.78,0-6.62.82-8.51,2.45-1.89,1.63-2.84,4.5-2.84,8.6v23.08h-15.16V14.41h15.16v8.29c1.77-2.73,3.99-4.89,6.65-6.46Z"/>
    <path class="cls-1" d="m180.77,61.74c-3.87-2.08-6.92-5.05-9.13-8.91-2.22-3.86-3.33-8.38-3.33-13.55s1.12-9.61,3.37-13.5c2.25-3.89,5.32-6.88,9.22-8.96,3.9-2.08,8.28-3.12,13.12-3.12s9.22,1.04,13.12,3.12c3.9,2.08,6.98,5.07,9.22,8.96,2.25,3.89,3.37,8.39,3.37,13.5s-1.14,9.61-3.41,13.5c-2.28,3.89-5.38,6.88-9.31,8.96-3.93,2.08-8.32,3.12-13.17,3.12s-9.21-1.04-13.08-3.12Zm20.48-13.28c2.04-2.14,3.06-5.2,3.06-9.18s-.99-7.04-2.97-9.18c-1.98-2.14-4.42-3.21-7.32-3.21s-5.41,1.06-7.36,3.16c-1.95,2.11-2.93,5.19-2.93,9.23s.96,7.04,2.88,9.18c1.92,2.14,4.33,3.21,7.23,3.21s5.37-1.07,7.4-3.21Z"/>
    <path class="cls-1" d="m276.68,14.41v49.73h-15.16v-6.77c-1.54,2.2-3.62,3.97-6.25,5.3-2.63,1.34-5.54,2.01-8.73,2.01-3.78,0-7.12-.85-10.02-2.54-2.9-1.69-5.14-4.14-6.74-7.35s-2.39-6.98-2.39-11.32V14.41h15.08v27.01c0,3.33.86,5.91,2.57,7.75,1.71,1.84,4.02,2.76,6.92,2.76s5.29-.92,7.01-2.76c1.71-1.84,2.57-4.43,2.57-7.75V14.41h15.16Z"/>
    <path class="cls-1" d="m308.87,15.84c2.6-1.43,5.65-2.14,9.13-2.14,4.08,0,7.77,1.04,11.08,3.12,3.31,2.08,5.93,5.05,7.85,8.91,1.92,3.86,2.88,8.35,2.88,13.46s-.96,9.61-2.88,13.5c-1.92,3.89-4.54,6.89-7.85,9-3.31,2.11-7,3.16-11.08,3.16-3.43,0-6.46-.71-9.09-2.14-2.63-1.43-4.69-3.27-6.16-5.53v30.66h-15.16V14.41h15.16v7.04c1.48-2.32,3.52-4.19,6.12-5.62Zm12.37,14.39c-2.1-2.17-4.69-3.25-7.76-3.25s-5.57,1.1-7.67,3.3c-2.1,2.2-3.15,5.2-3.15,9s1.05,6.8,3.15,9c2.1,2.2,4.66,3.3,7.67,3.3s5.59-1.11,7.71-3.34c2.13-2.23,3.19-5.24,3.19-9.05s-1.05-6.79-3.15-8.96Z"/>
    <path class="cls-1" d="m394.17,42.93h-34.32c.24,3.09,1.23,5.45,2.97,7.09,1.74,1.64,3.89,2.45,6.43,2.45,3.78,0,6.41-1.6,7.89-4.81h16.14c-.83,3.27-2.32,6.21-4.48,8.82-2.16,2.62-4.86,4.67-8.11,6.15-3.25,1.49-6.89,2.23-10.91,2.23-4.85,0-9.16-1.04-12.95-3.12-3.78-2.08-6.74-5.05-8.87-8.91-2.13-3.86-3.19-8.38-3.19-13.55s1.05-9.68,3.15-13.55c2.1-3.86,5.04-6.83,8.82-8.91,3.78-2.08,8.13-3.12,13.04-3.12s9.04,1.01,12.77,3.03c3.72,2.02,6.64,4.9,8.73,8.65,2.1,3.74,3.15,8.11,3.15,13.1,0,1.43-.09,2.91-.27,4.46Zm-15.25-8.47c0-2.61-.89-4.69-2.66-6.24-1.77-1.54-3.99-2.32-6.65-2.32s-4.69.74-6.43,2.23c-1.75,1.49-2.82,3.6-3.24,6.33h18.98Z"/>
  </g>
  <g>
    <path class="cls-1" d="m63.1,129.19H28.78c.24,3.09,1.23,5.45,2.97,7.09,1.74,1.63,3.89,2.45,6.43,2.45,3.78,0,6.41-1.6,7.89-4.81h16.14c-.83,3.27-2.32,6.21-4.48,8.82-2.16,2.62-4.86,4.67-8.11,6.15-3.25,1.49-6.89,2.23-10.91,2.23-4.85,0-9.16-1.04-12.95-3.12-3.78-2.08-6.74-5.05-8.87-8.91-2.13-3.86-3.19-8.38-3.19-13.55s1.05-9.68,3.15-13.55c2.1-3.86,5.04-6.83,8.82-8.91,3.78-2.08,8.13-3.12,13.04-3.12s9.04,1.01,12.77,3.03c3.72,2.02,6.64,4.9,8.73,8.65,2.1,3.74,3.15,8.11,3.15,13.1,0,1.43-.09,2.91-.27,4.46Zm-14.19-41.27l-21.37,9v-10.52l21.37-10.34v11.85Zm-1.06,32.8c0-2.61-.89-4.69-2.66-6.24-1.77-1.54-3.99-2.32-6.65-2.32s-4.69.74-6.43,2.23c-1.74,1.49-2.82,3.6-3.24,6.33h18.98Z"/>
    <path class="cls-1" d="m71.48,111.98c2.1-3.86,5.02-6.83,8.78-8.91,3.75-2.08,8.05-3.12,12.9-3.12,6.21,0,11.4,1.63,15.56,4.9,4.17,3.27,6.9,7.87,8.2,13.81h-16.14c-1.36-3.8-3.99-5.7-7.89-5.7-2.78,0-5,1.08-6.65,3.25-1.66,2.17-2.48,5.27-2.48,9.31s.83,7.15,2.48,9.31c1.65,2.17,3.87,3.25,6.65,3.25,3.9,0,6.53-1.9,7.89-5.7h16.14c-1.3,5.82-4.05,10.4-8.25,13.73-4.2,3.33-9.37,4.99-15.52,4.99-4.85,0-9.15-1.04-12.9-3.12-3.75-2.08-6.68-5.05-8.78-8.91-2.1-3.86-3.15-8.38-3.15-13.55s1.05-9.68,3.15-13.55Z"/>
    <path class="cls-1" d="m134.44,147.99c-3.87-2.08-6.92-5.05-9.13-8.91-2.22-3.86-3.33-8.38-3.33-13.55s1.12-9.61,3.37-13.5c2.25-3.89,5.32-6.88,9.22-8.96,3.9-2.08,8.28-3.12,13.12-3.12s9.22,1.04,13.12,3.12c3.9,2.08,6.98,5.07,9.22,8.96,2.25,3.89,3.37,8.39,3.37,13.5s-1.14,9.61-3.41,13.5c-2.28,3.89-5.38,6.88-9.31,8.96-3.93,2.08-8.32,3.12-13.17,3.12s-9.21-1.04-13.08-3.12Zm20.48-13.28c2.04-2.14,3.06-5.2,3.06-9.18s-.99-7.04-2.97-9.18c-1.98-2.14-4.42-3.21-7.32-3.21s-5.41,1.06-7.36,3.16c-1.95,2.11-2.93,5.19-2.93,9.23s.96,7.04,2.88,9.18c1.92,2.14,4.33,3.21,7.23,3.21s5.37-1.07,7.4-3.21Z"/>
    <path class="cls-1" d="m196.65,84.44v65.96h-15.16v-65.96h15.16Z"/>
    <path class="cls-1" d="m217.09,147.99c-3.87-2.08-6.92-5.05-9.13-8.91-2.22-3.86-3.33-8.38-3.33-13.55s1.12-9.61,3.37-13.5c2.25-3.89,5.32-6.88,9.22-8.96,3.9-2.08,8.28-3.12,13.12-3.12s9.22,1.04,13.12,3.12c3.9,2.08,6.98,5.07,9.22,8.96,2.25,3.89,3.37,8.39,3.37,13.5s-1.14,9.61-3.41,13.5c-2.28,3.89-5.38,6.88-9.31,8.96-3.93,2.08-8.32,3.12-13.17,3.12s-9.21-1.04-13.08-3.12Zm20.48-13.28c2.04-2.14,3.06-5.2,3.06-9.18s-.99-7.04-2.97-9.18c-1.98-2.14-4.42-3.21-7.32-3.21s-5.41,1.06-7.36,3.16c-1.95,2.11-2.93,5.19-2.93,9.23s.96,7.04,2.88,9.18c1.92,2.14,4.33,3.21,7.23,3.21s5.37-1.07,7.4-3.21Z"/>
    <path class="cls-1" d="m292.11,102.09c2.63,1.43,4.66,3.3,6.07,5.62v-7.04h15.16v49.65c0,4.57-.9,8.72-2.7,12.43-1.8,3.71-4.55,6.67-8.25,8.87-3.7,2.2-8.29,3.3-13.79,3.3-7.33,0-13.27-1.74-17.82-5.21-4.55-3.48-7.15-8.19-7.8-14.13h14.99c.47,1.9,1.6,3.4,3.37,4.5,1.77,1.1,3.96,1.65,6.56,1.65,3.13,0,5.63-.91,7.49-2.72s2.79-4.71,2.79-8.69v-7.04c-1.48,2.32-3.52,4.2-6.12,5.66-2.6,1.46-5.65,2.18-9.13,2.18-4.08,0-7.77-1.05-11.08-3.16-3.31-2.11-5.93-5.11-7.85-9-1.92-3.89-2.88-8.39-2.88-13.5s.96-9.6,2.88-13.46c1.92-3.86,4.54-6.83,7.85-8.91,3.31-2.08,7.01-3.12,11.08-3.12,3.49,0,6.55.71,9.18,2.14Zm2.93,14.44c-2.1-2.2-4.66-3.3-7.67-3.3s-5.57,1.08-7.67,3.25c-2.1,2.17-3.15,5.16-3.15,8.96s1.05,6.82,3.15,9.05c2.1,2.23,4.66,3.34,7.67,3.34s5.57-1.1,7.67-3.3c2.1-2.2,3.15-5.2,3.15-9s-1.05-6.8-3.15-9Z"/>
    <path class="cls-1" d="m325.45,93.13c-1.68-1.57-2.53-3.52-2.53-5.84s.84-4.35,2.53-5.93c1.68-1.57,3.86-2.36,6.52-2.36s4.74.79,6.43,2.36c1.68,1.57,2.53,3.55,2.53,5.93s-.84,4.26-2.53,5.84c-1.69,1.58-3.83,2.36-6.43,2.36s-4.83-.79-6.52-2.36Zm14.06,7.53v49.73h-15.16v-49.73h15.16Z"/>
    <path class="cls-1" d="m359.1,148.88c-3.37-1.48-6.03-3.52-7.98-6.1-1.95-2.58-3.05-5.48-3.28-8.69h14.99c.18,1.72.98,3.12,2.39,4.19,1.42,1.07,3.16,1.6,5.23,1.6,1.89,0,3.35-.37,4.39-1.11,1.03-.74,1.55-1.71,1.55-2.9,0-1.43-.74-2.48-2.22-3.16-1.48-.68-3.87-1.44-7.18-2.27-3.55-.83-6.5-1.71-8.87-2.63-2.37-.92-4.4-2.38-6.12-4.37-1.72-1.99-2.57-4.68-2.57-8.07,0-2.85.78-5.45,2.35-7.8,1.57-2.35,3.87-4.2,6.92-5.57,3.04-1.37,6.66-2.05,10.86-2.05,6.21,0,11.1,1.55,14.68,4.63,3.58,3.09,5.63,7.19,6.16,12.3h-14.01c-.24-1.72-.99-3.09-2.26-4.1-1.27-1.01-2.94-1.52-5.01-1.52-1.77,0-3.13.34-4.08,1.02-.95.68-1.42,1.62-1.42,2.81,0,1.43.75,2.5,2.26,3.21,1.51.71,3.86,1.43,7.05,2.14,3.67.95,6.65,1.89,8.96,2.81,2.31.92,4.33,2.41,6.08,4.46,1.74,2.05,2.64,4.8,2.7,8.25,0,2.91-.81,5.51-2.44,7.8-1.63,2.29-3.96,4.09-7.01,5.39-3.04,1.31-6.58,1.96-10.6,1.96-4.32,0-8.16-.74-11.53-2.23Z"/>
    <path class="cls-1" d="m427.56,137.47v12.92h-7.71c-5.5,0-9.79-1.35-12.86-4.06-3.08-2.7-4.61-7.11-4.61-13.24v-19.79h-6.03v-12.66h6.03v-12.12h15.16v12.12h9.93v12.66h-9.93v19.97c0,1.49.35,2.55,1.06,3.21.71.66,1.89.98,3.55.98h5.41Z"/>
    <path class="cls-1" d="m482.36,129.19h-34.32c.24,3.09,1.23,5.45,2.97,7.09,1.74,1.63,3.89,2.45,6.43,2.45,3.78,0,6.41-1.6,7.89-4.81h16.14c-.83,3.27-2.32,6.21-4.48,8.82-2.16,2.62-4.86,4.67-8.11,6.15-3.25,1.49-6.89,2.23-10.91,2.23-4.85,0-9.16-1.04-12.95-3.12-3.78-2.08-6.74-5.05-8.87-8.91-2.13-3.86-3.19-8.38-3.19-13.55s1.05-9.68,3.15-13.55c2.1-3.86,5.04-6.83,8.82-8.91,3.78-2.08,8.13-3.12,13.04-3.12s9.04,1.01,12.77,3.03c3.72,2.02,6.64,4.9,8.73,8.65,2.1,3.74,3.15,8.11,3.15,13.1,0,1.43-.09,2.91-.27,4.46Zm-15.25-8.47c0-2.61-.89-4.69-2.66-6.24-1.77-1.54-3.99-2.32-6.65-2.32s-4.69.74-6.43,2.23c-1.75,1.49-2.82,3.6-3.24,6.33h18.98Z"/>
  </g>
  <g>
    <path class="cls-1" d="m138.21,214.96h-34.32c.24,3.09,1.23,5.45,2.97,7.09,1.74,1.63,3.89,2.45,6.43,2.45,3.78,0,6.41-1.6,7.89-4.81h16.14c-.83,3.27-2.32,6.21-4.48,8.82-2.16,2.62-4.86,4.67-8.11,6.15-3.25,1.49-6.89,2.23-10.91,2.23-4.85,0-9.16-1.04-12.95-3.12-3.78-2.08-6.74-5.05-8.87-8.91-2.13-3.86-3.19-8.38-3.19-13.55s1.05-9.68,3.15-13.55c2.1-3.86,5.04-6.83,8.82-8.91,3.78-2.08,8.13-3.12,13.04-3.12s9.04,1.01,12.77,3.03c3.72,2.02,6.64,4.9,8.73,8.65,2.1,3.74,3.15,8.11,3.15,13.1,0,1.43-.09,2.91-.27,4.46Zm-15.25-8.47c0-2.61-.89-4.69-2.66-6.24-1.77-1.54-3.99-2.32-6.65-2.32s-4.69.74-6.43,2.23c-1.74,1.49-2.82,3.6-3.24,6.33h18.98Z"/>
    <path class="cls-1" d="m174.04,223.25v12.92h-7.71c-5.5,0-9.79-1.35-12.86-4.06-3.07-2.7-4.61-7.11-4.61-13.24v-19.79h-6.03v-12.66h6.03v-12.12h15.16v12.12h9.93v12.66h-9.93v19.96c0,1.49.35,2.55,1.06,3.21.71.66,1.89.98,3.55.98h5.41Z"/>
    <path class="cls-1" d="m209.86,234.66c-3.37-1.48-6.03-3.52-7.98-6.1-1.95-2.58-3.05-5.48-3.28-8.69h14.99c.18,1.72.98,3.12,2.39,4.19,1.42,1.07,3.16,1.6,5.23,1.6,1.89,0,3.35-.37,4.39-1.11,1.03-.74,1.55-1.71,1.55-2.9,0-1.43-.74-2.48-2.22-3.16-1.48-.68-3.87-1.44-7.18-2.27-3.55-.83-6.5-1.71-8.87-2.63-2.37-.92-4.4-2.38-6.12-4.37-1.72-1.99-2.57-4.68-2.57-8.07,0-2.85.78-5.45,2.35-7.8,1.57-2.35,3.87-4.2,6.92-5.57,3.04-1.37,6.66-2.05,10.86-2.05,6.21,0,11.1,1.55,14.68,4.63,3.58,3.09,5.63,7.19,6.16,12.3h-14.01c-.24-1.72-.99-3.09-2.26-4.1-1.27-1.01-2.94-1.51-5.01-1.51-1.77,0-3.13.34-4.08,1.02-.95.68-1.42,1.62-1.42,2.81,0,1.43.75,2.5,2.26,3.21,1.51.71,3.86,1.43,7.05,2.14,3.66.95,6.65,1.89,8.96,2.81,2.31.92,4.33,2.41,6.07,4.46,1.74,2.05,2.65,4.8,2.7,8.25,0,2.91-.81,5.51-2.44,7.8-1.63,2.29-3.96,4.09-7.01,5.39-3.05,1.31-6.58,1.96-10.6,1.96-4.32,0-8.16-.74-11.53-2.23Z"/>
    <path class="cls-1" d="m260.18,233.77c-3.87-2.08-6.92-5.05-9.13-8.91-2.22-3.86-3.33-8.38-3.33-13.55s1.12-9.61,3.37-13.5c2.25-3.89,5.32-6.88,9.22-8.96,3.9-2.08,8.28-3.12,13.12-3.12s9.22,1.04,13.12,3.12c3.9,2.08,6.97,5.07,9.22,8.96,2.25,3.89,3.37,8.39,3.37,13.5s-1.14,9.61-3.41,13.5c-2.28,3.89-5.38,6.88-9.31,8.96-3.93,2.08-8.32,3.12-13.17,3.12s-9.21-1.04-13.08-3.12Zm20.48-13.28c2.04-2.14,3.06-5.2,3.06-9.18s-.99-7.04-2.97-9.18c-1.98-2.14-4.42-3.21-7.32-3.21s-5.41,1.06-7.36,3.16c-1.95,2.11-2.93,5.19-2.93,9.23s.96,7.04,2.88,9.18c1.92,2.14,4.33,3.21,7.23,3.21s5.37-1.07,7.4-3.21Z"/>
    <path class="cls-1" d="m307.36,197.76c2.1-3.86,5.02-6.83,8.78-8.91,3.75-2.08,8.05-3.12,12.9-3.12,6.21,0,11.4,1.63,15.56,4.9s6.9,7.87,8.2,13.81h-16.14c-1.36-3.8-3.99-5.7-7.89-5.7-2.78,0-5,1.08-6.65,3.25-1.66,2.17-2.48,5.27-2.48,9.31s.83,7.14,2.48,9.31c1.65,2.17,3.87,3.25,6.65,3.25,3.9,0,6.53-1.9,7.89-5.7h16.14c-1.3,5.82-4.05,10.4-8.25,13.73-4.2,3.33-9.37,4.99-15.52,4.99-4.85,0-9.15-1.04-12.9-3.12-3.75-2.08-6.68-5.05-8.78-8.91-2.1-3.86-3.15-8.38-3.15-13.55s1.05-9.68,3.15-13.55Z"/>
    <path class="cls-1" d="m361.99,178.91c-1.68-1.57-2.53-3.52-2.53-5.84s.84-4.35,2.53-5.93,3.86-2.36,6.52-2.36,4.74.79,6.43,2.36c1.68,1.57,2.53,3.55,2.53,5.93s-.84,4.26-2.53,5.84c-1.69,1.58-3.83,2.36-6.43,2.36s-4.83-.79-6.52-2.36Zm14.06,7.53v49.73h-15.16v-49.73h15.16Z"/>
    <path class="cls-1" d="m386.9,197.76c1.92-3.86,4.54-6.83,7.85-8.91,3.31-2.08,7.01-3.12,11.08-3.12,3.49,0,6.55.71,9.18,2.14,2.63,1.43,4.66,3.3,6.07,5.62v-7.04h15.16v49.73h-15.16v-7.04c-1.48,2.32-3.53,4.19-6.16,5.62-2.63,1.43-5.69,2.14-9.18,2.14-4.02,0-7.69-1.05-11-3.16-3.31-2.11-5.93-5.11-7.85-9-1.92-3.89-2.88-8.39-2.88-13.5s.96-9.59,2.88-13.46Zm31.04,4.55c-2.1-2.2-4.66-3.3-7.67-3.3s-5.57,1.08-7.67,3.25c-2.1,2.17-3.15,5.16-3.15,8.96s1.05,6.82,3.15,9.05c2.1,2.23,4.66,3.34,7.67,3.34s5.57-1.1,7.67-3.3c2.1-2.2,3.15-5.2,3.15-9s-1.05-6.8-3.15-9Z"/>
    <path class="cls-1" d="m462.41,170.22v65.96h-15.16v-65.96h15.16Z"/>
  </g>
</svg>