<?xml version="1.0" encoding="UTF-8"?>
<svg id="Layer_1" data-name="Layer 1" xmlns="http://www.w3.org/2000/svg" viewBox="0 0 500 430">
  <defs>
    <style>
      .cls-1 {
        fill: #71bdf1;
      }

      .cls-2 {
        fill: #009bdd;
      }
    </style>
  </defs>
  <g>
    <polygon class="cls-2" points="58.48 344.3 16.29 344.3 16.29 245.5 58.48 245.5 58.48 264.74 38.99 264.74 38.99 283.2 54.92 283.2 54.92 301.73 38.77 301.73 38.77 326.08 58.48 326.08 58.48 344.3"/>
    <polygon class="cls-2" points="65.64 344.3 65.64 246.23 84.82 246.23 99.61 294.04 99.61 246.23 120.94 246.23 120.94 344.3 102.02 344.3 87.14 295.93 87.14 344.3 65.64 344.3"/>
    <polygon class="cls-2" points="145.61 246.23 169.61 246.23 185.34 260.5 185.34 277.96 162.73 277.96 162.73 264.8 153.35 264.8 153.35 284.66 170.04 286.04 185.34 300.4 185.34 330.41 170.9 344.3 145.01 344.3 130.65 330.5 130.65 313.04 153.35 313.04 153.35 326.03 162.56 326.03 162.56 305.56 146.3 304.27 130.65 290 130.65 260.59 145.61 246.23"/>
    <polygon class="cls-2" points="236.65 344.64 194.46 344.64 194.46 245.84 236.65 245.84 236.65 265.09 217.16 265.09 217.16 283.55 233.1 283.55 233.1 302.08 216.94 302.08 216.94 326.43 236.65 326.43 236.65 344.64"/>
    <polygon class="cls-2" points="244.68 344.3 244.68 246.23 271.33 246.23 279.3 293.75 281.36 293.75 288.82 246.23 315.42 246.23 315.42 344.3 294.55 344.3 294.55 282.15 293.58 282.15 284.29 344.3 275.89 344.3 266.43 282.14 265.46 282.14 265.46 344.3 244.68 344.3"/>
    <path class="cls-2" d="m368.65,294.12l10.65-9.74v-25.93l-12.68-12.23h-39.73v98.07h39.73l14.75-13.97v-26.4l-12.71-9.8Zm-9.9,31.95h-9.29v-21.93h9.29v21.93Zm0-40.5h-9.29v-20.81h9.29v20.81Z"/>
    <polygon class="cls-2" points="393.04 246.23 415.68 246.23 415.68 326.07 436.03 326.07 436.03 344.3 393.04 344.3 393.04 246.23"/>
    <polygon class="cls-2" points="483.71 344.64 441.52 344.64 441.52 245.84 483.71 245.84 483.71 265.09 464.22 265.09 464.22 283.55 480.16 283.55 480.16 302.08 464.01 302.08 464.01 326.43 483.71 326.43 483.71 344.64"/>
  </g>
  <g>
    <path class="cls-2" d="m141.26,64.25c32.05-18.27,69.14-28.72,108.67-28.72s73.76,9.65,104.95,26.64l13.3-23.34c-35.04-19.43-75.34-30.5-118.24-30.5s-87.05,12.16-123.23,33.34l14.56,22.58Z"/>
    <path class="cls-2" d="m207.97,167.74c12.79-5.79,27-9.02,41.96-9.02,15.84,0,30.83,3.62,44.2,10.07l12.26-21.51c-17-8.49-36.16-13.28-56.45-13.28s-38.72,4.6-55.46,12.78l13.51,20.95Z"/>
    <path class="cls-2" d="m185.83,133.39c19.27-9.71,41.04-15.19,64.1-15.19s44.98,5.52,64.31,15.29l12.69-22.27c-23.05-11.97-49.23-18.75-76.99-18.75s-54.73,6.98-78.03,19.29l13.94,21.62Z"/>
    <path class="cls-2" d="m163.87,99.33c25.6-13.86,54.91-21.73,86.06-21.73s59.12,7.53,84.3,20.8l12.99-22.8c-28.96-15.62-62.09-24.48-97.29-24.48s-70.63,9.5-100.28,26.14l14.23,22.07Z"/>
  </g>
  <g>
    <path class="cls-1" d="m193.07,176.99l-13.65-21.03c-19.85,13.49-34.32,34.31-39.5,58.58l24.39,5.78c3.68-17.91,14.23-33.3,28.76-43.33Z"/>
    <path class="cls-1" d="m96.89,219.22l24.59,4.15c3.33-33.97,21.88-63.47,48.74-81.59l-13.55-20.88c-32.59,21.85-55.24,57.35-59.77,98.32Z"/>
    <path class="cls-1" d="m60.58,195.72l25.91,6.14c8.47-38.19,31.53-70.9,63.03-91.96l-14.5-22.33c-37.16,24.74-64.38,63.2-74.45,108.15Z"/>
    <path class="cls-1" d="m43.61,210.22c7.07-55.86,38.31-104.4,83.18-135.33l-14.82-22.82C60.65,87.01,24.76,142.1,16.34,205.61l27.27,4.61Z"/>
  </g>
  <g>
    <path class="cls-1" d="m308.73,178.09l12.45-21.77c20.58,12.35,31.51,32.91,38.05,56.85l-23.23,6.06c-4.68-17.67-12.19-31.94-27.27-41.13Z"/>
    <path class="cls-1" d="m401.05,219.73l-24.78,4.71c-5.24-33.72-18.87-66.19-46.7-82.78l12.36-21.61c33.76,19.98,52.29,59.03,59.13,99.68Z"/>
    <path class="cls-1" d="m439.2,193.13l-26.26,6.56c-10.61-37.66-31.87-71.78-64.51-91.03l13.22-23.11c38.49,22.61,64.97,63.27,77.55,107.58Z"/>
    <path class="cls-1" d="m456.75,212.25c-10.21-55.37-41.06-111.47-87.6-139.82l13.51-23.62c53.22,32,89.14,96.37,101.12,159.31l-27.03,4.14Z"/>
  </g>
  <g>
    <path class="cls-2" d="m23,362.33h-5.9c-.45,0-.82.37-.82.82v56.39c0,.48.39.88.88.88h4.8c.48,0,.88-.39.88-.88v-19.54s17.83,2.46,17.83-18.88c0-18.89-17.67-18.79-17.67-18.79Zm-.17,32v-26.42s11.83-1.33,11.83,13.21-11.83,13.21-11.83,13.21Z"/>
    <path class="cls-2" d="m57.64,362.33c-7.84,0-14.19,13-14.19,29.04s6.35,29.04,14.19,29.04,14.19-13,14.19-29.04-6.35-29.04-14.19-29.04Zm0,52.12c-4.43,0-8.03-10.33-8.03-23.07s3.59-23.07,8.03-23.07,8.03,10.33,8.03,23.07-3.59,23.07-8.03,23.07Z"/>
    <path class="cls-2" d="m77.89,362.33h3.94c.46,0,.83.37.83.83v41.67s.67,9.62,7,9.62,6.72-9.45,6.72-9.45v-41.83c0-.46.37-.83.83-.83h4.11c.46,0,.83.37.83.83v43.67s.44,13.58-12.56,13.58-12.56-13.14-12.56-13.14v-44.11c0-.46.37-.83.83-.83Z"/>
    <path class="cls-2" d="m134.21,418.99l-9.16-23.06c4.32-2.11,8.52-6.6,8.52-16.13,0-18.71-17.67-17.46-17.67-17.46h-5.9c-.45,0-.82.37-.82.82v56.39c0,.48.39.88.88.88h4.8c.48,0,.88-.39.88-.88v-21.83s1.25.12,3.09-.07l8.9,22.24c.13.32.44.53.79.53h4.73c.74,0,1.24-.74.97-1.42Zm-18.47-26.95v-24.12s11.83-2.66,11.83,11.88-11.83,12.25-11.83,12.25Z"/>
    <path class="cls-2" d="m152.63,362.33h4.17c.48,0,.88.39.88.88v50.37c0,.48.39.88.88.88h10.67c.48,0,.88.39.88.88v4.22c0,.48-.39.88-.88.88h-16.58c-.48,0-.88-.39-.88-.88v-56.33c0-.48.39-.88.88-.88Z"/>
    <path class="cls-2" d="m188.97,362.97c-.08-.38-.41-.65-.8-.65h-4.42c-.39,0-.72.27-.8.65l-11.65,56.41c-.11.54.3,1.04.85,1.04h3.99c.41,0,.76-.28.84-.68l3.1-14.4h11.33l2.91,14.42c.08.38.42.66.81.66h4.52c.52,0,.91-.48.81-.99l-11.5-56.46Zm-8.13,36.47l4.92-25.61,4.92,25.61h-9.83Z"/>
    <path class="cls-2" d="m242.63,418.99l-9.16-23.06c4.32-2.11,8.52-6.6,8.52-16.13,0-18.71-17.67-17.46-17.67-17.46h-5.9c-.45,0-.82.37-.82.82v56.39c0,.48.39.88.88.88h4.8c.48,0,.88-.39.88-.88v-21.83s1.25.12,3.09-.07l8.9,22.24c.13.32.44.53.79.53h4.73c.74,0,1.24-.74.97-1.42Zm-18.47-26.95v-24.12s11.83-2.66,11.83,11.88-11.83,12.25-11.83,12.25Z"/>
    <path class="cls-2" d="m248.57,362.32h18.64c.47,0,.85.38.85.85v3.71c0,.47-.38.85-.85.85h-13.32v20h11.65c.47,0,.85.38.85.85v4.53c0,.47-.38.85-.85.85h-11.6v20.44h13.26c.47,0,.85.38.85.85v4.33c0,.47-.38.85-.85.85h-18.64c-.47,0-.85-.38-.85-.85v-56.41c0-.47.38-.85.85-.85Z"/>
    <path class="cls-2" d="m251.54,358.79h14.66c.46,0,.84-.37.84-.84v-3.12c0-.52-.47-.92-.98-.82-3.11.58-12.64,2.45-14.52,3.95-.62.42,0,.83,0,.83Z"/>
    <path class="cls-2" d="m279.89,362.33h-5.9c-.45,0-.82.37-.82.82v56.39c0,.48.39.88.88.88h4.8c.48,0,.88-.39.88-.88v-19.54s17.83,2.46,17.83-18.88c0-18.89-17.67-18.79-17.67-18.79Zm-.17,32v-26.42s11.83-1.33,11.83,13.21-11.83,13.21-11.83,13.21Z"/>
    <path class="cls-2" d="m302.72,362.28h3.94c.46,0,.83.37.83.83v41.67s.67,9.62,7,9.62,6.72-9.45,6.72-9.45v-41.83c0-.46.37-.83.83-.83h4.11c.46,0,.83.37.83.83v43.67s.44,13.58-12.56,13.58-12.56-13.14-12.56-13.14v-44.11c0-.46.37-.83.83-.83Z"/>
    <path class="cls-2" d="m349.33,390.71s8-2.58,8-13.83c0-14.54-13.62-14.54-13.62-14.54h-9.88v58.03l9.25-.28s14.87.28,14.87-15.54c0-11.04-8.62-13.83-8.62-13.83Zm-9.5-22.88s11.58-1.33,11.58,9.79-11.58,10-11.58,10v-19.79Zm0,45.98v-19.79s11.96-1.33,11.96,9.79-11.96,10-11.96,10Z"/>
    <path class="cls-2" d="m364.01,362.33h4.17c.48,0,.88.39.88.88v50.37c0,.48.39.88.88.88h10.67c.48,0,.88.39.88.88v4.22c0,.48-.39.88-.88.88h-16.58c-.48,0-.88-.39-.88-.88v-56.33c0-.48.39-.88.88-.88Z"/>
    <rect class="cls-2" x="385.72" y="362.33" width="5.89" height="58.03" rx=".79" ry=".79"/>
    <path class="cls-2" d="m425.89,417.02l-4.17-4.97c2.61-5.27,4.23-12.58,4.23-20.67,0-16.04-6.35-29.04-14.19-29.04s-14.19,13-14.19,29.04,6.35,29.04,14.19,29.04c2.7,0,5.23-1.55,7.38-4.23l3.26,3.94c.3.36.83.39,1.17.08l2.24-2.06c.32-.29.35-.79.07-1.12Zm-14.14-2.57c-4.43,0-8.03-10.33-8.03-23.07s3.59-23.07,8.03-23.07,8.03,10.33,8.03,23.07c0,6.1-.83,11.65-2.17,15.77l-3.39-4.04c-.3-.36-.84-.39-1.18-.07l-2.15,2c-.31.29-.35.78-.07,1.11l4.67,5.64c-1.12,1.7-2.39,2.66-3.74,2.66Z"/>
    <path class="cls-2" d="m431.72,362.28h3.94c.46,0,.83.37.83.83v41.67s.67,9.62,7,9.62,6.72-9.45,6.72-9.45v-41.83c0-.46.37-.83.83-.83h4.11c.46,0,.83.37.83.83v43.67s.44,13.58-12.56,13.58-12.56-13.14-12.56-13.14v-44.11c0-.46.37-.83.83-.83Z"/>
    <path class="cls-2" d="m463.47,362.32h18.64c.47,0,.85.38.85.85v3.71c0,.47-.38.85-.85.85h-13.32v20h11.65c.47,0,.85.38.85.85v4.53c0,.47-.38.85-.85.85h-11.6v20.44h13.26c.47,0,.85.38.85.85v4.33c0,.47-.38.85-.85.85h-18.64c-.47,0-.85-.38-.85-.85v-56.41c0-.47.38-.85.85-.85Z"/>
  </g>
</svg>