<svg id="GDR" xmlns="http://www.w3.org/2000/svg" viewBox="0 0 491.78 178.78"><defs><style>.cls-1{fill:#ea193a;}</style></defs><title>gdr</title><g id="Text"><path class="cls-1" d="M254.84,245.75h40.52V298.7a113.37,113.37,0,0,1-18.55,4.51A121,121,0,0,1,259,304.5q-23.11,0-35.31-13.59t-12.19-39q0-24.74,14.14-38.56t39.23-13.83a75.94,75.94,0,0,1,30.32,6.28L288,223.12a51.31,51.31,0,0,0-23.26-5.59q-14,0-22.49,9.43t-8.46,25.36q0,16.62,6.81,25.39t19.81,8.77a70.15,70.15,0,0,0,13.76-1.4V263.77H254.84Z" transform="translate(-2.22 -163.17)"/><path class="cls-1" d="M397.82,251.06q0,25.21-14.35,38.63T342,303.1H313.09V201h32.06q25,0,38.84,13.21T397.82,251.06Zm-22.49.56q0-32.91-29.06-32.9H334.74v66.5H344Q375.34,285.22,375.33,251.62Z" transform="translate(-2.22 -163.17)"/><path class="cls-1" d="M434.06,263.91V303.1H412.41V201h29.76q20.81,0,30.8,7.58t10,23a27.06,27.06,0,0,1-5,16,32.76,32.76,0,0,1-14,11q23.06,34.45,30,44.5H470l-24.38-39.19Zm0-17.6h7q10.26,0,15.16-3.42t4.89-10.76q0-7.26-5-10.34t-15.47-3.07h-6.57Z" transform="translate(-2.22 -163.17)"/></g><path id="Logo" class="cls-1" d="M91.61,163.17A89.39,89.39,0,1,0,181,252.56,89.39,89.39,0,0,0,91.61,163.17ZM138.28,214q1.69,4.8,3,9.81l-3.45,6.52a107.79,107.79,0,0,0-4.43-15.53Zm-7.3,1.19a103.51,103.51,0,0,1,5,18.53l-4,7.51a98.71,98.71,0,0,0-6.14-25.22Zm-14.85,2.41a87.19,87.19,0,0,1,4.32,12.93l-4.78.77a81.88,81.88,0,0,0-4.48-12.9ZM117.25,239l3.58-6.77a89.65,89.65,0,0,1,.06,39.83l-3.58-6.86a83,83,0,0,0-.06-26.2Zm-6,11.27,4-7.65a83.27,83.27,0,0,1,.59,9.67,82.55,82.55,0,0,1-.54,9.22l-4.08-7.83c0-.46,0-.93,0-1.39C111.34,251.57,111.31,250.9,111.29,250.23Zm-2.54-31.4a80.75,80.75,0,0,1,4.55,12.9l-4.59.74a74.61,74.61,0,0,0-4.77-12.86ZM72,315.84,65.5,272,25.37,252.06,65.5,232.18,72,188.28,99.36,216.1a70.86,70.86,0,0,1,7,16.75l-8.88,1.44L80.43,217l-3.58,24.15L54.77,252.06l22.08,11,3.58,24.13,16.89-17.48,9.14,1.53a71.18,71.18,0,0,1-6,15.18Zm32.18-31.51a74,74,0,0,0,4.63-12.73l4.58.76A79.18,79.18,0,0,1,109,285.13Zm7.22,1.2a81.72,81.72,0,0,0,4.36-12.77l4.78.8a87.17,87.17,0,0,1-4.21,12.8Zm7.36,1.23a91.94,91.94,0,0,0-.21-69.52l4.94-.8a96.92,96.92,0,0,1,6.5,28.72l-3.51,6.63,3.56,6.82a96.82,96.82,0,0,1-6.37,29Zm7.31,1.23a99.47,99.47,0,0,0,6-25.39l4,7.63a103.89,103.89,0,0,1-5,18.6Zm7.46,1.24a105,105,0,0,0,4.37-15.55l3.45,6.61q-1.26,5-2.94,9.76Zm7.27,1.22q1.2-3.45,2.19-7l4.22,8.09Zm2.1-69.71c-.67-2.4-1.42-4.76-2.23-7.08l6.54-1.07Z" transform="translate(-2.22 -163.17)"/></svg>