<svg id="Layer_1" data-name="Layer 1" xmlns="http://www.w3.org/2000/svg" viewBox="0 0 488.67 137.05"><defs><style>.cls-1{fill:#e81b3d;}.cls-2,.cls-3,.cls-4,.cls-5{fill:#e11f4a;}.cls-2{opacity:0.8;}.cls-2,.cls-4,.cls-5{isolation:isolate;}.cls-4{opacity:0.5;}.cls-5{opacity:0.2;}</style></defs><title>gdre</title><path class="cls-1" d="M161,210.29h6.65v24.05H180v6.13H161Z" transform="translate(-5.67 -181.47)"/><path class="cls-1" d="M183.86,210.29h20.49v6.14H190.49v5.64h13.08v6.13H190.49v6.14h14.62v6.13H183.84V210.29Z" transform="translate(-5.67 -181.47)"/><path class="cls-1" d="M225.34,217.68a6.45,6.45,0,0,0-4.83-2c-1.88,0-4.46.86-4.46,3.11,0,5.51,13.89,2,13.89,12.53,0,6.73-5.41,9.92-11.64,9.92a14.38,14.38,0,0,1-10.16-3.79l4.73-5.19a7.31,7.31,0,0,0,5.79,2.84c2.17,0,4.6-1,4.6-3.15,0-5.54-14.15-2.56-14.15-12.61,0-6.45,5.58-9.82,11.51-9.82a13.56,13.56,0,0,1,9.24,3.16Z" transform="translate(-5.67 -181.47)"/><path class="cls-1" d="M247.51,210.29h10c9.71,0,17.86,4.13,17.86,15.17,0,9.76-8,15-17,15H247.51Zm6.63,24.05h3.44c6.19,0,10.84-2.35,10.84-9.22,0-5.92-4.73-8.69-10.37-8.69h-3.91Z" transform="translate(-5.67 -181.47)"/><path class="cls-1" d="M280.09,210.29h20.49v6.14H286.72v5.64H299.8v6.13H286.72v6.14h14.62v6.13H280.06V210.29Zm10.15-8.3h8.69l-7.36,6.14h-5.64Z" transform="translate(-5.67 -181.47)"/><path class="cls-1" d="M306.66,210.29h11.2c6.27,0,11.46,2,11.46,9.17s-4.8,9.24-11.17,9.24h-4.86v11.77h-6.65V210.29Zm6.66,12.8h4.44c2.35,0,4.7-.81,4.7-3.63,0-3.11-3.16-3.53-5.72-3.53h-3.42Z" transform="translate(-5.67 -181.47)"/><path class="cls-1" d="M359,228.83c0,7.13-4.36,12.4-12.71,12.4S333.5,236,333.5,228.83V210.29h6.65v18.28c0,3.7,2.56,6.52,6.09,6.52s6.05-2.82,6.05-6.52V210.29H359v18.54Z" transform="translate(-5.67 -181.47)"/><path class="cls-1" d="M370.93,216.17h-8.61v-5.88h23.86v5.88h-8.62v24.3h-6.65v-24.3Z" transform="translate(-5.67 -181.47)"/><path class="cls-1" d="M389.78,210.29H410.3v6.14H396.44v5.64h13.08v6.13H396.44v6.14h14.62v6.13H389.78V210.29Zm10.16-8.3h8.69l-7.36,6.14h-5.61Z" transform="translate(-5.67 -181.47)"/><path class="cls-1" d="M421.21,219.72a5.59,5.59,0,1,1-5.58,5.58A5.57,5.57,0,0,1,421.21,219.72Z" transform="translate(-5.67 -181.47)"/><path class="cls-1" d="M432.44,210.29h20.49v6.14H439.07v5.64h13.08v6.13H439.07v6.14h14.62v6.13H432.41V210.29Z" transform="translate(-5.67 -181.47)"/><path class="cls-1" d="M463.87,219.72a5.59,5.59,0,1,1-5.59,5.58A5.57,5.57,0,0,1,463.87,219.72Z" transform="translate(-5.67 -181.47)"/><path class="cls-1" d="M489.74,217.68a6.46,6.46,0,0,0-4.83-2c-1.88,0-4.46.86-4.46,3.11,0,5.51,13.88,2,13.88,12.53,0,6.73-5.4,9.92-11.64,9.92a14.36,14.36,0,0,1-10.15-3.79l4.72-5.19a7.34,7.34,0,0,0,5.8,2.84c2.16,0,4.59-1,4.59-3.15,0-5.54-14.15-2.56-14.15-12.61,0-6.45,5.59-9.82,11.51-9.82a13.54,13.54,0,0,1,9.24,3.16Z" transform="translate(-5.67 -181.47)"/><path class="cls-1" d="M180.44,264.62a7.15,7.15,0,0,0-5.71-2.48c-5,0-8.75,4.1-8.75,9.71s3.71,9.71,8.54,9.71a7.2,7.2,0,0,0,6.21-3.24l5.53,4.13a13.16,13.16,0,0,1-10.91,5.25c-9.42,0-16.29-6.19-16.29-15.85S165.93,256,175.35,256c3.37,0,7.62,1.15,10.18,4.44Z" transform="translate(-5.67 -181.47)"/><path class="cls-1" d="M204.56,256c9.43,0,16.29,6.19,16.29,15.85S214,287.7,204.56,287.7s-16.29-6.19-16.29-15.85S195.14,256,204.56,256Zm0,25.59c5.67,0,9.38-4.1,9.38-9.71s-3.71-9.71-9.38-9.71-9.37,4.09-9.37,9.71S198.9,281.59,204.56,281.59Z" transform="translate(-5.67 -181.47)"/><path class="cls-1" d="M225.34,256.76h10l7,19.68h.08l7-19.68h10v30.18h-6.66V263.78h-.08l-7.91,23.16h-5.06l-7.63-23.16H232v23.16h-6.66Z" transform="translate(-5.67 -181.47)"/><path class="cls-1" d="M265.57,256.76h10.05l6.95,19.68h.07l7-19.68h10v30.18H293V263.78h-.08L285,286.94h-5.06l-7.62-23.16h-.08v23.16h-6.66Z" transform="translate(-5.67 -181.47)"/><path class="cls-1" d="M331.23,275.32c0,7.13-4.36,12.4-12.72,12.4s-12.74-5.27-12.74-12.4V256.79h6.66v18.27c0,3.71,2.56,6.53,6.08,6.53s6.06-2.82,6.06-6.53V256.79h6.66Z" transform="translate(-5.67 -181.47)"/><path class="cls-1" d="M337.34,256.76h9l12.84,21h.08v-21H366v30.18h-8.7L344.1,265.45H344v21.49h-6.66V256.76Z" transform="translate(-5.67 -181.47)"/><path class="cls-1" d="M372,256.76h6.65v30.18H372Z" transform="translate(-5.67 -181.47)"/><path class="cls-1" d="M399.6,264.15a6.46,6.46,0,0,0-4.83-2c-1.88,0-4.47.86-4.47,3.11,0,5.5,13.89,1.95,13.89,12.53,0,6.73-5.4,9.92-11.64,9.92a14.31,14.31,0,0,1-10.13-3.79l4.72-5.19a7.34,7.34,0,0,0,5.8,2.84c2.17,0,4.59-1,4.59-3.16,0-5.53-14.14-2.56-14.14-12.61,0-6.44,5.58-9.79,11.51-9.79a13.56,13.56,0,0,1,9.24,3.16Z" transform="translate(-5.67 -181.47)"/><path class="cls-1" d="M415,262.66h-8.61v-5.87h23.86v5.87H421.6V287H415V262.66Z" transform="translate(-5.67 -181.47)"/><path class="cls-1" d="M433.85,256.76h20.49v6.14H440.48v5.63h13.08v6.14H440.48v6.13H455.1v6.14H433.82V256.76Z" transform="translate(-5.67 -181.47)"/><path class="cls-1" d="M475.35,264.15a6.44,6.44,0,0,0-4.82-2c-1.88,0-4.47.86-4.47,3.11,0,5.5,13.89,1.95,13.89,12.53,0,6.73-5.4,9.92-11.64,9.92a14.29,14.29,0,0,1-10.13-3.79l4.72-5.19a7.34,7.34,0,0,0,5.8,2.84c2.16,0,4.59-1,4.59-3.16,0-5.53-14.15-2.56-14.15-12.61,0-6.44,5.59-9.79,11.52-9.79a13.56,13.56,0,0,1,9.24,3.16Z" transform="translate(-5.67 -181.47)"/><path class="cls-2" d="M124.16,230.6a108.07,108.07,0,0,0-5.48-19.81l-5,.86a104.33,104.33,0,0,1,6.55,26.5Z" transform="translate(-5.67 -181.47)"/><path class="cls-2" d="M117.87,242.53a102.05,102.05,0,0,0-7-30.44l-2.61.45-2.53.42a96.54,96.54,0,0,1,7.28,37,97.19,97.19,0,0,1-7.36,37.25l5.15.89a102.31,102.31,0,0,0,7-30.44l-4-7.54Z" transform="translate(-5.67 -181.47)"/><path class="cls-3" d="M99.88,228.15a86.67,86.67,0,0,0-4.72-13.47l-5.23.83A79.41,79.41,0,0,1,94.82,229Z" transform="translate(-5.67 -181.47)"/><path class="cls-3" d="M102.54,272.42a88.58,88.58,0,0,1-4.62,13.42l5,.86a96,96,0,0,0,4.51-13.44Z" transform="translate(-5.67 -181.47)"/><path class="cls-3" d="M102.13,240.37l-4.6,8.69c0,.29,0,.57,0,.89s0,.7,0,1.07l4.6,8.69a88.54,88.54,0,0,0,.54-9.79A89.17,89.17,0,0,0,102.13,240.37Z" transform="translate(-5.67 -181.47)"/><path class="cls-2" d="M120.16,262a104.14,104.14,0,0,1-6.6,26.52l5.06.86a106.58,106.58,0,0,0,5.51-19.84Z" transform="translate(-5.67 -181.47)"/><path class="cls-4" d="M136.17,207.77,129.22,209c.89,2.45,1.67,4.93,2.41,7.44Z" transform="translate(-5.67 -181.47)"/><path class="cls-4" d="M126.51,209.43l-5.12.89a111.58,111.58,0,0,1,4.78,16.45l3.6-6.84A100.6,100.6,0,0,0,126.51,209.43Z" transform="translate(-5.67 -181.47)"/><path class="cls-4" d="M121.34,289.86l5.12.86q1.87-5.16,3.29-10.52l-3.61-6.84A107.58,107.58,0,0,1,121.34,289.86Z" transform="translate(-5.67 -181.47)"/><path class="cls-4" d="M131.63,283.73c-.74,2.5-1.55,5-2.43,7.46l7,1.21Z" transform="translate(-5.67 -181.47)"/><path class="cls-3" d="M90,284.49l5.2.88A86.36,86.36,0,0,0,99.85,272l-5.06-.86A81.44,81.44,0,0,1,90,284.49Z" transform="translate(-5.67 -181.47)"/><path class="cls-3" d="M105.36,249.92a90.61,90.61,0,0,1-1.07,13.94l3.68,7a94.12,94.12,0,0,0,0-41.67l-3.71,7A87.8,87.8,0,0,1,105.36,249.92Z" transform="translate(-5.67 -181.47)"/><path class="cls-3" d="M57,317l27.86-28.53a77.49,77.49,0,0,0,7.28-17.86l-8.95-1.54-18.62,19L60.7,261.77,36.78,250.05,60.67,238.2l3.84-26.37L83.15,231l9-1.54a77.79,77.79,0,0,0-7.36-18.06L55.92,181.94c-.16-.1-.31-.18-.47-.26l-6.84,47.17L5.67,250.13l42.91,21,6.87,47.15c.16-.11.34-.18.5-.29Z" transform="translate(-5.67 -181.47)"/><path class="cls-3" d="M107.48,226.84A94.62,94.62,0,0,0,103,213.4l-5.07.81a86.45,86.45,0,0,1,4.65,13.47Z" transform="translate(-5.67 -181.47)"/><path class="cls-3" d="M55.48,181.47l0,.19c.16.1.31.18.47.26Z" transform="translate(-5.67 -181.47)"/><path class="cls-3" d="M55.5,318.53h0l.45-.45c-.16.11-.34.19-.5.29l0,.16Z" transform="translate(-5.67 -181.47)"/><path class="cls-5" d="M97.53,249.06l-.52,1,.52,1c0-.37,0-.71,0-1.07S97.53,249.35,97.53,249.06Z" transform="translate(-5.67 -181.47)"/></svg>