<svg id="Layer_1" data-name="Layer 1" xmlns="http://www.w3.org/2000/svg" viewBox="0 0 490 128.12"><defs><style>.cls-1{fill:#29398d;}.cls-2{fill:#293988;}.cls-3{fill:#b43145;}.cls-4{fill:#fff;}</style></defs><title>horizons</title><rect class="cls-1" x="333.41" y="99.8" width="156.59" height="26.99"/><polygon class="cls-2" points="136.67 126.46 141.69 126.46 141.69 114.7 155.13 114.7 155.13 126.46 160.19 126.46 160.19 99.61 155.23 99.61 155.23 109.64 141.69 109.64 141.69 99.61 136.67 99.61 136.67 126.46"/><path class="cls-2" d="M183,285.3A13.67,13.67,0,1,0,196.62,299,13.67,13.67,0,0,0,183,285.3Zm0,22.86a9.19,9.19,0,1,1,9.19-9.19A9.18,9.18,0,0,1,183,308.16Z" transform="translate(-5 -185.94)"/><path class="cls-2" d="M213.24,300.67s5.1-.28,5.1-7.52-5.13-7.6-5.13-7.6H200.66V312.4h5.06V300.6h2.46l9.35,11.8h5.1Zm-7.48-4.81V290.1h6.71s1.69.1,1.69,2.88-1.69,2.88-1.69,2.88Z" transform="translate(-5 -185.94)"/><rect class="cls-2" x="221.01" y="99.61" width="5.01" height="26.85"/><polygon class="cls-2" points="231.13 99.61 249.64 99.61 249.64 104.48 236.99 121.4 249.64 121.4 249.64 126.46 231.08 126.46 231.08 121.45 243.69 104.58 231.13 104.58 231.13 99.61"/><path class="cls-2" d="M270,285.3A13.67,13.67,0,1,0,283.66,299,13.67,13.67,0,0,0,270,285.3Zm0,22.86a9.19,9.19,0,1,1,9.18-9.19A9.18,9.18,0,0,1,270,308.16Z" transform="translate(-5 -185.94)"/><polygon class="cls-2" points="283.39 126.46 288.26 126.46 288.26 107.95 301.89 126.46 306.91 126.46 306.91 99.61 301.94 99.61 301.94 118.26 288.21 99.61 283.39 99.61 283.39 126.46"/><path class="cls-2" d="M324.57,285.55c5.62,0,8.16,3.57,6.42,5.32-2,2-3.59-.4-6.42-.4s-4.11.86-4.17,2.53c0,5.28,11.86,4.72,11.86,12,0,5-5.3,7.27-7.38,7.27s-11.14-.91-8.64-5.62c2.42-2.46,3.87.67,7.06.67s3.94-1.16,3.94-2c0-4.43-11.67-5.13-11.67-12.4S324.57,285.55,324.57,285.55Z" transform="translate(-5 -185.94)"/><polygon class="cls-1" points="140 37.18 141.76 37.18 141.76 79.28 163.61 79.28 163.61 81.17 140 81.17 140 37.18"/><polygon class="cls-1" points="173.81 37.18 197.49 37.18 197.49 38.8 175.49 38.8 175.49 55.66 193.91 55.66 193.91 57.49 175.42 57.49 175.42 79.42 198.97 79.42 198.97 81.17 173.81 81.17 173.81 37.18"/><path class="cls-1" d="M251.48,221.36c9.84,0,16.65,6.68,16.65,6.68v1.75s-8.29-6.67-16.65-6.67-18.77,9.77-18.77,22,7.8,22,21,22c6.54,0,10.1-2,14.46-6.91,0,0-.05-10.82-.05-16.84h-15v-1.83h16.8V260.2s-4.15,8.67-16.09,8.67-22.73-6.93-22.73-23.75S244.28,221.36,251.48,221.36Z" transform="translate(-5 -185.94)"/><path class="cls-1" d="M297.73,243.43h5.61s6.82-.84,6.82-10.4-6.68-9.91-6.68-9.91h-20.1v44h1.69V243.43H295.2l18.26,23.68h1.76v-1.89Zm-12.73-2V224.87h18.41s5.06,1.33,5.06,8.4-4.85,8.4-4.85,8.4Z" transform="translate(-5 -185.94)"/><path class="cls-1" d="M343.83,223.05a22.07,22.07,0,1,0,22.06,22.07A22.07,22.07,0,0,0,343.83,223.05Zm0,42.31a20.25,20.25,0,1,1,20.24-20.24A20.25,20.25,0,0,1,343.83,265.36Z" transform="translate(-5 -185.94)"/><path class="cls-1" d="M377.84,223.05h1.62v30.08s1,14,16.8,14,15.32-13.84,15.32-13.84V223.12h1.75v30.36s1.06,15.11-17.07,15.11-18.42-15.25-18.42-15.25Z" transform="translate(-5 -185.94)"/><path class="cls-1" d="M448.31,243.43s6.82-.84,6.82-10.4-6.68-9.91-6.68-9.91h-20.1v44H430V243.43Zm-18.34-2V224.87h18.41s5.06,1.33,5.06,8.4-4.85,8.4-4.85,8.4Z" transform="translate(-5 -185.94)"/><polygon class="cls-1" points="463.93 37.18 487.61 37.18 487.61 38.8 465.61 38.8 465.61 55.66 484.03 55.66 484.03 57.49 465.54 57.49 465.54 79.42 489.09 79.42 489.09 81.17 463.93 81.17 463.93 37.18"/><rect class="cls-1" x="5.06" y="118.17" width="109.36" height="3.28"/><rect class="cls-1" y="124.96" width="119.62" height="3.16"/><rect class="cls-1" x="13.49" y="57.49" width="3.3" height="57.14"/><rect class="cls-1" x="28.67" y="57.49" width="3.3" height="57.14"/><rect class="cls-1" x="43.86" y="57.49" width="3.3" height="57.14"/><rect class="cls-1" x="58.97" y="57.49" width="3.3" height="57.14"/><rect class="cls-1" x="72.53" y="57.49" width="3.3" height="57.14"/><rect class="cls-1" x="87.78" y="57.49" width="3.3" height="57.14"/><rect class="cls-1" x="102.89" y="57.49" width="3.3" height="57.14"/><path class="cls-1" d="M5,229.79v10H124.62v-10Zm116.39,6.82H8.37v-3.4h113Z" transform="translate(-5 -185.94)"/><polygon class="cls-1" points="0 40.39 6.78 40.39 60.62 26.21 113.08 40.39 119.62 40.39 119.62 38.85 60.62 22.77 0 38.85 0 40.39"/><path class="cls-1" d="M67.46,190.06v6.84s2.3,0,4.56-.28v-6.71A36.09,36.09,0,0,1,67.46,190.06Z" transform="translate(-5 -185.94)"/><path class="cls-3" d="M80.88,188.4a22.78,22.78,0,0,0-4.47.48v6.82a30.26,30.26,0,0,1,4.47-.58Z" transform="translate(-5 -185.94)"/><path class="cls-4" d="M74.93,189.31a11.93,11.93,0,0,1-2.91.6v6.71a16.16,16.16,0,0,0,3-.56c.45-.14.93-.26,1.41-.36v-6.82A11.07,11.07,0,0,0,74.93,189.31Z" transform="translate(-5 -185.94)"/><path class="cls-1" d="M75,186.82c-3.06.91-11,.81-11,.81v17.66h3.32l0-5.89s5.09,0,7.66-.78,9.24-.84,9.24-.84V185.94S78.09,185.9,75,186.82Zm5.84,8.3a26.88,26.88,0,0,0-5.88.94,34.79,34.79,0,0,1-7.54.84v-6.84s5.06.19,7.47-.75a19.74,19.74,0,0,1,5.95-.91Z" transform="translate(-5 -185.94)"/></svg>