<?xml version="1.0" encoding="UTF-8"?>
<svg id="Layer_1" data-name="Layer 1" xmlns="http://www.w3.org/2000/svg" viewBox="0 0 500 360">
  <defs>
    <style>
      .cls-1 {
        fill: #0166cc;
      }

      .cls-2 {
        fill: #d83433;
      }
    </style>
  </defs>
  <path class="cls-1" d="m442.53,85.86s6.81,3.03,7.35,2.49,22.6-17.41,22.49-19.46c1.04-3.46-218.07-64.45-221.46-64.45S28.17,63.7,27.63,68.67s23.36,20.76,24.33,20.76,6.38-1.51,5.95-3.03-15.25-13.08-15.25-14.92S243.48,13.95,250.92,13.95s205.02,55.15,205.02,57.85-13.41,12.54-13.41,14.06Z"/>
  <path class="cls-1" d="m430.16,86.84c.85,1.18-143.78,1.14-179.46,1.14s-180.86-2.11-180.86-4.38,163.12-2.11,182.37-2.11,172.34-2.43,177.95,5.35Z"/>
  <g>
    <path class="cls-1" d="m331.04,133.08c-.25-7.4-.75-12.91-1.33-14.68-.51-1.55-.93-3.39-.93-4.09,0-1.46-1.85-2.65-4.07-2.61-2.24.04-7.34,2.73-8.11,4.27-.36.73-1.35,2.29-2.18,3.45-.84,1.17-1.68,3.23-1.87,4.6-.19,1.36-.73,3.51-1.2,4.78-1.52,4.11-1.84,15.94-.77,28.32.55,6.34,1.18,15.08,1.41,19.43.22,4.35.84,12.79,1.38,18.77,1.9,21.19,2.78,36.56,2.25,39.19-.29,1.45-.9,4.26-1.36,6.25-1.28,5.61-1.07,7.05,1.39,9.59,2.62,2.71,3.5,2.79,6.7.61h0c2.9-1.97,5.77-6.59,5.77-9.27,0-1.06.86-4.93,1.91-8.61,1.7-5.93,2-8.46,2.71-22.39.44-8.64.61-18.52.38-21.96-.37-5.61-.69-13.97-2.08-55.65Z"/>
    <path class="cls-1" d="m378.52,133.74c-.01-22.47-.39-25.36-3.32-25.36-.86,0-1.74.3-1.97.67-.23.37-1.38,1.07-2.55,1.56-3.77,1.57-5.92,5.22-7.83,13.25-2.58,10.81-3.2,15.68-3,23.35.1,3.82-.23,11.32-.74,16.68-.77,8.1-.78,10.92-.08,16.79,1.13,9.37,1.42,17.63,1.63,45.92.1,13.04.23,24.08.28,24.53.1.8,2.92,1.05,4.53.39,1.25-.51,5.27-7.5,7.08-12.3,2.24-5.95,5.05-18.33,5.33-23.49.13-2.35.71-7.04,1.29-10.4.95-5.49.97-8.44.2-28.65-.47-12.39-.86-31.71-.86-42.94Z"/>
    <path class="cls-1" d="m428.88,111.78c-.72-2.3-1.31-5.56-1.31-7.25,0-4.46-1.41-5.16-5.66-2.78-6.67,3.73-7.49,4.38-8.57,6.79-.61,1.36-1.33,2.47-1.6,2.47-1.35,0-3.25,14.61-4.57,35.21-.71,11.08.17,74.83,1.22,87.62.3,3.62.49,9.8.44,13.72-.09,7.1-.09,7.14,1.8,8.73,2.51,2.11,4.52,2.01,6.83-.35h0c4.06-4.15,5.21-7.82,8.05-25.72,1.77-11.18,2.79-19.99,3.03-26.34.2-5.25.64-12.81.98-16.79s.63-21.62.64-39.19c.03-30.09-.04-32.18-1.28-36.12Z"/>
    <path class="cls-1" d="m137.99,109.99l-1.95.39c-1.07.21-2.42.78-2.99,1.26-6.46,5.4-7.14,6.25-8.86,10.86-1.06,2.85-2,7.17-2.38,10.92-.34,3.41-.89,7.09-1.22,8.16-2.09,6.81-3.46,46.46-1.89,54.86.53,2.82.81,8.83.75,15.67-.07,7.09.25,13.46.87,17.63.63,4.21.83,8.2.55,11.23-.42,4.59-.39,4.74,1.44,6.35,2.11,1.85,3.05,2.06,3.99.87h0c1.41-1.77,2.76-5.08,3.83-9.38.61-2.47,2.1-7.06,3.3-10.19,1.63-4.24,2.18-6.73,2.19-9.8,0-2.26.44-7.73.97-12.16.52-4.43.94-12.73.92-18.44-.02-5.72.12-10.64.31-10.94.19-.3.37-9.63.42-20.74.05-11.11.37-23.87.73-28.36.48-6.04.43-9.47-.16-13.19l-.81-5.02Z"/>
    <path class="cls-1" d="m91.22,120.18c0-1.99-.56-5.41-1.24-7.61-.74-2.37-1.11-4.98-.92-6.43.42-3.16-1.77-6.3-3.95-5.65-2.99.9-10.96,7.66-12.78,10.86-2.32,4.05-3.27,13.89-1.77,18.35,1.07,3.2,2.82,51.35,2.13,58.91-.92,10.2-1.19,45.85-.39,50.71,1.53,9.24,1.7,10.04,2.64,11.99,1.11,2.31,4.39,3.05,5.83,1.3h0c1.04-1.26,1.61-4.36,2.92-15.97.54-4.84,1.26-9.68,1.58-10.78.33-1.09,1.08-7.13,1.67-13.41.59-6.29,1.67-15.4,2.39-20.25s1.58-14.4,1.91-21.23c.33-6.82.94-17.41,1.36-23.51.66-9.68.62-11.91-.31-17.39-.59-3.45-1.07-7.91-1.07-9.9Z"/>
    <path class="cls-2" d="m183.08,109.69c-6.63,4.43-10.03,10.8-11.75,22.03-2.66,17.41-4.46,46.84-3.34,54.72.39,2.76.88,10.84,1.09,17.96.21,7.19.99,17.54,1.76,23.27,1.16,8.67,1.26,10.96.64,14.32-.67,3.62-.62,4.2.56,6.1,1.76,2.85,4.1,3.72,5.72,2.1.43-.43.78-1.07.78-1.43s.55-1.25,1.22-1.99c2.32-2.56,5.68-15.79,6.65-26.17.33-3.59.91-9.32,1.27-12.74,1.66-15.68,1.92-22.78,1.99-55.51.04-19.22.03-36.26-.01-37.88-.15-5.28-2.87-7.27-6.56-4.8Z"/>
    <path class="cls-1" d="m215.35,138.97c.53-2.15,1.25-6.46,1.61-9.58.86-7.54,3.85-14.83,7.65-18.58,1.54-1.52,3.25-2.77,3.78-2.77s1.53-.55,2.2-1.22c.94-.94,3.81-1.87,5.19-1.89.46,0,.75.1.75.33,0,.28.46,2.71,1.02,5.39.84,4.03.89,5.79.28,10.09-.66,4.71-1.97,53.93-1.91,71.62.01,3.94-.3,9.36-.71,12.05s-.97,8.55-1.22,13.02c-.44,7.69-.61,8.47-3.17,14.12-1.49,3.29-3.05,7.39-3.48,9.12-.96,3.92-3.53,9.88-4.92,11.41-1.39,1.53-1.81,1.47-4.64-.61-1.32-.97-2.49-1.8-2.58-1.85-.1-.05.13-2.13.49-4.64.51-3.6.42-5.85-.43-10.68-.74-4.22-1.12-10.47-1.2-20.12-.08-9.68-.41-15.3-1.08-18.23-.8-3.51-.89-7.32-.47-22.46.54-19.27,1.27-28.11,2.85-34.51Z"/>
    <path class="cls-1" d="m275.66,112.62c1.92-1.39,3.39-2.02,4.58-1.89.92.1,1.68.67,2.34,1.69.97,1.49,1.17,3.4,1.24,12.21.09,10.27.22,14.21,1.53,47.08.53,13.46.47,19.09-.37,30.93-.57,7.96-1.13,16.37-1.24,18.7-.24,5.14-3.11,18.8-4.48,21.3-.54,1-1.49,2.76-2.12,3.93-1.43,2.68-3.3,2.75-5.74.2-1.77-1.85-1.84-2.13-1.73-8.1.07-3.87-.37-8.82-1.18-13.23-.71-3.87-1.75-13.49-2.32-21.36-.57-7.88-1.32-15.64-1.65-17.25-1.26-6.15-.47-38.97,1.28-53.39,1.19-9.74,4.64-17.04,9.85-20.81Z"/>
  </g>
  <g>
    <path class="cls-1" d="m23.23,271.68h6.12v21.84h10.72v5.12h-16.84v-26.96Z"/>
    <path class="cls-1" d="m50.06,291.71l-1.92,6.92h-6.32l8.24-26.96h8l8.36,26.96h-6.56l-2.08-6.92h-7.72Zm6.84-4.56l-1.68-5.72c-.48-1.6-.96-3.6-1.36-5.2h-.08c-.4,1.6-.8,3.64-1.24,5.2l-1.6,5.72h5.96Z"/>
    <path class="cls-1" d="m77.86,272.04c2.24-.36,5.16-.56,8.24-.56,5.12,0,8.44.92,11.04,2.88,2.8,2.08,4.56,5.4,4.56,10.16,0,5.16-1.88,8.72-4.48,10.92-2.84,2.36-7.16,3.48-12.44,3.48-3.16,0-5.4-.2-6.92-.4v-26.48Zm6.12,22c.52.12,1.36.12,2.12.12,5.52.04,9.12-3,9.12-9.44.04-5.6-3.24-8.56-8.48-8.56-1.36,0-2.24.12-2.76.24v17.64Z"/>
    <path class="cls-1" d="m105.58,272.04c1.96-.32,4.88-.56,8.12-.56,4,0,6.8.6,8.72,2.12,1.6,1.28,2.48,3.16,2.48,5.64,0,3.44-2.44,5.8-4.76,6.64v.12c1.88.76,2.92,2.56,3.6,5.04.84,3.04,1.68,6.56,2.2,7.6h-6.24c-.44-.76-1.08-2.96-1.88-6.28-.72-3.36-1.88-4.28-4.36-4.32h-1.84v10.6h-6.04v-26.6Zm6.04,11.6h2.4c3.04,0,4.84-1.52,4.84-3.88,0-2.48-1.68-3.72-4.48-3.76-1.48,0-2.32.12-2.76.2v7.44Z"/>
    <path class="cls-1" d="m153.7,284.87c0,8.84-5.36,14.2-13.24,14.2s-12.68-6.04-12.68-13.72c0-8.08,5.16-14.12,13.12-14.12s12.8,6.2,12.8,13.64Zm-19.48.36c0,5.28,2.48,9,6.56,9s6.48-3.92,6.48-9.16c0-4.84-2.32-9-6.52-9s-6.52,3.92-6.52,9.16Z"/>
    <path class="cls-1" d="m163.7,271.68v26.96h-6.12v-26.96h6.12Z"/>
    <path class="cls-1" d="m174.06,276.79h-7.24v-5.12h20.72v5.12h-7.36v21.84h-6.12v-21.84Z"/>
    <path class="cls-1" d="m206.7,287.23h-9.92v6.4h11.08v5h-17.2v-26.96h16.64v5h-10.52v5.6h9.92v4.96Z"/>
    <path class="cls-1" d="m219.86,272.04c1.96-.32,4.88-.56,8.12-.56,4,0,6.8.6,8.72,2.12,1.6,1.28,2.48,3.16,2.48,5.64,0,3.44-2.44,5.8-4.76,6.64v.12c1.88.76,2.92,2.56,3.6,5.04.84,3.04,1.68,6.56,2.2,7.6h-6.24c-.44-.76-1.08-2.96-1.88-6.28-.72-3.36-1.88-4.28-4.36-4.32h-1.84v10.6h-6.04v-26.6Zm6.04,11.6h2.4c3.04,0,4.84-1.52,4.84-3.88,0-2.48-1.68-3.72-4.48-3.76-1.48,0-2.32.12-2.76.2v7.44Z"/>
    <path class="cls-1" d="m259.5,287.23h-9.92v6.4h11.08v5h-17.2v-26.96h16.64v5h-10.52v5.6h9.92v4.96Zm-.72-21.92l-4.92,4.92h-4.84l3.36-4.92h6.4Z"/>
    <path class="cls-1" d="m264.7,272.04c1.88-.32,4.52-.56,8.24-.56s6.44.72,8.24,2.16c1.72,1.36,2.88,3.6,2.88,6.24s-.88,4.88-2.48,6.4c-2.08,1.96-5.16,2.84-8.76,2.84-.8,0-1.52-.04-2.08-.12v9.64h-6.04v-26.6Zm6.04,12.24c.52.12,1.16.16,2.04.16,3.24,0,5.24-1.64,5.24-4.4,0-2.48-1.72-3.96-4.76-3.96-1.24,0-2.08.12-2.52.24v7.96Z"/>
    <path class="cls-1" d="m293.9,271.68v15.52c0,4.64,1.76,7,4.88,7s4.96-2.24,4.96-7v-15.52h6.08v15.12c0,8.32-4.2,12.28-11.24,12.28s-10.8-3.76-10.8-12.36v-15.04h6.12Z"/>
    <path class="cls-1" d="m314.98,272.04c1.6-.32,4.84-.56,7.88-.56,3.72,0,6,.36,7.96,1.52,1.88,1,3.24,2.84,3.24,5.28s-1.4,4.64-4.44,5.76v.08c3.08.84,5.36,3.16,5.36,6.64,0,2.44-1.12,4.36-2.8,5.72-1.96,1.56-5.24,2.44-10.6,2.44-3,0-5.24-.2-6.6-.4v-26.48Zm6.04,10.32h2c3.2,0,4.92-1.32,4.92-3.32s-1.56-3.12-4.32-3.12c-1.32,0-2.08.08-2.6.16v6.28Zm0,11.96c.6.08,1.32.08,2.36.08,2.76,0,5.2-1.04,5.2-3.88s-2.44-3.8-5.48-3.8h-2.08v7.6Z"/>
    <path class="cls-1" d="m339.02,271.68h6.12v21.84h10.72v5.12h-16.84v-26.96Z"/>
    <path class="cls-1" d="m365.46,271.68v26.96h-6.12v-26.96h6.12Z"/>
    <path class="cls-1" d="m390.42,297.87c-1.12.56-3.64,1.16-6.92,1.16-9.32,0-14.12-5.8-14.12-13.48,0-9.2,6.56-14.32,14.72-14.32,3.16,0,5.56.64,6.64,1.2l-1.24,4.84c-1.24-.52-2.96-1-5.12-1-4.84,0-8.6,2.92-8.6,8.92,0,5.4,3.2,8.8,8.64,8.8,1.84,0,3.88-.4,5.08-.88l.92,4.76Z"/>
    <path class="cls-1" d="m400.98,291.71l-1.92,6.92h-6.32l8.24-26.96h8l8.36,26.96h-6.56l-2.08-6.92h-7.72Zm6.84-4.56l-1.68-5.72c-.48-1.6-.96-3.6-1.36-5.2h-.08c-.4,1.6-.8,3.64-1.24,5.2l-1.6,5.72h5.96Z"/>
    <path class="cls-1" d="m426.94,271.68v26.96h-6.12v-26.96h6.12Z"/>
    <path class="cls-1" d="m432.1,298.63v-26.96h7.12l5.6,9.88c1.6,2.84,3.2,6.2,4.4,9.24h.12c-.4-3.56-.52-7.2-.52-11.24v-7.88h5.6v26.96h-6.4l-5.76-10.4c-1.6-2.88-3.36-6.36-4.68-9.52l-.12.04c.16,3.56.24,7.36.24,11.76v8.12h-5.6Z"/>
    <path class="cls-1" d="m475.61,287.23h-9.92v6.4h11.08v5h-17.2v-26.96h16.64v5h-10.52v5.6h9.92v4.96Z"/>
  </g>
  <g>
    <path class="cls-1" d="m26.27,319.67c2.23-.34,4.87-.59,7.77-.59,5.25,0,8.99,1.22,11.47,3.53,2.52,2.31,3.99,5.59,3.99,10.17s-1.43,8.4-4.07,11.01c-2.65,2.65-7.02,4.07-12.52,4.07-2.6,0-4.79-.13-6.64-.34v-27.85Zm3.65,25.04c.92.17,2.27.21,3.7.21,7.81,0,12.06-4.37,12.06-12.01.04-6.68-3.74-10.92-11.47-10.92-1.89,0-3.32.17-4.28.38v22.35Z"/>
    <path class="cls-1" d="m70.12,334.33h-11.01v10.21h12.27v3.07h-15.92v-28.31h15.29v3.07h-11.64v8.95h11.01v3.02Zm-.71-21.47l-5.33,4.92h-3.02l3.91-4.92h4.45Z"/>
    <path class="cls-1" d="m77.34,319.63c1.76-.29,4.07-.55,7.02-.55,3.61,0,6.26.84,7.94,2.35,1.55,1.34,2.48,3.4,2.48,5.92s-.76,4.58-2.18,6.05c-1.93,2.06-5.08,3.11-8.65,3.11-1.09,0-2.1-.04-2.94-.25v11.34h-3.65v-27.98Zm3.65,13.65c.8.21,1.81.29,3.02.29,4.41,0,7.1-2.14,7.1-6.05s-2.65-5.55-6.68-5.55c-1.6,0-2.81.13-3.44.29v11.01Z"/>
    <path class="cls-1" d="m104.56,319.29v16.76c0,6.34,2.81,9.03,6.6,9.03,4.2,0,6.89-2.77,6.89-9.03v-16.76h3.7v16.51c0,8.7-4.58,12.27-10.71,12.27-5.8,0-10.17-3.32-10.17-12.1v-16.68h3.7Z"/>
    <path class="cls-1" d="m134.67,322.4h-8.61v-3.11h20.96v3.11h-8.65v25.2h-3.7v-25.2Z"/>
    <path class="cls-1" d="m166.04,334.33h-11.01v10.21h12.27v3.07h-15.92v-28.31h15.29v3.07h-11.64v8.95h11.01v3.02Zm-.71-21.47l-5.33,4.92h-3.02l3.91-4.92h4.45Z"/>
    <path class="cls-1" d="m172.76,343.15c1.64,1.01,4.03,1.85,6.55,1.85,3.74,0,5.92-1.97,5.92-4.83,0-2.65-1.51-4.16-5.33-5.63-4.62-1.64-7.48-4.03-7.48-8.02,0-4.41,3.65-7.69,9.16-7.69,2.9,0,5,.67,6.26,1.39l-1.01,2.98c-.92-.5-2.81-1.34-5.38-1.34-3.86,0-5.33,2.31-5.33,4.24,0,2.65,1.72,3.95,5.63,5.46,4.79,1.85,7.23,4.16,7.23,8.32,0,4.37-3.23,8.15-9.91,8.15-2.73,0-5.71-.8-7.23-1.81l.92-3.07Z"/>
    <path class="cls-1" d="m223.04,347.61c-.8-.8-1.55-1.6-2.65-2.77-2.44,2.27-5.17,3.23-8.28,3.23-5.5,0-8.7-3.7-8.7-7.94,0-3.86,2.31-6.51,5.54-8.28v-.13c-1.47-1.85-2.35-3.91-2.35-5.92,0-3.44,2.48-6.97,7.18-6.97,3.53,0,6.26,2.35,6.26,6.01,0,2.98-1.72,5.33-6.22,7.56v.13c2.39,2.77,5.08,5.88,6.89,7.9,1.3-1.97,2.18-4.7,2.73-8.28h3.36c-.76,4.45-1.97,7.98-4.07,10.46,1.51,1.6,2.98,3.19,4.66,5h-4.37Zm-4.45-4.87c-1.68-1.85-4.83-5.29-7.98-8.91-1.51.97-3.65,2.77-3.65,5.75,0,3.23,2.39,5.71,5.8,5.71,2.44,0,4.49-1.09,5.84-2.56Zm-8.61-17.26c0,2.02.92,3.57,2.14,5.08,2.86-1.64,4.71-3.15,4.71-5.54,0-1.72-.97-3.66-3.28-3.66s-3.57,1.93-3.57,4.12Z"/>
    <path class="cls-1" d="m246.64,338.7l-2.94,8.91h-3.78l9.62-28.31h4.41l9.66,28.31h-3.91l-3.02-8.91h-10.04Zm9.28-2.86l-2.77-8.15c-.63-1.85-1.05-3.53-1.47-5.17h-.08c-.42,1.68-.88,3.4-1.43,5.12l-2.77,8.19h8.53Z"/>
    <path class="cls-1" d="m268.98,319.63c1.76-.29,4.08-.55,7.02-.55,3.61,0,6.26.84,7.94,2.35,1.55,1.34,2.48,3.4,2.48,5.92s-.76,4.58-2.18,6.05c-1.93,2.06-5.08,3.11-8.65,3.11-1.09,0-2.1-.04-2.94-.25v11.34h-3.66v-27.98Zm3.66,13.65c.8.21,1.81.29,3.02.29,4.41,0,7.1-2.14,7.1-6.05s-2.65-5.55-6.68-5.55c-1.6,0-2.81.13-3.44.29v11.01Z"/>
    <path class="cls-1" d="m292.54,319.63c1.76-.29,4.08-.55,7.02-.55,3.61,0,6.26.84,7.94,2.35,1.55,1.34,2.48,3.4,2.48,5.92s-.76,4.58-2.18,6.05c-1.93,2.06-5.08,3.11-8.65,3.11-1.09,0-2.1-.04-2.94-.25v11.34h-3.66v-27.98Zm3.66,13.65c.8.21,1.81.29,3.02.29,4.41,0,7.1-2.14,7.1-6.05s-2.65-5.55-6.68-5.55c-1.6,0-2.81.13-3.44.29v11.01Z"/>
    <path class="cls-1" d="m317.16,338.7l-2.94,8.91h-3.78l9.62-28.31h4.41l9.66,28.31h-3.91l-3.02-8.91h-10.04Zm9.28-2.86l-2.77-8.15c-.63-1.85-1.05-3.53-1.47-5.17h-.08c-.42,1.68-.88,3.4-1.43,5.12l-2.77,8.19h8.53Z"/>
    <path class="cls-1" d="m339.5,319.67c1.85-.38,4.5-.59,7.02-.59,3.91,0,6.43.71,8.19,2.31,1.43,1.26,2.23,3.19,2.23,5.38,0,3.74-2.35,6.22-5.33,7.23v.13c2.18.76,3.49,2.77,4.16,5.71.92,3.95,1.6,6.68,2.18,7.77h-3.78c-.46-.8-1.09-3.23-1.89-6.76-.84-3.91-2.35-5.38-5.67-5.5h-3.44v12.27h-3.66v-27.93Zm3.66,12.9h3.74c3.91,0,6.38-2.14,6.38-5.38,0-3.65-2.65-5.25-6.51-5.29-1.76,0-3.02.17-3.61.34v10.33Z"/>
    <path class="cls-1" d="m377.97,334.33h-11.01v10.21h12.27v3.07h-15.92v-28.31h15.29v3.07h-11.64v8.95h11.01v3.02Z"/>
    <path class="cls-1" d="m385.19,347.61v-28.31h3.99l9.07,14.33c2.1,3.32,3.74,6.3,5.08,9.2l.08-.04c-.34-3.78-.42-7.22-.42-11.64v-11.85h3.44v28.31h-3.7l-8.99-14.37c-1.97-3.15-3.86-6.39-5.29-9.45l-.13.04c.21,3.57.29,6.97.29,11.68v12.1h-3.44Z"/>
    <path class="cls-1" d="m419.43,322.4h-8.61v-3.11h20.96v3.11h-8.65v25.2h-3.7v-25.2Z"/>
    <path class="cls-1" d="m450.8,334.33h-11.01v10.21h12.27v3.07h-15.92v-28.31h15.29v3.07h-11.64v8.95h11.01v3.02Zm-.71-21.47l-5.33,4.92h-3.02l3.91-4.92h4.45Z"/>
    <path class="cls-1" d="m457.52,343.15c1.64,1.01,4.03,1.85,6.55,1.85,3.74,0,5.92-1.97,5.92-4.83,0-2.65-1.51-4.16-5.33-5.63-4.62-1.64-7.48-4.03-7.48-8.02,0-4.41,3.65-7.69,9.16-7.69,2.9,0,5,.67,6.26,1.39l-1.01,2.98c-.92-.5-2.81-1.34-5.38-1.34-3.86,0-5.33,2.31-5.33,4.24,0,2.65,1.72,3.95,5.63,5.46,4.79,1.85,7.23,4.16,7.23,8.32,0,4.37-3.23,8.15-9.91,8.15-2.73,0-5.71-.8-7.22-1.81l.92-3.07Z"/>
  </g>
</svg>