<?xml version="1.0" encoding="UTF-8"?>
<svg id="Layer_1" data-name="Layer 1" xmlns="http://www.w3.org/2000/svg" viewBox="0 0 500 360">
  <defs>
    <style>
      .cls-1 {
        letter-spacing: 0em;
      }

      .cls-2 {
        letter-spacing: 0em;
      }

      .cls-3 {
        letter-spacing: .03em;
      }

      .cls-4 {
        letter-spacing: 0em;
      }

      .cls-5 {
        font-family: MyriadPro-Bold, 'Myriad Pro';
        font-size: 40px;
        font-weight: 700;
      }

      .cls-5, .cls-6, .cls-7 {
        fill: #0166cc;
      }

      .cls-7 {
        font-family: MyriadPro-Regular, 'Myriad Pro';
        font-size: 42px;
      }

      .cls-8 {
        letter-spacing: -.06em;
      }

      .cls-9 {
        fill: #d83433;
      }

      .cls-10 {
        letter-spacing: 0em;
      }
    </style>
  </defs>
  <path class="cls-6" d="m441.45,85.86s6.81,3.03,7.35,2.49,22.6-17.41,22.49-19.46c1.04-3.46-218.07-64.45-221.46-64.45S27.08,63.7,26.54,68.67s23.36,20.76,24.33,20.76,6.38-1.51,5.95-3.03-15.25-13.08-15.25-14.92S242.4,13.95,249.84,13.95s205.02,55.15,205.02,57.85-13.41,12.54-13.41,14.06Z"/>
  <path class="cls-6" d="m429.08,86.84c.85,1.18-143.78,1.14-179.46,1.14s-180.86-2.11-180.86-4.38,163.12-2.11,182.37-2.11,172.34-2.43,177.95,5.35Z"/>
  <g>
    <path class="cls-6" d="m329.96,133.08c-.25-7.4-.75-12.91-1.33-14.68-.51-1.55-.93-3.39-.93-4.09,0-1.46-1.85-2.65-4.07-2.61-2.24.04-7.34,2.73-8.11,4.27-.36.73-1.35,2.29-2.18,3.45-.84,1.17-1.68,3.23-1.87,4.6-.19,1.36-.73,3.51-1.2,4.78-1.52,4.11-1.84,15.94-.77,28.32.55,6.34,1.18,15.08,1.41,19.43.22,4.35.84,12.79,1.38,18.77,1.9,21.19,2.78,36.56,2.25,39.19-.29,1.45-.9,4.26-1.36,6.25-1.28,5.61-1.07,7.05,1.39,9.59,2.62,2.71,3.5,2.79,6.7.61h0c2.9-1.97,5.77-6.59,5.77-9.27,0-1.06.86-4.93,1.91-8.61,1.7-5.93,2-8.46,2.71-22.39.44-8.64.61-18.52.38-21.96-.37-5.61-.69-13.97-2.08-55.65Z"/>
    <path class="cls-6" d="m377.43,133.74c-.01-22.47-.39-25.36-3.32-25.36-.86,0-1.74.3-1.97.67-.23.37-1.38,1.07-2.55,1.56-3.77,1.57-5.92,5.22-7.83,13.25-2.58,10.81-3.2,15.68-3,23.35.1,3.82-.23,11.32-.74,16.68-.77,8.1-.78,10.92-.08,16.79,1.13,9.37,1.42,17.63,1.63,45.92.1,13.04.23,24.08.28,24.53.1.8,2.92,1.05,4.53.39,1.25-.51,5.27-7.5,7.08-12.3,2.24-5.95,5.05-18.33,5.33-23.49.13-2.35.71-7.04,1.29-10.4.95-5.49.97-8.44.2-28.65-.47-12.39-.86-31.71-.86-42.94Z"/>
    <path class="cls-6" d="m427.8,111.78c-.72-2.3-1.31-5.56-1.31-7.25,0-4.46-1.41-5.16-5.66-2.78-6.67,3.73-7.49,4.38-8.57,6.79-.61,1.36-1.33,2.47-1.6,2.47-1.35,0-3.25,14.61-4.57,35.21-.71,11.08.17,74.83,1.22,87.62.3,3.62.49,9.8.44,13.72-.09,7.1-.09,7.14,1.8,8.73,2.51,2.11,4.52,2.01,6.83-.35h0c4.06-4.15,5.21-7.82,8.05-25.72,1.77-11.18,2.79-19.99,3.03-26.34.2-5.25.64-12.81.98-16.79s.63-21.62.64-39.19c.03-30.09-.04-32.18-1.28-36.12Z"/>
    <path class="cls-6" d="m136.9,109.99l-1.95.39c-1.07.21-2.42.78-2.99,1.26-6.46,5.4-7.14,6.25-8.86,10.86-1.06,2.85-2,7.17-2.38,10.92-.34,3.41-.89,7.09-1.22,8.16-2.09,6.81-3.46,46.46-1.89,54.86.53,2.82.81,8.83.75,15.67-.07,7.09.25,13.46.87,17.63.63,4.21.83,8.2.55,11.23-.42,4.59-.39,4.74,1.44,6.35,2.11,1.85,3.05,2.06,3.99.87h0c1.41-1.77,2.76-5.08,3.83-9.38.61-2.47,2.1-7.06,3.3-10.19,1.63-4.24,2.18-6.73,2.19-9.8,0-2.26.44-7.73.97-12.16.52-4.43.94-12.73.92-18.44-.02-5.72.12-10.64.31-10.94.19-.3.37-9.63.42-20.74.05-11.11.37-23.87.73-28.36.48-6.04.43-9.47-.16-13.19l-.81-5.02Z"/>
    <path class="cls-6" d="m90.14,120.18c0-1.99-.56-5.41-1.24-7.61-.74-2.37-1.11-4.98-.92-6.43.42-3.16-1.77-6.3-3.95-5.65-2.99.9-10.96,7.66-12.78,10.86-2.32,4.05-3.27,13.89-1.77,18.35,1.07,3.2,2.82,51.35,2.13,58.91-.92,10.2-1.19,45.85-.39,50.71,1.53,9.24,1.7,10.04,2.64,11.99,1.11,2.31,4.39,3.05,5.83,1.3h0c1.04-1.26,1.61-4.36,2.92-15.97.54-4.84,1.26-9.68,1.58-10.78.33-1.09,1.08-7.13,1.67-13.41.59-6.29,1.67-15.4,2.39-20.25s1.58-14.4,1.91-21.23c.33-6.82.94-17.41,1.36-23.51.66-9.68.62-11.91-.31-17.39-.59-3.45-1.07-7.91-1.07-9.9Z"/>
    <path class="cls-9" d="m182,109.69c-6.63,4.43-10.03,10.8-11.75,22.03-2.66,17.41-4.46,46.84-3.34,54.72.39,2.76.88,10.84,1.09,17.96.21,7.19.99,17.54,1.76,23.27,1.16,8.67,1.26,10.96.64,14.32-.67,3.62-.62,4.2.56,6.1,1.76,2.85,4.1,3.72,5.72,2.1.43-.43.78-1.07.78-1.43s.55-1.25,1.22-1.99c2.32-2.56,5.68-15.79,6.65-26.17.33-3.59.91-9.32,1.27-12.74,1.66-15.68,1.92-22.78,1.99-55.51.04-19.22.03-36.26-.01-37.88-.15-5.28-2.87-7.27-6.56-4.8Z"/>
    <path class="cls-6" d="m214.27,138.97c.53-2.15,1.25-6.46,1.61-9.58.86-7.54,3.85-14.83,7.65-18.58,1.54-1.52,3.25-2.77,3.78-2.77s1.53-.55,2.2-1.22c.94-.94,3.81-1.87,5.19-1.89.46,0,.75.1.75.33,0,.28.46,2.71,1.02,5.39.84,4.03.89,5.79.28,10.09-.66,4.71-1.97,53.93-1.91,71.62.01,3.94-.3,9.36-.71,12.05s-.97,8.55-1.22,13.02c-.44,7.69-.61,8.47-3.17,14.12-1.49,3.29-3.05,7.39-3.48,9.12-.96,3.92-3.53,9.88-4.92,11.41-1.39,1.53-1.81,1.47-4.64-.61-1.32-.97-2.49-1.8-2.58-1.85-.1-.05.13-2.13.49-4.64.51-3.6.42-5.85-.43-10.68-.74-4.22-1.12-10.47-1.2-20.12-.08-9.68-.41-15.3-1.08-18.23-.8-3.51-.89-7.32-.47-22.46.54-19.27,1.27-28.11,2.85-34.51Z"/>
    <path class="cls-6" d="m274.58,112.62c1.92-1.39,3.39-2.02,4.58-1.89.92.1,1.68.67,2.34,1.69.97,1.49,1.17,3.4,1.24,12.21.09,10.27.22,14.21,1.53,47.08.53,13.46.47,19.09-.37,30.93-.57,7.96-1.13,16.37-1.24,18.7-.24,5.14-3.11,18.8-4.48,21.3-.54,1-1.49,2.76-2.12,3.93-1.43,2.68-3.3,2.75-5.74.2-1.77-1.85-1.84-2.13-1.73-8.1.07-3.87-.37-8.82-1.18-13.23-.71-3.87-1.75-13.49-2.32-21.36-.57-7.88-1.32-15.64-1.65-17.25-1.26-6.15-.47-38.97,1.28-53.39,1.19-9.74,4.64-17.04,9.85-20.81Z"/>
  </g>
  <text class="cls-5" transform="translate(15.8 298.63)"><tspan class="cls-4" x="0" y="0">L</tspan><tspan class="cls-10" x="20.56" y="0">A D</tspan><tspan class="cls-1" x="82.36" y="0">R</tspan><tspan class="cls-10" x="105.8" y="0">OITE RÉPUBLI</tspan><tspan class="cls-2" x="347.39" y="0">C</tspan><tspan class="cls-10" x="371.47" y="0">AINE</tspan></text>
  <text class="cls-7" transform="translate(15.8 347.61)"><tspan class="cls-3" x="0" y="0">DÉPUTÉS &amp; AP</tspan><tspan class="cls-8" x="266.28" y="0">P</tspan><tspan class="cls-3" x="286.31" y="0">ARENTÉS</tspan></text>
</svg>