<svg id="LFI" xmlns="http://www.w3.org/2000/svg" viewBox="0 0 962.03 414.51"><defs><style>.cls-1{fill:#00afcb;}.cls-2{fill:#c9442a;}.cls-3{fill:#c84529;}</style></defs><title>lfi</title><g id="Text"><path id="path4621-9" class="cls-1" d="M445.74,172.1c-8-2.43-14.1-7.92-17.9-16.06-2.22-4.75-2.57-6.88-2.58-15.51,0-12.19,1.89-18.4,7.66-25,5-5.66,10.39-8.53,17.43-9.26s13.9,1.28,18.6,5.53l3.79,3.43V108h21v64h-21V164.8l-3.48,2.65c-6.46,4.93-16.25,6.86-23.52,4.65Zm23.74-20.21,3.33-2.06-.28-10.55-.28-10.56-3.89-2c-7.8-4-17-1.69-20.75,5.31-4.53,8.47-.09,19.95,8.64,22.32,3.33.91,9.71-.27,13.23-2.45ZM687.74,172.1c-8-2.43-14.1-7.92-17.9-16.06-2.22-4.75-2.57-6.88-2.58-15.51,0-12.19,1.89-18.4,7.66-25,5-5.66,10.39-8.53,17.43-9.26s13.9,1.28,18.6,5.53l3.8,3.43V108h21v64h-21V164.8l-3.49,2.65c-6.46,4.93-16.25,6.86-23.52,4.65Zm23.74-20.21,3.33-2.06-.28-10.55-.28-10.56-3.89-2c-7.8-4-17-1.69-20.75,5.31-4.53,8.47-.09,19.95,8.64,22.32,3.33.91,9.71-.27,13.23-2.45Zm140,20.06a34.73,34.73,0,0,1-23.07-18.79c-1.62-3.57-2.11-6.68-2.14-13.63,0-10.56,1.85-15.7,8.38-22.79,11.71-12.7,36.4-14.18,49.08-2.94l4.28,3.8-6.75,6.19L874.53,130l-3.24-2.47a15.11,15.11,0,0,0-16.47-1.28c-5.85,3.06-8.33,7.61-7.82,14.4.49,6.58,3.47,10.76,9.21,12.95,5.34,2,9.83,1.43,14.93-2l3.6-2.44,6.62,6.19,6.63,6.2-4.25,3.77c-7.27,6.45-21.09,9.32-32.25,6.69Zm65.93-.88c-15.54-5-23.26-16.4-22.52-33.35.43-9.71,2.84-15.43,9.16-21.79,6.71-6.75,13.42-9.35,24.18-9.37,11.51,0,17.44,2.43,24.42,10.07,5.68,6.21,8,12,8.79,22.15L962,146H938.89c-14.23,0-23.15.38-23.15,1,0,2.17,7.13,8,10.59,8.61,5.4,1,14.08-.18,18-2.48l3.45-2,4.51,6.72c5.07,7.56,5.06,7.62-3,11.18-9.82,4.31-22.24,5.12-31.8,2.06Zm24.3-40.29c0-1.75-3.06-5.3-5.66-6.63-1.2-.61-4.59-1.12-7.53-1.12-5.28,0-8.79,1.51-11.5,5-2.88,3.64-1.72,4,11.71,4,9.75,0,13-.31,13-1.25Zm-583-3.75V82h23v70h36v20h-59Zm185,0V82h66v20h-43v15h42v20h-42v35h-23Zm77,12.5V107h21v8.35l2.25-2.06a34.46,34.46,0,0,1,14-6.81l3.7-.7v20l-2.46-.47c-3.47-.67-12,1.57-15,3.91l-2.52,2V172h-21Zm130,0V107h21v8.35l2.27-2.12c3.47-3.26,11.4-6.39,17.62-7,10.53-.94,18.56,3.1,22.24,11.18,1.62,3.58,1.83,7,1.85,29.29l0,25.25h-21V151.17c0-19.4-.15-21-2-23.43-3.66-4.65-12.52-4.65-18.06,0l-2.92,2.46V172h-21v-32.5Z" transform="translate(0 0)"/><path id="path4621" class="cls-2" d="M481.57,279.49c-5.89-1.43-12.9-4.44-16.28-7-1.93-1.46-1.93-1.54-.08-4.72,4.44-7.62,6.69-10.84,7.34-10.51,13.65,7.07,22.4,9.17,28.16,6.79,3.4-1.41,4.05-4.41,1.28-5.88-1-.51-5.65-1.66-10.42-2.55a115.81,115.81,0,0,1-13-3.14c-10.91-3.86-15.67-14.7-10.95-24.95,2.33-5,5.32-7.79,11.63-10.7,9.84-4.53,31-2.33,39.38,4.09l2.39,1.84-3.73,6.92-3.74,6.92-5.72-2.84c-7.32-3.62-16-4.67-19.56-2.34-5.44,3.56-3.07,5.1,12.46,8.1,11.07,2.14,17.72,5.84,20.73,11.53a19.14,19.14,0,0,1-8.23,25.73c-8.11,4.23-20.91,5.32-31.67,2.71Zm70.81,0a33.13,33.13,0,0,1-23-22.45c-2.11-7.5-2-12.48.4-20.28,9.32-30.19,57.69-30.19,67,0a45.61,45.61,0,0,1,2,10.67c0,5.89-2.66,14.23-6.19,19.35-7.85,11.42-25.06,16.86-40.17,12.71Zm17.38-18.31c4-2.09,8-8.93,8-13.68s-4-11.57-8-13.73a15.54,15.54,0,0,0-14.56.69c-3.06,2-6.38,8.78-6.41,13.08a21,21,0,0,0,2.22,7.5c3.72,7.36,11.54,9.92,18.77,6.14Zm50.62,18.36a22.67,22.67,0,0,1-6.77-4.17c-5-4.82-5.87-10-5.87-36.55V215h21V236c0,20.7,0,21,2.42,23.75,2.08,2.42,3.14,2.8,7.75,2.8A15.62,15.62,0,0,0,648,260.2l3.75-2.33V215h21v65h-21v-8.09l-3.75,3c-6.94,5.49-19.39,7.59-27.61,4.66Zm227.19-.08c-5.89-1.43-12.9-4.44-16.28-7-1.93-1.46-1.93-1.54-.08-4.72,4.44-7.62,6.69-10.84,7.34-10.51,13.65,7.07,22.4,9.17,28.16,6.79,3.4-1.41,4-4.4,1.28-5.88-1-.51-5.65-1.66-10.42-2.55a115.81,115.81,0,0,1-13-3.14c-10.91-3.85-15.67-14.7-11-24.95,2.33-5,5.32-7.79,11.63-10.7,9.84-4.53,31-2.33,39.38,4.09l2.39,1.84-3.73,6.92-3.74,6.92-5.72-2.84c-7.32-3.62-16-4.66-19.56-2.34-5.44,3.56-3.07,5.11,12.46,8.1,11.07,2.14,17.72,5.84,20.73,11.53a19.14,19.14,0,0,1-8.23,25.73c-8.11,4.23-20.91,5.32-31.67,2.71Zm69.85-.42c-14.78-4.73-22.68-15.66-22.68-31.42,0-8.6,1.78-14.32,6.27-20.2,12.57-16.44,37.94-17.82,51.65-2.82,5.68,6.21,8,12,8.79,22.15L962,254H938.89c-13.48,0-23.15.39-23.15.93,0,2,5.3,7,8.68,8.13,5.05,1.67,15.43.67,19.79-1.91l3.54-2.08,4.51,6.72c5.07,7.56,5.06,7.62-3,11.18C939.4,281.31,927,282.12,917.42,279.07ZM941.74,239c0-4.5-5.73-7.94-13.22-7.94-5.27,0-8.78,1.52-11.49,5-2.88,3.65-1.72,4,11.71,4,8.54,0,13-.36,13-1.06Zm-584,8.56V215h21v65h-21Zm34,0V215h21v8.35l2.27-2.12c5.91-5.55,19.19-8.54,27.7-6.24,5.59,1.51,11.43,7.18,12.92,12.54.66,2.39,1.11,13.62,1.11,28.22V280h-21V259.17c0-19.39-.14-21.05-2-23.42-3.66-4.66-12.53-4.66-18.06,0l-2.93,2.46V280h-21v-32.5Zm293,0V215h21v8.35l2.27-2.12c5.76-5.41,19.07-8.59,26.18-6.25,4.26,1.41,10.55,6.55,10.55,8.63s.36,1.8,4.15-1.76c9.65-9.07,26.27-10.3,33.62-2.49,4.84,5.13,5.23,7.82,5.23,35.29V280H767.89l-.32-21.58-.33-21.59-2.8-2.41c-4.18-3.6-10.45-2.86-15.45,1.82-2.19,2.06-2.25,2.63-2.25,22.94V280h-21V258.49c0-21.54,0-21.55-2.45-24-3.68-3.68-10.28-2.91-15.3,1.78-2.19,2.06-2.25,2.63-2.25,22.94V280h-21Zm116,0V215h21v65h-21ZM363.07,207.47a12.83,12.83,0,0,1-4.86-5.16c-3.27-6.88.12-14.17,7.63-16.42,8.1-2.43,16.48,5.94,14.05,14.05C377.65,207.43,369.84,210.93,363.07,207.47Zm443,0a12.83,12.83,0,0,1-4.86-5.16c-3.27-6.88.12-14.17,7.63-16.42,8.1-2.43,16.48,5.94,14,14.05C820.65,207.43,812.84,210.93,806.07,207.47Z" transform="translate(0 0)"/></g><path id="Logo" class="cls-3" d="M146.62,413.51c-7.41-2.34-12.38-8.11-15.38-17.84-5.08-16.5-10.27-46.82-12.09-70.67l-.65-8.54-9.5-3.25C39.77,289.52-5.73,220.27.58,148.18A217.17,217.17,0,0,1,3.7,125.86,162.06,162.06,0,0,1,128.07,2.12c19.8-4.29,33-2.11,41.78,6.89,14,14.34,9.73,35.3-12.65,62-12.86,15.36-18.11,19-27.17,19-17-.08-27.74-19.53-18.68-33.73.79-1.23,1.09-2.25.67-2.25s-4.48,2.21-9,4.9C71.31,77.79,51,108,45.69,144c-1.82,12.46-.73,33.2,2.39,45.19A118.41,118.41,0,0,0,98,258.73c6.07,3.94,18.9,10.58,19.36,10,.11-.13.72-8.55,1.37-18.73,4.4-69.36,21.15-130.95,45.15-166,26.43-38.65,64.52-52.7,102.84-37.92C294,56.6,313.81,84.5,322.93,125.22c2,9,2.31,12.93,2.27,30.81-.05,23.28-1.47,32.21-8.42,53.1C295.62,272.7,238.51,317.42,173,321.73c-10.8.71-10-1.11-7.73,17.13a299.7,299.7,0,0,0,8,41.67c2.8,10.11,3,13.09,1.37,18.58-3.4,11.35-16.43,18.05-28,14.4ZM184.24,275.4a117.22,117.22,0,0,0,72.27-45.86c18.34-24.83,27.42-56.68,24.27-85.18-1.47-13.4-4.15-22.86-9.55-33.83C265.6,99.11,259.43,92,252,88.35c-5-2.46-6.88-2.82-14.72-2.82s-9.74.36-14.75,2.83C197,100.86,176.07,148.6,166.86,215c-2.76,19.95-5.61,61.17-4.31,62.47C163.33,278.29,174.85,277.17,184.24,275.4Z" transform="translate(0 0)"/></svg>