<?xml version="1.0" encoding="UTF-8"?>
<svg id="Layer_1" data-name="Layer 1" xmlns="http://www.w3.org/2000/svg" xmlns:xlink="http://www.w3.org/1999/xlink" viewBox="0 0 500 200">
  <defs>
    <style>
      .cls-1 {
        fill: #4bb167;
      }

      .cls-2 {
        fill: #fde90c;
      }

      .cls-3 {
        fill: #ffed07;
      }

      .cls-4 {
        fill: #e7255b;
      }

      .cls-5 {
        fill: #ffeb01;
      }

      .cls-6 {
        fill: #ffec00;
      }

      .cls-7 {
        fill: #9a36e0;
      }

      .cls-8 {
        fill: #e6265a;
      }

      .cls-9 {
        fill: url(#linear-gradient);
      }

      .cls-10 {
        fill: #ef1825;
      }
    </style>
    <linearGradient id="linear-gradient" x1="168.04" y1="42.31" x2="356.39" y2="247.77" gradientUnits="userSpaceOnUse">
      <stop offset="0" stop-color="#cd3c61"/>
      <stop offset=".97" stop-color="#562782"/>
      <stop offset="1" stop-color="#542580"/>
    </linearGradient>
  </defs>
  <g>
    <polygon class="cls-1" points="27.44 74.89 27.44 102.22 111.89 90.67 111.89 63.22 27.44 74.89"/>
    <polygon class="cls-6" points="6.8 119.8 6.8 147.13 116.33 131.78 116.33 104.33 6.8 119.8"/>
    <polygon class="cls-8" points="41.17 158 41.17 185.33 99.11 177.89 99.11 150.44 41.17 158"/>
    <polygon class="cls-10" points="63.11 92.78 63.11 120.11 107 114.33 107 86.89 63.11 92.78"/>
    <polygon class="cls-7" points="68 132.67 68 160 110.22 154.78 110.22 127.33 68 132.67"/>
  </g>
  <g>
    <polygon class="cls-1" points="324.56 34.22 324.56 61.56 431.5 47.5 431.5 20.06 324.56 34.22"/>
    <polygon class="cls-5" points="320.72 77.39 320.72 104.72 398.67 93.28 398.67 65.83 320.72 77.39"/>
    <polygon class="cls-4" points="448.22 102.06 448.22 129.39 488.67 124.61 488.67 97.17 448.22 102.06"/>
    <polygon class="cls-7" points="410.06 86.56 410.06 113.89 493.17 102.44 493.17 75 410.06 86.56"/>
    <polygon class="cls-10" points="336.72 53.89 336.72 81.22 472.83 63.28 472.83 35.83 336.72 53.89"/>
  </g>
  <g>
    <polygon class="cls-2" points="406.25 133.28 406.25 152.03 410.06 151.36 410.06 143.11 412.08 150.78 417.38 149.94 417.38 131.85 413.83 132.33 413.83 143.11 411.12 132.69 406.25 133.28"/>
    <polygon class="cls-2" points="418.63 149.86 418.63 131.85 426.92 130.65 426.92 134.49 422.77 135.15 422.77 139.24 425.67 138.9 425.67 142.44 422.77 142.9 422.77 149.15 418.63 149.86"/>
    <path class="cls-2" d="m433.86,129.69c-3.75.58-5.94.96-5.94.96v17.92l3.92-.5v-4.26s5.78.58,5.78-3.39v-9.36s0-1.94-3.75-1.36Zm.03,10.17l-2.22.4v-6.48l2.22-.33v6.42Z"/>
  </g>
  <g>
    <path class="cls-3" d="m128.47,56.61l3.92-.47v-3.97s.28-1.75-3.31-1.75-6.64.58-6.64,3.1v13.76s0,2.28,2.39,2.28h2.69s4.87-.19,4.87-4.36v-5.67s.24-2.14-2.14-1.58-2.83.67-2.83.67v3.08l1.02-.22v3.86l-2.14.28v-10.89l2.14-.47.03,2.36Z"/>
    <path class="cls-3" d="m144.08,66.86l-1.61-5.96c1.37-1.08,1.39-2.32,1.39-2.32v-5.67c0-1.75.03-4.14-1.92-4.28-1.94-.14-8.33,1-8.33,1v18.69l4.33-.44v-5.47c.12-.01.63-.08.75-.1l1.32,5.16,4.08-.62Zm-6.17-8v-5.97l2-.31v5.9l-2,.38Z"/>
    <path class="cls-3" d="m152.29,46.99s-1.33.04-4,.46c-2.67.42-3.29,2.97-3.29,2.97v13.74c0,2.21,2,2.25,2,2.25,0,0,.88,0,4.25-.5s3.83-2.68,3.83-2.68v-12.36c0-4-2.79-3.88-2.79-3.88Zm-1.29,14.88l-2.04.54v-10.96l2.04-.54v10.96Z"/>
    <path class="cls-3" d="m156.42,46.65l4.25-.71v15.04l2.29-.67v-14.62l3.75-.46v16.42s-1.32,3.07-7.04,3.12c-2.67,0-3.25-1.75-3.25-3.33v-14.79Z"/>
    <path class="cls-3" d="m174.17,44.11c-4.72.78-6.17,1.12-6.17,1.12v18.46l4.17-.47v-4.36s6.11.03,6.11-3.14v-9.61s.61-2.78-4.11-2Zm-.17,10.39l-1.89.51v-6.62l1.89-.56v6.67Z"/>
    <polygon class="cls-3" points="178.94 43.56 178.94 62.22 187.83 60.78 187.83 56.65 183.39 57.67 183.39 54.39 186.61 53.83 186.61 49.67 183.39 50.17 183.39 46.99 187.83 46.17 187.83 42.22 178.94 43.56"/>
  </g>
  <path class="cls-9" d="m148.11,71.89v12l-13,1.56v12.22l9.33-1.22v11.56l-8.89,1.44v33.44l-12.78,1.78v-69l25.33-3.78Zm33,51.11l-12.89,1.56s-5.11-18-5.11-15.11v16.29l-13,1.6v-55.44s17.33-2.67,23.56-3.44c6.22,0,6.89,5.89,6.89,5.89v22.78c0,8.44-4.22,9.11-4.22,9.11l4.78,16.78Zm-13.11-42l-5.33.89v16l5.33-.89v-16Zm47.5,37.69l-13.17,1.67-.42-9.75-6.58.67-.5,10.25-12.67,1.33,5.17-56.08,22.58-3.08,5.58,55Zm-14.42-19.33l-2.46-23.58-2.46,24,4.92-.42Zm16.25-36.69v55.44l10.56-1.33-.67-31.5,7.78,30.61,15.78-2.11v-56.11l-10.44,1.78.67,39.44-9.11-38.44-14.56,2.22Zm37.22,3.17v37.17s-.56,10,9.11,8.78,11.89-1.44,11.89-1.44c0,0,8.78-1.44,8.78-10.56v-14.5l-12.78,2.5.22,11.44-4.89.56.11-32.22,4.78-.89v9.11l12.56-1.56v-12.11s-1.56-8.67-9.67-7.44-13.11,1.89-13.11,1.89c0,0-7,1.89-7,9.28Zm33.11-12.89v55.33l25.67-3.56v-11.44l-13.39,2.06v-10.06l9.72-1.78v-11.83l-9.67,1.72v-10.67l13.33-1.94v-11.61l-25.67,3.78ZM122.78,191.78l12.67-2.22v-43l-12.67,1.56v43.67Zm16.11-58.05v55.44l10.56-1.33-.67-31.5,7.78,30.61,15.78-2.11v-56.11l-10.44,1.78.67,39.44-9.11-38.44-14.56,2.22Zm53.94,11.33l12.83-1.5v-9.33s-.67-9.17-8.11-8.5-13.33,1.33-13.33,1.33c0,0-8.22,1.17-8.44,9.72s0,13.5,0,13.5c0,0,.11,3.5,3.72,5.5s13.39,7.28,13.39,7.28v6.89l-4.94.89v-8.11l-12.27,1.89v10.61s1.21,8.11,7.32,7.72,15-1.44,15-1.44c0,0,7.67-2.56,7.67-10.5v-12.83s.33-4.89-4.11-6.89-13.28-6.61-13.28-6.61v-6.39l4.67-.89-.11,7.67Zm46.67-15.86v37.33c0,7.75-7.5,10.17-7.5,10.17,0,0-10.17,1.33-16.5,1.83s-6.75-7.92-6.75-7.92v-37c0-7.67,7.25-10.75,7.25-10.75,0,0,8.08-1.08,15.17-1.75,7.08-.67,8.33,8.08,8.33,8.08Zm-12.5,3.67l-5.75,1.08v32.42l5.75-1.25v-32.25Zm16.25,33.08c0,7,6.08,8.08,6.08,8.08,0,0,7.42-.58,16.08-2.08s8.67-11.25,8.67-11.25v-45.75l-12.67,1.75v43.58l-5.33.92v-43.75l-12.83,2.17v46.33Zm34.19,4.33l10.5-1.33v-34.44l5.61,33.5,14-1.89,4.22-34.72v33.94l10.78-1.44v-55.61l-16.67,2.17-5.39,41.22-6.17-39.79-16.89,2.56v55.56m49.11-6.67l12.56-1.89v-55.56l-12.56,1.85v55.6Zm33.05-40.75l12.83-1.5v-9.33s-.67-9.17-8.11-8.5-13.33,1.33-13.33,1.33c0,0-8.22,1.17-8.44,9.72-.22,8.56,0,13.5,0,13.5,0,0,.11,3.5,3.72,5.5s13.39,7.28,13.39,7.28v6.89l-4.94.89v-8.11l-12.27,1.89v10.61s1.21,8.11,7.32,7.72,15-1.44,15-1.44c0,0,7.67-2.56,7.67-10.5v-12.83s.33-4.89-4.11-6.89-13.28-6.61-13.28-6.61v-6.39l4.67-.89-.11,7.67Zm15.9-21.03v55.33l25.67-3.56v-11.44l-13.39,2.06v-10.06l9.72-1.78v-11.83l-9.67,1.72v-10.67l13.33-1.94v-11.61l-25.67,3.78Zm-166.89-43.39l-4.06.69-.33-3.58h-1.78l-.28,3.58-11.72,1.75v-18.78l4.22-.67v15.06l3.44-.5,1.06-15.17,7.67-1,1.78,18.61Zm-4.61-6.75l-1-7.86-.44,7.86h1.44Zm-33.67-12.81c0-4.25-3.51-13.11-14.34-13.33-.12,0-.24,0-.35,0-10.72,0-14.46,10.18-14.49,10.28-.28.78.13,1.64.91,1.92.78.28,1.64-.13,1.92-.91.03-.08,3.1-8.45,11.96-8.28,9.47.2,11.41,8.2,11.41,10.33,0,.83.67,1.5,1.5,1.5s1.5-.67,1.5-1.5Zm-37.01,4.59c.1-.98,2.59-23.92,23.09-23.92,11.96,0,17.76,9.08,17.97,10.61,0,.83.67,1.5,1.5,1.5s1.5-.67,1.5-1.5c0-2.6-6.99-13.61-20.97-13.61-23.23,0-26.05,26.37-26.08,26.63-.08.82.52,1.56,1.35,1.64.05,0,.1,0,.15,0,.76,0,1.42-.58,1.49-1.35Zm-9.17,2.26c.82-.08,1.42-.82,1.34-1.64-.01-.1-.94-10.24,6.02-19.06,7.18-9.11,15.75-13.54,26.21-13.54s17.82,5.52,21.1,10.24c3.1,4.47,5.34,10.7,5.34,14.81,0,.83.67,1.5,1.5,1.5s1.5-.67,1.5-1.5c0-4.73-2.42-11.53-5.88-16.52-3.69-5.32-12.07-11.53-23.57-11.53s-20.78,4.8-28.57,14.68c-7.73,9.81-6.7,20.76-6.65,21.22.08.77.73,1.34,1.49,1.34.05,0,.1,0,.15,0Z"/>
</svg>