<svg id="Layer_1" data-name="Layer 1" xmlns="http://www.w3.org/2000/svg" viewBox="0 0 484 408.53"><defs><style>.cls-1{fill:#c94629;}.cls-2{fill:#04aecc;}.cls-3{fill:#c9482b;}</style></defs><title>lfi</title><path id="Logo" class="cls-1" d="M239.9,460.73c-4.83-1.53-8.08-5.3-10-11.65-3.31-10.77-6.7-30.56-7.89-46.12l-.42-5.58-6.2-2.12c-45.19-15.46-74.88-60.66-70.77-107.71a143,143,0,0,1,2-14.57,105.76,105.76,0,0,1,81.18-80.76c12.92-2.8,21.53-1.38,27.27,4.49,9.13,9.36,6.35,23-8.26,40.47-8.39,10-11.82,12.4-17.73,12.4-11.1-.05-18.11-12.75-12.2-22,.52-.81.71-1.47.44-1.47a49.52,49.52,0,0,0-5.87,3.2c-20.7,12.31-34,32-37.42,55.52-1.19,8.13-.48,21.67,1.56,29.5a77.25,77.25,0,0,0,32.58,45.38c4,2.58,12.34,6.91,12.64,6.53.07-.08.47-5.58.89-12.22,2.87-45.27,13.8-85.47,29.47-108.35,17.25-25.23,42.11-34.4,67.12-24.75C336.1,227.78,349,246,355,272.56c1.3,5.88,1.51,8.44,1.48,20.11,0,15.2-1,21-5.49,34.66-13.82,41.49-51.09,70.68-93.85,73.49-7.05.47-6.53-.72-5,11.18a194.84,194.84,0,0,0,5.22,27.2c1.82,6.6,2,8.55.89,12.13-2.22,7.41-10.72,11.78-18.27,9.4Zm24.56-90.15a76.48,76.48,0,0,0,47.17-29.93c12-16.2,17.89-37,15.84-55.59A61.09,61.09,0,0,0,321.24,263c-3.68-7.46-7.71-12.1-12.56-14.48-3.26-1.61-4.49-1.84-9.6-1.84s-6.36.23-9.63,1.85c-16.66,8.15-30.33,39.31-36.34,82.65-1.8,13-3.66,39.93-2.81,40.78C250.81,372.47,258.33,371.74,264.46,370.58Z" transform="translate(-8.33 -52.85)"/><path class="cls-2" d="M179.27,198.18l-20.61-22.81a152.93,152.93,0,0,0-56.56,90.2l29.71,6.69A122.22,122.22,0,0,1,179.27,198.18Z" transform="translate(-8.33 -52.85)"/><path class="cls-2" d="M338,172.39,317.29,195.3a122.22,122.22,0,0,1,51.6,77.13l29.7-6.75A152.92,152.92,0,0,0,338,172.39Z" transform="translate(-8.33 -52.85)"/><path class="cls-2" d="M188.7,191.83l.2,0a120.21,120.21,0,0,1,118.92-2.26l21.06-23.22a150.46,150.46,0,0,0-161,2.48Z" transform="translate(-8.33 -52.85)"/><path class="cls-2" d="M87.63,262.31a167.9,167.9,0,0,1,61-98l-20.77-23A198.91,198.91,0,0,0,57.61,255.55Z" transform="translate(-8.33 -52.85)"/><path class="cls-2" d="M368.9,138.24l-20.84,23a167.94,167.94,0,0,1,65,101.11l30-6.82A199,199,0,0,0,368.9,138.24Z" transform="translate(-8.33 -52.85)"/><path class="cls-2" d="M157.8,157.61a165.15,165.15,0,0,1,181.25-2.51l21.05-23.19a195.67,195.67,0,0,0-223.21,2.55Z" transform="translate(-8.33 -52.85)"/><path class="cls-2" d="M378.71,127.4a213.57,213.57,0,0,1,78.49,125L487,245.6a244.4,244.4,0,0,0-87.62-141Z" transform="translate(-8.33 -52.85)"/><path class="cls-2" d="M127.06,123.58A210,210,0,0,1,370,121l20.76-22.89a240.35,240.35,0,0,0-284.33,2.59Z" transform="translate(-8.33 -52.85)"/><path class="cls-2" d="M43.46,252.37a213.57,213.57,0,0,1,74.61-121.9L97.5,107.71a244.33,244.33,0,0,0-83.8,138Z" transform="translate(-8.33 -52.85)"/><path class="cls-2" d="M446,378.13l29.67,8.05A245.4,245.4,0,0,0,492.33,297a247.87,247.87,0,0,0-3.33-40.5l-29.8,6.72A215.89,215.89,0,0,1,446,378.13Z" transform="translate(-8.33 -52.85)"/><path class="cls-2" d="M401.84,366.16l30,8.14A199.47,199.47,0,0,0,447.36,297,201.61,201.61,0,0,0,445,266.38l-30.1,6.79A171.4,171.4,0,0,1,416.6,297,168.4,168.4,0,0,1,401.84,366.16Z" transform="translate(-8.33 -52.85)"/><path class="cls-2" d="M357.29,354.07l30,8.14a154.28,154.28,0,0,0,13.11-85.77l-29.71,6.7-.13.13a124,124,0,0,1,.76,13.7A122.34,122.34,0,0,1,357.29,354.07Z" transform="translate(-8.33 -52.85)"/><path class="cls-3" d="M143.54,354.4A122.44,122.44,0,0,1,129.33,297a125.37,125.37,0,0,1,.71-13.22l-29.86-6.82a155.91,155.91,0,0,0-1.29,20,153.26,153.26,0,0,0,14.71,65.75Z" transform="translate(-8.33 -52.85)"/><path class="cls-3" d="M99.1,366.74a169.29,169.29,0,0,1-13.42-93.12l-30.1-6.88A202.17,202.17,0,0,0,53.31,297a199.72,199.72,0,0,0,15.8,78.1Z" transform="translate(-8.33 -52.85)"/><path class="cls-3" d="M55,379a214.33,214.33,0,0,1-16.2-82,217.07,217.07,0,0,1,2.59-33.46l-29.78-6.8a247,247,0,0,0,13.78,130.5Z" transform="translate(-8.33 -52.85)"/></svg>