<svg id="Layer_1" data-name="Layer 1" xmlns="http://www.w3.org/2000/svg" viewBox="0 0 492.67 375.68"><defs><style>.cls-1{fill:#033862;}.cls-2{fill:#d83433;}</style></defs><title>lr</title><path class="cls-1" d="M29.62,385.72a47.39,47.39,0,0,1-10.75,1.49c-10.49,0-15.2-7.07-15.2-19.15,0-9.78,3.17-16.43,13.92-16.43,7.68,0,11.42,3.43,11.72,7.68h-5c-.26-2-1.44-5.38-6.81-5.38-8,0-8.81,8.14-8.81,13.72,0,8.6,2.72,17.25,12.54,17.25a13.69,13.69,0,0,0,4-.46v-10.9c0-4.05-.72-4.46-5.17-5.17v-.87h9.62Z" transform="translate(-3.67 -62.16)"/><path class="cls-1" d="M38,367.91c0-3.23-2.41-3.38-3.89-3.54v-.87l7.83-1.22v6.09H42c.67-2.15,2-6.09,6.81-6.09a1.44,1.44,0,0,1,.46.05v4.25a6.39,6.39,0,0,0-1.69-.36c-5,0-5.68,5-5.68,8.14v12.28H38Z" transform="translate(-3.67 -62.16)"/><path class="cls-1" d="M51.43,374.87c0-7.53,3.12-12.59,10.6-12.59,6.7,0,10.75,4.86,10.75,12.54s-3.48,12.39-10.65,12.39C55.27,387.21,51.43,382.19,51.43,374.87Zm10.75,10.34c5.84,0,6.25-6.45,6.25-10.34,0-4.2-.82-10.6-6.35-10.6-6,0-6.3,6.4-6.3,10.6C55.78,378.71,56.7,385.21,62.18,385.21Z" transform="translate(-3.67 -62.16)"/><path class="cls-1" d="M95.1,381H95c-.67,1.84-3.08,6.2-7.68,6.2-5.74,0-7-3.95-7-9.63v-9.83c0-3.07-2.4-3.22-3.84-3.38v-.87l7.79-1.22v16c0,3.32.81,6.45,4.3,6.45s6.55-6.3,6.55-9.63v-7.32c0-3.07-2.36-3.22-3.84-3.38v-.87L99,362.28v24.36H95.1Z" transform="translate(-3.67 -62.16)"/><path class="cls-1" d="M107.39,367.75c0-3.22-2.56-3.27-4-3.43v-.87l8-1.17v3.89h.1a6.8,6.8,0,0,1,6.14-3.89c6.5,0,9.42,5.27,9.42,12.38,0,6.66-2.46,12.55-9.11,12.55a6.91,6.91,0,0,1-6.45-4h-.1v14.39h-3.94Zm3.94,8.35c0,3.43,1.28,9.11,5.78,9.11,4.71,0,5.53-6.4,5.53-10.44,0-3.59-1-10.5-5.68-10.5-3.53,0-5.63,4.35-5.63,8.14Z" transform="translate(-3.67 -62.16)"/><path class="cls-1" d="M149.88,386.28a20.2,20.2,0,0,1-6.35.93c-7.53,0-11.93-4.66-11.93-13.21,0-7.37,2.82-11.72,10.29-11.72,4.81,0,8.6,2.81,8.6,8.9V372h-15V373c0,5,3.59,12.18,10.7,12.18a14.59,14.59,0,0,0,3.64-.61ZM146,369.75c0-2.87-1.74-5.48-4.82-5.48-4.65,0-5.47,4.2-5.63,5.94H146Z" transform="translate(-3.67 -62.16)"/><path class="cls-1" d="M171.69,356.18c0-3.17-2.56-3.27-4-3.37v-.87l7.94-1.13v35.83h-3.94Z" transform="translate(-3.67 -62.16)"/><path class="cls-1" d="M200.2,386.28a20.13,20.13,0,0,1-6.35.93c-7.52,0-11.93-4.66-11.93-13.21,0-7.37,2.82-11.72,10.29-11.72,4.82,0,8.6,2.81,8.6,8.9V372H185.87V373c0,5,3.58,12.18,10.69,12.18a14.59,14.59,0,0,0,3.64-.61Zm-3.84-16.53c0-2.87-1.74-5.48-4.81-5.48-4.66,0-5.48,4.2-5.63,5.94h10.44Z" transform="translate(-3.67 -62.16)"/><path class="cls-1" d="M218.58,366.22a13.57,13.57,0,0,0-6.2-2c-2.2,0-4.24.82-4.24,3.28,0,5.12,12,4.3,12,12.34,0,5.12-3.89,7.32-9.12,7.32a19.82,19.82,0,0,1-6.6-1V383c.51.25,3.63,2.25,6.81,2.25s5.32-1.13,5.32-4.35c0-5.22-12-5.12-12-11.88,0-3.94,2.36-6.7,8.35-6.7a22.76,22.76,0,0,1,5.68.87Z" transform="translate(-3.67 -62.16)"/><path class="cls-1" d="M287.86,386.4a20.05,20.05,0,0,1-6.32.92c-7.48,0-11.86-4.63-11.86-13.13,0-7.34,2.8-11.66,10.23-11.66,4.79,0,8.56,2.8,8.56,8.86v.76H273.6v1.07c0,4.94,3.57,12.12,10.64,12.12a14,14,0,0,0,3.62-.62ZM284,370c0-2.85-1.73-5.45-4.79-5.45-4.63,0-5.44,4.18-5.6,5.91H284Zm-4.53-16.8c.46-1.58,1-2.14,2.49-2.14a1.8,1.8,0,0,1,1.94,1.73,4.21,4.21,0,0,1-1,2L280,359h-2.19Z" transform="translate(-3.67 -62.16)"/><path class="cls-1" d="M294.68,368c0-3.2-2.55-3.25-4-3.41v-.86l7.94-1.17v3.87h.1a6.78,6.78,0,0,1,6.11-3.87c6.47,0,9.37,5.24,9.37,12.32,0,6.62-2.45,12.47-9.07,12.47a6.86,6.86,0,0,1-6.41-4h-.1v14.31h-3.92Zm3.92,8.3c0,3.41,1.27,9.07,5.75,9.07,4.69,0,5.5-6.37,5.5-10.39,0-3.56-1-10.44-5.65-10.44-3.51,0-5.6,4.33-5.6,8.1Z" transform="translate(-3.67 -62.16)"/><path class="cls-1" d="M336.22,381.16h-.1c-.66,1.83-3.06,6.16-7.64,6.16-5.7,0-7-3.92-7-9.57V368c0-3.05-2.4-3.2-3.82-3.36v-.86l7.74-1.22v15.88c0,3.31.81,6.42,4.27,6.42s6.52-6.27,6.52-9.58V368c0-3.05-2.34-3.2-3.82-3.36v-.86l7.74-1.22v24.23h-3.92Z" transform="translate(-3.67 -62.16)"/><path class="cls-1" d="M347.93,357.38c0-3.41-1-4.22-4-4.27v-.87l7.94-1.12v15.43h.1a7.2,7.2,0,0,1,6.67-4c6.67,0,9.27,5.9,9.27,12.47,0,7.43-3.06,12.32-9.83,12.32a8.35,8.35,0,0,1-6.21-2.7l-2.65,2.14h-1.27Zm3.92,18.89c0,3.47.1,9.07,6.11,9.07,5,0,5.6-6.78,5.6-10.34,0-4-1-10.49-6-10.49-4,0-5.75,5.35-5.75,7.95Z" transform="translate(-3.67 -62.16)"/><path class="cls-1" d="M374.61,356.47c0-3.16-2.55-3.26-4-3.36v-.87l7.9-1.12v35.64h-3.92Z" transform="translate(-3.67 -62.16)"/><path class="cls-1" d="M387.13,368c0-3.05-2.39-3.2-3.82-3.36v-.86l7.74-1.22v24.23h-3.92ZM386,354.79a2.88,2.88,0,0,1,5.75,0,2.81,2.81,0,0,1-2.85,2.85A2.85,2.85,0,0,1,386,354.79Z" transform="translate(-3.67 -62.16)"/><path class="cls-1" d="M415.08,386.51a17.67,17.67,0,0,1-5.45.81c-8.91,0-12.22-5.39-12.22-13.13,0-6.42,2.7-11.66,10-11.66,5.45,0,8.66,3.2,8.66,6.46h-4.74c0-2.08-.91-4.48-4.32-4.48-3.21,0-5.3,2.85-5.3,7.95,0,6.1,3.21,12.88,10.54,12.88a17.77,17.77,0,0,0,2.8-.31Z" transform="translate(-3.67 -62.16)"/><path class="cls-1" d="M432.29,383.5a9.07,9.07,0,0,1-7.23,3.82,5.77,5.77,0,0,1-6.11-6c0-7.28,10-7.48,13.34-7.58v-2c0-3.56,0-7.23-4.28-7.23-3.87,0-4.12,3.16-4.22,4.48h-4.54c.21-3,2.19-6.46,8.91-6.46s8,3.61,8,8.3v15.93h-3.92Zm0-8.19c-2.14.05-9,.35-9,5.34,0,1.78,1,4.18,3.87,4.18,3.46,0,5.14-4,5.14-6.52Z" transform="translate(-3.67 -62.16)"/><path class="cls-1" d="M444.66,368c0-3.05-2.39-3.2-3.82-3.36v-.86l7.74-1.22v24.23h-3.92Zm-1.12-13.18a2.88,2.88,0,0,1,5.75,0,2.81,2.81,0,0,1-2.85,2.85A2.85,2.85,0,0,1,443.54,354.79Z" transform="translate(-3.67 -62.16)"/><path class="cls-1" d="M457.28,368c0-3.05-2.39-3.2-3.87-3.36v-.86l7.79-1.22v6.77h.11c.76-2,3.41-6.77,8.5-6.77s6.06,2.49,6.06,6.11v18.12H472V370.32c0-2.75,0-5.3-3.57-5.3s-7.18,6.26-7.18,9.62v12.12h-3.92Z" transform="translate(-3.67 -62.16)"/><path class="cls-1" d="M494.75,366.45a13.39,13.39,0,0,0-6.16-1.94c-2.19,0-4.22.82-4.22,3.26,0,5.09,12,4.28,12,12.27,0,5.09-3.87,7.28-9.06,7.28a19.67,19.67,0,0,1-6.57-1v-3.2c.51.25,3.62,2.24,6.77,2.24s5.3-1.12,5.3-4.33c0-5.2-12-5.09-12-11.81,0-3.92,2.35-6.67,8.3-6.67a23.06,23.06,0,0,1,5.65.86Z" transform="translate(-3.67 -62.16)"/><path class="cls-1" d="M82.92,413.73a7.2,7.2,0,0,0,.64-2.3c0-1.11-1.15-1.49-3.28-2v-.72h7.33l11,28.67H94.47l-3.58-9.5H80.15l-3.36,9.5H74.1Zm-2.17,12.48h9.67l-4.81-13Z" transform="translate(-3.67 -62.16)"/><path class="cls-1" d="M111.94,420.37a11.3,11.3,0,0,0-5.16-1.62c-1.83,0-3.53.69-3.53,2.73,0,4.26,10,3.58,10,10.27,0,4.26-3.24,6.09-7.58,6.09a16.62,16.62,0,0,1-5.5-.85V434.3a12.44,12.44,0,0,0,5.67,1.88c2.55,0,4.43-.94,4.43-3.62,0-4.35-10-4.26-10-9.89,0-3.28,2-5.58,6.94-5.58a19.18,19.18,0,0,1,4.73.73Z" transform="translate(-3.67 -62.16)"/><path class="cls-1" d="M127.7,420.37a11.3,11.3,0,0,0-5.15-1.62c-1.83,0-3.54.69-3.54,2.73,0,4.26,10,3.58,10,10.27,0,4.26-3.23,6.09-7.58,6.09a16.62,16.62,0,0,1-5.5-.85V434.3a12.49,12.49,0,0,0,5.67,1.88c2.56,0,4.43-.94,4.43-3.62,0-4.35-10-4.26-10-9.89,0-3.28,2-5.58,6.94-5.58a19.09,19.09,0,0,1,4.73.73Z" transform="translate(-3.67 -62.16)"/><path class="cls-1" d="M147.13,437.07a16.65,16.65,0,0,1-5.28.77c-6.26,0-9.93-3.88-9.93-11,0-6.14,2.35-9.76,8.57-9.76,4,0,7.15,2.35,7.15,7.42v.63H135.2v.9c0,4.13,3,10.14,8.91,10.14a12.08,12.08,0,0,0,3-.51Zm-3.19-13.76c0-2.38-1.45-4.56-4-4.56-3.88,0-4.56,3.5-4.68,4.95h8.69Z" transform="translate(-3.67 -62.16)"/><path class="cls-1" d="M153.18,421.65c0-2.56-2-2.68-3.23-2.81v-.72l6.51-1v5.12h.09c.51-1.5,2.68-5.12,6.13-5.12,4,0,5.07,2.09,5.07,5.12h.09c.64-1.45,2.38-5.12,6.22-5.12,5.07,0,5.07,3.41,5.07,6.78v13.5h-3.28V424.55c0-3.15,0-5.37-2.9-5.37-2.22,0-5.15,3.92-5.15,7.88v10.31h-3.28V423.61c0-2.3,0-4.43-2.82-4.43s-5.24,4.52-5.24,8.05v10.14h-3.28Z" transform="translate(-3.67 -62.16)"/><path class="cls-1" d="M185.57,412.79c0-2.85-.81-3.54-3.37-3.58v-.72l6.65-.94v12.91h.08a6,6,0,0,1,5.58-3.37c5.58,0,7.76,4.94,7.76,10.44,0,6.22-2.56,10.31-8.23,10.31a7,7,0,0,1-5.19-2.26l-2.22,1.79h-1.06Zm3.28,15.8c0,2.9.08,7.59,5.11,7.59,4.22,0,4.68-5.67,4.68-8.65,0-3.37-.85-8.78-5-8.78-3.32,0-4.81,4.48-4.81,6.65Z" transform="translate(-3.67 -62.16)"/><path class="cls-1" d="M207.89,412c0-2.64-2.13-2.72-3.32-2.81v-.72l6.6-.94v29.82h-3.28Z" transform="translate(-3.67 -62.16)"/><path class="cls-1" d="M231.62,437.07a16.65,16.65,0,0,1-5.28.77c-6.26,0-9.93-3.88-9.93-11,0-6.14,2.35-9.76,8.57-9.76,4,0,7.15,2.35,7.15,7.42v.63H219.69v.9c0,4.13,3,10.14,8.91,10.14a12.08,12.08,0,0,0,3-.51Zm-3.19-13.76c0-2.38-1.45-4.56-4-4.56-3.87,0-4.56,3.5-4.68,4.95h8.69Zm-3.79-14.06c.38-1.32.81-1.79,2.08-1.79a1.51,1.51,0,0,1,1.62,1.45,3.52,3.52,0,0,1-.81,1.71L225,414.15h-1.83Z" transform="translate(-3.67 -62.16)"/><path class="cls-1" d="M250.58,437.07a16.65,16.65,0,0,1-5.28.77c-6.26,0-9.93-3.88-9.93-11,0-6.14,2.35-9.76,8.57-9.76,4,0,7.15,2.35,7.15,7.42v.63H238.65v.9c0,4.13,3,10.14,8.91,10.14a12,12,0,0,0,3-.51Zm-3.19-13.76c0-2.38-1.45-4.56-4-4.56-3.87,0-4.56,3.5-4.68,4.95h8.69Z" transform="translate(-3.67 -62.16)"/><path class="cls-1" d="M269.25,421.65c0-2.56-2-2.68-3.24-2.81v-.72l6.52-1v5.67h.08c.64-1.66,2.86-5.67,7.12-5.67s5.07,2.09,5.07,5.12v15.16h-3.28V423.61c0-2.3,0-4.43-3-4.43s-6,5.24-6,8.05v10.14h-3.28Z" transform="translate(-3.67 -62.16)"/><path class="cls-1" d="M301.2,434.64a7.61,7.61,0,0,1-6.05,3.2,4.83,4.83,0,0,1-5.11-5c0-6.09,8.39-6.26,11.16-6.35V424.8c0-3,0-6.05-3.58-6.05-3.24,0-3.45,2.65-3.53,3.75h-3.8c.17-2.51,1.84-5.41,7.46-5.41s6.73,3,6.73,7v13.33H301.2Zm0-6.85c-1.79,0-7.54.29-7.54,4.47a3.24,3.24,0,0,0,3.24,3.49c2.89,0,4.3-3.32,4.3-5.45Z" transform="translate(-3.67 -62.16)"/><path class="cls-1" d="M320.88,437.58a11.64,11.64,0,0,1-2.42.26c-5.71,0-6.1-2-6.1-6V419h-3.28v-1.45h3.28v-3.62l3.24-2.85v6.47h5.28V419h-5.24v14.06c0,2.55,1.54,3.11,3.63,3.11a10.44,10.44,0,0,0,1.61-.17Z" transform="translate(-3.67 -62.16)"/><path class="cls-1" d="M325.74,421.65c0-2.56-2-2.68-3.19-2.81v-.72l6.47-1v20.28h-3.28Zm-.93-11a2.39,2.39,0,0,1,2.42-2.39,2.42,2.42,0,0,1,2.39,2.39,2.36,2.36,0,0,1-2.39,2.38A2.38,2.38,0,0,1,324.81,410.62Z" transform="translate(-3.67 -62.16)"/><path class="cls-1" d="M334.44,427.57c0-6.26,2.59-10.48,8.81-10.48,5.59,0,8.95,4.05,8.95,10.44s-2.9,10.31-8.86,10.31C337.63,437.84,334.44,433.66,334.44,427.57Zm8.94,8.61c4.86,0,5.2-5.37,5.2-8.61,0-3.49-.68-8.82-5.28-8.82-5,0-5.24,5.33-5.24,8.82C338.06,430.77,338.82,436.18,343.38,436.18Z" transform="translate(-3.67 -62.16)"/><path class="cls-1" d="M358.42,421.65c0-2.56-2-2.68-3.23-2.81v-.72l6.51-1v5.67h.09c.64-1.66,2.85-5.67,7.11-5.67s5.07,2.09,5.07,5.12v15.16h-3.28V423.61c0-2.3,0-4.43-3-4.43s-6,5.24-6,8.05v10.14h-3.28Z" transform="translate(-3.67 -62.16)"/><path class="cls-1" d="M390.38,434.64a7.61,7.61,0,0,1-6.05,3.2,4.83,4.83,0,0,1-5.11-5c0-6.09,8.39-6.26,11.16-6.35V424.8c0-3,0-6.05-3.58-6.05-3.24,0-3.45,2.65-3.54,3.75h-3.79c.17-2.51,1.83-5.41,7.46-5.41s6.73,3,6.73,7v13.33h-3.28Zm0-6.85c-1.79,0-7.54.29-7.54,4.47a3.24,3.24,0,0,0,3.24,3.49c2.89,0,4.3-3.32,4.3-5.45Z" transform="translate(-3.67 -62.16)"/><path class="cls-1" d="M400.52,412c0-2.64-2.13-2.72-3.32-2.81v-.72l6.6-.94v29.82h-3.28Z" transform="translate(-3.67 -62.16)"/><path class="cls-1" d="M424.25,437.07a16.65,16.65,0,0,1-5.28.77c-6.26,0-9.93-3.88-9.93-11,0-6.14,2.35-9.76,8.56-9.76,4,0,7.16,2.35,7.16,7.42v.63H412.32v.9c0,4.13,3,10.14,8.91,10.14a12.08,12.08,0,0,0,3-.51Zm-3.19-13.76c0-2.38-1.45-4.56-4-4.56-3.88,0-4.56,3.5-4.69,4.95h8.7Z" transform="translate(-3.67 -62.16)"/><g id="Logo"><path class="cls-2" d="M247.16,346.62h5.72v45h-5.72Z" transform="translate(-3.67 -62.16)"/><path class="cls-1" d="M254.58,368.07h-1.7v3.52l11,16.18,4.68-1.62-10.15-15c7.55-1.92,8.37-7.58,8.37-9.94a8.5,8.5,0,0,0-3.72-7.12,13,13,0,0,0-7.39-2.3h-2.8v3.42h.52c5.42,0,7.94,1.9,7.94,6C261.34,365.63,258.94,368.07,254.58,368.07Z" transform="translate(-3.67 -62.16)"/><rect class="cls-1" x="233.27" y="289.62" width="5.72" height="35.17"/></g><path class="cls-1" d="M461,151.52s7.48,3.33,8.07,2.73,24.81-19.1,24.69-21.36c1.14-3.8-239.33-70.73-243-70.73S6.22,127.19,5.63,132.65s25.63,22.79,26.7,22.79,7-1.66,6.53-3.32-16.74-14.36-16.74-16.38S242.52,72.6,250.69,72.6s225,60.53,225,63.5S461,149.86,461,151.52Z" transform="translate(-3.67 -62.16)"/><path class="cls-1" d="M445,152.59c.93,1.3-157.8,1.25-197,1.25S49.53,151.52,49.53,149s179-2.31,200.15-2.31S438.83,144.05,445,152.59Z" transform="translate(-3.67 -62.16)"/><path class="cls-1" d="M336.2,203.34c-.28-8.12-.82-14.17-1.46-16.1a20.44,20.44,0,0,1-1-4.5c0-1.6-2-2.9-4.47-2.86s-8.06,3-8.9,4.68a35.29,35.29,0,0,1-2.4,3.79,13.68,13.68,0,0,0-2.05,5.05,30.9,30.9,0,0,1-1.31,5.24c-1.67,4.51-2,17.5-.84,31.08.6,7,1.29,16.56,1.54,21.33s.93,14,1.51,20.6c2.09,23.25,3.06,40.12,2.47,43-.32,1.58-1,4.67-1.49,6.86-1.41,6.15-1.18,7.73,1.52,10.52,2.88,3,3.85,3.06,7.36.67h0c3.18-2.16,6.34-7.23,6.34-10.17a58.93,58.93,0,0,1,2.09-9.45c1.87-6.51,2.2-9.28,3-24.57.48-9.48.67-20.33.42-24.1C338.07,258.26,337.72,249.09,336.2,203.34Z" transform="translate(-3.67 -62.16)"/><path class="cls-1" d="M388.3,204.07c0-24.67-.43-27.83-3.64-27.83a2.92,2.92,0,0,0-2.16.73,8,8,0,0,1-2.8,1.72c-4.13,1.72-6.5,5.72-8.6,14.53-2.82,11.87-3.51,17.21-3.28,25.63.11,4.19-.26,12.43-.82,18.31-.84,8.89-.85,12-.08,18.43,1.24,10.28,1.56,19.35,1.79,50.39.11,14.31.25,26.43.31,26.92.11.88,3.2,1.15,5,.43,1.37-.55,5.79-8.22,7.77-13.49,2.46-6.54,5.54-20.12,5.85-25.79.14-2.58.78-7.72,1.42-11.42,1-6,1.06-9.26.22-31.44C388.73,237.6,388.31,216.39,388.3,204.07Z" transform="translate(-3.67 -62.16)"/><path class="cls-1" d="M443.57,180a32.94,32.94,0,0,1-1.43-8c0-4.9-1.55-5.66-6.21-3-7.32,4.1-8.22,4.81-9.41,7.45-.68,1.5-1.46,2.72-1.75,2.72-1.49,0-3.57,16-5,38.64-.78,12.16.19,82.13,1.34,96.16.32,4,.54,10.75.48,15.05-.1,7.79-.09,7.84,2,9.58,2.75,2.32,5,2.21,7.49-.38h0c4.46-4.56,5.72-8.58,8.83-28.23A257.25,257.25,0,0,0,443.19,281c.22-5.76.71-14.06,1.08-18.43s.68-23.72.7-43C445,186.59,444.93,184.28,443.57,180Z" transform="translate(-3.67 -62.16)"/><path class="cls-1" d="M124.32,178l-2.14.42a8.81,8.81,0,0,0-3.28,1.39c-7.09,5.93-7.84,6.85-9.73,11.92a53.83,53.83,0,0,0-2.61,12,70.7,70.7,0,0,1-1.34,9c-2.3,7.48-3.8,51-2.07,60.21.57,3.09.89,9.69.82,17.2a133.11,133.11,0,0,0,1,19.36,54.58,54.58,0,0,1,.6,12.32c-.47,5.05-.43,5.21,1.57,7,2.31,2,3.35,2.26,4.39.95h0c1.55-1.94,3-5.58,4.2-10.29a114.89,114.89,0,0,1,3.62-11.18c1.78-4.66,2.39-7.39,2.4-10.75,0-2.48.49-8.49,1.06-13.34s1-14,1-20.25.13-11.67.34-12,.41-10.57.46-22.76.41-26.2.79-31.13c.53-6.63.48-10.39-.17-14.47Z" transform="translate(-3.67 -62.16)"/><path class="cls-1" d="M73,189.19a34,34,0,0,0-1.36-8.35,19.45,19.45,0,0,1-1-7.06c.46-3.46-1.95-6.91-4.33-6.2-3.29,1-12,8.41-14,11.91-2.54,4.45-3.59,15.25-2,20.15,1.17,3.51,3.09,56.35,2.34,64.65-1,11.2-1.31,50.32-.43,55.65,1.68,10.14,1.87,11,2.9,13.16,1.22,2.54,4.82,3.34,6.4,1.43h0c1.15-1.38,1.77-4.79,3.2-17.53.6-5.31,1.38-10.63,1.74-11.83s1.18-7.82,1.83-14.72,1.83-16.9,2.62-22.22,1.73-15.8,2.1-23.29,1-19.11,1.49-25.81c.73-10.62.69-13.07-.34-19.08A84.7,84.7,0,0,1,73,189.19Z" transform="translate(-3.67 -62.16)"/><path class="cls-2" d="M173.82,177.67c-7.28,4.86-11,11.86-12.9,24.18-2.92,19.1-4.9,51.41-3.67,60,.43,3,1,11.9,1.2,19.72s1.08,19.24,1.92,25.53c1.28,9.52,1.39,12,.7,15.72-.74,4-.68,4.61.61,6.7,1.94,3.13,4.51,4.08,6.28,2.31a2.89,2.89,0,0,0,.86-1.57,5.15,5.15,0,0,1,1.34-2.18c2.55-2.81,6.24-17.33,7.3-28.72.37-3.94,1-10.23,1.39-14,1.83-17.2,2.11-25,2.18-60.92.05-21.09,0-39.8,0-41.57C180.85,177.14,177.87,175,173.82,177.67Z" transform="translate(-3.67 -62.16)"/><path class="cls-1" d="M209.23,209.8c.58-2.36,1.37-7.09,1.77-10.51.94-8.28,4.22-16.28,8.39-20.39,1.7-1.67,3.57-3,4.16-3a4.55,4.55,0,0,0,2.41-1.34c1-1,4.18-2.05,5.69-2.08.51,0,.83.11.83.36s.5,3,1.11,5.92a25.88,25.88,0,0,1,.32,11.07c-.73,5.17-2.17,59.19-2.1,78.61a107.76,107.76,0,0,1-.78,13.22c-.45,2.94-1.07,9.37-1.34,14.29-.48,8.44-.67,9.3-3.49,15.49a77.67,77.67,0,0,0-3.82,10c-1,4.3-3.87,10.84-5.4,12.53s-2,1.61-5.09-.67c-1.45-1.07-2.73-2-2.84-2a36.26,36.26,0,0,1,.54-5.09c.56-3.95.46-6.42-.47-11.72-.81-4.63-1.23-11.5-1.32-22.09s-.45-16.79-1.18-20c-.88-3.86-1-8-.51-24.66C206.69,226.53,207.5,216.82,209.23,209.8Z" transform="translate(-3.67 -62.16)"/><path class="cls-1" d="M275.42,180.89c2.11-1.53,3.72-2.22,5-2.08a3.57,3.57,0,0,1,2.57,1.85c1.07,1.63,1.28,3.74,1.36,13.4.1,11.27.24,15.6,1.68,51.67a250.66,250.66,0,0,1-.41,33.94c-.62,8.74-1.24,18-1.36,20.52-.26,5.65-3.41,20.64-4.91,23.38-.6,1.1-1.64,3-2.32,4.31-1.57,2.95-3.62,3-6.3.23-1.94-2-2-2.34-1.9-8.89a77.4,77.4,0,0,0-1.29-14.51c-.79-4.25-1.92-14.8-2.55-23.45s-1.44-17.17-1.81-18.94c-1.38-6.74-.52-42.77,1.41-58.59C265.91,193,269.7,185,275.42,180.89Z" transform="translate(-3.67 -62.16)"/></svg>