<svg id="L_T" data-name="L&amp;T" xmlns="http://www.w3.org/2000/svg" viewBox="0 0 483.78 329.67"><defs><style>.cls-1{fill:#2f5597;}.cls-2{fill:#c00000;}</style></defs><title>lt</title><path id="_" data-name="&amp;" class="cls-1" d="M323.2,269.14a13.69,13.69,0,0,1-6.31-2.06,8.51,8.51,0,0,0,2.44-5.55V249.87h-3.78s0,.47,0,7.71a10.79,10.79,0,0,1-2.29,7.08c-8.39-6.33-17-17.85-17-24.37,0-6.35.53-9.5,7.78-9.5s7.67,7.08,7.67,7.08c.06.3,4,.16,4,.16s1-11.33-11.68-11.33-11.52,9.68-11.52,13.61c0,2.71,1.18,6.17,3.13,9.83-5.83,1.27-7,5.78-7,9.15,0,3.95,1.88,13.57,12.92,13.57a22.88,22.88,0,0,0,12.13-3.16,19.19,19.19,0,0,0,9.52,3.16Zm-21.6-.06c-5.78,0-9.13-4.48-9.13-9.62,0-3.95,2.45-5.24,5.38-5.62a57.17,57.17,0,0,0,12.2,13.39A18.53,18.53,0,0,1,301.6,269.08Z" transform="translate(-8.22 -84.72)"/><g id="Libertés"><polygon class="cls-1" points="38.47 169.28 38.47 0 0 0 0 203.41 122.71 203.41 122.71 183.44 122.71 172.27 122.71 169.28 38.47 169.28"/><rect class="cls-1" x="55.38" y="38.39" width="7.87" height="80.71"/><circle class="cls-1" cx="59.31" cy="16.83" r="4.25"/><path class="cls-1" d="M97.36,123.11H91.05V96.28H82.91V203.81H97.42c8.89,0,16.29-.86,16.29-41.1S105.84,123.11,97.36,123.11ZM100.25,196H90.74V130.66h9.59c1.81,0,6,0,6,31.93C106.31,196.16,100.25,196,100.25,196Z" transform="translate(-8.22 -84.72)"/><path class="cls-1" d="M147,171.32h-7.51c0,16.58,1.08,24.84-6.18,24.84-6.18,0-6.23-5.21-6.23-31.84H147c0-32.4-1.1-41.21-14.06-41.21s-12.84,12.4-12.84,38.93c0,37.54,1.2,41.77,13.32,41.77C147,203.81,147,198.15,147,171.32Zm-13.69-40.66c7.49,0,6.08,11.64,6.08,26.92H127.22C127.22,143.07,125.8,130.66,133.29,130.66Z" transform="translate(-8.22 -84.72)"/><polygon class="cls-1" points="149.69 38.39 149.69 118.78 157.32 118.78 157.32 45.94 168.96 45.94 168.96 38.39 149.69 38.39"/><path class="cls-1" d="M188.63,96.28h7.79v26.83H207.8v7.55H196.48v59.19s.7,6.19,11.32,6.19v7.77h-7.55c-6.43,0-11.62-6.53-11.62-9.12.06-6.37,0-64,0-64H181l-3.86-3.82v-3.73h11.53Z" transform="translate(-8.22 -84.72)"/><path class="cls-1" d="M281,147.1V131c0-4-4.64-8.07-13.43-8.07S254,127.09,254,131.15v28.08c0,5.47,1.54,8,13.46,8,5.72,0,5.72,0,5.84,13.65,0,14.45-.24,14.61-5.84,14.61s-5.8-.45-5.8-8,0-8.13,0-8.13H254v16.07c0,4,4.64,8.07,13.43,8.07s13.51-4.13,13.51-8.19V167.23c0-5.47-2.37-8-13.46-8-5.7,0-5.72,0-5.84-13.65,0-14.45.24-14.61,5.84-14.61s5.8.45,5.8,8,0,8.13,0,8.13Z" transform="translate(-8.22 -84.72)"/><polygon class="cls-1" points="211.94 35.66 227.2 20.32 219.57 20.32 211.94 27.99 211.94 35.66"/><path class="cls-1" d="M242.8,171.32h-7.51c0,16.58,1.08,24.84-6.18,24.84-6.18,0-6.23-5.21-6.23-31.84H242.8c0-32.4-1.1-41.21-14.06-41.21S215.9,135.51,215.9,162c0,37.54,1.2,41.77,13.32,41.77C242.8,203.81,242.8,198.15,242.8,171.32Zm-13.69-40.66c7.49,0,6.08,11.64,6.08,26.92H223C223,143.07,221.62,130.66,229.11,130.66Z" transform="translate(-8.22 -84.72)"/></g><g id="Territoires"><polygon class="cls-2" points="261.32 123.1 50.03 123.1 50.03 157.68 138.38 157.68 138.38 329.67 176.43 329.67 176.43 157.68 261.32 157.68 261.32 123.1"/><polygon class="cls-2" points="230.58 246.2 230.58 326.53 238.21 326.53 238.21 253.74 249.84 253.74 249.84 246.2 230.58 246.2"/><polygon class="cls-2" points="257.23 246.2 257.23 326.53 264.86 326.53 264.86 253.74 276.49 253.74 276.49 246.2 257.23 246.2"/><rect class="cls-2" x="284.11" y="245.88" width="7.86" height="80.65"/><circle class="cls-2" cx="288.04" cy="224.35" r="4.24"/><rect class="cls-2" x="370.74" y="245.88" width="7.86" height="80.65"/><circle class="cls-2" cx="374.89" cy="224.34" r="4.25"/><path class="cls-2" d="M315.29,303.75h7.78v26.81h11.38v7.54H323.13v59.16s.71,6.19,11.32,6.19v7.76H326.9c-6.42,0-11.61-6.53-11.61-9.12.06-6.37,0-64,0-64H307.7l-3.85-3.81v-3.73h11.52Z" transform="translate(-8.22 -84.72)"/><polygon class="cls-2" points="387.91 246.21 387.91 326.6 395.54 326.6 395.54 253.76 407.18 253.76 407.18 246.21 387.91 246.21"/><path class="cls-2" d="M492,354.84V338.77c0-4-4.64-8.07-13.43-8.07s-13.51,4.13-13.51,8.19V367c0,5.47,1.54,8,13.45,8,5.73,0,5.73,0,5.85,13.65,0,14.45-.24,14.61-5.85,14.61s-5.8-.45-5.8-8,0-8.13,0-8.13H465v16.07c0,4,4.65,8.07,13.44,8.07S492,407.11,492,403.05V375c0-5.47-2.37-8-13.46-8-5.7,0-5.72,0-5.84-13.65,0-14.45.24-14.61,5.84-14.61s5.8.45,5.8,8,0,8.13,0,8.13Z" transform="translate(-8.22 -84.72)"/><path class="cls-2" d="M356,330.76c-13.44,0-13.56.31-13.56,40.33s.47,40.08,13.56,40.08,13.2,0,13.2-40.08S369.17,330.76,356,330.76Zm5.66,40.17c0,31.13-.24,30.77-5.84,30.77s-5.72-.48-5.72-30.84S349.72,340,355.79,340,361.63,339.79,361.63,370.93Z" transform="translate(-8.22 -84.72)"/><path class="cls-2" d="M227.22,379.1h-7.5c0,16.57,1.07,24.82-6.18,24.82-6.18,0-6.22-5.21-6.22-31.81h19.9c0-32.39-1.1-41.19-14.05-41.19s-12.83,12.4-12.83,38.9c0,37.52,1.19,41.75,13.31,41.75C227.22,411.57,227.22,405.91,227.22,379.1Zm-13.68-40.64c7.49,0,6.07,11.64,6.07,26.91H207.47C207.47,350.86,206.06,338.46,213.54,338.46Z" transform="translate(-8.22 -84.72)"/><path class="cls-2" d="M453.68,379.15h-7.51c0,16.58,1.08,24.84-6.18,24.84-6.18,0-6.23-5.21-6.23-31.84h19.92c0-32.41-1.11-41.22-14.07-41.22s-12.84,12.41-12.84,38.93c0,37.55,1.2,41.78,13.33,41.78C453.68,411.64,453.68,406,453.68,379.15ZM440,338.48c7.49,0,6.08,11.64,6.08,26.92H433.91C433.91,350.89,432.5,338.48,440,338.48Z" transform="translate(-8.22 -84.72)"/></g></svg>