<svg id="Modem" xmlns="http://www.w3.org/2000/svg" viewBox="0 0 493.71 206.6"><defs><style>.cls-1{fill:#064585;}.cls-2{fill:#098dcd;}.cls-3{fill:#e8570b;}.cls-4{fill:#074686;}.cls-5{fill:#45acdb;}</style></defs><title>modem</title><g id="Logo"><path class="cls-1" d="M84.8,189.42l-.89,0v8.89l.89,0c27,0,48.91,23.58,48.91,52.56s-21.94,52.56-48.91,52.56l-.89,0v8.89l.89,0c31.87,0,57.8-27.56,57.8-61.45S116.67,189.42,84.8,189.42Z" transform="translate(-3.29 -146.73)"/><path class="cls-2" d="M86.08,169.15c-.76,0-1.51,0-2.26,0v8.92c.75,0,1.5-.06,2.26-.06,38.19,0,69.26,32.67,69.26,72.83S124.27,323.7,86.08,323.7c-.76,0-1.51,0-2.26-.06v8.92c.75,0,1.5,0,2.26,0,43.09,0,78.15-36.66,78.15-81.72S129.17,169.15,86.08,169.15Z" transform="translate(-3.29 -146.73)"/><path class="cls-3" d="M86.87,148.42c-1,0-2,0-3,.05v8.9c1,0,2-.06,3-.06,49.47,0,89.72,42,89.72,93.56s-40.25,93.56-89.72,93.56l-74.54-.14V178.75h-9V353.27l83.58.05c54.38,0,98.61-46,98.61-102.45S141.25,148.42,86.87,148.42Z" transform="translate(-3.29 -146.73)"/></g><g id="Démocrate"><path class="cls-3" d="M209.17,194.72H197.76v30H209a14.73,14.73,0,0,0,14.33-15C223.33,199.59,215.76,194.72,209.17,194.72Zm.34,24.82h-6.59V200.16h6.59c4.36,0,7.69,3.16,7.69,9.69S213,219.54,209.51,219.54Z" transform="translate(-3.29 -146.73)"/><polygon class="cls-3" points="228.13 47.99 228.13 78.03 250.2 78.03 250.2 72.82 234.37 72.82 234.37 64.96 243.66 64.96 243.66 59.74 234.26 59.74 234.26 53.44 250.2 53.44 250.2 47.99 228.13 47.99"/><polygon class="cls-3" points="236.04 45.24 241.83 45.24 245.21 38.07 238.39 38.07 236.04 45.24"/><polygon class="cls-3" points="259.26 47.99 259.26 78.03 264.7 78.03 264.7 56.42 270.95 71.56 276.8 71.56 283.23 55.85 283.23 78.03 288.62 78.03 288.62 47.99 280.53 47.99 273.94 64.85 267.11 47.99 259.26 47.99"/><path class="cls-3" d="M315.64,194.09a15.65,15.65,0,1,0,15.66,15.65A15.65,15.65,0,0,0,315.64,194.09Zm0,25.63a10,10,0,1,1,10-10A10,10,0,0,1,315.64,219.72Z" transform="translate(-3.29 -146.73)"/><path class="cls-3" d="M362.61,214.07a10,10,0,1,1,0-8.69h6.06a15.65,15.65,0,1,0,0,8.69Z" transform="translate(-3.29 -146.73)"/><path class="cls-3" d="M392.3,212.18s6-2.41,6-8.26a9.29,9.29,0,0,0-9.46-9.2H376.22v30h6.11V213.38h4.38l6.63,11.38h7Zm-4.3-4.05h-5.67v-8.37h5.59A4.78,4.78,0,0,1,392.3,204,4,4,0,0,1,388,208.13Z" transform="translate(-3.29 -146.73)"/><path class="cls-3" d="M421,194.72h-6.88l-9.63,30h6.27l2.84-8.46H422l3.09,8.46h6Zm-6.54,16.85,3.1-10.66,3.1,10.66Z" transform="translate(-3.29 -146.73)"/><polygon class="cls-3" points="430.64 47.99 454.55 47.99 454.55 54.18 445.6 54.18 445.6 78.03 439.58 78.03 439.58 54.18 430.64 54.18 430.64 47.99"/><polygon class="cls-3" points="461.6 47.99 461.6 78.03 483.67 78.03 483.67 72.82 467.85 72.82 467.85 64.96 477.14 64.96 477.14 59.74 467.73 59.74 467.73 53.44 483.67 53.44 483.67 47.99 461.6 47.99"/></g><g id="Démocrates"><path class="cls-4" d="M209.17,277.22H197.76v30H209a14.73,14.73,0,0,0,14.33-15C223.33,282.1,215.76,277.22,209.17,277.22Zm.34,24.83h-6.59V282.67h6.59c4.36,0,7.69,3.15,7.69,9.69S213,302.05,209.51,302.05Z" transform="translate(-3.29 -146.73)"/><polygon class="cls-4" points="225.37 130.5 225.37 160.54 247.45 160.54 247.45 155.32 231.62 155.32 231.62 147.47 240.91 147.47 240.91 142.25 231.51 142.25 231.51 135.94 247.45 135.94 247.45 130.5 225.37 130.5"/><polygon class="cls-4" points="233.28 127.75 239.08 127.75 242.46 120.58 235.64 120.58 233.28 127.75"/><polygon class="cls-4" points="253.09 130.5 253.09 160.54 258.54 160.54 258.54 138.93 264.79 154.06 270.64 154.06 277.06 138.35 277.06 160.54 282.45 160.54 282.45 130.5 274.37 130.5 267.77 147.35 260.95 130.5 253.09 130.5"/><path class="cls-4" d="M306.87,276.59a15.66,15.66,0,1,0,15.65,15.66A15.66,15.66,0,0,0,306.87,276.59Zm0,25.63a10,10,0,1,1,10-10A10,10,0,0,1,306.87,302.22Z" transform="translate(-3.29 -146.73)"/><path class="cls-4" d="M350.28,296.57a10,10,0,1,1,0-8.68h6.06a15.65,15.65,0,1,0,0,8.68Z" transform="translate(-3.29 -146.73)"/><path class="cls-4" d="M377.32,294.68s6-2.41,6-8.25a9.31,9.31,0,0,0-9.46-9.21H361.23v30h6.11V295.89h4.39l6.62,11.38h7Zm-4.3-4h-5.68v-8.37h5.59a4.78,4.78,0,0,1,4.39,4.18A4,4,0,0,1,373,290.64Z" transform="translate(-3.29 -146.73)"/><path class="cls-4" d="M403,277.22h-6.88l-9.63,30h6.28l2.84-8.46H404l3.09,8.46h6Zm-6.53,16.86,3.09-10.66,3.1,10.66Z" transform="translate(-3.29 -146.73)"/><polygon class="cls-4" points="409.14 130.5 433.05 130.5 433.05 136.69 424.1 136.69 424.1 160.54 418.08 160.54 418.08 136.69 409.14 136.69 409.14 130.5"/><polygon class="cls-4" points="437.89 130.5 437.89 160.54 459.96 160.54 459.96 155.32 444.14 155.32 444.14 147.47 453.43 147.47 453.43 142.25 444.02 142.25 444.02 135.94 459.96 135.94 459.96 130.5 437.89 130.5"/><path class="cls-4" d="M478.74,289.42c-1.89-.59-4.95-2-4.95-4.74,0-3.14,2.63-3,4-3a10.6,10.6,0,0,1,6.32,3.18l3.35-4.25s-5.72-4.13-9.76-4.13-10.06,2.45-10.06,8.38c0,5.18,5.38,7.94,9.11,9.06,1.89.59,4.95,2,4.95,4.74,0,3.14-2.62,3-4,3a10.52,10.52,0,0,1-6.32-3.19L468,302.73s5.72,4.13,9.76,4.13,10.06-2.45,10.06-8.39C487.85,293.3,481.29,290.12,478.74,289.42Z" transform="translate(-3.29 -146.73)"/></g><g id="Et"><polygon class="cls-5" points="324.42 94.17 337.37 94.17 337.37 95.98 326.23 95.98 326.23 103.03 333.71 103.03 333.71 104.75 326.31 104.75 326.31 111.98 337.37 111.98 337.37 113.61 324.42 113.61 324.42 94.17"/><polygon class="cls-5" points="340.89 94.17 340.89 95.94 347.04 95.94 347.04 113.61 348.89 113.61 348.89 95.98 355.08 95.98 355.08 94.17 340.89 94.17"/><rect class="cls-5" x="357.94" y="102.22" width="127.74" height="1.68"/><rect class="cls-5" x="190.77" y="103.03" width="127.8" height="1.72"/></g><g id="Mouvement"><polygon class="cls-3" points="193.55 30.04 202.38 0.92 205.82 0.92 208.92 21.73 225.49 0.92 229.1 0.92 220.27 30.04 218.03 30.04 225.43 4.64 209.32 24.83 206.97 24.83 203.7 3.5 196.19 30.04 193.55 30.04"/><path class="cls-3" d="M283.88,147.64h2.41s-3.61,11.93-5.45,17.89-.86,9.75,3.73,9.75,7.74.23,10.43-9.06,5.68-18.58,5.68-18.58h2.47s-3,10.44-5.51,19.21-6.36,10.89-13.36,10.89-8.08-5.21-5.73-13.3S283.88,147.64,283.88,147.64Z" transform="translate(-3.29 -146.73)"/><polygon class="cls-3" points="309.83 0.92 309.83 30.96 312.81 30.96 333.05 0.92 330.36 0.92 312.35 27.35 312.35 0.92 309.83 0.92"/><path class="cls-3" d="M257.68,146.73c-8.55,0-15.54,4.47-18.25,14.39s2.07,16.57,10.62,16.57,16.63-4.59,18.39-14.11S266.23,146.73,257.68,146.73Zm8.37,16.63c-1.48,8-8.24,11.8-15.39,11.8s-11.17-5.56-8.9-13.87,8.12-12,15.28-12S267.52,155.39,266.05,163.36Z" transform="translate(-3.29 -146.73)"/><polygon class="cls-3" points="342.8 0.92 362.24 0.92 362.24 2.69 345.03 2.69 341.77 14.28 352.49 14.28 352 15.97 341.08 15.97 337.24 28.32 354.49 28.32 353.4 30.33 334.25 30.33 342.8 0.92"/><polygon class="cls-3" points="363.9 30.33 372.93 0.92 376.4 0.92 379.61 21.9 396.06 0.92 399.56 0.92 391.42 30.33 388.78 30.33 396.52 3.67 380.24 24.83 377.66 24.83 374.16 3.38 366.48 30.33 363.9 30.33"/><polygon class="cls-3" points="412.86 0.92 432.3 0.92 432.3 2.69 415.1 2.69 411.83 14.28 422.55 14.28 422.06 15.97 411.14 15.97 407.3 28.32 424.56 28.32 423.47 30.33 404.32 30.33 412.86 0.92"/><polygon class="cls-3" points="433.85 30.33 442.91 0.92 446.06 0.92 452.43 26.43 460.74 0.92 462.8 0.92 453.86 30.33 450.82 30.33 444.17 3.5 436.54 30.33 433.85 30.33"/><polygon class="cls-3" points="472.64 0.92 493.71 0.92 492.73 2.87 483.67 2.87 475.19 30.33 472.89 30.33 481.32 2.75 471.81 2.75 472.64 0.92"/></g><g id="Apparentés"><polygon class="cls-4" points="343.6 203.14 362.75 203.14 363.84 201.14 346.58 201.14 350.42 188.78 361.35 188.78 361.83 187.09 351.11 187.09 354.38 175.51 371.58 175.51 371.58 173.73 352.14 173.73 343.6 203.14"/><polygon class="cls-4" points="436.41 203.14 455.56 203.14 456.65 201.14 439.39 201.14 443.24 188.78 454.16 188.78 454.65 187.09 443.93 187.09 447.19 175.51 464.39 175.51 464.39 173.73 444.96 173.73 436.41 203.14"/><polygon class="cls-4" points="412.96 175.56 422.48 175.56 414.05 203.14 416.34 203.14 424.83 175.68 433.89 175.68 434.86 173.73 413.79 173.73 412.96 175.56"/><path class="cls-4" d="M212.81,319.77l-18.49,29.5h2.58l6.8-10.67h10.92l.51,10.67h2.07l-1.81-29.5ZM205,336.71l8.77-15.14.77,15.14Z" transform="translate(-3.29 -146.73)"/><path class="cls-4" d="M244.81,319.77h-7.57l-8.57,29.5h2.2l3.53-11.61h6.76c8.06,0,10.63-6.05,11.13-9.46S251.17,319.77,244.81,319.77Zm5.07,8.6a8.52,8.52,0,0,1-8.72,6.79h-6.07l4.13-13.59h4.9A5.67,5.67,0,0,1,249.88,328.37Z" transform="translate(-3.29 -146.73)"/><path class="cls-4" d="M273.7,319.77h-7.57l-8.57,29.5h2.21l3.53-11.61h6.76c8.06,0,10.63-6.05,11.13-9.46S280.07,319.77,273.7,319.77Zm5.08,8.6a8.52,8.52,0,0,1-8.72,6.79H264l4.13-13.59H273A5.68,5.68,0,0,1,278.78,328.37Z" transform="translate(-3.29 -146.73)"/><path class="cls-4" d="M300.65,319.77l-18.49,29.5h2.58l6.8-10.67h10.92l.51,10.67H305l-1.81-29.5Zm-7.82,16.94,8.77-15.14.77,15.14Z" transform="translate(-3.29 -146.73)"/><polygon class="cls-4" points="392.82 199.24 386.46 173.73 383.31 173.73 374.25 203.14 376.94 203.14 384.57 176.31 391.22 203.14 394.26 203.14 403.2 173.73 401.14 173.73 392.82 199.24"/><path class="cls-4" d="M332.44,319.77h-7.56l-8.58,29.5h2.21L322,337.66h6.69l4.95,11.61h2.72l-5-11.86a10.63,10.63,0,0,0,8.51-9.21C340.42,324.78,338.81,319.77,332.44,319.77Zm5.08,8.6a8.52,8.52,0,0,1-8.72,6.79h-6.07l4.12-13.59h4.91A5.68,5.68,0,0,1,337.52,328.37Z" transform="translate(-3.29 -146.73)"/><polygon class="cls-4" points="461.69 162.68 458.63 162.68 454.46 169 456.65 169 461.69 162.68"/><path class="cls-4" d="M484.46,319c-5.68,0-9.38,3.78-9.38,8.17,0,3.26,3.3,6.32,5,7.69l1,.73c1.54,1.12,4.27,3.46,4.27,6.15,0,3.74-3.29,5.5-6.52,5.5a8.63,8.63,0,0,1-6.79-3.61l-1.59,1.89a9.85,9.85,0,0,0,8.21,4.08c5.68,0,9.38-3.78,9.38-8.17,0-3.25-3.3-6.32-5-7.68l-1-.74c-1.54-1.11-4.27-3.46-4.27-6.14,0-3.74,3.29-5.5,6.52-5.5a8.6,8.6,0,0,1,6.79,3.61l1.59-1.89A9.84,9.84,0,0,0,484.46,319Z" transform="translate(-3.29 -146.73)"/></g></svg>