<svg id="PS" xmlns="http://www.w3.org/2000/svg" viewBox="0 0 490.17 211.79"><defs><style>.cls-1{fill:#e50040;}.cls-2{fill:#7d8386;}.cls-3{fill:#c4cf00;}</style></defs><title>ps</title><g id="Groupe"><path class="cls-1" d="M214.6,148.72s-3.08-1.63-9.93-1.63-18.43,1.8-18.43,22.53,12.34,22.45,18.51,22.45a21.75,21.75,0,0,0,9.85-2V167.74h-7.36v3.85h2.31v14.48s-1.2,1.29-5.23,1.29-12.85-2.37-12.85-18.68,10.2-17.39,14.31-17.39S214.6,154.72,214.6,148.72Z" transform="translate(-5.28 -144.43)"/><path class="cls-1" d="M224.46,157.46V191.3h5V170.74s3.85-9.34,11.14-9.34v-3.94a12.46,12.46,0,0,0-11.14,6.25v-6.26Z" transform="translate(-5.28 -144.43)"/><path class="cls-1" d="M277.75,157.45h4.11v29.77s13.65,1.65,14.45-10.57v-19.2h5.2V191.3h-4.28v-8S293,191.67,284,191.67c-5.6,0-6.23-2.17-6.23-2.17Z" transform="translate(-5.28 -144.43)"/><path class="cls-1" d="M327,157.45a17.86,17.86,0,0,0-12.06,5.83v-5.83h-4.37v43h5.23v-8.8h11s9.59.23,9.59-21.36C336.35,157.51,330.47,157.45,327,157.45Zm-.92,29.6H315.79V170.37s3.71-8.86,11-8.86c4.34,0,4.45,3.6,4.45,10.57S331.38,183.73,326.07,187.05Z" transform="translate(-5.28 -144.43)"/><path class="cls-1" d="M361.83,186.19c-2.69,0-2.06,1.66-6.63,1.66s-8.51-.69-8.51-11.6H358s6.13-.34,6.13-9.37-6.36-9.43-10.75-9.43-11.83-.73-11.83,16.83c0,0-1.6,17.39,13.42,17.39,9.09,0,9.14-2.34,9.14-2.34S364.51,186.19,361.83,186.19Zm-8.37-24.68s6.66-.23,6.66,5.2-4.17,5.43-4.17,5.43h-9.14C346.81,162.37,348.35,161.51,353.46,161.51Z" transform="translate(-5.28 -144.43)"/><path class="cls-1" d="M256.49,157.45c-13.12,0-13.06,6.92-13.06,17.11s0,17.11,13.12,17.11,13.06-6,13.06-17.11S269.61,157.45,256.49,157.45Zm.05,30.19c-8.61,0-8.61-5.29-8.61-13.08s0-13.08,8.57-13.08,8.61,4.63,8.61,13.08S265.15,187.64,256.54,187.64Z" transform="translate(-5.28 -144.43)"/></g><g id="Assemblée"><path class="cls-2" d="M147.18,338.37h-2.92l-6.85,16.56h3.25l1.66-3.71h6.4l1.6,3.71h3.48Zm-4,10.62,2.42-7.25,2.55,7.25Z" transform="translate(-5.28 -144.43)"/><path class="cls-2" d="M355.69,338.37h-2.91l-6.86,16.56h3.26l1.66-3.71h6.39l1.6,3.71h3.49Zm-4,10.62,2.43-7.25,2.54,7.25Z" transform="translate(-5.28 -144.43)"/><path class="cls-2" d="M453.22,338.37h-2.91l-6.86,16.56h3.26l1.66-3.71h6.39l1.6,3.71h3.49Zm-4,10.62,2.43-7.25,2.54,7.25Z" transform="translate(-5.28 -144.43)"/><polygon class="cls-2" points="200.5 193.94 190.28 193.94 190.28 210.5 200.5 210.5 200.5 208.49 193.25 208.49 193.25 203.29 199.36 203.29 199.36 201.17 193.36 201.17 193.36 196.03 200.5 196.03 200.5 193.94"/><path class="cls-2" d="M250.75,346.64c.53-.06,2.32-.53,2.32-4,0-3.94-3.08-4.3-3.08-4.3h-9.21v16.56h8.95s3.67.12,3.67-4.29C253.4,346.78,251.28,346.62,250.75,346.64Zm-2.76,6.1h-4.17v-5.08H248s2,0,2,2.54S248,352.74,248,352.74Zm0-7.16h-4.17V340.5H248s2,0,2,2.54S248,345.58,248,345.58Z" transform="translate(-5.28 -144.43)"/><polygon class="cls-2" points="256.06 193.94 259.11 193.94 259.11 208.31 266.26 208.31 266.26 210.5 256.06 210.5 256.06 193.94"/><polygon class="cls-2" points="283.69 193.94 273.47 193.94 273.47 210.5 283.69 210.5 283.69 208.49 276.44 208.49 276.44 203.29 282.55 203.29 282.55 201.17 276.56 201.17 276.56 196.03 283.69 196.03 283.69 193.94"/><polygon class="cls-2" points="302.29 193.94 292.06 193.94 292.06 210.5 302.29 210.5 302.29 208.49 295.03 208.49 295.03 203.29 301.14 203.29 301.14 201.17 295.15 201.17 295.15 196.03 302.29 196.03 302.29 193.94"/><polygon class="cls-2" points="276.56 192.23 278.58 189.81 282.52 189.81 279.27 192.23 276.56 192.23"/><polygon class="cls-2" points="318.74 193.94 318.74 210.5 321.85 210.5 321.85 198.06 331.1 210.5 334.13 210.5 334.13 193.94 331.1 193.94 331.1 206.4 321.82 193.94 318.74 193.94"/><polygon class="cls-2" points="360.95 193.94 374.31 193.94 374.31 196.06 369.15 196.06 369.15 210.5 366.06 210.5 366.06 196.03 360.95 196.03 360.95 193.94"/><rect class="cls-2" x="381.5" y="193.93" width="3.04" height="16.56"/><polygon class="cls-2" points="416.7 193.94 416.7 210.5 419.81 210.5 419.81 198.06 429.06 210.5 432.09 210.5 432.09 193.94 429.06 193.94 429.06 206.4 419.78 193.94 416.7 193.94"/><polygon class="cls-2" points="461.52 193.94 464.56 193.94 464.56 208.31 471.72 208.31 471.72 210.5 461.52 210.5 461.52 193.94"/><polygon class="cls-2" points="488.17 193.94 477.94 193.94 477.94 210.5 488.17 210.5 488.17 208.49 480.91 208.49 480.91 203.29 487.02 203.29 487.02 201.17 481.03 201.17 481.03 196.03 488.17 196.03 488.17 193.94"/><path class="cls-2" d="M405.9,338.37a8.28,8.28,0,1,0,8.28,8.28A8.29,8.29,0,0,0,405.9,338.37Zm0,13.82a5.54,5.54,0,1,1,5.53-5.54A5.54,5.54,0,0,1,405.9,352.19Z" transform="translate(-5.28 -144.43)"/><polygon class="cls-2" points="208.75 193.94 208.75 210.5 211.81 210.5 211.81 198.23 217.98 209.37 224.23 198.03 224.23 210.5 227.29 210.5 227.29 193.94 223.18 193.94 218.02 203.22 212.84 193.94 208.75 193.94"/><path class="cls-2" d="M165.64,345.7c-1.81,0-3.07-.43-3.07-2.13,0-1.15,1.26-2.34,3.28-2.34s1.72,1.08,3.09,1.08a1.75,1.75,0,0,0,1.91-1.44c0-.44-1-2.5-5.17-2.5-1.05,0-6.17.55-6.17,5.44s4.37,4.43,5.54,4.43a2.57,2.57,0,0,1,2.75,2.42c0,1.15-1.26,2.34-3.29,2.34s-1.71-1.08-3.08-1.08a1.77,1.77,0,0,0-1.92,1.44c0,.44,1,2.5,5.17,2.5,1.06,0,6.17-.55,6.17-5.44S167.45,345.7,165.64,345.7Z" transform="translate(-5.28 -144.43)"/><path class="cls-2" d="M183.33,345.7c-1.81,0-3.07-.43-3.07-2.13,0-1.15,1.26-2.34,3.29-2.34s1.71,1.08,3.08,1.08a1.75,1.75,0,0,0,1.91-1.44c0-.44-1-2.5-5.17-2.5-1.05,0-6.16.55-6.16,5.44s4.37,4.43,5.54,4.43a2.56,2.56,0,0,1,2.74,2.42c0,1.15-1.26,2.34-3.29,2.34s-1.71-1.08-3.08-1.08a1.76,1.76,0,0,0-1.91,1.44c0,.44,1,2.5,5.17,2.5,1.05,0,6.16-.55,6.16-5.44S185.15,345.7,183.33,345.7Z" transform="translate(-5.28 -144.43)"/></g><g id="Socialistes"><path class="cls-1" d="M174,244.85a19.28,19.28,0,0,0,10.69,3.31c6.28,0,6.79-2.85,6.79-4.68,0-6.06-18.89-8.28-18.89-20.34s11.18-11.65,14.84-11.65,11.48,2.12,11.48,2.12v8.62s-6.74-2.86-10.74-2.86-5.65,2.75-5.65,3.95c0,7.48,18.39,6.85,18.39,20.39S188,256.62,186.13,256.62s-12-3-12-3Z" transform="translate(-5.28 -144.43)"/><path class="cls-1" d="M218.63,221.72c-14.08,0-14.08,7.82-14.08,17.48s0,17.47,14.08,17.47,14.08-7.82,14.08-17.47S232.71,221.72,218.63,221.72Zm0,27.36c-5.54,0-5.54-4.43-5.54-9.88s0-9.89,5.54-9.89,5.54,4.43,5.54,9.89S224.17,249.08,218.63,249.08Z" transform="translate(-5.28 -144.43)"/><path class="cls-1" d="M260.39,223.72s-1.7,6.35-2.77,6.35-2.66-.76-6-.76-5.83.67-5.83,9.16.78,10.61,6.86,10.61h6.55v6.14s-.81,1.4-7.88,1.4-15-.12-15-17.68,8.7-17.22,15.08-17.22S259.51,223.19,260.39,223.72Z" transform="translate(-5.28 -144.43)"/><circle class="cls-1" cx="263.68" cy="70.48" r="4.54"/><path class="cls-1" d="M268.71,222.32c4.78,0,4.78,1,4.78,1v32.3s-.45,1-4.78,1-4.3-.59-4.3-.59V223S264.43,222.32,268.71,222.32Z" transform="translate(-5.28 -144.43)"/><path class="cls-1" d="M304.48,249v-22.5a20.57,20.57,0,0,0-12.34-4.14c-7.42,0-10.91,1.28-12.05,1.85s1.26,7.09,1.26,7.09c2.14.2,5.95-1.79,9.77-1.79s4.07,1,4.07,1v4.11c-11.44,0-17.4,2.1-17.4,10.79s4.67,11.49,10.84,11.49,7.63-2.75,7.63-2.75a8.32,8.32,0,0,0,11.25,1V249Zm-9.29-2.31S294.8,249,291,249s-4-1.46-4-4.07,1.24-3.17,3.86-3.17h4.37Z" transform="translate(-5.28 -144.43)"/><path class="cls-1" d="M320.33,249V209.6s0-1.33-4.78-1.33c-4.29,0-4.3,1-4.3,1V254s.28,2.43,7,2.43c5.83,0,5.83-1.63,5.83-1.63V249Z" transform="translate(-5.28 -144.43)"/><circle class="cls-1" cx="327.57" cy="70.48" r="4.54"/><path class="cls-1" d="M332.6,222.32c4.79,0,4.79,1,4.79,1v32.3s-.46,1-4.79,1-4.3-.59-4.3-.59V223S328.32,222.32,332.6,222.32Z" transform="translate(-5.28 -144.43)"/><path class="cls-1" d="M355,221.66c7.31,0,10.17,2.46,10.17,2.46s-.8,7.14-2.51,6.39a18.49,18.49,0,0,0-7.09-1.2c-2.91,0-5,.57-5,2.57s3,3.6,6.57,3.6,9.37,2.5,9.37,9.91-3.54,11.23-12.85,11.23-11.08-1-11.08-5.14,1.25-3.55,1.25-3.55a62,62,0,0,0,8.06.69c3.65,0,6.57-.34,6.57-1.94s-3.09-3.89-7.49-3.89-8.91-2.17-8.91-10.45S346.92,221.66,355,221.66Z" transform="translate(-5.28 -144.43)"/><path class="cls-1" d="M380.51,217.15v5.17h7.25v7.05s0,1.14-7.25,1.14v17.31h7.25l.75,3.67a15.15,15.15,0,0,1,.22,2.61c0,1.49-.68,2.52-7.54,2.52s-9-3.77-9-6.63V230.46a10,10,0,0,1-3-4.74c3.87-5.59,6.11-8.57,6.11-8.57Z" transform="translate(-5.28 -144.43)"/><path class="cls-1" d="M412.27,247.88a21.06,21.06,0,0,1-6.86.74c-3.14,0-6.23-1.31-6.23-5.83h8.12s8.85-.17,8.85-10.33-7.55-10.8-12.71-10.8-13.05-.22-13.05,17.48c0,13.68,6.05,17.48,14.11,17.48s10.85-1.43,10.85-3.54S414.26,247.25,412.27,247.88Zm-9.14-18.51c3.82,0,4.17.4,4.17,3.26a3,3,0,0,1-2.86,3h-4.86S399.3,229.37,403.13,229.37Zm-12.74,9.77c0,15.13,6.05,17.48,14.11,17.48" transform="translate(-5.28 -144.43)"/><path class="cls-1" d="M431.79,221.66c7.32,0,10.17,2.46,10.17,2.46s-.8,7.14-2.51,6.39a18.47,18.47,0,0,0-7.08-1.2c-2.92,0-5,.57-5,2.57s3,3.6,6.56,3.6,9.37,2.5,9.37,9.91-3.54,11.23-12.85,11.23-11.08-1-11.08-5.14,1.26-3.55,1.26-3.55a61.71,61.71,0,0,0,8,.69c3.66,0,6.57-.34,6.57-1.94s-3.09-3.89-7.48-3.89-8.91-2.17-8.91-10.45S423.68,221.66,431.79,221.66Z" transform="translate(-5.28 -144.43)"/><path class="cls-1" d="M230.87,306.68v-22.5A20.54,20.54,0,0,0,218.53,280c-7.43,0-10.91,1.29-12.05,1.86s1.25,7.08,1.25,7.08c2.15.2,6-1.78,9.77-1.78s4.07,1,4.07,1v4.12c-11.44,0-17.39,2.1-17.39,10.79s4.67,11.49,10.84,11.49,7.62-2.75,7.62-2.75a8.33,8.33,0,0,0,11.26,1v-6.11Zm-9.3-2.31s-.38,2.35-4.2,2.35-4-1.45-4-4.07,1.24-3.17,3.85-3.17h4.37Z" transform="translate(-5.28 -144.43)"/><path class="cls-1" d="M256.76,280c-4.46,0-8.91,3.63-8.91,3.63V280h-9v42.79h9v-8.25h8.05s11,.11,11-19.77C266.87,280,261.21,280,256.76,280Zm-4.24,26.69a39.59,39.59,0,0,1-4.76-.16V294.2s2.57-6.25,7.37-6.25c1.89,0,2.14,2.91,2.14,8.48S256.24,306.72,252.52,306.72Z" transform="translate(-5.28 -144.43)"/><path class="cls-1" d="M289.83,280c-4.46,0-8.91,3.63-8.91,3.63V280h-9v42.79h9v-8.25H289s11,.11,11-19.77C299.94,280,294.29,280,289.83,280Zm-4.24,26.69a39.59,39.59,0,0,1-4.76-.16V294.2S283.4,288,288.2,288c1.89,0,2.14,2.91,2.14,8.48S289.32,306.72,285.59,306.72Z" transform="translate(-5.28 -144.43)"/><path class="cls-1" d="M329.49,306.68v-22.5A20.58,20.58,0,0,0,317.15,280c-7.43,0-10.91,1.29-12,1.86s1.25,7.08,1.25,7.08c2.14.2,6-1.78,9.77-1.78s4.07,1,4.07,1v4.12c-11.44,0-17.39,2.1-17.39,10.79s4.67,11.49,10.83,11.49,7.63-2.75,7.63-2.75a8.32,8.32,0,0,0,11.25,1v-6.11Zm-9.3-2.31s-.39,2.35-4.2,2.35-4-1.45-4-4.07,1.25-3.17,3.86-3.17h4.37Z" transform="translate(-5.28 -144.43)"/><path class="cls-1" d="M353.79,280a10.11,10.11,0,0,0-7.84,4.06V281s0-1-4.78-1c-4.29,0-4.3.73-4.3.73v33s0,.59,4.3.59,4.78-1,4.78-1v-19c1.79-2.23,5.76-5.3,7.84-5.3,2.48,0,3.17-.73,3.17-4.88S356.7,280,353.79,280Z" transform="translate(-5.28 -144.43)"/><path class="cls-1" d="M380.27,306.08a21.31,21.31,0,0,1-6.85.73c-3.14,0-6.23-1.31-6.23-5.82h8.11s8.86-.17,8.86-10.34-7.55-10.8-12.72-10.8-13-.22-13,17.48c0,13.68,6.05,17.49,14.1,17.49s10.86-1.44,10.86-3.55S382.27,305.45,380.27,306.08Zm-9.14-18.51c3.83,0,4.17.4,4.17,3.25a3,3,0,0,1-2.85,3h-4.86S367.31,287.57,371.13,287.57Zm-12.73,9.76c0,15.14,6.05,17.49,14.1,17.49" transform="translate(-5.28 -144.43)"/><path class="cls-1" d="M464.34,306.08a21.37,21.37,0,0,1-6.86.73c-3.14,0-6.23-1.31-6.23-5.82h8.12s8.85-.17,8.85-10.34-7.55-10.8-12.71-10.8-13.05-.22-13.05,17.48c0,13.68,6.05,17.49,14.11,17.49s10.85-1.44,10.85-3.55S466.33,305.45,464.34,306.08Zm-9.14-18.51c3.82,0,4.17.4,4.17,3.25a3,3,0,0,1-2.86,3h-4.86S451.37,287.57,455.2,287.57Zm-12.74,9.76c0,15.14,6.05,17.49,14.11,17.49" transform="translate(-5.28 -144.43)"/><path class="cls-1" d="M416.15,306.6V283s-3.6-4.77-11.65-2.9h-.05a10.43,10.43,0,0,0-6.64,4V281s0-1-4.78-1c-4.28,0-4.3.73-4.3.73v33s0,.59,4.3.59,4.78-1,4.78-1v-19c1.79-2.23,5.76-5.3,7.84-5.3a4.54,4.54,0,0,0,1.7-.24v23.09s.16,2.08,6.29,2.08c4.91,0,5.39-.47,5.6-4.19A3.08,3.08,0,0,0,416.15,306.6Z" transform="translate(-5.28 -144.43)"/><path class="cls-1" d="M432.65,275.34v5.17h7.26v7.06s0,1.14-7.26,1.14V306h7.26l.74,3.67a14.56,14.56,0,0,1,.23,2.62c0,1.48-.69,2.52-7.54,2.52s-9-3.78-9-6.63V288.65a10,10,0,0,1-3-4.74c3.87-5.58,6.11-8.57,6.11-8.57Z" transform="translate(-5.28 -144.43)"/><path class="cls-1" d="M483.91,279.38c7.31,0,10.16,2.45,10.16,2.45s-.8,7.14-2.51,6.4a18.43,18.43,0,0,0-7.08-1.2c-2.92,0-5,.57-5,2.57s3,3.6,6.57,3.6,9.36,2.5,9.36,9.9-3.54,11.24-12.85,11.24-11.08-1-11.08-5.15,1.26-3.54,1.26-3.54a61.92,61.92,0,0,0,8.05.69c3.66,0,6.57-.35,6.57-1.94s-3.08-3.89-7.48-3.89S471,298.34,471,290.06,475.8,279.38,483.91,279.38Z" transform="translate(-5.28 -144.43)"/><polygon class="cls-1" points="441.94 128.26 445.8 132.93 458.35 125.61 452.44 118.79 441.94 128.26"/><path class="cls-3" d="M185.11,303.52s4.3-8.59,4.3-12.57-3.85-3.9-5.95-3.9-6,1.24-6,4.45,2.91,3.26,2.18,4.24-.71.92-6.68-5.05c0,0,6.34-4.8,6.34-11.35s-4.89-9.81-10.71-9.81-10.88,3.47-10.88,9.63a15.62,15.62,0,0,0,3.38,9.9s-6.81,5.66-6.81,13.58,3.64,12.17,12.77,12.17,11.65-4.76,11.65-4.76l5.4,5.74,6.61-6.62Zm-16.46-25.8s2.14.34,2.14,2.23-1.74,3.71-2.59,3.71-1.55-2.48-1.55-4A1.8,1.8,0,0,1,168.65,277.72Zm-4.08,27c-4.31-4.31,1.45-8.34,1.45-8.34l6.94,7.82S168.88,309.08,164.57,304.77Z" transform="translate(-5.28 -144.43)"/></g><g id="Logo"><path class="cls-1" d="M129.87,218s14.74,9.59,17.13,20.39l6.17,3.34S156.86,218,129.87,218Z" transform="translate(-5.28 -144.43)"/><path class="cls-1" d="M97.82,214.26s3.69-13.11,17.4-13.11,16.19,9.34,16.19,9.34l-10.28,2.23S111.79,202.44,97.82,214.26Z" transform="translate(-5.28 -144.43)"/><path class="cls-1" d="M107.42,216.4v9.77s-5-5-5.14-6.6S107.42,216.4,107.42,216.4Z" transform="translate(-5.28 -144.43)"/><path class="cls-1" d="M114.36,216.4v11.06s6-3.52,7.54-5.53C121.9,220.69,114.36,216.4,114.36,216.4Z" transform="translate(-5.28 -144.43)"/><path class="cls-1" d="M92.34,217.26s-16,9.25-19.45,26.9C71.52,242.54,65.52,217.26,92.34,217.26Z" transform="translate(-5.28 -144.43)"/><path class="cls-1" d="M128.1,226.69s-3.89,10.33-8.8,14.5h9.48S130.38,233.25,128.1,226.69Z" transform="translate(-5.28 -144.43)"/><path class="cls-1" d="M96.4,223.26l-4.06,2.91s11,13.23,18.39,13.3c1.6-.27,6.17-5.87,6.17-5.87S103.25,237.31,96.4,223.26Z" transform="translate(-5.28 -144.43)"/><path class="cls-1" d="M91,234.74s9.85,13.77,33.28,13.77C124.31,248.51,94.43,274.49,91,234.74Z" transform="translate(-5.28 -144.43)"/><path class="cls-3" d="M71.78,249.48s-2,21.59,17.39,34.7H73C66,284.18,52.07,261.21,71.78,249.48Z" transform="translate(-5.28 -144.43)"/><path class="cls-1" d="M136.29,232.86s.78,29.73-30.24,30.07c0,0,7.2,7.28,21.33,7.28C149.49,270.21,143.75,243.48,136.29,232.86Z" transform="translate(-5.28 -144.43)"/><path class="cls-1" d="M84.12,234.74s1.48,43.47,47.29,42.5C103.08,297.74,64.47,266.83,84.12,234.74Z" transform="translate(-5.28 -144.43)"/><path class="cls-3" d="M91.86,332.73c-34.91-8.66-61-41.77-61-81.2,0-46,35.48-83.42,79.09-83.42a75,75,0,0,1,23.33,3.71l2.05-8a83.09,83.09,0,0,0-25.38-4c-48.15,0-87.32,41.11-87.32,91.64,0,43.26,28.7,79.6,67.16,89.18Z" transform="translate(-5.28 -144.43)"/><path class="cls-1" d="M87.86,348.25C45.33,338.17,13.5,298.71,13.5,251.7c0-54.61,43-99,95.78-99a92.72,92.72,0,0,1,27.84,4.27l2-8a100.67,100.67,0,0,0-29.89-4.53c-57.35,0-104,48.13-104,107.27,0,50.83,34.45,93.52,80.53,104.52Z" transform="translate(-5.28 -144.43)"/><path class="cls-2" d="M96.35,315.27c-27.61-6.57-48.3-32.64-48.3-63.74,0-36,27.78-65.34,61.91-65.34a58.63,58.63,0,0,1,18.83,3.1l2.06-8A67,67,0,0,0,110,178c-38.67,0-70.13,33-70.13,73.57,0,34.92,23.32,64.22,54.47,71.7Z" transform="translate(-5.28 -144.43)"/></g></svg>