<?xml version="1.0" encoding="UTF-8"?>
<svg id="Layer_1" data-name="Layer 1" xmlns="http://www.w3.org/2000/svg" xmlns:xlink="http://www.w3.org/1999/xlink" viewBox="0 0 1100 250">
  <defs>
    <style>
      .cls-1 {
        fill: url(#linear-gradient-2);
      }

      .cls-2 {
        fill: #e50040;
      }

      .cls-3 {
        fill: url(#linear-gradient);
      }
    </style>
    <linearGradient id="linear-gradient" x1="550" y1="377.02" x2="550" y2="38.02" gradientTransform="translate(0 252) scale(1 -1)" gradientUnits="userSpaceOnUse">
      <stop offset=".62" stop-color="#e50040"/>
      <stop offset="1" stop-color="#bd0035"/>
    </linearGradient>
    <linearGradient id="linear-gradient-2" x1="550" y1="165.17" x2="550" y2="17.42" gradientTransform="translate(0 252) scale(1 -1)" gradientUnits="userSpaceOnUse">
      <stop offset=".91" stop-color="#e50040"/>
      <stop offset="1" stop-color="#bd0035"/>
    </linearGradient>
  </defs>
  <g>
    <path class="cls-3" d="m58.7,155.23c-14.59,0-26.56-3.44-35.93-10.32-9.37-7-14.41-16.96-15.12-29.88h37.18c.36,4.39,1.66,7.59,3.91,9.61,2.25,2.02,5.16,3.02,8.72,3.02,3.2,0,5.81-.77,7.83-2.31,2.13-1.66,3.2-3.91,3.2-6.76,0-3.68-1.72-6.52-5.16-8.54-3.44-2.02-9.01-4.27-16.72-6.76-8.18-2.73-14.82-5.34-19.92-7.83-4.98-2.61-9.37-6.35-13.16-11.21-3.68-4.98-5.51-11.44-5.51-19.39s2.02-14.94,6.05-20.63c4.03-5.81,9.61-10.2,16.72-13.16,7.12-2.96,15.18-4.45,24.19-4.45,14.59,0,26.21,3.44,34.87,10.32,8.78,6.76,13.46,16.31,14.05,28.64h-37.89c-.12-3.79-1.3-6.64-3.56-8.54-2.13-1.9-4.92-2.85-8.36-2.85-2.61,0-4.74.77-6.4,2.31-1.66,1.54-2.49,3.74-2.49,6.58,0,2.37.89,4.45,2.67,6.23,1.9,1.66,4.21,3.14,6.94,4.45,2.73,1.18,6.76,2.73,12.1,4.62,7.95,2.73,14.47,5.46,19.57,8.18,5.22,2.61,9.67,6.35,13.34,11.21,3.8,4.74,5.69,10.79,5.69,18.14s-1.9,14.17-5.69,20.1c-3.68,5.93-9.07,10.61-16.19,14.05-7,3.44-15.3,5.16-24.9,5.16Zm196.95-64.22c0-12.33,2.55-23.3,7.65-32.91,5.22-9.73,12.57-17.26,22.06-22.59,9.49-5.45,20.4-8.18,32.73-8.18,15.65,0,28.82,4.21,39.49,12.63,10.67,8.3,17.55,19.63,20.63,33.98h-37.53c-2.25-4.74-5.4-8.36-9.43-10.85-3.91-2.49-8.48-3.74-13.7-3.74-8.06,0-14.53,2.9-19.39,8.72-4.74,5.69-7.12,13.34-7.12,22.95s2.37,17.49,7.12,23.3c4.86,5.69,11.33,8.54,19.39,8.54,5.22,0,9.78-1.25,13.7-3.74,4.03-2.49,7.17-6.11,9.43-10.85h37.53c-3.08,14.35-9.96,25.74-20.63,34.15-10.67,8.3-23.84,12.45-39.49,12.45-12.33,0-23.24-2.67-32.73-8-9.49-5.46-16.84-12.99-22.06-22.59-5.1-9.72-7.65-20.81-7.65-33.27Zm168.6-62.44v125.41h-34.86V28.57h34.86Zm93.86,104.95h-44.47l-6.76,20.46h-36.64l45.72-125.41h40.2l45.54,125.41h-36.82l-6.76-20.46Zm-8.72-26.68l-13.52-40.56-13.34,40.56h26.86Zm93.19,20.46h38.96v26.68h-73.82V28.57h34.87v98.73Zm82.04-98.73v125.41h-34.87V28.57h34.87Zm61.84,126.65c-14.59,0-26.56-3.44-35.93-10.32-9.37-7-14.41-16.96-15.12-29.88h37.18c.35,4.39,1.66,7.59,3.91,9.61,2.25,2.02,5.16,3.02,8.72,3.02,3.2,0,5.81-.77,7.83-2.31,2.13-1.66,3.2-3.91,3.2-6.76,0-3.68-1.72-6.52-5.16-8.54-3.44-2.02-9.01-4.27-16.72-6.76-8.18-2.73-14.82-5.34-19.92-7.83-4.98-2.61-9.37-6.35-13.16-11.21-3.68-4.98-5.51-11.44-5.51-19.39s2.02-14.94,6.05-20.63c4.03-5.81,9.61-10.2,16.72-13.16,7.11-2.96,15.18-4.45,24.19-4.45,14.59,0,26.21,3.44,34.87,10.32,8.77,6.76,13.46,16.31,14.05,28.64h-37.89c-.12-3.79-1.3-6.64-3.56-8.54-2.13-1.9-4.92-2.85-8.36-2.85-2.61,0-4.74.77-6.4,2.31-1.66,1.54-2.49,3.74-2.49,6.58,0,2.37.89,4.45,2.67,6.23,1.9,1.66,4.21,3.14,6.94,4.45,2.73,1.18,6.76,2.73,12.1,4.62,7.95,2.73,14.47,5.46,19.57,8.18,5.22,2.61,9.66,6.35,13.34,11.21,3.79,4.74,5.69,10.79,5.69,18.14s-1.9,14.17-5.69,20.1c-3.68,5.93-9.07,10.61-16.19,14.05-7,3.44-15.3,5.16-24.9,5.16Zm152.11-126.65v27.75h-33.44v97.66h-34.86V56.32h-33.09v-27.75h101.4Zm42.43,27.93v20.46h40.03v26.51h-40.03v22.59h45.36v27.93h-80.23V28.57h80.23v27.93h-45.36Zm104.57,98.73c-14.59,0-26.57-3.44-35.93-10.32-9.37-7-14.41-16.96-15.12-29.88h37.17c.36,4.39,1.66,7.59,3.92,9.61,2.25,2.02,5.16,3.02,8.71,3.02,3.21,0,5.81-.77,7.83-2.31,2.14-1.66,3.2-3.91,3.2-6.76,0-3.68-1.72-6.52-5.16-8.54-3.44-2.02-9.01-4.27-16.72-6.76-8.18-2.73-14.82-5.34-19.92-7.83-4.98-2.61-9.37-6.35-13.16-11.21-3.68-4.98-5.51-11.44-5.51-19.39s2.02-14.94,6.05-20.63c4.03-5.81,9.61-10.2,16.72-13.16,7.12-2.96,15.18-4.45,24.19-4.45,14.59,0,26.21,3.44,34.87,10.32,8.77,6.76,13.46,16.31,14.05,28.64h-37.89c-.12-3.79-1.3-6.64-3.56-8.54-2.13-1.9-4.92-2.85-8.36-2.85-2.61,0-4.74.77-6.4,2.31-1.66,1.54-2.49,3.74-2.49,6.58,0,2.37.89,4.45,2.67,6.23,1.9,1.66,4.21,3.14,6.94,4.45,2.72,1.18,6.76,2.73,12.09,4.62,7.95,2.73,14.47,5.46,19.57,8.18,5.22,2.61,9.66,6.35,13.34,11.21,3.8,4.74,5.69,10.79,5.69,18.14s-1.89,14.17-5.69,20.1c-3.68,5.93-9.07,10.61-16.19,14.05-6.99,3.44-15.3,5.16-24.9,5.16Z"/>
    <g>
      <path class="cls-2" d="m137.51,102.3c.06,13.12,5.32,24.92,13.98,33.6,8.65,8.62,20.51,13.95,33.66,13.95,11.54,0,21.93-4.06,30.19-10.71-1.79.06-3.53.19-5.32.19-35.19,0-63.79-27.77-65.07-62.57-4.68,7.42-7.37,16.1-7.44,25.55Z"/>
      <path class="cls-2" d="m155.22,77.12c.45,10.21,3.72,19.65,9.17,27.64,4.62,2.47,9.87,3.87,15.58,3.87,9.17,0,17.37-3.74,23.46-9.76.64-.57,1.15-1.21,1.79-1.84h-2.44c-18.65,0-35.45-7.61-47.57-19.91Z"/>
      <path class="cls-2" d="m211.36,86.22c1.22-3.42,1.79-7.04,1.79-10.84s-.64-7.67-1.92-11.16c-3.08,8.31-7.57,15.91-13.46,22.38,1.6.13,3.33.25,4.94.25,3.01,0,5.9-.19,8.65-.63Z"/>
      <path class="cls-2" d="m190.54,50.05l-.26,15.22c5.13-.76,9.49-3.93,11.8-8.43-3.98-2.47-8.14-5.01-11.54-6.78Z"/>
      <path class="cls-2" d="m179.97,118.73c-.77,0-1.47-.06-2.12-.06,9.04,6.59,20.13,10.46,32.25,10.46,5.51,0,11.03-.82,15.96-2.41,4.29-7.1,6.86-15.47,6.86-24.41,0-10.65-3.53-20.54-9.49-28.4v1.46c0,5.83-1.15,11.35-3.14,16.36-.19.63-.45,1.27-.77,1.77-7.05,14.9-22.12,25.23-39.55,25.23Z"/>
      <path class="cls-2" d="m172.65,54.1c1.28,3.93,3.91,7.23,7.44,9.26l.32-13.63c-1.86.89-3.97,2.16-6.22,3.42-.51.32-.96.63-1.54.95Z"/>
      <path class="cls-2" d="m128.18,90.58l.26.7c2.56-13.19,9.62-24.79,19.49-33.03l.38-.25s4.17-2.92,9.75-6.59c-.13-.06-.26-.13-.45-.25-1.47-.25-3.01-.38-4.62-.38-15.38.06-27.63,12.36-27.63,27.64,0,4.31.96,8.37,2.69,12.05l.13.13Z"/>
      <path class="cls-2" d="m131,150.62h22.63c-15.83-10.27-26.35-28.09-26.35-48.31,0-1.78.13-3.42.26-5.14-.32.38-.77.7-1.15.95-8.97,4.95-15,14.39-15,25.23.13,12.62,8.21,23.39,19.62,27.26Z"/>
      <path class="cls-2" d="m185.83,84.29c3.08-2.79,5.9-5.96,8.4-9.38-2.05.51-4.17.76-6.35.76-10.83,0-20.19-6.53-24.1-15.98-1.99,1.33-3.85,2.6-5.32,3.61-.45.25-.71.44-1.09.7,7.05,9.51,16.92,16.67,28.46,20.29Z"/>
      <path class="cls-2" d="m213.12,51.78c5.19,3.42,9.04,6.15,9.04,6.15l.32.25c7.82,6.53,13.78,15.09,17.31,24.79l.13-.44c3.27,1.27,6.28,3.04,9.04,5.07.19-1.4.26-2.85.26-4.44,0-8.75-3.59-16.67-9.29-22.44-5.77-5.71-13.72-9.32-22.5-9.32-1.47,0-2.88.13-4.29.32v.06Z"/>
      <path class="cls-2" d="m185.2,37.59c2.12.06,3.46.57,5.19,1.21,1.67.7,3.4,1.52,5.32,2.47,1.79.95,3.78,2.09,5.71,3.17,4.68-1.84,9.68-2.98,15-3.11-4.81-8.56-13.85-14.33-24.23-14.33-12.44,0-23.01,8.24-26.41,19.46,5-3.17,10.13-6.09,14.29-7.67,1.67-.63,3.14-1.14,5.13-1.21Z"/>
    </g>
  </g>
  <path class="cls-1" d="m46.71,203.8l-6.13-16.76c-.3-.74-.62-1.63-.94-2.65-.33-1.02-.65-2.12-.98-3.31-.3,1.18-.62,2.3-.94,3.35-.33,1.02-.64,1.92-.94,2.68l-6.1,16.69h16.03Zm16.55,19.03h-7.25c-.81,0-1.48-.2-1.99-.59-.51-.42-.89-.93-1.15-1.53l-3.76-10.28h-20.87l-3.76,10.28c-.19.53-.55,1.02-1.08,1.46-.53.44-1.2.66-1.99.66h-7.32l19.83-50.39h9.55l19.79,50.39Zm47.03-41.22c-.28.49-.58.85-.91,1.08-.3.21-.68.31-1.15.31-.49,0-1.02-.17-1.6-.52-.56-.37-1.23-.78-2.02-1.22-.79-.44-1.72-.84-2.79-1.18-1.05-.37-2.29-.56-3.73-.56-1.3,0-2.44.16-3.42.49-.98.3-1.8.73-2.47,1.29-.65.56-1.14,1.23-1.46,2.02-.33.77-.49,1.62-.49,2.54,0,1.18.33,2.17.98,2.96.67.79,1.56,1.46,2.65,2.02,1.09.56,2.33,1.06,3.73,1.5,1.39.44,2.82.92,4.29,1.43,1.46.49,2.89,1.07,4.29,1.74,1.39.65,2.64,1.49,3.73,2.51,1.09,1,1.96,2.23,2.61,3.69.68,1.46,1.01,3.24,1.01,5.33,0,2.28-.39,4.41-1.18,6.41-.77,1.98-1.91,3.71-3.42,5.19-1.49,1.46-3.31,2.62-5.47,3.48-2.16.84-4.63,1.25-7.42,1.25-1.6,0-3.18-.16-4.74-.49-1.56-.3-3.05-.74-4.5-1.32-1.42-.58-2.75-1.28-4.01-2.09-1.25-.81-2.37-1.72-3.35-2.72l2.75-4.49c.23-.32.53-.59.91-.8.37-.23.77-.35,1.18-.35.58,0,1.21.24,1.88.73.67.46,1.48.99,2.4,1.57.93.58,2.01,1.12,3.24,1.6,1.25.47,2.75.7,4.5.7,2.67,0,4.74-.63,6.2-1.88,1.46-1.28,2.2-3.1,2.2-5.47,0-1.32-.34-2.4-1.01-3.24-.65-.84-1.52-1.53-2.61-2.09-1.09-.58-2.33-1.07-3.73-1.46-1.39-.39-2.81-.83-4.25-1.29-1.44-.46-2.86-1.02-4.25-1.67-1.39-.65-2.64-1.5-3.73-2.54-1.09-1.04-1.97-2.35-2.65-3.9-.65-1.58-.98-3.52-.98-5.82,0-1.83.36-3.62,1.08-5.37.74-1.74,1.81-3.29,3.21-4.63,1.39-1.35,3.11-2.43,5.16-3.24,2.04-.81,4.39-1.22,7.04-1.22,2.97,0,5.71.46,8.22,1.39,2.51.93,4.65,2.23,6.41,3.9l-2.33,4.43Zm53.23,0c-.28.49-.58.85-.9,1.08-.3.21-.69.31-1.15.31s-1.02-.17-1.6-.52c-.56-.37-1.23-.78-2.02-1.22-.79-.44-1.72-.84-2.79-1.18-1.05-.37-2.29-.56-3.73-.56-1.3,0-2.44.16-3.41.49-.98.3-1.8.73-2.47,1.29-.65.56-1.14,1.23-1.46,2.02-.33.77-.49,1.62-.49,2.54,0,1.18.33,2.17.98,2.96.67.79,1.56,1.46,2.65,2.02,1.09.56,2.33,1.06,3.73,1.5,1.39.44,2.82.92,4.29,1.43,1.46.49,2.89,1.07,4.28,1.74,1.39.65,2.64,1.49,3.73,2.51,1.09,1,1.96,2.23,2.61,3.69.67,1.46,1.01,3.24,1.01,5.33,0,2.28-.4,4.41-1.19,6.41-.77,1.98-1.9,3.71-3.41,5.19-1.49,1.46-3.31,2.62-5.47,3.48-2.16.84-4.63,1.25-7.42,1.25-1.6,0-3.18-.16-4.74-.49-1.56-.3-3.06-.74-4.5-1.32-1.42-.58-2.75-1.28-4.01-2.09-1.25-.81-2.37-1.72-3.35-2.72l2.75-4.49c.23-.32.54-.59.91-.8.37-.23.77-.35,1.19-.35.58,0,1.21.24,1.88.73.68.46,1.48.99,2.4,1.57.93.58,2.01,1.12,3.24,1.6,1.25.47,2.75.7,4.5.7,2.67,0,4.74-.63,6.2-1.88,1.46-1.28,2.2-3.1,2.2-5.47,0-1.32-.34-2.4-1.01-3.24-.65-.84-1.52-1.53-2.61-2.09-1.09-.58-2.33-1.07-3.73-1.46-1.39-.39-2.81-.83-4.25-1.29-1.44-.46-2.86-1.02-4.25-1.67-1.39-.65-2.63-1.5-3.73-2.54-1.09-1.04-1.98-2.35-2.65-3.9-.65-1.58-.97-3.52-.97-5.82,0-1.83.36-3.62,1.08-5.37.74-1.74,1.81-3.29,3.21-4.63,1.39-1.35,3.11-2.43,5.16-3.24,2.04-.81,4.39-1.22,7.04-1.22,2.97,0,5.71.46,8.22,1.39,2.51.93,4.65,2.23,6.41,3.9l-2.34,4.43Zm35.81-1.71v13.97h17.63v7.21h-17.63v14.25h22.37v7.49h-31.78v-50.39h31.78v7.46h-22.37Zm100.3-7.46v50.39h-8.26v-32.55c0-1.3.07-2.71.21-4.22l-15.23,28.61c-.72,1.37-1.82,2.06-3.31,2.06h-1.32c-1.49,0-2.59-.69-3.31-2.06l-15.4-28.71c.07.77.13,1.52.18,2.26.05.74.07,1.43.07,2.06v32.55h-8.26v-50.39h7.08c.42,0,.78.01,1.08.04.3.02.57.08.8.17.26.09.48.24.66.45.21.21.41.49.59.84l15.09,27.98c.4.74.76,1.51,1.08,2.3.35.79.68,1.6,1.01,2.44.33-.86.66-1.68,1.01-2.47.35-.81.72-1.59,1.11-2.34l14.88-27.91c.19-.35.38-.63.59-.84.21-.21.43-.36.66-.45.26-.09.53-.15.84-.17.3-.02.66-.04,1.08-.04h7.07Zm45.08,43.07c1.74,0,3.21-.21,4.39-.63,1.18-.42,2.13-.98,2.82-1.67.72-.7,1.23-1.51,1.53-2.44.33-.93.49-1.92.49-2.96s-.17-2.07-.52-2.93c-.35-.88-.89-1.63-1.64-2.23-.74-.63-1.71-1.1-2.89-1.43-1.16-.33-2.57-.49-4.22-.49h-9.44v14.77h9.48Zm-9.48-35.82v14.57h7.46c3.21,0,5.62-.58,7.25-1.74,1.65-1.16,2.47-3.01,2.47-5.54s-.74-4.49-2.23-5.61c-1.49-1.11-3.81-1.67-6.97-1.67h-7.98Zm7.98-7.25c3.3,0,6.12.31,8.47.94,2.35.63,4.26,1.52,5.75,2.68,1.51,1.16,2.61,2.57,3.31,4.22.7,1.65,1.05,3.51,1.05,5.57,0,1.18-.17,2.32-.52,3.42-.35,1.07-.89,2.08-1.64,3.03-.72.93-1.65,1.78-2.79,2.54-1.11.77-2.45,1.42-4.01,1.95,6.92,1.56,10.38,5.3,10.38,11.22,0,2.14-.41,4.11-1.22,5.92-.81,1.81-2,3.38-3.55,4.7-1.56,1.3-3.47,2.32-5.75,3.07-2.28.74-4.88,1.11-7.81,1.11h-19.03v-50.39h17.35Zm73.02,42.65v7.74h-29.52v-50.39h9.37v42.65h20.14Zm31.08-35.2v13.97h17.63v7.21h-17.63v14.25h22.37v7.49h-31.78v-50.39h31.78v7.46h-22.37Zm21.64-21.92l-11.29,9.97c-.46.42-.91.67-1.32.77-.42.09-.95.14-1.6.14h-6.24l7.28-9.44c.23-.32.46-.58.7-.77.23-.21.49-.36.77-.45.28-.09.58-.15.91-.17.35-.02.76-.04,1.22-.04h9.58Zm33.43,21.92v13.97h17.63v7.21h-17.63v14.25h22.37v7.49h-31.78v-50.39h31.78v7.46h-22.37Zm120.07-7.46v50.39h-4.81c-.74,0-1.37-.12-1.88-.35-.49-.25-.96-.67-1.43-1.25l-26.31-33.59c.14,1.53.21,2.95.21,4.25v30.94h-8.26v-50.39h4.91c.4,0,.73.02,1.01.07.3.02.56.09.77.21.23.09.45.24.66.45.21.19.44.44.7.77l26.41,33.73c-.07-.81-.13-1.61-.17-2.4-.05-.79-.07-1.52-.07-2.2v-30.63h8.26Zm52.83,31.36l-6.13-16.76c-.3-.74-.62-1.63-.94-2.65-.33-1.02-.65-2.12-.98-3.31-.3,1.18-.61,2.3-.94,3.35-.33,1.02-.64,1.92-.94,2.68l-6.1,16.69h16.03Zm16.55,19.03h-7.25c-.81,0-1.47-.2-1.98-.59-.51-.42-.9-.93-1.15-1.53l-3.76-10.28h-20.87l-3.77,10.28c-.18.53-.54,1.02-1.08,1.46-.53.44-1.2.66-1.99.66h-7.32l19.83-50.39h9.55l19.79,50.39Zm50.49-42.69h-15.19v42.69h-9.38v-42.69h-15.19v-7.7h39.76v7.7Zm30.99,42.69h-9.41v-50.39h9.41v50.39Zm74.32-25.19c0,3.69-.62,7.12-1.85,10.28-1.21,3.14-2.93,5.85-5.16,8.15-2.23,2.3-4.91,4.1-8.05,5.4-3.14,1.28-6.62,1.92-10.45,1.92s-7.28-.64-10.42-1.92c-3.14-1.3-5.83-3.1-8.08-5.4-2.23-2.3-3.96-5.02-5.19-8.15-1.23-3.16-1.85-6.59-1.85-10.28s.62-7.11,1.85-10.24c1.23-3.16,2.96-5.89,5.19-8.19,2.25-2.3,4.95-4.09,8.08-5.37,3.14-1.3,6.61-1.95,10.42-1.95,2.55,0,4.96.3,7.21.91,2.25.58,4.32,1.42,6.2,2.51,1.88,1.07,3.57,2.38,5.05,3.94,1.51,1.53,2.79,3.25,3.83,5.16,1.04,1.9,1.83,3.97,2.37,6.2.56,2.23.84,4.58.84,7.04Zm-9.58,0c0-2.76-.37-5.24-1.11-7.42-.74-2.21-1.8-4.08-3.17-5.61-1.37-1.53-3.04-2.71-5.02-3.52-1.95-.81-4.16-1.22-6.62-1.22s-4.68.41-6.66,1.22c-1.95.81-3.62,1.99-5.02,3.52-1.37,1.53-2.43,3.4-3.17,5.61-.74,2.18-1.11,4.66-1.11,7.42s.37,5.25,1.11,7.46c.74,2.18,1.8,4.04,3.17,5.58,1.39,1.51,3.07,2.67,5.02,3.48,1.97.81,4.19,1.22,6.66,1.22s4.67-.41,6.62-1.22c1.97-.81,3.65-1.97,5.02-3.48,1.37-1.53,2.43-3.39,3.17-5.58.74-2.21,1.11-4.69,1.11-7.46Zm75.28-25.19v50.39h-4.81c-.74,0-1.37-.12-1.88-.35-.49-.25-.96-.67-1.43-1.25l-26.31-33.59c.14,1.53.21,2.95.21,4.25v30.94h-8.26v-50.39h4.91c.4,0,.73.02,1.01.07.3.02.56.09.77.21.23.09.45.24.66.45.21.19.44.44.7.77l26.41,33.73c-.07-.81-.13-1.61-.17-2.4s-.07-1.52-.07-2.2v-30.63h8.26Zm52.83,31.36l-6.13-16.76c-.3-.74-.62-1.63-.94-2.65-.33-1.02-.65-2.12-.98-3.31-.3,1.18-.61,2.3-.94,3.35-.33,1.02-.64,1.92-.94,2.68l-6.1,16.69h16.03Zm16.55,19.03h-7.25c-.81,0-1.47-.2-1.98-.59-.51-.42-.9-.93-1.15-1.53l-3.76-10.28h-20.87l-3.76,10.28c-.19.53-.55,1.02-1.08,1.46-.53.44-1.2.66-1.98.66h-7.32l19.83-50.39h9.55l19.79,50.39Zm49.72-7.74v7.74h-29.52v-50.39h9.38v42.65h20.14Zm31.09-35.2v13.97h17.63v7.21h-17.63v14.25h22.37v7.49h-31.78v-50.39h31.78v7.46h-22.37Z"/>
</svg>