<svg id="Layer_1" data-name="Layer 1" xmlns="http://www.w3.org/2000/svg" xmlns:xlink="http://www.w3.org/1999/xlink" viewBox="0 0 486.99 440.74"><defs><style>.cls-1{fill:url(#linear-gradient);}.cls-2{fill:url(#linear-gradient-4);}.cls-3{fill:url(#linear-gradient-5);}.cls-4{fill:url(#linear-gradient-7);}.cls-5{fill:url(#linear-gradient-11);}.cls-6{fill:url(#linear-gradient-12);}.cls-7{fill:url(#linear-gradient-13);}.cls-8{fill:url(#linear-gradient-14);}.cls-9{fill:url(#linear-gradient-22);}.cls-10{fill:url(#linear-gradient-23);}.cls-11{fill:url(#linear-gradient-24);}.cls-12{fill:url(#linear-gradient-25);}.cls-13{fill:url(#linear-gradient-26);}</style><linearGradient id="linear-gradient" x1="135.34" y1="411.37" x2="375.97" y2="411.37" gradientUnits="userSpaceOnUse"><stop offset="0" stop-color="#2997f8"/><stop offset="0.32" stop-color="#24b6fa"/><stop offset="0.46" stop-color="#4e8fd0"/><stop offset="0.64" stop-color="#80619e"/><stop offset="1" stop-color="#e50339"/></linearGradient><linearGradient id="linear-gradient-4" x1="135.34" y1="411.27" x2="375.97" y2="411.27" xlink:href="#linear-gradient"/><linearGradient id="linear-gradient-5" x1="135.34" y1="407.21" x2="375.97" y2="407.21" xlink:href="#linear-gradient"/><linearGradient id="linear-gradient-7" x1="135.34" y1="411.62" x2="375.97" y2="411.62" xlink:href="#linear-gradient"/><linearGradient id="linear-gradient-11" x1="135.34" y1="454.99" x2="375.97" y2="454.99" xlink:href="#linear-gradient"/><linearGradient id="linear-gradient-12" x1="135.34" y1="455.14" x2="375.97" y2="455.14" xlink:href="#linear-gradient"/><linearGradient id="linear-gradient-13" x1="135.34" y1="455.34" x2="375.97" y2="455.34" xlink:href="#linear-gradient"/><linearGradient id="linear-gradient-14" x1="135.34" y1="454.94" x2="375.97" y2="454.94" xlink:href="#linear-gradient"/><linearGradient id="linear-gradient-22" x1="159.27" y1="284.47" x2="244.37" y2="284.47" gradientUnits="userSpaceOnUse"><stop offset="0" stop-color="#0043fd"/><stop offset="1" stop-color="#16b0fe"/></linearGradient><linearGradient id="linear-gradient-23" x1="256.51" y1="254.82" x2="332.52" y2="254.82" gradientUnits="userSpaceOnUse"><stop offset="0" stop-color="#f73c64"/><stop offset="1" stop-color="#e40036"/></linearGradient><linearGradient id="linear-gradient-24" x1="84.97" y1="196.14" x2="414.94" y2="196.14" gradientUnits="userSpaceOnUse"><stop offset="0" stop-color="#3871fa"/><stop offset="0.33" stop-color="#14b7ff"/><stop offset="0.67" stop-color="#fa2a56"/><stop offset="1" stop-color="#e94c74"/></linearGradient><linearGradient id="linear-gradient-25" x1="45.25" y1="175.45" x2="454.43" y2="175.45" xlink:href="#linear-gradient-24"/><linearGradient id="linear-gradient-26" x1="6.41" y1="156" x2="493.41" y2="156" xlink:href="#linear-gradient-24"/></defs><title>ren</title><path class="cls-1" d="M138.41,426.13V396.61h4.85v24.86H155.6v4.66Z" transform="translate(-6.41 -29.65)"/><path class="cls-1" d="M164.94,401.27v6.91h9v4.45h-9v8.84h12.38v4.66H160.09V396.61h17.44v4.66Z" transform="translate(-6.41 -29.65)"/><path class="cls-1" d="M181.08,424.49l1.79-4.69a9.4,9.4,0,0,0,5.66,2.17c2.84,0,4.27-1.07,4.27-3.22a4.79,4.79,0,0,0-1-2.88,13,13,0,0,0-4.15-3.07,19.67,19.67,0,0,1-4.23-2.8,7.42,7.42,0,0,1-1.68-2.61,9.2,9.2,0,0,1-.59-3.35,7.59,7.59,0,0,1,2.32-5.68,8.22,8.22,0,0,1,6-2.25q4.74,0,7,1.91l-1.48,4.51a8.71,8.71,0,0,0-5.39-2A3.24,3.24,0,0,0,186,404q0,2.53,5.2,5.27a16.77,16.77,0,0,1,3.95,2.67,8.26,8.26,0,0,1,1.85,2.84,10,10,0,0,1,.64,3.62,7.54,7.54,0,0,1-2.62,5.9,10.21,10.21,0,0,1-7,2.32A11.82,11.82,0,0,1,181.08,424.49Z" transform="translate(-6.41 -29.65)"/><path class="cls-2" d="M220.63,426.13h-6.06v-29.5q5.79-.22,7.29-.22a12.25,12.25,0,0,1,9.46,3.78q3.5,3.78,3.5,10Q234.82,426.13,220.63,426.13Zm-1.21-24.93v20.15a24.83,24.83,0,0,0,2.53.12,6.69,6.69,0,0,0,5.75-2.88q2.09-2.88,2.08-8.06,0-9.46-8.15-9.47C221.11,401.06,220.37,401.11,219.42,401.2Z" transform="translate(-6.41 -29.65)"/><path class="cls-3" d="M244.53,401.27v6.91h9v4.45h-9v8.84h12.38v4.66H239.68V396.61h17.44v4.66Zm8.71-13-4.22,5.9h-3.54l3.15-5.9Z" transform="translate(-6.41 -29.65)"/><path class="cls-2" d="M266.83,415.27v10.86H262v-29.5c3.23-.15,5.12-.22,5.67-.22,4.31,0,7.47.72,9.46,2.14s3,3.67,3,6.7q0,10.15-11.08,10.16C268.48,415.41,267.75,415.36,266.83,415.27Zm0-14.11v9.45a16.61,16.61,0,0,0,1.94.14,8,8,0,0,0,4.85-1.19,4.66,4.66,0,0,0,1.53-3.9c0-3.07-2.29-4.6-6.85-4.6A11.57,11.57,0,0,0,266.83,401.16Z" transform="translate(-6.41 -29.65)"/><path class="cls-4" d="M285,396.61h4.85v20a5.56,5.56,0,0,0,1.34,3.86,4.71,4.71,0,0,0,3.69,1.49,5.53,5.53,0,0,0,4.1-1.46,5.39,5.39,0,0,0,1.46-4V396.61h4.85v20.31a9.16,9.16,0,0,1-2.83,7.13,10.73,10.73,0,0,1-7.54,2.58q-4.75,0-7.34-2.52T285,416.9Z" transform="translate(-6.41 -29.65)"/><path class="cls-1" d="M322.54,401.27v24.86h-4.85V401.27H309v-4.66h22.62v4.66Z" transform="translate(-6.41 -29.65)"/><path class="cls-3" d="M340.22,401.27v6.91h9v4.45h-9v8.84H352.6v4.66H335.37V396.61H352.8v4.66Zm8.7-13-4.21,5.9h-3.54l3.15-5.9Z" transform="translate(-6.41 -29.65)"/><path class="cls-1" d="M356.36,424.49l1.79-4.69A9.37,9.37,0,0,0,363.8,422q4.27,0,4.27-3.22a4.79,4.79,0,0,0-1-2.88,12.87,12.87,0,0,0-4.15-3.07,20.22,20.22,0,0,1-4.23-2.8,7.42,7.42,0,0,1-1.68-2.61,9.2,9.2,0,0,1-.59-3.35,7.6,7.6,0,0,1,2.33-5.68,8.18,8.18,0,0,1,5.95-2.25q4.74,0,7,1.91l-1.47,4.51a8.73,8.73,0,0,0-5.39-2,3.26,3.26,0,0,0-3.53,3.45q0,2.53,5.21,5.27a17.21,17.21,0,0,1,3.95,2.67,8.41,8.41,0,0,1,1.85,2.84,10,10,0,0,1,.63,3.62,7.51,7.51,0,0,1-2.62,5.9,10.2,10.2,0,0,1-7,2.32A11.77,11.77,0,0,1,356.36,424.49Z" transform="translate(-6.41 -29.65)"/><path class="cls-5" d="M150.74,469.89l-7.29-12.18c-.73,0-1.76-.07-3.08-.15v12.33h-5V440.38q.41,0,3.15-.15c1.83-.1,3.3-.15,4.42-.15q10.41,0,10.41,8.7a8.37,8.37,0,0,1-1.44,4.77,7.86,7.86,0,0,1-3.62,3.05l8.08,13.29Zm-10.37-25v8.2c.9.08,1.58.12,2.06.12a8.35,8.35,0,0,0,4.44-.92c.94-.62,1.41-1.82,1.41-3.61a3.2,3.2,0,0,0-1.51-3,9.89,9.89,0,0,0-4.75-.87A12,12,0,0,0,140.37,444.93Z" transform="translate(-6.41 -29.65)"/><path class="cls-6" d="M164.09,445v6.91h9v4.45h-9v8.85h12.38v4.65H159.24V440.38h17.44V445Z" transform="translate(-6.41 -29.65)"/><path class="cls-7" d="M199.46,470.3,186.2,451.62v18.29h-4.66V440.38h2.33l12.91,17.81V440.38h4.66V470.3Z" transform="translate(-6.41 -29.65)"/><path class="cls-8" d="M223.55,469.89l-2-6h-9.37l-1.9,6H204.9L215.79,440h2.13l11,29.91ZM216.86,449l-3.29,10.9h6.57Z" transform="translate(-6.41 -29.65)"/><path class="cls-6" d="M232.46,469.89V440.38h4.85v29.51Z" transform="translate(-6.41 -29.65)"/><path class="cls-6" d="M242.26,468.26l1.79-4.69a9.4,9.4,0,0,0,5.66,2.17c2.84,0,4.27-1.07,4.27-3.22a4.79,4.79,0,0,0-1-2.88,13,13,0,0,0-4.15-3.07,19.67,19.67,0,0,1-4.23-2.8,7.61,7.61,0,0,1-1.68-2.61,9.2,9.2,0,0,1-.59-3.35,7.59,7.59,0,0,1,2.32-5.68,8.22,8.22,0,0,1,6-2.25c3.16,0,5.48.63,7,1.91l-1.48,4.51a8.71,8.71,0,0,0-5.39-2,3.23,3.23,0,0,0-3.52,3.44c0,1.7,1.73,3.45,5.2,5.28a17.09,17.09,0,0,1,4,2.67,8.28,8.28,0,0,1,1.84,2.84,9.72,9.72,0,0,1,.64,3.62,7.54,7.54,0,0,1-2.62,5.9,10.26,10.26,0,0,1-7,2.32A11.82,11.82,0,0,1,242.26,468.26Z" transform="translate(-6.41 -29.65)"/><path class="cls-6" d="M262.36,468.26l1.79-4.69a9.39,9.39,0,0,0,5.65,2.17q4.27,0,4.27-3.22a4.77,4.77,0,0,0-1-2.88,13.1,13.1,0,0,0-4.15-3.07,20.08,20.08,0,0,1-4.24-2.8,7.73,7.73,0,0,1-1.67-2.61,9,9,0,0,1-.59-3.35,7.59,7.59,0,0,1,2.32-5.68,8.2,8.2,0,0,1,6-2.25c3.16,0,5.47.63,6.95,1.91l-1.47,4.51a8.71,8.71,0,0,0-5.39-2,3.47,3.47,0,0,0-2.6.95,3.42,3.42,0,0,0-.92,2.49c0,1.7,1.73,3.45,5.2,5.28a17,17,0,0,1,3.95,2.67,8.17,8.17,0,0,1,1.85,2.84,9.93,9.93,0,0,1,.63,3.62,7.51,7.51,0,0,1-2.62,5.9,10.21,10.21,0,0,1-7,2.32A11.77,11.77,0,0,1,262.36,468.26Z" transform="translate(-6.41 -29.65)"/><path class="cls-8" d="M299.71,469.89l-2-6h-9.37l-1.9,6h-5.39L292,440h2.13l11,29.91ZM293,449l-3.29,10.9h6.57Z" transform="translate(-6.41 -29.65)"/><path class="cls-7" d="M326.45,470.3l-13.26-18.68v18.29h-4.66V440.38h2.33l12.9,17.81V440.38h4.67V470.3Z" transform="translate(-6.41 -29.65)"/><path class="cls-6" d="M353.32,442l-2,4.33q-1.62-1.75-5.22-1.75a6.61,6.61,0,0,0-5.6,3.09,13.28,13.28,0,0,0-2.18,7.83,12.5,12.5,0,0,0,2,7.51,6.32,6.32,0,0,0,5.4,2.78,7.07,7.07,0,0,0,6-3L354,467q-3,3.4-8.69,3.41a10.63,10.63,0,0,1-8.89-4.07c-2.12-2.71-3.17-6.42-3.17-11.1a17,17,0,0,1,3.51-11,11,11,0,0,1,9-4.4A12.44,12.44,0,0,1,353.32,442Z" transform="translate(-6.41 -29.65)"/><path class="cls-6" d="M363.38,445v6.91h9v4.45h-9v8.85h12.38v4.65H358.53V440.38H376V445Z" transform="translate(-6.41 -29.65)"/><path class="cls-9" d="M244.37,338.1l-27.44-37.21c4.07-.46,23.39-4.3,23.39-35.33,0-34.45-24.59-34.72-24.59-34.72H159.27V338.1h18.64V301h17.38l25.85,37.15Zm-66.46-88.77,29.31,0s13.92-1.89,13.92,16.28-13.65,16.68-13.65,16.68H177.91Z" transform="translate(-6.41 -29.65)"/><polygon class="cls-10" points="256.51 201.19 256.51 308.45 332.52 308.45 332.52 290.71 273.08 290.71 273.08 260.63 327.48 260.63 327.48 244.06 272.9 244.06 272.9 219.64 332.52 219.64 332.52 201.19 256.51 201.19"/><path class="cls-11" d="M87.55,282.34a2.54,2.54,0,0,0,2.55-2.46C92.56,194.66,163.18,126.33,250,126.33s157.39,68.33,159.85,153.55a2.54,2.54,0,0,0,2.55,2.46h0a2.56,2.56,0,0,0,2.58-2.59c-2.37-94.21-75.32-169.81-165-169.81S87.34,185.54,85,279.75a2.56,2.56,0,0,0,2.58,2.59Z" transform="translate(-6.41 -29.65)"/><path class="cls-12" d="M48.14,282.34A3.12,3.12,0,0,0,51,279.26c3.06-106.56,91-192,199-192s195.88,85.45,198.94,192a3.21,3.21,0,0,0,2.91,3,3,3,0,0,0,2.62-3.17C451.49,161.3,361.55,68.56,250,68.56S48.19,161.3,45.25,279.1A3.17,3.17,0,0,0,48.14,282.34Z" transform="translate(-6.41 -29.65)"/><path class="cls-13" d="M9.46,282.34c1.7,0,3-1.65,3.08-3.71C16.2,150.35,121.09,47.48,250,47.48S483.76,150.35,487.41,278.63c.06,2.06,1.42,3.61,3.19,3.61s2.86-1.72,2.8-3.85C489.89,136.57,383.16,29.65,250,29.65s-240,107-243.56,248.8C6.36,280.58,7.75,282.34,9.46,282.34Z" transform="translate(-6.41 -29.65)"/></svg>