<?xml version="1.0" encoding="UTF-8"?>
<svg id="Layer_1" data-name="Layer 1" xmlns="http://www.w3.org/2000/svg" viewBox="0 0 480 230">
  <defs>
    <style>
      .cls-1 {
        fill: #a92234;
      }

      .cls-2 {
        fill: #e7e7e7;
      }

      .cls-3 {
        fill: #174473;
      }
    </style>
  </defs>
  <g>
    <path class="cls-3" d="m85.13,61.61s-4.8,29.86,20.65,53.32l-4.11,5.01s-28.62-22.55-22.29-58.33h5.74Z"/>
    <path class="cls-3" d="m62.36,59.89s-10.39,42.55,26.3,76.36l-5.4,6.8s-37.4-31.6-28.27-83.16h7.37Z"/>
    <path class="cls-3" d="m19.68,58.36h8.91S2.95,114.66,61.29,171.44l-7.73,11.1S-8.78,130.93,19.68,58.36Z"/>
  </g>
  <g>
    <path class="cls-1" d="m136.98,30.37c-.15-.03.31,2.5.31,2.5,0,0,12.63,1.99,27.64,14.31l1.49-1.29s-10.64-11.22-29.44-15.52Z"/>
    <path class="cls-1" d="m133.82,21.65l1.17,2.27s19.94,4.89,34.95,19.12l1.17-1.13s-10.99-12.94-37.3-20.25Z"/>
    <path class="cls-1" d="m130.22,11.64l1.02,2.58s24.87,6.76,44.06,24.55l1.41-1.09s-19.47-19-46.49-26.04Z"/>
  </g>
  <g>
    <path class="cls-2" d="m82.17,52.65h5.94s8.72-23.85,42.11-21.54v-2.78s-35.07-5.14-48.05,24.32Z"/>
    <path class="cls-2" d="m58.92,50.27h6.69s14.37-33.84,61.99-28.62l-.8-2.17s-49.81-9.09-67.88,30.79Z"/>
    <path class="cls-2" d="m25.37,47.45h8.68S57.92.24,124.26,11.97l-.33-1.87S59.92-8.03,25.37,47.45Z"/>
  </g>
  <path class="cls-3" d="m39.22,223.37C96.82,151.19,156.66,77.89,216.58,7.61c.1-.12.3.04.19.16-35.18,44.62-73.83,91.68-110.09,135.48-12.43,15.12-32.04,38.46-44.72,53.63-7.52,8.88-14.99,17.81-22.56,26.65-.1.12-.3-.04-.19-.16h0Z"/>
  <g>
    <path class="cls-3" d="m213.41,76.82v12.7c-2.2,1.28-6.22,3.5-12.98,3.5-10.24,0-18.13-7.48-18.13-17.68s7.89-17.83,18.23-17.83c6.32,0,9.9,2.27,11.17,3.15l-1.62,2.81c-.98-.84-4.07-2.76-9.21-2.76-8.28,0-15.04,6.11-15.04,14.62s6.76,14.48,14.75,14.48c4.12,0,7.3-1.03,9.31-2.02v-10.98h3.53Z"/>
    <path class="cls-3" d="m232.62,69.63l-.29,3.5c-.59-.2-1.23-.3-2.06-.3-4.75,0-6.91,3.84-6.96,7.09v12.65h-3.48v-22.65h3.04l.2,4.73c.88-2.76,3.58-5.17,7.79-5.17.64,0,1.27.05,1.76.15Z"/>
    <path class="cls-3" d="m234.14,81.3c0-6.75,5.29-11.77,11.76-11.77s11.76,5.02,11.76,11.77-5.34,11.72-11.76,11.72-11.76-5.02-11.76-11.72Zm19.99,0c0-4.88-3.77-8.57-8.23-8.57s-8.23,3.69-8.23,8.57,3.77,8.52,8.23,8.52,8.23-3.69,8.23-8.52Z"/>
    <path class="cls-3" d="m283.97,69.93v22.65h-3.04l-.1-3.89c-1.32,2.36-4.12,4.33-7.89,4.33-5.83,0-9.75-4.19-9.75-10.54v-12.56h3.48v11.92c0,4.73,2.6,7.83,6.66,7.83,4.75-.05,7.1-3.89,7.15-7.14v-12.61h3.48Z"/>
    <path class="cls-3" d="m314.4,81.25c0,6.75-4.7,11.77-10.88,11.77-4.17,0-7.1-2.07-8.72-4.48v13.64h-3.38v-32.25h3.04l.1,4.09c1.71-2.61,4.7-4.53,8.92-4.53,6.12,0,10.93,5.02,10.93,11.77Zm-3.48,0c0-4.92-3.62-8.57-8.04-8.57-4.85,0-8.13,3.59-8.13,8.57s3.28,8.57,8.13,8.57c4.41,0,8.04-3.64,8.04-8.57Z"/>
    <path class="cls-3" d="m340.61,82.33h-18.42c.49,4.53,4.07,7.68,8.92,7.68,3.28,0,5.24-1.28,6.76-2.51l1.62,2.56c-1.76,1.43-4.36,2.95-8.72,2.95-6.96,0-11.96-4.97-11.96-11.77s4.61-11.77,11.37-11.77c6.17,0,10.48,4.58,10.48,11.33,0,.89-.05,1.53-.05,1.53Zm-18.32-2.86h15.04c-.25-4.28-3.23-6.99-7.06-6.99-4.21,0-7.3,2.81-7.99,6.99Z"/>
  </g>
  <g>
    <path class="cls-3" d="m201.31,108.7v20.33h-2.73l-.09-3.67c-1.54,2.34-4.22,4.07-8,4.07-5.5,0-9.81-4.51-9.81-10.56s4.22-10.56,9.72-10.56c3.96,0,6.68,1.81,8.09,4.02l.09-3.62h2.73Zm-2.99,10.17c0-4.42-2.95-7.69-7.3-7.69-3.96,0-7.21,3.27-7.21,7.69s3.25,7.69,7.21,7.69c4.35,0,7.3-3.23,7.3-7.69Z"/>
    <path class="cls-3" d="m206.28,127l1.54-2.52c1.63,1.24,3.78,2.21,6.77,2.21,2.81,0,4.57-1.06,4.57-3.05,0-1.77-1.06-2.65-4.84-3.62-4.44-1.15-7.12-2.7-7.12-5.97,0-3.45,2.95-5.7,7.39-5.7,3.34,0,5.58.97,7.21,2.12l-1.41,2.43c-2.11-1.28-3.61-1.81-6.07-1.81-2.24,0-4.05.84-4.05,2.74,0,1.64,1.36,2.34,5.15,3.32,5.19,1.37,6.82,3.01,6.82,6.41s-3.17,5.88-7.65,5.88c-3.43,0-5.94-.93-8.31-2.43Z"/>
    <path class="cls-3" d="m225.81,127l1.54-2.52c1.63,1.24,3.78,2.21,6.77,2.21,2.81,0,4.57-1.06,4.57-3.05,0-1.77-1.06-2.65-4.84-3.62-4.44-1.15-7.12-2.7-7.12-5.97,0-3.45,2.95-5.7,7.39-5.7,3.34,0,5.58.97,7.21,2.12l-1.41,2.43c-2.11-1.28-3.61-1.81-6.07-1.81-2.24,0-4.05.84-4.05,2.74,0,1.64,1.36,2.34,5.15,3.32,5.19,1.37,6.82,3.01,6.82,6.41s-3.17,5.88-7.65,5.88c-3.43,0-5.94-.93-8.31-2.43Z"/>
    <path class="cls-3" d="m265.25,119.84h-16.53c.44,4.07,3.65,6.9,8,6.9,2.95,0,4.71-1.15,6.07-2.25l1.45,2.3c-1.58,1.28-3.91,2.65-7.83,2.65-6.24,0-10.73-4.46-10.73-10.56s4.13-10.56,10.2-10.56c5.54,0,9.41,4.11,9.41,10.17,0,.79-.04,1.37-.04,1.37Zm-16.45-2.56h13.5c-.22-3.85-2.9-6.28-6.33-6.28-3.78,0-6.55,2.52-7.17,6.28Z"/>
    <path class="cls-3" d="m303.43,117.72v11.32h-3.12v-10.92c0-4.2-2.11-6.94-5.72-6.94s-6.07,3.09-6.07,6.72v11.14h-3.12v-10.92c0-4.2-2.16-6.98-5.76-6.94-3.69,0-5.76,3.01-6.02,5.79l-.04,12.07h-3.12v-20.33h2.55l.13,3.8c1.14-2.3,3.74-4.2,6.99-4.2,3.61,0,6.25,1.81,7.52,4.73,1.05-2.48,3.69-4.73,7.26-4.73,5.19,0,8.53,3.76,8.53,9.42Z"/>
    <path class="cls-3" d="m330.43,118.87c0,6.06-4.31,10.56-9.81,10.56-3.78,0-6.42-1.77-7.96-4.11l-.13,3.71h-2.73v-31.56h3.04v14.76c1.45-2.12,4.09-3.93,7.87-3.93,5.5,0,9.72,4.51,9.72,10.56Zm-3.12,0c0-4.42-3.25-7.69-7.21-7.69-4.35,0-7.3,3.27-7.3,7.69s2.95,7.69,7.3,7.69c3.96,0,7.21-3.27,7.21-7.69Z"/>
    <path class="cls-3" d="m335.88,97.48h3.12v31.56h-3.12v-31.56Z"/>
    <path class="cls-3" d="m363.98,119.84h-16.53c.44,4.07,3.65,6.9,8,6.9,2.95,0,4.71-1.15,6.07-2.25l1.45,2.3c-1.58,1.28-3.91,2.65-7.83,2.65-6.24,0-10.73-4.46-10.73-10.56s4.13-10.56,10.2-10.56c5.54,0,9.41,4.11,9.41,10.17,0,.79-.04,1.37-.04,1.37Zm-16.45-2.56h13.5c-.22-3.85-2.9-6.28-6.33-6.28-3.78,0-6.55,2.52-7.17,6.28Z"/>
    <path class="cls-3" d="m402.16,117.72v11.32h-3.12v-10.92c0-4.2-2.11-6.94-5.72-6.94s-6.07,3.09-6.07,6.72v11.14h-3.12v-10.92c0-4.2-2.16-6.98-5.76-6.94-3.69,0-5.76,3.01-6.02,5.79l-.04,12.07h-3.12v-20.33h2.55l.13,3.8c1.14-2.3,3.74-4.2,6.99-4.2,3.61,0,6.25,1.81,7.52,4.73,1.05-2.48,3.69-4.73,7.26-4.73,5.19,0,8.53,3.76,8.53,9.42Z"/>
    <path class="cls-3" d="m426.74,119.84h-16.53c.44,4.07,3.65,6.9,8,6.9,2.95,0,4.71-1.15,6.07-2.25l1.45,2.3c-1.58,1.28-3.91,2.65-7.83,2.65-6.24,0-10.73-4.46-10.73-10.56s4.13-10.56,10.2-10.56c5.54,0,9.41,4.11,9.41,10.17,0,.79-.04,1.37-.04,1.37Zm-16.45-2.56h13.5c-.22-3.85-2.9-6.28-6.33-6.28-3.78,0-6.55,2.52-7.17,6.28Z"/>
    <path class="cls-3" d="m450.93,117.76v11.27h-3.12v-10.87c0-4.29-2.51-7.03-6.25-6.98-4,0-6.16,3.01-6.46,5.79l-.04,12.07h-3.12v-20.33h2.55l.13,3.8c1.14-2.3,3.78-4.2,7.48-4.2,5.28,0,8.84,3.76,8.84,9.46Z"/>
    <path class="cls-3" d="m458.36,122.41v-11.14h-4.13v-2.56h4.18v-6.98h3.04v6.98h8.49v2.56h-8.49v11.14c0,2.96,1.58,4.24,4.53,4.24,2.29,0,3.56-1.24,4.05-1.55l1.19,2.43c-.62.49-2.42,1.9-5.76,1.9-4.09,0-7.08-2.52-7.08-7.03Z"/>
  </g>
  <g>
    <path class="cls-3" d="m150.26,139.21v29.9h-3.26l-17.53-19.76v19.43h-5.65v-29.86h3.26l17.49,19.72v-19.43h5.69Z"/>
    <path class="cls-3" d="m175.62,149.43v19.34h-4.85l-.21-2.65c-1.42,1.77-3.51,3.03-6.36,3.03-5.31,0-9.25-4.33-9.25-10.05s4.06-10.05,9.37-10.05c2.55,0,4.56.92,5.98,2.23l.25-1.85h5.06Zm-5.27,9.67c0-2.94-1.92-5.05-4.94-5.05-2.8,0-4.94,2.14-4.94,5.05s2.13,5.05,4.94,5.05c3.01,0,4.98-2.14,4.94-5.05Z"/>
    <path class="cls-3" d="m182.78,161.62v-7.57h-3.89v-4.63h4.06v-6.64h5.31v6.64h7.15v4.63h-7.15v7.02c0,2.27,1.42,3.11,3.39,3.11,1.63,0,2.68-.76,3.18-1.05l1.88,4.08c-.75.55-2.68,1.93-6.32,1.93-4.73,0-7.61-2.69-7.61-7.53Z"/>
    <path class="cls-3" d="m198.64,142.62c0-2.06,1.55-3.45,3.56-3.49,2.05,0,3.64,1.43,3.64,3.49s-1.59,3.49-3.64,3.49-3.56-1.43-3.56-3.49Zm.92,6.81h5.48v19.34h-5.48v-19.34Z"/>
    <path class="cls-3" d="m209.15,159.1c0-5.72,4.64-10.05,10.42-10.05s10.42,4.33,10.42,10.05-4.64,10.05-10.42,10.05-10.42-4.33-10.42-10.05Zm15.31,0c0-2.78-2.09-5.05-4.9-5.05s-4.9,2.27-4.9,5.05,2.13,5.05,4.9,5.05,4.9-2.23,4.9-5.05Z"/>
    <path class="cls-3" d="m253.75,158.09v10.68h-5.48v-9.92c0-2.94-1.71-4.84-4.23-4.84-2.76,0-4.48,2.1-4.48,4.67v10.09h-5.48v-19.34h3.93l.21,3.28c1.13-2.02,3.56-3.66,7.07-3.66,5.15,0,8.45,3.53,8.45,9.04Z"/>
    <path class="cls-3" d="m278.31,149.43v19.34h-4.85l-.21-2.65c-1.42,1.77-3.51,3.03-6.36,3.03-5.31,0-9.25-4.33-9.25-10.05s4.06-10.05,9.37-10.05c2.55,0,4.56.92,5.98,2.23l.25-1.85h5.06Zm-5.27,9.67c0-2.94-1.92-5.05-4.94-5.05-2.8,0-4.94,2.14-4.94,5.05s2.13,5.05,4.94,5.05c3.01,0,4.98-2.14,4.94-5.05Z"/>
    <path class="cls-3" d="m283.55,138.75h5.48v30.03h-5.48v-30.03Z"/>
  </g>
  <path class="cls-3" d="m171.81,129.04l-5.73-8.45h-5.06v8.45h-5.77v-29.56h10.5c7.15,0,11.92,4.08,11.92,10.68,0,4.21-2.13,7.4-5.77,9.13l6.74,9.76h-6.82Zm-10.79-13.54h4.23c3.89,0,6.44-2.1,6.44-5.34,0-3.53-2.59-5.59-6.4-5.59h-4.27v10.93Z"/>
</svg>