<svg id="Layer_1" data-name="Layer 1" xmlns="http://www.w3.org/2000/svg" xmlns:xlink="http://www.w3.org/1999/xlink" viewBox="0 0 492.68 263.52"><defs><style>.cls-1{fill:#004a85;}.cls-2{fill:#f2222d;}.cls-3{fill:url(#linear-gradient);}.cls-4{fill:url(#linear-gradient-2);}.cls-5{fill:url(#linear-gradient-3);}.cls-6{fill:url(#linear-gradient-12);}.cls-7{fill:url(#linear-gradient-13);}.cls-8{fill:url(#linear-gradient-14);}.cls-9{fill:url(#linear-gradient-15);}.cls-10{fill:url(#linear-gradient-16);}.cls-11{fill:url(#linear-gradient-17);}.cls-12{fill:url(#linear-gradient-18);}.cls-13{fill:url(#linear-gradient-19);}.cls-14{fill:url(#linear-gradient-20);}.cls-15{fill:url(#linear-gradient-21);}.cls-16{fill:url(#linear-gradient-22);}.cls-17{fill:url(#linear-gradient-23);}.cls-18{fill:url(#linear-gradient-24);}.cls-19{fill:url(#linear-gradient-25);}.cls-20{fill:url(#linear-gradient-26);}.cls-21{fill:url(#linear-gradient-27);}.cls-22{fill:url(#linear-gradient-28);}.cls-23{fill:url(#linear-gradient-29);}.cls-24{fill:url(#linear-gradient-30);}.cls-25{fill:url(#linear-gradient-31);}.cls-26{fill:url(#linear-gradient-32);}.cls-27{fill:url(#linear-gradient-33);}.cls-28{fill:url(#linear-gradient-34);}.cls-29{fill:url(#linear-gradient-35);}.cls-30{fill:url(#linear-gradient-36);}.cls-31{fill:url(#linear-gradient-37);}.cls-32{fill:url(#linear-gradient-38);}.cls-33{fill:url(#linear-gradient-39);}.cls-34{fill:url(#linear-gradient-40);}</style><linearGradient id="linear-gradient" x1="366.33" y1="242.12" x2="418.26" y2="397.92" gradientUnits="userSpaceOnUse"><stop offset="0" stop-color="#fff"/><stop offset="1"/></linearGradient><linearGradient id="linear-gradient-2" x1="382.37" y1="236.77" x2="434.3" y2="392.58" xlink:href="#linear-gradient"/><linearGradient id="linear-gradient-3" x1="362.89" y1="238.78" x2="441.24" y2="407.55" gradientUnits="userSpaceOnUse"><stop offset="0.09" stop-color="#1683ac"/><stop offset="0.82" stop-color="#004c86"/></linearGradient><linearGradient id="linear-gradient-12" x1="130.5" y1="257.53" x2="81.09" y2="383.76" xlink:href="#linear-gradient-3"/><linearGradient id="linear-gradient-13" x1="146.44" y1="263.77" x2="97.03" y2="390" xlink:href="#linear-gradient-3"/><linearGradient id="linear-gradient-14" x1="163" y1="270.25" x2="113.59" y2="396.48" xlink:href="#linear-gradient-3"/><linearGradient id="linear-gradient-15" x1="193.62" y1="282.24" x2="144.21" y2="408.47" xlink:href="#linear-gradient-3"/><linearGradient id="linear-gradient-16" x1="114.56" y1="251.29" x2="65.15" y2="377.52" xlink:href="#linear-gradient-3"/><linearGradient id="linear-gradient-17" x1="97.29" y1="244.53" x2="47.88" y2="370.76" xlink:href="#linear-gradient-3"/><linearGradient id="linear-gradient-18" x1="79.08" y1="237.4" x2="29.67" y2="363.63" xlink:href="#linear-gradient-3"/><linearGradient id="linear-gradient-19" x1="61.39" y1="230.48" x2="11.98" y2="356.71" xlink:href="#linear-gradient-3"/><linearGradient id="linear-gradient-20" x1="178.47" y1="276.31" x2="129.06" y2="402.54" xlink:href="#linear-gradient-3"/><linearGradient id="linear-gradient-21" x1="119.26" y1="306.78" x2="390.48" y2="298.84" xlink:href="#linear-gradient-3"/><linearGradient id="linear-gradient-22" x1="119.29" y1="307.88" x2="390.51" y2="299.95" xlink:href="#linear-gradient-3"/><linearGradient id="linear-gradient-23" x1="118.76" y1="289.65" x2="389.97" y2="281.72" xlink:href="#linear-gradient-3"/><linearGradient id="linear-gradient-24" x1="118.9" y1="294.47" x2="390.12" y2="286.54" xlink:href="#linear-gradient-3"/><linearGradient id="linear-gradient-25" x1="118.29" y1="273.44" x2="389.5" y2="265.51" xlink:href="#linear-gradient-3"/><linearGradient id="linear-gradient-26" x1="118.47" y1="279.79" x2="389.69" y2="271.85" xlink:href="#linear-gradient-3"/><linearGradient id="linear-gradient-27" x1="117.8" y1="256.78" x2="389.01" y2="248.85" xlink:href="#linear-gradient-3"/><linearGradient id="linear-gradient-28" x1="117.99" y1="263.18" x2="389.2" y2="255.25" xlink:href="#linear-gradient-3"/><linearGradient id="linear-gradient-29" x1="117.34" y1="241.11" x2="388.55" y2="233.18" xlink:href="#linear-gradient-3"/><linearGradient id="linear-gradient-30" x1="117.51" y1="247" x2="388.73" y2="239.07" xlink:href="#linear-gradient-3"/><linearGradient id="linear-gradient-31" x1="116.25" y1="203.83" x2="387.46" y2="195.89" xlink:href="#linear-gradient-3"/><linearGradient id="linear-gradient-32" x1="116.89" y1="225.6" x2="388.1" y2="217.67" xlink:href="#linear-gradient-3"/><linearGradient id="linear-gradient-33" x1="117.05" y1="231.16" x2="388.26" y2="223.23" xlink:href="#linear-gradient-3"/><linearGradient id="linear-gradient-34" x1="116.38" y1="208.42" x2="387.6" y2="200.49" xlink:href="#linear-gradient-3"/><linearGradient id="linear-gradient-35" x1="116.55" y1="214.15" x2="387.77" y2="206.22" xlink:href="#linear-gradient-3"/><linearGradient id="linear-gradient-36" x1="115.87" y1="190.8" x2="387.08" y2="182.87" xlink:href="#linear-gradient-3"/><linearGradient id="linear-gradient-37" x1="116.04" y1="196.58" x2="387.25" y2="188.65" xlink:href="#linear-gradient-3"/><linearGradient id="linear-gradient-38" x1="115.37" y1="173.76" x2="386.58" y2="165.82" xlink:href="#linear-gradient-3"/><linearGradient id="linear-gradient-39" x1="115.55" y1="179.77" x2="386.76" y2="171.84" xlink:href="#linear-gradient-3"/><linearGradient id="linear-gradient-40" x1="80.67" y1="224.58" x2="420.08" y2="224.58" gradientUnits="userSpaceOnUse"><stop offset="0.07" stop-color="#2286ae"/><stop offset="0.52" stop-color="#3f9ec9"/><stop offset="0.92" stop-color="#1e85ad"/></linearGradient></defs><title>rn</title><path class="cls-1" d="M233.08,207.08s25.69,49.11,10.17,86.41c-21.46,45.71,18.32,88.29,18.32,88.29s-72.38-37-48.58-93.51c20.61-48.91,20.15-81.19,20.15-81.19" transform="translate(-3.57 -118.26)"/><path class="cls-2" d="M265.42,118.26S238,184.26,254.66,234s-16.11,70.43-4.11,104c6.91-39.45,56.93-45.45,36.39-111.44s-21.52-108.26-21.52-108.26" transform="translate(-3.57 -118.26)"/><path class="cls-3" d="M406.09,380.7h12.62a168.28,168.28,0,0,0-49.43-119.35l-8.93,8.92A155.71,155.71,0,0,1,406.09,380.7Z" transform="translate(-3.57 -118.26)"/><path class="cls-4" d="M373.1,257.52a173.69,173.69,0,0,1,51,123.18h12.26a185.9,185.9,0,0,0-54.61-131.85Z" transform="translate(-3.57 -118.26)"/><path class="cls-5" d="M352.83,380.7h11.78A114.32,114.32,0,0,0,331,299.6l-8.33,8.33A102.63,102.63,0,0,1,352.83,380.7Z" transform="translate(-3.57 -118.26)"/><path class="cls-5" d="M336,380.7h11.55a97.32,97.32,0,0,0-28.59-69l-8.17,8.17A85.8,85.8,0,0,1,336,380.7Z" transform="translate(-3.57 -118.26)"/><path class="cls-5" d="M369.9,380.7h12.26a131.83,131.83,0,0,0-38.73-93.51l-8.67,8.67A119.63,119.63,0,0,1,369.9,380.7Z" transform="translate(-3.57 -118.26)"/><path class="cls-5" d="M388.05,380.7h13a150.6,150.6,0,0,0-44.26-106.85L347.6,283A137.67,137.67,0,0,1,388.05,380.7Z" transform="translate(-3.57 -118.26)"/><path class="cls-5" d="M406.09,380.7h12.62a168.28,168.28,0,0,0-49.43-119.35l-8.93,8.92A155.71,155.71,0,0,1,406.09,380.7Z" transform="translate(-3.57 -118.26)"/><path class="cls-5" d="M373.1,257.52a173.69,173.69,0,0,1,51,123.18h12.26a185.9,185.9,0,0,0-54.61-131.85Z" transform="translate(-3.57 -118.26)"/><path class="cls-5" d="M386.11,244.52a192,192,0,0,1,56.4,136.18h14.07a206,206,0,0,0-60.53-146.13Z" transform="translate(-3.57 -118.26)"/><path class="cls-5" d="M400.39,230.24A212.1,212.1,0,0,1,462.71,380.7h14.43A226.48,226.48,0,0,0,410.59,220Z" transform="translate(-3.57 -118.26)"/><path class="cls-5" d="M414.93,215.7a232.66,232.66,0,0,1,68.34,165h13a245.59,245.59,0,0,0-72.14-174.18Z" transform="translate(-3.57 -118.26)"/><path class="cls-6" d="M93.73,380.34a155.68,155.68,0,0,1,45.78-110.46l-9-8.88A168.26,168.26,0,0,0,81.11,380.34Z" transform="translate(-3.57 -118.26)"/><path class="cls-7" d="M111.77,380.34a137.7,137.7,0,0,1,40.56-97.78l-9.23-9.13A150.64,150.64,0,0,0,98.78,380.34Z" transform="translate(-3.57 -118.26)"/><path class="cls-8" d="M129.92,380.34a119.62,119.62,0,0,1,35.31-85l-8.72-8.62a131.83,131.83,0,0,0-38.85,93.63Z" transform="translate(-3.57 -118.26)"/><path class="cls-9" d="M163.83,380.34a85.81,85.81,0,0,1,25.51-61.15l-8.22-8.13a97.35,97.35,0,0,0-28.84,69.28Z" transform="translate(-3.57 -118.26)"/><path class="cls-10" d="M75.7,380.34a173.68,173.68,0,0,1,51-123.15L118,248.56A185.9,185.9,0,0,0,63.44,380.34Z" transform="translate(-3.57 -118.26)"/><path class="cls-11" d="M57.31,380.34a192,192,0,0,1,56.31-136.09l-10-9.89a206,206,0,0,0-60.38,146Z" transform="translate(-3.57 -118.26)"/><path class="cls-12" d="M37.11,380.34A212.1,212.1,0,0,1,99.27,230.05L89,219.9A226.53,226.53,0,0,0,22.68,380.34Z" transform="translate(-3.57 -118.26)"/><path class="cls-13" d="M16.55,380.34A232.61,232.61,0,0,1,84.66,215.58l-9.23-9.13A245.56,245.56,0,0,0,3.57,380.34Z" transform="translate(-3.57 -118.26)"/><path class="cls-14" d="M147,380.34a102.64,102.64,0,0,1,30.37-73L169,299.05a114.36,114.36,0,0,0-33.78,81.29Z" transform="translate(-3.57 -118.26)"/><path class="cls-15" d="M194.07,314.81a86.86,86.86,0,0,1,7.67-5.82,62.36,62.36,0,0,1,2.34-14.91,98.15,98.15,0,0,0-18.22,12.52Z" transform="translate(-3.57 -118.26)"/><path class="cls-16" d="M280.52,299.82a86.23,86.23,0,0,1,25.71,15.4l8.23-8.17a97.59,97.59,0,0,0-27-16.89A105.46,105.46,0,0,1,280.52,299.82Z" transform="translate(-3.57 -118.26)"/><path class="cls-17" d="M182.12,302.85A103.23,103.23,0,0,1,206.49,287c.18-.43.34-.86.52-1.28q3-7.18,5.43-13.85a114.69,114.69,0,0,0-38.66,22.65Z" transform="translate(-3.57 -118.26)"/><path class="cls-18" d="M290.11,285.54a103.24,103.24,0,0,1,28.11,17.77L326.6,295a114.78,114.78,0,0,0-31.93-20.34A63,63,0,0,1,290.11,285.54Z" transform="translate(-3.57 -118.26)"/><path class="cls-19" d="M170,290.75a120,120,0,0,1,44.62-25.19q2.49-7.32,4.32-13.89a132.08,132.08,0,0,0-57.63,30.39Z" transform="translate(-3.57 -118.26)"/><path class="cls-20" d="M296,269.49a120,120,0,0,1,34.32,21.77l8.71-8.65a132.31,132.31,0,0,0-41.55-25.74A65.57,65.57,0,0,1,296,269.49Z" transform="translate(-3.57 -118.26)"/><path class="cls-21" d="M157.18,277.89a137.73,137.73,0,0,1,63.52-32.65c1.28-5.05,2.29-9.67,3.08-13.82A150.6,150.6,0,0,0,148,268.69Z" transform="translate(-3.57 -118.26)"/><path class="cls-22" d="M297.4,250.53a138.05,138.05,0,0,1,45.86,27.93l9.22-9.16a151,151,0,0,0-57.09-33.17A97,97,0,0,1,297.4,250.53Z" transform="translate(-3.57 -118.26)"/><path class="cls-23" d="M144.43,265.12a155.66,155.66,0,0,1,80.28-39c.89-5.44,1.37-9.83,1.63-13a168.25,168.25,0,0,0-90.84,43.05Z" transform="translate(-3.57 -118.26)"/><path class="cls-24" d="M292.33,224.53c.63,2,1.18,4,1.69,5.9a156,156,0,0,1,62,35.31l9-8.9a168.41,168.41,0,0,0-75.2-40.6C290.63,219,291.46,221.72,292.33,224.53Z" transform="translate(-3.57 -118.26)"/><path class="cls-25" d="M242,194q-4.35.18-8.65.56l5.46,9.47c.12.23.54,1,1.16,2.35q1.13-.08,2.25-.12C242,202.15,241.94,198.05,242,194Z" transform="translate(-3.57 -118.26)"/><path class="cls-26" d="M131.68,252.35a173.61,173.61,0,0,1,95-44.72c0-.32,0-.5,0-.52s.38-5.91.55-11.93A185.87,185.87,0,0,0,123,243.67Z" transform="translate(-3.57 -118.26)"/><path class="cls-27" d="M288.09,210.28A173.79,173.79,0,0,1,368.87,253l8.7-8.65A186,186,0,0,0,284.49,197Q286.16,203.45,288.09,210.28Z" transform="translate(-3.57 -118.26)"/><path class="cls-28" d="M118.67,239.33A192,192,0,0,1,227.28,189a23,23,0,0,0-.54-6c.47.84,1.74,3.05,3.28,5.73,4-.42,8.13-.7,12.24-.86.27-4.8.73-9.53,1.33-14.13a205.9,205.9,0,0,0-134.86,55.66Z" transform="translate(-3.57 -118.26)"/><path class="cls-29" d="M282.85,190.49a192,192,0,0,1,99.08,49.57l10-9.92a206.06,206.06,0,0,0-112.48-54.42Q281,182.76,282.85,190.49Z" transform="translate(-3.57 -118.26)"/><path class="cls-30" d="M104.39,225a212,212,0,0,1,140.09-57.48c.8-5.05,1.75-9.9,2.76-14.47a226.43,226.43,0,0,0-153,61.74Z" transform="translate(-3.57 -118.26)"/><path class="cls-31" d="M278.12,169.36a212.07,212.07,0,0,1,118.15,56.46l10.24-10.17a226.4,226.4,0,0,0-131.15-61.16C276.13,159.06,277.05,164,278.12,169.36Z" transform="translate(-3.57 -118.26)"/><path class="cls-32" d="M80.67,201.29l9.18,9.2a232.57,232.57,0,0,1,158.84-63.55c1.18-4.74,2.41-9.1,3.58-13l-2.36,0A245.52,245.52,0,0,0,80.67,201.29Z" transform="translate(-3.57 -118.26)"/><path class="cls-33" d="M272.55,135c.45,3.81,1,8.24,1.8,13.22a232.51,232.51,0,0,1,136.52,63.11l9.21-9.15A245.52,245.52,0,0,0,272.55,135Z" transform="translate(-3.57 -118.26)"/><path class="cls-34" d="M194.07,314.81a86.86,86.86,0,0,1,7.67-5.82,62.36,62.36,0,0,1,2.34-14.91,98.15,98.15,0,0,0-18.22,12.52Z" transform="translate(-3.57 -118.26)"/><path class="cls-34" d="M280.52,299.82a86.23,86.23,0,0,1,25.71,15.4l8.23-8.17a97.59,97.59,0,0,0-27-16.89A105.46,105.46,0,0,1,280.52,299.82Z" transform="translate(-3.57 -118.26)"/><path class="cls-34" d="M182.12,302.85A103.23,103.23,0,0,1,206.49,287c.18-.43.34-.86.52-1.28q3-7.18,5.43-13.85a114.69,114.69,0,0,0-38.66,22.65Z" transform="translate(-3.57 -118.26)"/><path class="cls-34" d="M290.11,285.54a103.24,103.24,0,0,1,28.11,17.77L326.6,295a114.78,114.78,0,0,0-31.93-20.34A63,63,0,0,1,290.11,285.54Z" transform="translate(-3.57 -118.26)"/><path class="cls-34" d="M170,290.75a120,120,0,0,1,44.62-25.19q2.49-7.32,4.32-13.89a132.08,132.08,0,0,0-57.63,30.39Z" transform="translate(-3.57 -118.26)"/><path class="cls-34" d="M296,269.49a120,120,0,0,1,34.32,21.77l8.71-8.65a132.31,132.31,0,0,0-41.55-25.74A65.57,65.57,0,0,1,296,269.49Z" transform="translate(-3.57 -118.26)"/><path class="cls-34" d="M157.18,277.89a137.73,137.73,0,0,1,63.52-32.65c1.28-5.05,2.29-9.67,3.08-13.82A150.6,150.6,0,0,0,148,268.69Z" transform="translate(-3.57 -118.26)"/><path class="cls-34" d="M297.4,250.53a138.05,138.05,0,0,1,45.86,27.93l9.22-9.16a151,151,0,0,0-57.09-33.17A97,97,0,0,1,297.4,250.53Z" transform="translate(-3.57 -118.26)"/><path class="cls-34" d="M144.43,265.12a155.66,155.66,0,0,1,80.28-39c.89-5.44,1.37-9.83,1.63-13a168.25,168.25,0,0,0-90.84,43.05Z" transform="translate(-3.57 -118.26)"/><path class="cls-34" d="M292.33,224.53c.63,2,1.18,4,1.69,5.9a156,156,0,0,1,62,35.31l9-8.9a168.41,168.41,0,0,0-75.2-40.6C290.63,219,291.46,221.72,292.33,224.53Z" transform="translate(-3.57 -118.26)"/><path class="cls-34" d="M242,194q-4.35.18-8.65.56l5.46,9.47c.12.23.54,1,1.16,2.35q1.13-.08,2.25-.12C242,202.15,241.94,198.05,242,194Z" transform="translate(-3.57 -118.26)"/><path class="cls-34" d="M131.68,252.35a173.61,173.61,0,0,1,95-44.72c0-.32,0-.5,0-.52s.38-5.91.55-11.93A185.87,185.87,0,0,0,123,243.67Z" transform="translate(-3.57 -118.26)"/><path class="cls-34" d="M288.09,210.28A173.79,173.79,0,0,1,368.87,253l8.7-8.65A186,186,0,0,0,284.49,197Q286.16,203.45,288.09,210.28Z" transform="translate(-3.57 -118.26)"/><path class="cls-34" d="M118.67,239.33A192,192,0,0,1,227.28,189a23,23,0,0,0-.54-6c.47.84,1.74,3.05,3.28,5.73,4-.42,8.13-.7,12.24-.86.27-4.8.73-9.53,1.33-14.13a205.9,205.9,0,0,0-134.86,55.66Z" transform="translate(-3.57 -118.26)"/><path class="cls-34" d="M282.85,190.49a192,192,0,0,1,99.08,49.57l10-9.92a206.06,206.06,0,0,0-112.48-54.42Q281,182.76,282.85,190.49Z" transform="translate(-3.57 -118.26)"/><path class="cls-34" d="M104.39,225a212,212,0,0,1,140.09-57.48c.8-5.05,1.75-9.9,2.76-14.47a226.43,226.43,0,0,0-153,61.74Z" transform="translate(-3.57 -118.26)"/><path class="cls-34" d="M278.12,169.36a212.07,212.07,0,0,1,118.15,56.46l10.24-10.17a226.4,226.4,0,0,0-131.15-61.16C276.13,159.06,277.05,164,278.12,169.36Z" transform="translate(-3.57 -118.26)"/><path class="cls-34" d="M80.67,201.29l9.18,9.2a232.57,232.57,0,0,1,158.84-63.55c1.18-4.74,2.41-9.1,3.58-13l-2.36,0A245.52,245.52,0,0,0,80.67,201.29Z" transform="translate(-3.57 -118.26)"/><path class="cls-34" d="M272.55,135c.45,3.81,1,8.24,1.8,13.22a232.51,232.51,0,0,1,136.52,63.11l9.21-9.15A245.52,245.52,0,0,0,272.55,135Z" transform="translate(-3.57 -118.26)"/></svg>