<svg id="UDI" xmlns="http://www.w3.org/2000/svg" viewBox="0 0 483.78 300.25"><defs><style>.cls-1{fill:#5c5e8e;}</style></defs><title>udi</title><g id="Logo"><path class="cls-1" d="M76.66,273.49c21,23.58,60.56,40.86,106.21,41.65L180,280.76c-30.78-.65-57.47-10.67-73.83-24.9Z" transform="translate(-6.22 -102.43)"/><path class="cls-1" d="M89,223.63a31.3,31.3,0,0,1,2.48-12.2H67.91a45.66,45.66,0,0,0-7.24,24.47c0,10.55,3.69,20.88,10.33,30.43l29-16.6C93,241.74,89,232.79,89,223.63Z" transform="translate(-6.22 -102.43)"/><path class="cls-1" d="M173.53,173.31l-1.06-6.94a205.16,205.16,0,0,0-51.95,9.32l10.91,5.15A157.16,157.16,0,0,1,173.53,173.31Z" transform="translate(-6.22 -102.43)"/><path class="cls-1" d="M71.61,206.21H94.23c5.86-9.3,16.4-17.06,30.15-22.74L113.88,178C95.57,184.94,80.88,194.56,71.61,206.21Z" transform="translate(-6.22 -102.43)"/><path class="cls-1" d="M298,274.31,263.2,256.19C248.08,269.37,223,278.58,194,280.44l5,34.33C242.34,312.14,279.15,296.39,298,274.31Z" transform="translate(-6.22 -102.43)"/><path class="cls-1" d="M175.43,185.78,174.24,178a120.7,120.7,0,0,0-34.36,6.8l12.24,5.77A80.37,80.37,0,0,1,175.43,185.78Z" transform="translate(-6.22 -102.43)"/><path class="cls-1" d="M109.47,206.21h22.32c2.38-4.67,6.88-8.86,12.91-12.21l-12-6.22C122.3,192.62,114.21,199,109.47,206.21Z" transform="translate(-6.22 -102.43)"/><path class="cls-1" d="M178.58,264.45l-1.91-22.51c-12.85-.63-24.33-3.85-32.71-8.71l-23.55,14.09C133.88,257.27,154.83,263.86,178.58,264.45Z" transform="translate(-6.22 -102.43)"/><path class="cls-1" d="M104.73,221.15c0,7.43,3.34,14.43,9.22,20.55l23.26-13.34c-4.64-4.25-7.32-9.22-7.32-14.53a16,16,0,0,1,.19-2.4H106.69A25.72,25.72,0,0,0,104.73,221.15Z" transform="translate(-6.22 -102.43)"/><path class="cls-1" d="M244.67,246.54l-25.85-13.46c-7.84,4.62-18.46,7.78-30.4,8.69l3.25,22.39C213.45,262.64,232.41,256,244.67,246.54Z" transform="translate(-6.22 -102.43)"/><path class="cls-1" d="M56,285.84,17.15,309.08c25.35,47.35,92.21,86.57,173.06,92.75l-5-59.41C128.89,341.51,79.87,317.34,56,285.84Z" transform="translate(-6.22 -102.43)"/><path class="cls-1" d="M171.83,162.21l-.93-6.12c-25,1.43-47.6,5.43-67.54,11.51l9.94,4.69A246.26,246.26,0,0,1,171.83,162.21Z" transform="translate(-6.22 -102.43)"/><path class="cls-1" d="M376.65,315.24l-50.77-26.43c-16.53,29.54-55.79,50.71-122.9,53.36l8.78,60.5h.67C302.42,402.68,357.5,364.86,376.65,315.24Z" transform="translate(-6.22 -102.43)"/><path class="cls-1" d="M106.87,174.4l-9.45-4.9c-26.51,8.88-47.91,21.54-63.3,36.71H55.58C67.22,192.82,85,182,106.87,174.4Z" transform="translate(-6.22 -102.43)"/><path class="cls-1" d="M40.59,244.18a55.51,55.51,0,0,1,10.86-32.75H29.14C14.23,228.15,6.22,247.53,6.22,268a83.24,83.24,0,0,0,6.51,31.7l38-21.76C44.18,267.18,40.59,255.72,40.59,244.18Z" transform="translate(-6.22 -102.43)"/></g><g id="Text"><path class="cls-1" d="M204.11,142.41H191V173.6h12.05c4.78,0,14.17-1.86,14.17-15.59S206.77,142.41,204.11,142.41Zm-.55,25.79h-6.18V147.82h6.73c1.36,0,6.73,1.21,6.73,10.19S206,168.2,203.56,168.2Z" transform="translate(-6.22 -102.43)"/><polygon class="cls-1" points="215.07 39.98 231.99 39.98 231.99 45.38 221.27 45.38 221.27 53.09 231.99 53.09 231.99 58.14 221.27 58.14 221.27 65.77 231.99 65.77 231.99 71.61 215.07 71.61 215.07 39.98"/><polygon class="cls-1" points="219.94 34.05 222.34 35.99 229.42 30.06 225.35 27.14 219.94 34.05"/><path class="cls-1" d="M254.16,142.41H242.47V174h6.2V161.9h5.67c2.92,0,9.21-1.33,9.21-9.92S256,142.41,254.16,142.41Zm-1.68,14.53h-3.81v-9.12h3.72c3.1,0,4.6,1.68,4.6,4.56S255.31,156.94,252.48,156.94Z" transform="translate(-6.22 -102.43)"/><path class="cls-1" d="M266.5,142.41h6.26V162.2c0,4.25,2.37,6.61,6.15,6.61s6.49-2.6,6.49-6.73V142.41h6.14V162.2c0,6.61-4,12.4-12.52,12.4s-12.52-5.55-12.52-12.17Z" transform="translate(-6.22 -102.43)"/><polygon class="cls-1" points="287.68 39.98 306.82 39.98 306.82 45.38 300.44 45.38 300.44 71.17 294.3 71.17 294.3 45.38 287.68 45.38 287.68 39.98"/><polygon class="cls-1" points="309.39 39.98 326.31 39.98 326.31 45.38 315.59 45.38 315.59 53.09 326.31 53.09 326.31 58.14 315.59 58.14 315.59 65.77 326.31 65.77 326.31 71.61 309.39 71.61 309.39 39.98"/><polygon class="cls-1" points="314.26 34.05 316.65 35.99 323.74 30.06 319.66 27.14 314.26 34.05"/><path class="cls-1" d="M347.41,155.34c-.93-.37-4.84-.39-4.84-4.46s3.36-3.72,4.16-3.72a5.49,5.49,0,0,1,4.7,2.24l3.27-4.29s-2.48-3.58-8.23-3.58-10.63,4.29-10.63,9.93,4.63,8,7.34,8.77c1.41.43,4.84.38,4.84,4.46s-3.36,3.71-4.16,3.71a5.47,5.47,0,0,1-4.69-2.24l-3.28,4.3s2.48,3.58,8.24,3.58,10.63-4.3,10.63-9.94S350.62,156.16,347.41,155.34Z" transform="translate(-6.22 -102.43)"/><path class="cls-1" d="M373.13,129.57H383v28.94c0,5.78,2.93,7.11,6.38,7.11s15.24-.71,15.24-13.64V129.57h10.1v42.61l-9.92,2.92v-7.44s-4.34,7.44-15.51,7.44-16.12-8.59-16.12-13.64Z" transform="translate(-6.22 -102.43)"/><path class="cls-1" d="M455,105v25.28s-4.72-2-12.75-2-23.15,7.32-23.15,24,13,22.27,21.85,22.27S455,170.23,455,170.23v4.87l10.4-4.16V102.43Zm-.11,56.81a18,18,0,0,1-12.64,5.32c-7.92,0-13.11-4.25-13.11-14.83s8.5-16.59,15.47-16.59,10.28,3,10.28,3Z" transform="translate(-6.22 -102.43)"/><polygon class="cls-1" points="470.05 29.77 479.74 27.14 479.74 70.4 470.05 70.4 470.05 29.77"/><polygon class="cls-1" points="472.38 6.94 474.89 1.71 477.38 6.94 482.6 7.8 478.76 11.55 479.53 17.54 474.89 14.76 469.9 17.33 470.79 11.81 466.69 7.65 472.38 6.94"/><path class="cls-1" d="M216.55,208.85l4.75-3.72-3.7-4.55-4.43,3.9-4.48-5.43s6.79-3.49,6.37-9.21-5.49-8-9-8-9.16,2.69-9.16,8.79a9.25,9.25,0,0,0,3.37,7.28s-6.11,3.45-7.56,4.9-2.66,7.56.53,10.75,8.45,6.55,18.37-1.77l3.54,4.6,7.5-.06ZM198.17,210c-3.63-3.63,5.26-7.73,5.26-7.73l4.43,5.61S201.81,213.61,198.17,210Zm7-15.11s-5.55-6.09.83-7.74C210.84,186.41,209.75,194.86,205.14,194.86Z" transform="translate(-6.22 -102.43)"/><rect class="cls-1" x="231.7" y="86.52" width="5.26" height="26.22"/><polygon class="cls-1" points="241.15 112.74 241.15 86.52 246.61 86.52 259.51 106.13 259.51 86.52 264.65 86.52 264.65 112.74 259.22 112.74 245.69 92.78 245.69 112.74 241.15 112.74"/><path class="cls-1" d="M285.63,189.3H274.75v25.88h10c4,0,11.76-1.55,11.76-12.94S287.83,189.3,285.63,189.3Zm-.46,21.39H280V193.78h5.59c1.13,0,5.58,1,5.58,8.46S287.21,210.69,285.17,210.69Z" transform="translate(-6.22 -102.43)"/><polygon class="cls-1" points="293.88 86.74 307.94 86.74 307.94 91.18 299.04 91.18 299.04 97.52 307.94 97.52 307.94 101.67 299.04 101.67 299.04 107.94 307.94 107.94 307.94 112.74 293.88 112.74 293.88 86.74"/><polygon class="cls-1" points="297.93 81.86 299.92 83.46 305.81 78.58 302.42 76.18 297.93 81.86"/><path class="cls-1" d="M327.78,189.17h-10v26h5.32v-10h4.86c2.51,0,7.91-1.09,7.91-8.15S329.38,189.17,327.78,189.17Zm-1.44,11.94h-3.27v-7.5h3.19c2.66,0,3.95,1.39,3.95,3.75S328.77,201.11,326.34,201.11Z" transform="translate(-6.22 -102.43)"/><polygon class="cls-1" points="331.27 86.74 345.32 86.74 345.32 91.18 336.42 91.18 336.42 97.52 345.32 97.52 345.32 101.67 336.42 101.67 336.42 107.94 345.32 107.94 345.32 112.74 331.27 112.74 331.27 86.74"/><polygon class="cls-1" points="349.52 112.74 349.52 86.52 354.98 86.52 367.88 106.13 367.88 86.52 373.02 86.52 373.02 112.74 367.59 112.74 354.06 92.78 354.06 112.74 349.52 112.74"/><path class="cls-1" d="M393.9,189.3H383v25.88h10c4,0,11.76-1.55,11.76-12.94S396.11,189.3,393.9,189.3Zm-.45,21.39h-5.13V193.78h5.58c1.14,0,5.59,1,5.59,8.46S395.49,210.69,393.45,210.69Z" transform="translate(-6.22 -102.43)"/><path class="cls-1" d="M420.88,189.3H415l-10,25.88h5.49l1.78-5.21h11.1l1.83,5.21h5.61ZM414.15,206l3.8-12.24L421.88,206Z" transform="translate(-6.22 -102.43)"/><polygon class="cls-1" points="425.7 112.74 425.7 86.52 431.16 86.52 444.07 106.13 444.07 86.52 449.2 86.52 449.2 112.74 443.77 112.74 430.25 92.78 430.25 112.74 425.7 112.74"/><polygon class="cls-1" points="450.7 86.52 466.85 86.52 466.85 91.06 461.46 91.06 461.46 112.75 456.28 112.75 456.28 91.06 450.7 91.06 450.7 86.52"/><path class="cls-1" d="M484.08,200.09c-.76-.3-3.91-.31-3.91-3.6s2.71-3,3.36-3a4.41,4.41,0,0,1,3.78,1.8l2.65-3.46a8.12,8.12,0,0,0-6.65-2.89c-4.64,0-8.57,3.47-8.57,8s3.74,6.49,5.92,7.07c1.14.36,3.91.32,3.91,3.6s-2.72,3-3.36,3a4.43,4.43,0,0,1-3.79-1.81l-2.64,3.47a8.11,8.11,0,0,0,6.64,2.89c4.65,0,8.58-3.47,8.58-8S486.66,200.75,484.08,200.09Z" transform="translate(-6.22 -102.43)"/></g></svg>