<?xml version="1.0" encoding="UTF-8"?>
<svg id="Layer_1" data-name="Layer 1" xmlns="http://www.w3.org/2000/svg" viewBox="0 0 500 300">
  <defs>
    <style>
      .cls-1 {
        fill: #004b8f;
      }
    </style>
  </defs>
  <g>
    <path class="cls-1" d="m36.4,29.57v4.94c-3.31-3.06-7.72-4.94-12.58-4.94-10.24,0-18.54,8.3-18.54,18.54s8.3,18.54,18.54,18.54c4.86,0,9.27-1.88,12.58-4.94v4.37c0,2.25-3.83,6.08-10.58,6.08s-12.49-3.38-12.49-3.38l-5.74,10.13s9.23,4.5,20.93,4.5c21.95,0,22.28-19.02,22.28-19.02V29.57h-14.41Zm-7.88,25.37c-3.85,0-6.98-3.12-6.98-6.98s3.12-6.98,6.98-6.98,6.98,3.12,6.98,6.98-3.12,6.98-6.98,6.98Z"/>
    <path class="cls-1" d="m58.79,29.57v39.44h16.21v-21.05s-.45-5.06,11.25-5.06v-13.33s-12.49,1.85-12.49,5.34v-5.34h-14.97Z"/>
    <path class="cls-1" d="m111.58,29.03c-12.49,0-22.62,9.07-22.62,20.26s10.13,20.26,22.62,20.26,22.62-9.07,22.62-20.26-10.13-20.26-22.62-20.26Zm0,27.93c-3.73,0-6.75-3.44-6.75-7.68s3.02-7.68,6.75-7.68,6.75,3.44,6.75,7.68-3.02,7.68-6.75,7.68Z"/>
    <path class="cls-1" d="m139.94,29.57h15.31v21.43s.34,5.49,5.18,5.49,5.85-4.03,5.85-5.38v-21.54h15.98v39.44h-14.86v-3.6s-3.71,4.14-11.14,4.14-16.32-4.93-16.32-14.61v-25.37Z"/>
    <path class="cls-1" d="m215.51,29.62c-3.98,0-7.64,1.44-10.64,3.84v-3.84h-15.19v53.23h15.19v-16.67c2.99,2.41,6.66,3.84,10.64,3.84,10.04,0,18.18-9.04,18.18-20.2s-8.14-20.2-18.18-20.2Zm-4.05,28.25c-3.64,0-6.58-3.64-6.58-8.13s2.95-8.13,6.58-8.13,6.58,3.64,6.58,8.13-2.95,8.13-6.58,8.13Z"/>
    <path class="cls-1" d="m281.4,51.9c0-12.49-9.72-22.62-21.72-22.62s-21.72,10.13-21.72,22.62c0,.3.01.6.02.9,0,0-.25,16.75,23.39,16.75,13.84,0,16.32-5.72,16.32-5.72l-7.32-8.1s-4.05,2.93-8.55,2.93-7.99-2.25-7.99-5.85h27.55c.01-.3.02-.6.02-.9Zm-27.57-5.85c0-3.23,2.77-5.85,6.19-5.85s6.19,2.62,6.19,5.85h-12.38Z"/>
  </g>
  <g>
    <path class="cls-1" d="m10.41,106.82h55.64l.03,88.55s1.23,21.52,18.82,21.52c22.28,0,26-20.35,26-25.65v-84.42h53.35v154.55h-54.01v-19.49s-18.75,22.96-47.28,22.96c-38.66,0-52.55-20.67-52.55-58.6v-99.42Z"/>
    <path class="cls-1" d="m253.83,264.83c35.45,0,41.46-14.71,52.18-24.2v21.16h54.4V52.01h-54.4v72.48c-10.71-9.49-19.65-21.92-52.18-21.92-35.94,0-65.08,35.64-65.08,79.61s29.14,82.65,65.08,82.65Zm20.75-116.71c18.53,0,31.58,16.69,31.58,34.37s-9.45,36.76-31.58,36.76c-20.75,0-32.57-19.07-32.57-36.76s14.63-34.37,32.57-34.37Z"/>
    <path class="cls-1" d="m390.57,106.03v156.1h54.2v-59.09s-2.43-41.36,49.34-41.36v-59.14c-29.96,0-41.78,17.53-49.43,34.33v-30.84h-54.11Z"/>
  </g>
</svg>