<svg id="Layer_1" data-name="Layer 1" xmlns="http://www.w3.org/2000/svg" viewBox="0 0 98.42 250"><title>icon-person</title><circle cx="49.13" cy="28" r="28"/><path d="M167,71.29a88.94,88.94,0,0,0-19.14-7.48h0a8.36,8.36,0,0,0-7.55,1.36V65.1l-12.5,8.35a6.3,6.3,0,0,1-6.48,0l-12.21-8.3v.05a8.42,8.42,0,0,0-7.58-1.36v-.07a88.21,88.21,0,0,0-19.9,7.84h0a11.74,11.74,0,0,0-6.24,10.34v55h.05a.75.75,0,0,0-.05.26c0,14.38,17.64,30.13,17.64,38.47a1.61,1.61,0,0,0,.06.44v62.17A11.75,11.75,0,0,0,104.88,250H145a11.7,11.7,0,0,0,11.67-11.72v-4.94h.05l-.19-57.69c.18-9.05,17.38-22.91,17.38-38.51,0-.07,0-.14,0-.2h0v-55A11.77,11.77,0,0,0,167,71.29Z" transform="translate(-75.46)"/></svg>