<?xml version="1.0" encoding="utf-8"?>
<!-- Generator: Adobe Illustrator 24.0.1, SVG Export Plug-In . SVG Version: 6.00 Build 0)  -->
<svg version="1.1" id="Layer_1" xmlns="http://www.w3.org/2000/svg" xmlns:xlink="http://www.w3.org/1999/xlink" x="0px" y="0px"
	 viewBox="0 0 500 500" style="enable-background:new 0 0 500 500;" xml:space="preserve">
<path d="M446.3,355.7h-3.7c-11.3,0-21.9,4.7-29.2,12.6c-26.3,28.7-62.1,46.3-101.4,46.3c-53.7,0-100.7-32.8-126-81.6h139.6
	c16.2,0,29.4-13.2,29.4-29.4c0-16.2-13.2-29.4-29.4-29.4h-158c-1-7.8-1.6-15.8-1.6-23.9c0-8,0.5-15.8,1.5-23.5h158
	c16.2,0,29.4-13.2,29.4-29.4c0-16.2-13.2-29.4-29.4-29.4H185.7c25.3-49,72.4-82,126.3-82c39.4,0,75.2,17.7,101.4,46.3
	c7.3,7.9,17.9,12.6,29.2,12.6h3.7c31.9,0,49.2-33.7,29.1-56.2c-0.9-1-1.7-1.9-2.6-2.9C430.2,40,373.1,14.7,312,14.7
	c-61.2,0-118.3,25.3-160.8,71.3c-22.1,23.8-38.8,51.8-49.5,82.2H44.4c-16.2,0-29.4,13.2-29.4,29.4c0,16.2,13.2,29.4,29.4,29.4h44.4
	c-0.7,7.8-1.1,15.6-1.1,23.5c0,8,0.4,16,1.1,23.9H44.4c-16.2,0-29.4,13.2-29.4,29.4c0,16.2,13.2,29.4,29.4,29.4h57.4
	c10.7,30.2,27.4,58,49.3,81.7C193.7,460.7,250.8,486,312,486c61.2,0,118.3-25.3,160.8-71.3c0.9-0.9,1.7-1.9,2.6-2.9
	C495.5,389.4,478.2,355.7,446.3,355.7z"/>
</svg>
