<svg id="Layer_1" data-name="Layer 1" xmlns="http://www.w3.org/2000/svg" viewBox="0 0 243.71 191.33"><title>icon-palace</title><path d="M242.54,87.31,128.65,30a9.28,9.28,0,0,0-8.19,0L6.57,87.31c-6.91,3.47-4,12.35,4.09,12.35H38.91v98.17H25.45a8.09,8.09,0,0,0-8.09,8.09v6.32a8.09,8.09,0,0,0,8.09,8.09h198.1a8.1,8.1,0,0,0,8.1-8.09v-6.32a8.1,8.1,0,0,0-8.1-8.09H210.09V99.66h28.36C246.5,99.66,249.45,90.78,242.54,87.31ZM135.27,99.66v98.17H114.11V99.66Zm-69.41,0H87.41v98.17H65.86Zm117.53,98.17H162.22V99.66h21.17Z" transform="translate(-2.7 -29)"/></svg>