<svg id="Layer_1" data-name="Layer 1" xmlns="http://www.w3.org/2000/svg" viewBox="0 0 249.33 249.59"><title>icon-close</title><path d="M204.88,155l-29.61-29.68,68-68.08a23.13,23.13,0,0,0,0-32.6L225.89,7.26a23.13,23.13,0,0,0-32.6,0l-68,68-67.95-68a23.13,23.13,0,0,0-32.6,0L7.39,24.65a23.13,23.13,0,0,0,0,32.6l68,68.08-68,68.08a23.13,23.13,0,0,0,0,32.6L24.78,243.4a23.11,23.11,0,0,0,32.6,0l67.95-68L154.89,205l38.4,38.4a23.11,23.11,0,0,0,32.6,0L243.28,226a23.13,23.13,0,0,0,0-32.6Z" transform="translate(-0.67 -0.54)"/></svg>