<?xml version="1.0" encoding="utf-8"?>
<!-- Generator: Adobe Illustrator 24.0.1, SVG Export Plug-In . SVG Version: 6.00 Build 0)  -->
<svg version="1.1" id="icon-linkedin" xmlns="http://www.w3.org/2000/svg" xmlns:xlink="http://www.w3.org/1999/xlink" x="0px"
	 y="0px" viewBox="0 0 250 250" style="enable-background:new 0 0 250 250;" xml:space="preserve">
<path d="M227.4,0.3h-205C9.8,0.3-0.3,10.5-0.3,23v205c0,12.5,10.1,22.6,22.6,22.6h205c12.5,0,22.6-10.1,22.6-22.6V23
	C250,10.5,239.9,0.3,227.4,0.3z M77.1,216.5c0,3.6-3,6.6-6.6,6.6H42.5c-3.6,0-6.6-3-6.6-6.6V98.9c0-3.6,3-6.6,6.6-6.6h28.1
	c3.6,0,6.6,3,6.6,6.6V216.5z M56.5,81.2c-14.7,0-26.6-11.9-26.6-26.6s11.9-26.6,26.6-26.6s26.6,11.9,26.6,26.6S71.2,81.2,56.5,81.2z
	 M223.7,217c0,3.3-2.7,6.1-6.1,6.1h-30.1c-3.3,0-6.1-2.7-6.1-6.1v-55.2c0-8.2,2.4-36.1-21.5-36.1c-18.6,0-22.3,19-23.1,27.6V217
	c0,3.3-2.7,6.1-6.1,6.1h-29.1c-3.3,0-6.1-2.7-6.1-6.1V98.4c0-3.3,2.7-6.1,6.1-6.1h29.1c3.3,0,6.1,2.7,6.1,6.1v10.3
	c6.9-10.3,17.1-18.3,38.9-18.3c48.2,0,47.9,45,47.9,69.8L223.7,217L223.7,217z"/>
</svg>
