<svg id="Layer_1" data-name="Layer 1" xmlns="http://www.w3.org/2000/svg" viewBox="0 0 206.12 250"><title>copy</title><path d="M212.81,0H90A18.3,18.3,0,0,0,71.71,18.25v7.47h103.9a29.75,29.75,0,0,1,29.73,29.73V203.23h7.47A18.3,18.3,0,0,0,231.06,185V18.25A18.3,18.3,0,0,0,212.81,0Z" transform="translate(-24.94)"/><path d="M165.12,46.77h-121A19.23,19.23,0,0,0,24.94,65.94V230.82A19.23,19.23,0,0,0,44.11,250h121a19.23,19.23,0,0,0,19.17-19.18V65.94A19.23,19.23,0,0,0,165.12,46.77Zm-2.68,102.91a8,8,0,0,1-8,8H57a8,8,0,0,1-8-8v-.8a8,8,0,0,1,8-8h97.44a8,8,0,0,1,8,8Zm0-34.9a8,8,0,0,1-8,8H57a8,8,0,0,1-8-8V114a8,8,0,0,1,8-8h97.44a8,8,0,0,1,8,8Zm0-34.9a8,8,0,0,1-8,8H57a8,8,0,0,1-8-8v-.79a8,8,0,0,1,8-8h97.44a8,8,0,0,1,8,8Z" transform="translate(-24.94)"/></svg>