<svg id="Layer_1" data-name="Layer 1" xmlns="http://www.w3.org/2000/svg" viewBox="0 0 228.68 248.37"><title>icon-distanceparis</title><circle cx="126.8" cy="42.84" r="12"/><circle cx="69.02" cy="129.76" r="12"/><path d="M235.28,184.78c-18.05-13.31-24.2-37.63-26.16-49.05a22.76,22.76,0,0,1,.9-11.22c4-11.66,13.88-36.08,22.94-57l.51-1.19a7.94,7.94,0,0,0-4.55-10.6L161.78,31.14a4.39,4.39,0,0,1-1.67-1.1L134,2.32a4.34,4.34,0,0,0-4.42-1.17l-20,6.13A9.29,9.29,0,0,0,103,16.17V26.32a4.33,4.33,0,0,1-2.1,3.71l-42,25.14a4.46,4.46,0,0,1-1.17.49L16.9,65.85a8.67,8.67,0,0,0-6.58,8.42V88.91a8.62,8.62,0,0,0,3.33,6.83c21.9,16.93,33.55,39.79,34.66,68.15a127.42,127.42,0,0,1-7.67,47.73l-.79,1.9a7.32,7.32,0,0,0,4.74,9.82L134.22,249a8.21,8.21,0,0,0,10.19-5.73c3-11,10.84-28.65,29.26-23.45,3.84,1.08,18.06,4.66,27.44,7.81a9.14,9.14,0,0,0,9.51-2.33l25.82-26.84A9.13,9.13,0,0,0,235.28,184.78ZM79.21,171.73c-7.24,0-17.5-23.68-19.92-36.44a20.51,20.51,0,0,1-.52-4.32v-.31a20.57,20.57,0,1,1,41.14,0c0,.1,0,.21,0,.32a20.43,20.43,0,0,1-.47,4.1C97.07,147.93,86.51,171.73,79.21,171.73ZM99.67,185.6a38.12,38.12,0,0,1-10.59,2.34h-.35a4.77,4.77,0,0,1-.34-9.53,28.18,28.18,0,0,0,7.94-1.76,4.77,4.77,0,1,1,3.34,8.94Zm25.91-22.39a72.12,72.12,0,0,1-6.16,8.15,4.77,4.77,0,0,1-7.17-6.3,62.54,62.54,0,0,0,5.34-7.07,4.77,4.77,0,0,1,8,5.22Zm13-30.61c-.82,3.26-1.77,6.47-2.83,9.54a4.77,4.77,0,0,1-4.51,3.22,4.67,4.67,0,0,1-1.55-.26,4.78,4.78,0,0,1-3-6.07c1-2.81,1.85-5.76,2.6-8.75a4.77,4.77,0,0,1,9.25,2.32Zm3.59-22.79a4.78,4.78,0,0,1-4.76,4.44H137a4.79,4.79,0,0,1-4.43-5.1c.21-3,.32-6.12.32-9.2a4.77,4.77,0,0,1,9.54,0C142.47,103.24,142.35,106.56,142.13,109.81Zm15.56-65.75a20.52,20.52,0,0,1-.48,4.1C154.86,61,144.29,84.81,137,84.81s-17.5-23.68-19.91-36.44a19.87,19.87,0,0,1-.52-4.32c0-.11,0-.21,0-.31a20.57,20.57,0,1,1,41.14,0Z" transform="translate(-10.32 -0.96)"/></svg>