<?xml version="1.0" encoding="utf-8"?>
<!-- Generator: Adobe Illustrator 24.0.1, SVG Export Plug-In . SVG Version: 6.00 Build 0)  -->
<svg version="1.1" id="Layer_1" xmlns="http://www.w3.org/2000/svg" xmlns:xlink="http://www.w3.org/1999/xlink" x="0px" y="0px"
	 viewBox="0 0 750 750" style="enable-background:new 0 0 750 750;" xml:space="preserve">
<path d="M732,76.3c0-16.2-6.6-30.9-17.3-41.5c-10.6-10.7-25.3-17.3-41.5-17.3c-2,0-4,0.1-5.9,0.3H436.8c-32.3,0-58.5,26.2-58.5,58.5
	s26.2,58.5,58.5,58.5h94.5L285.1,381c-22.8,22.8-22.8,59.8,0,82.7c11.4,11.4,26.4,17.1,41.3,17.1c15,0,29.9-5.7,41.3-17.1l247-247
	v96.2c0,32.3,26.2,58.5,58.5,58.5s58.5-26.2,58.5-58.5V82.3C731.9,80.3,732,78.3,732,76.3z"/>
<path d="M622.6,488.1v139.1H123.4V128.1h139.1V22.9H70.8c-29.1,0-52.6,23.6-52.6,52.6v604.4c0,29.1,23.6,52.6,52.6,52.6h604.4
	c29.1,0,52.6-23.6,52.6-52.6V488.1H622.6z"/>
</svg>
