<svg id="Layer_1" data-name="Layer 1" xmlns="http://www.w3.org/2000/svg" viewBox="0 0 84.4 250.12"><title>icon-personw</title><path d="M161.34,71.33A70.32,70.32,0,0,0,148.41,65a14.74,14.74,0,0,0-3.48-1.18l-.14,0a6.49,6.49,0,0,0-1.44-.31s-7.82-1.49-9.43,3.39c0,0-6.12,19.06-6.77,21.14s-3.14,2.43-3.83-.11-7.32-21-7.32-21a6.61,6.61,0,0,0-7-3.82c-1,.18-1.85.35-2.47.48a10.85,10.85,0,0,1-1.84.41,70.33,70.33,0,0,0-16.57,7.68h0A12.12,12.12,0,0,0,82.8,82v55h0a1.27,1.27,0,0,0,0,.26c0,7.24,3.83,14.83,7.63,21.64a130.65,130.65,0,0,1-3.78,24.62c-.88,3.2-.06,6,1.86,7.08A68.28,68.28,0,0,0,98,196.53V238.4c0,6.45,4.52,11.72,10,11.72h34.39c5.52,0,10-5.27,10-11.72v-5h0l-.1-37a69,69,0,0,0,9.48-5.94,4.29,4.29,0,0,0,.48-.36v0h0c1.48-1.3,2-3.79,1.24-6.63A140.55,140.55,0,0,1,160,158.62c3.65-6.47,7.22-13.73,7.22-21.41a1.52,1.52,0,0,0,0-.21h0V82A12,12,0,0,0,161.34,71.33Z" transform="translate(-82.8)"/><circle cx="124.92" cy="28.01" r="28.01" transform="translate(-31.57 132.7) rotate(-67.5)"/></svg>