<svg id="Layer_1" data-name="Layer 1" xmlns="http://www.w3.org/2000/svg" viewBox="0 0 490.67 490.67"><title>icon-info-crossed</title><path d="M255.25,172.76a37.91,37.91,0,1,1,31.93-31.93L383.52,44.5A244.15,244.15,0,0,0,250,5C114.51,5,4.67,114.84,4.67,250.33A244.2,244.2,0,0,0,44.16,383.85Z" transform="translate(-4.67 -5)"/><path d="M281,291.68v78.78a31,31,0,0,1-61.94,0V353.62L116.48,456.17A244.17,244.17,0,0,0,250,495.67c135.49,0,245.33-109.84,245.33-245.34a244.25,244.25,0,0,0-39.49-133.52Z" transform="translate(-4.67 -5)"/></svg>