<svg id="Layer_1" data-name="Layer 1" xmlns="http://www.w3.org/2000/svg" viewBox="0 0 235.07 250"><title>icon-calendar</title><path d="M226.19,37h-18.8V48.64a23,23,0,1,1-45.95,0V37H89.57V49.46a23.17,23.17,0,1,1-46.33,0V37H23.81A16.34,16.34,0,0,0,7.47,53.34V233.66A16.34,16.34,0,0,0,23.81,250H226.19a16.34,16.34,0,0,0,16.34-16.34V53.34A16.34,16.34,0,0,0,226.19,37Zm-4.08,189.53H28.17V89.14H222.11Z" transform="translate(-7.47)"/><path d="M66.4,0A10.91,10.91,0,0,0,55.49,11.38V49.46a10.92,10.92,0,1,0,21.82,0V11.38A10.91,10.91,0,0,0,66.4,0Z" transform="translate(-7.47)"/><path d="M184.41.07A10.71,10.71,0,0,0,173.7,11.25V48.64a10.72,10.72,0,1,0,21.43,0V11.25A10.72,10.72,0,0,0,184.41.07Z" transform="translate(-7.47)"/><rect x="44.58" y="169.95" width="32.65" height="32.87"/><rect x="101.56" y="169.95" width="32.65" height="32.87"/><rect x="101.56" y="113.27" width="32.65" height="32.87"/><rect x="158.84" y="113.27" width="32.65" height="32.87"/><rect x="44.43" y="113.73" width="32.65" height="32.87"/><rect x="158.84" y="169.95" width="32.65" height="32.87"/></svg>