<?xml version="1.0" encoding="utf-8"?>
<!-- Generator: Adobe Illustrator 24.0.1, SVG Export Plug-In . SVG Version: 6.00 Build 0)  -->
<svg version="1.1" id="icon-instagram" xmlns="http://www.w3.org/2000/svg" xmlns:xlink="http://www.w3.org/1999/xlink" x="0px"
	 y="0px" viewBox="0 0 250 250" style="enable-background:new 0 0 250 250;" xml:space="preserve">
<path d="M117.1,50.3L117.1,50.3c-61,0-66.8,1.2-66.8,75c0,73,2.1,75.1,75,75.1c40,0,72.5,4.7,74.5-38
	C205.3,41.5,195.4,50.2,117.1,50.3z M125.3,172.4c-26,0-47-21-47-47s21-47,47-47v0c26,0,47,21.1,47,47S151.3,172.4,125.3,172.4z
	 M174.2,87.5c-6.1,0-11-4.9-11-11s4.9-11,11-11c6.1,0,11,4.9,11,11S180.3,87.5,174.2,87.5z"/>
<path d="M125.3,94.9c-40.4,0-40.3,61,0,61C165.7,155.9,165.7,94.9,125.3,94.9z"/>
<path d="M249.1,55.1c-2.4-31.1-21.6-49-46.8-52.6c-5.8-0.8-6.9-1.1-36.6-1.1C60.7,1.4,37.6-3.2,16.9,18.3l0,0
	C-2.6,38.5,1.4,60,1.4,125.3c0,54.2-9.5,108.6,40.1,121.4c15.5,4,152.5,4,167.9,0c20.6-5.3,37.4-22,39.7-51.2
	C249.4,191.4,249.4,59.3,249.1,55.1z M212,185.3c-13.8,35.3-50.8,31.6-86.7,31.6c-37.2,0-73.1,3.3-86.7-31.6
	c-5.6-14.3-4.8-36.4-4.8-60c0-26.8-0.8-45.5,4.8-60c13.6-34.9,49.2-31.6,86.7-31.6c34.9,0,58.6-2.2,76.2,15.4
	c17.3,17.3,15.4,40.4,15.4,76.2C216.8,152.3,217.7,170.8,212,185.3z"/>
</svg>
