<svg id="Layer_1" data-name="Layer 1" xmlns="http://www.w3.org/2000/svg" viewBox="0 0 247.02 247.02"><title>icon-phone</title><path d="M244.15,186.23l-38.43-38.44a18.82,18.82,0,0,0-26.62,0l-23,23c-10.72,8.31-34.29-4.56-52.57-23.43C84.67,129.07,71.8,105.5,80.11,94.77l23-23a18.81,18.81,0,0,0,0-26.62L64.66,6.74A18.82,18.82,0,0,0,38,6.74L9.92,34.86C-13,57.79,21.16,126.5,72.39,178.5,124.39,229.73,193.1,263.9,216,241l28.12-28.12A18.82,18.82,0,0,0,244.15,186.23Z" transform="translate(-2.65 -1.22)"/></svg>