<?xml version="1.0" encoding="iso-8859-1"?>
<!-- Generator: Adobe Illustrator 24.0.1, SVG Export Plug-In . SVG Version: 6.00 Build 0)  -->
<svg version="1.1" id="Layer_1" xmlns="http://www.w3.org/2000/svg" xmlns:xlink="http://www.w3.org/1999/xlink" x="0px" y="0px"
	 viewBox="0 0 250 250" style="enable-background:new 0 0 250 250;" xml:space="preserve">
<path d="M235.14,184.585c-18.006-13.274-24.149-37.536-26.102-48.93c-0.642-3.748-0.326-7.595,0.897-11.197
	c3.949-11.632,13.848-35.997,22.892-56.907l0.51-1.179c1.807-4.177-0.272-9.013-4.546-10.576l-66.989-24.503
	c-0.631-0.231-1.199-0.606-1.66-1.095L134.105,2.545c-1.126-1.196-2.834-1.649-4.405-1.169l-20.006,6.12
	c-3.896,1.192-6.556,4.788-6.556,8.862v10.132c0,1.517-0.796,2.923-2.098,3.702l-41.857,25.08c-0.365,0.219-0.761,0.382-1.174,0.485
	L17.254,65.925c-3.856,0.962-6.562,4.426-6.562,8.4v14.613c0,2.662,1.215,5.189,3.321,6.817
	c21.854,16.888,33.472,39.692,34.585,67.992c1.027,26.098-7.573,47.421-7.653,47.618l-0.788,1.903
	c-1.665,4.023,0.543,8.599,4.729,9.798l89.428,25.615c4.388,1.257,8.957-1.308,10.167-5.709c3.016-10.976,10.812-28.594,29.194-23.4
	c3.823,1.08,18.019,4.649,27.378,7.793c3.345,1.124,7.039,0.219,9.485-2.324l25.764-26.778
	C240.125,194.288,239.579,187.857,235.14,184.585z M100.388,146.706c-0.668,0.323-1.374,0.476-2.069,0.476
	c-1.768,0-3.466-0.99-4.288-2.688c-1.516-3.134-2.6-6.461-3.222-9.887c-0.469-2.587,1.247-5.064,3.833-5.533
	c2.589-0.468,5.064,1.247,5.533,3.833c0.468,2.579,1.284,5.082,2.425,7.441C103.745,142.715,102.755,145.562,100.388,146.706z
	 M106.884,108.481c-1.728,1.982-3.18,4.183-4.314,6.544c-0.819,1.704-2.521,2.698-4.293,2.698c-0.692,0-1.394-0.151-2.059-0.471
	c-2.369-1.139-3.366-3.983-2.227-6.352c1.505-3.13,3.429-6.049,5.719-8.675c1.728-1.981,4.734-2.187,6.716-0.46
	C108.406,103.493,108.612,106.5,106.884,108.481z M126.007,161.821c-0.5,2.209-2.463,3.709-4.638,3.709
	c-0.348,0-0.702-0.038-1.056-0.119c-3.395-0.769-6.672-1.996-9.74-3.648c-2.315-1.246-3.181-4.132-1.935-6.447
	c1.246-2.315,4.132-3.181,6.447-1.935c2.31,1.243,4.776,2.167,7.331,2.746C124.981,156.708,126.588,159.257,126.007,161.821z
	 M153.046,157.913c-2.721,2.174-5.719,3.971-8.912,5.339c-0.612,0.262-1.248,0.386-1.873,0.386c-1.847,0-3.603-1.081-4.377-2.886
	c-1.036-2.416,0.084-5.214,2.499-6.25c2.406-1.031,4.667-2.386,6.72-4.026c2.053-1.641,5.048-1.306,6.689,0.747
	C155.434,153.277,155.1,156.272,153.046,157.913z M152.484,110.451c-1.549-2.12-3.377-4.023-5.432-5.658
	c-0.553-0.44-0.978-0.98-1.278-1.572c-4.333,11.848-11.409,24.57-16.735,24.57c-7.222,0-17.463-23.627-19.874-36.362
	c-0.32-1.389-0.497-2.832-0.519-4.313c-0.002-0.104-0.004-0.208-0.004-0.308c0-11.335,9.189-20.523,20.523-20.523
	s20.523,9.189,20.523,20.523c0,0.104-0.002,0.211-0.004,0.32c-0.021,1.403-0.184,2.772-0.473,4.093
	c-0.312,1.702-0.77,3.598-1.344,5.604c1.608-0.812,3.608-0.676,5.11,0.518c2.721,2.164,5.141,4.684,7.192,7.491
	c1.551,2.122,1.088,5.1-1.034,6.651c-0.847,0.619-1.83,0.917-2.805,0.917C154.863,112.403,153.416,111.727,152.484,110.451z
	 M166.223,137.95c-0.581,2.111-2.498,3.497-4.586,3.497c-0.418,0-0.843-0.055-1.266-0.172c-2.534-0.698-4.023-3.318-3.326-5.852
	c0.693-2.515,1.044-5.129,1.044-7.768l0-0.077c0-2.629,2.131-4.76,4.76-4.76s4.76,2.131,4.76,4.76v0.025c0,0.019,0,0.032,0,0.051
	C167.609,131.148,167.143,134.611,166.223,137.95z"/>
<circle cx="129.208" cy="86.505" r="12.087"/>
</svg>
