<svg id="Layer_1" data-name="Layer 1" xmlns="http://www.w3.org/2000/svg" viewBox="0 0 98.42 250"><title>icon-persontie</title><circle cx="49.13" cy="28" r="28"/><path d="M167,71.29a89,89,0,0,0-12.91-5.59v0l-.23-.12c-.53-.18-1.06-.36-1.59-.52a5,5,0,0,0-1-.09,5.66,5.66,0,0,0-5.43,4.08l0,0-19.68,50.17c-.78,2-2.06,2-2.85,0L103.75,69.08h0l-.12-.33-.07-.18A5.94,5.94,0,0,0,98,65a6.25,6.25,0,0,0-1.16.11c-.51.16-1,.33-1.52.51l-.23.11a0,0,0,0,0,0,0,88.08,88.08,0,0,0-13.43,5.88h0a11.74,11.74,0,0,0-6.24,10.34v56.24h0c.76,14.12,17.61,29.35,17.61,37.5a1.61,1.61,0,0,0,.06.44v62.17A11.75,11.75,0,0,0,104.88,250H145a11.7,11.7,0,0,0,11.67-11.72v-4.94h.05l-.19-57.69c.18-8.85,16.61-22.3,17.34-37.48h0V81.93A11.77,11.77,0,0,0,167,71.29Z" transform="translate(-75.46)"/><path d="M131.34,63.5h-13c-2.15,0-2.88,1.42-1.63,3.16l4.39,6.09a4.31,4.31,0,0,0-.19.61L118.4,84.17a14.65,14.65,0,0,0,.54,7.43l4.42,11.15c.79,2,2.08,2,2.87,0l4.43-11.27a14.65,14.65,0,0,0,.51-7.43l-2.59-10.69a5.88,5.88,0,0,0-.23-.71l4.55-6C134.19,64.9,133.49,63.5,131.34,63.5Z" transform="translate(-75.46)"/></svg>