<svg class="icon-missingmale" viewBox="0 0 390 500">
	<circle cx="194.5" cy="126.3" r="94.4"/>
	<path d="M217.2,246.1h-43.8c-7.3,0-9.7,4.8-5.5,10.7l14.8,20.5c-0.3,0.7-0.5,1.4-0.6,2.1l-8.5,36.5c-1.6,8.4-0.9,17,1.8,25.1
		l14.9,37.6c2.7,6.7,7,6.7,9.7,0l14.9-38c2.7-8.1,3.3-16.7,1.7-25.1l-8.7-36.1c-0.2-0.8-0.5-1.6-0.8-2.4l15.3-20.2
		C226.8,250.8,224.5,246.1,217.2,246.1z"/>
	<path d="M360.5,500c0.1-0.7,0.1-1.4,0.1-2.1V308.2c-0.1-15.5-9.1-29.4-23.2-35.9c-14-7.4-28.5-13.7-43.5-18.9l-0.8-0.4
		c-1.8-0.6-3.6-1.2-5.4-1.8c-1.1-0.2-2.2-0.3-3.4-0.3c-8.5,0-15.9,5.6-18.3,13.8L199.7,434c-2.6,6.7-6.9,6.7-9.6,0l-66-169.1
		l-0.4-1.1l-0.2-0.6c-3.2-7.4-10.6-12.2-18.8-12c-1.3,0-2.6,0.1-3.9,0.4c-1.7,0.5-3.4,1.1-5.1,1.7l-0.8,0.4
		c-15.6,5.3-30.8,12-45.3,19.8c-12.9,6.8-21,20.3-21,34.9v189.7c0,0.7,0.1,1.4,0.1,2.1H360.5z"/>
</svg>
