<svg id="Layer_1" data-name="Layer 1" xmlns="http://www.w3.org/2000/svg" viewBox="0 0 249.58 249.75"><title>icon-expand</title><path d="M69.28,36.46,94.9,10.84C100.8,4.94,98.8.11,90.45.12L15.33.24A15.3,15.3,0,0,0,.11,15.45L0,90.57C0,98.93,4.81,100.93,10.72,95L36.34,69.4l25.3,25.3a15.23,15.23,0,0,0,21.48,0L94.58,83.25a15.24,15.24,0,0,0,0-21.49Z" transform="translate(0 -0.12)"/><path d="M94.58,166.75,83.12,155.3a15.23,15.23,0,0,0-21.48,0l-25.3,25.3L10.72,155C4.81,149.07,0,151.07,0,159.43l.11,75.12a15.3,15.3,0,0,0,15.22,15.21l75.12.12c8.35,0,10.35-4.82,4.45-10.72L69.28,213.54l25.3-25.3A15.24,15.24,0,0,0,94.58,166.75Z" transform="translate(0 -0.12)"/><path d="M155,83.25,166.46,94.7a15.23,15.23,0,0,0,21.48,0l25.31-25.3L238.86,95c5.91,5.91,10.74,3.91,10.72-4.45l-.11-75.12A15.29,15.29,0,0,0,234.26.24L159.14.12c-8.36,0-10.36,4.82-4.45,10.72l25.62,25.62L155,61.76A15.24,15.24,0,0,0,155,83.25Z" transform="translate(0 -0.12)"/><path d="M238.86,155,213.25,180.6l-25.31-25.3a15.23,15.23,0,0,0-21.48,0L155,166.75a15.24,15.24,0,0,0,0,21.49l25.3,25.3-25.62,25.62c-5.91,5.9-3.91,10.73,4.45,10.72l75.12-.12a15.29,15.29,0,0,0,15.21-15.21l.11-75.12C249.6,151.07,244.77,149.07,238.86,155Z" transform="translate(0 -0.12)"/></svg>