<?xml version="1.0" encoding="utf-8"?>
<!-- Generator: Adobe Illustrator 24.0.1, SVG Export Plug-In . SVG Version: 6.00 Build 0)  -->
<svg version="1.1" id="Layer_1" xmlns="http://www.w3.org/2000/svg" xmlns:xlink="http://www.w3.org/1999/xlink" x="0px" y="0px"
	 viewBox="0 0 500 500" style="enable-background:new 0 0 500 500;" xml:space="preserve">
<style type="text/css">
	.st0{fill:#231F20;}
</style>
<path class="st0" d="M277.4,461.5L451.8,313c16.2-13.8,18.1-38,4.3-54.2l0,0c-13.8-16.2-38-18.1-54.2-4.3L291.1,349V68.5
	c0-22.3-18.1-40.4-40.4-40.4c-22.3,0-40.4,18.1-40.4,40.4v280.7L98.4,256.3c-16.3-13.5-40.5-11.3-54.1,5l0,0
	c-13.5,16.3-11.3,40.5,5,54.1l174.4,144.8C236.2,472.9,259.3,477.6,277.4,461.5z"/>
</svg>
