<svg xmlns="http://www.w3.org/2000/svg" id="Layer_3" data-name="Layer 3" viewBox="0 0 241.25 241.43"><defs><style>.cls-1{fill:#404041}</style></defs><title>iconoral</title><path d="M125.79,4A119.63,119.63,0,1,0,245.42,123.63,119.63,119.63,0,0,0,125.79,4Zm65.56,167.33c-.31,0-.69.06-1.17.08-.81,0-1.86.05-3,.05H64.94c-1.1,0-2.15,0-3-.05-.48,0-.86,0-1.17-.08a5.8,5.8,0,0,1,0-11.58c.32,0,.7-.06,1.18-.08.81,0,1.86-.06,3-.06H187.21c1.11,0,2.16,0,3,.06.48,0,.86.05,1.17.08a5.8,5.8,0,0,1,0,11.58Zm0-41c-.31,0-.69.06-1.17.08-.81,0-1.86,0-3,0H64.94c-1.1,0-2.15,0-3,0-.48,0-.86-.05-1.17-.08a5.8,5.8,0,0,1,0-11.58c.31,0,.69-.06,1.17-.08.81,0,1.86-.06,3-.06H187.21c1.11,0,2.16,0,3,.06.48,0,.86.05,1.17.08a5.8,5.8,0,0,1,0,11.58Zm0-42c-.31,0-.69.06-1.17.08-.81,0-1.86,0-3,0H64.94c-1.1,0-2.15,0-3,0-.48,0-.86,0-1.18-.08a5.8,5.8,0,0,1,0-11.58c.31,0,.69-.06,1.17-.08.81,0,1.86-.06,3-.06H187.21c1.11,0,2.16,0,3,.06.48,0,.86,0,1.17.08a5.8,5.8,0,0,1,0,11.58Z" class="cls-1" transform="translate(-4.16 -4)"/><path d="M42.51,174.42c-3.72-5.12-8.77-4.53-11.21,1.3L5.05,238.32c-2.45,5.84.34,8.65,6.2,6.26L64,223c5.86-2.4,7.6-8.55,3.88-13.67Z" class="cls-1" transform="translate(-4.16 -4)"/></svg>