<svg xmlns="http://www.w3.org/2000/svg" id="Layer_2" data-name="Layer 2" viewBox="0 0 220.78 239.09"><defs><style>.cls-1{fill:#404041}</style></defs><title>iconvote</title><path d="M15,131.85V236.9a8.44,8.44,0,0,0,8.44,8.43h203.9a8.44,8.44,0,0,0,8.43-8.43v-105Z" class="cls-1" transform="translate(-15.03 -6.25)"/><rect width="81.6" height="56.34" x="88.69" y="25.6" class="cls-1" rx="3" transform="translate(-15.12 101.07) rotate(-45)"/><path d="M234.06,113.88a8.86,8.86,0,0,0-.57-1.5l-.21-.42c-.33-.74-.71-1.5-1.14-2.29L207,59.12A11.74,11.74,0,0,0,197.13,53h-15L151.61,83.49h30.88l2.48,0,.85,0a4.27,4.27,0,1,1,0,8.53l-.85,0c-.67,0-1.55,0-2.48,0H143l-17,17a7.65,7.65,0,0,1-10.8,0l-17-17H68.06c-.93,0-1.81,0-2.48,0l-.85,0a4.27,4.27,0,1,1,0-8.53l.85,0,2.48,0H89.51L74.12,68.1a7.66,7.66,0,0,1,0-10.8L78.43,53H53.7a11.74,11.74,0,0,0-9.88,6.11l-26.6,53.27a8,8,0,0,0-.74,2.18c-1.85,5.25-1.17,7.69-1.17,7.69H32.68l202.84.06A20,20,0,0,0,234.06,113.88Z" class="cls-1" transform="translate(-15.03 -6.25)"/></svg>