<svg xmlns="http://www.w3.org/2000/svg" id="Layer_1" data-name="Layer 1" viewBox="0 0 241.88 204.83"><defs><style>.cls-1,.cls-3{fill:#404041}.cls-2{fill:none}.cls-2,.cls-3{stroke:#404041;stroke-miterlimit:10}</style></defs><title>iconcityhall</title><path d="M48.4,117.79c-1.36,1.07-1,1.95.67,1.95h152c1.73,0,2-.88.67-1.94l-74.3-58.3a4.2,4.2,0,0,0-4.94,0Z" class="cls-1" transform="translate(-4.06 -19.5)"/><path d="M48.4,117.79c-1.36,1.07-1,1.95.67,1.95h152c1.73,0,2-.88.67-1.94l-74.3-58.3a4.2,4.2,0,0,0-4.94,0Z" class="cls-2" transform="translate(-4.06 -19.5)"/><path d="M81.66,82c1.35-1.07,1-1.94-.68-1.94H56.92A10.74,10.74,0,0,0,51.3,82L5.42,117.7c-1.37,1.06-1.07,1.93.66,1.93H30.71a10.67,10.67,0,0,0,5.61-1.94Z" class="cls-1" transform="translate(-4.06 -19.5)"/><path d="M81.66,82c1.35-1.07,1-1.94-.68-1.94H56.92A10.74,10.74,0,0,0,51.3,82L5.42,117.7c-1.37,1.06-1.07,1.93.66,1.93H30.71a10.67,10.67,0,0,0,5.61-1.94Z" class="cls-2" transform="translate(-4.06 -19.5)"/><path d="M213.84,117.39a10.62,10.62,0,0,0,5.61,1.94h24.47c1.73,0,2-.87.66-1.93l-45.7-35.6a10.64,10.64,0,0,0-5.62-1.93H169.15c-1.73,0-2,.87-.67,1.93Z" class="cls-1" transform="translate(-4.06 -19.5)"/><path d="M213.84,117.39a10.62,10.62,0,0,0,5.61,1.94h24.47c1.73,0,2-.87.66-1.93l-45.7-35.6a10.64,10.64,0,0,0-5.62-1.93H169.15c-1.73,0-2,.87-.67,1.93Z" class="cls-2" transform="translate(-4.06 -19.5)"/><path d="M124.75,51.8a26.79,26.79,0,0,1,3,.16V23.46c0-1.9-.74-3.46-1.65-3.46h-2.76c-.91,0-1.66,1.56-1.66,3.46V52A29.09,29.09,0,0,1,124.75,51.8Z" class="cls-3" transform="translate(-4.06 -19.5)"/><rect width="39.3" height="95.62" x="186.11" y="108.61" class="cls-1" rx="3.14"/><rect width="39.3" height="95.62" x="186.11" y="108.61" class="cls-2" rx="3.14"/><rect width="40.09" height="95.62" x="16.59" y="108.61" class="cls-1" rx="3.14"/><rect width="40.09" height="95.62" x="16.59" y="108.61" class="cls-2" rx="3.14"/><path d="M124.75,23.31c14.29,0,11.46,5.49,28.5,5.49V48.51c-14,0-11.38-5.73-28.41-5.73C124.83,42.93,124.75,23.31,124.75,23.31Z" class="cls-3" transform="translate(-4.06 -19.5)"/><rect width="113.05" height="10.41" x="64.32" y="108.56" class="cls-1" rx="2.2"/><rect width="113.05" height="10.41" x="64.32" y="108.56" class="cls-2" rx="2.2"/><rect width="113.05" height="10.31" x="64.32" y="194.02" class="cls-1" rx="2.2"/><rect width="113.05" height="10.31" x="64.32" y="194.02" class="cls-2" rx="2.2"/><rect width="16.62" height="86.25" x="73.14" y="113.84" class="cls-3"/><rect width="16.77" height="86.25" x="126.81" y="113.84" class="cls-3"/><rect width="16.67" height="86.25" x="98.6" y="113.84" class="cls-3"/><rect width="16.49" height="86.25" x="152.25" y="113.84" class="cls-3"/></svg>