<svg id="Layer_1" data-name="Layer 1" xmlns="http://www.w3.org/2000/svg" viewBox="0 0 248.14 248.14"><title>icon-plus</title><path d="M187,96.2l-33.65,0,0-77.23A18.55,18.55,0,0,0,134.8.43H115.06a18.55,18.55,0,0,0-18.5,18.5l0,77.17-77.17,0a18.55,18.55,0,0,0-18.5,18.5V134.3a18.55,18.55,0,0,0,18.5,18.5l77.23,0,0,77.23a18.55,18.55,0,0,0,18.5,18.5h19.74a18.55,18.55,0,0,0,18.5-18.5l0-77.17,33.59,0h43.58a18.55,18.55,0,0,0,18.5-18.5V114.7a18.55,18.55,0,0,0-18.5-18.5Z" transform="translate(-0.93 -0.43)"/></svg>