<svg xmlns="http://www.w3.org/2000/svg" id="Layer_2" data-name="Layer 2" viewBox="0 0 201.88 244.22"><defs><style>.cls-1{fill:#404041}</style></defs><title>iconwrite</title><path d="M136.84,236.51h63.5a7,7,0,0,0,7-7V193.69Z" class="cls-1" transform="translate(-24.23 -3)"/><path d="M106.66,242.58,218.2,174.82a16.43,16.43,0,1,0-17.06-28.08L89.36,214.65l-.09.06c-4.41,2.71-7.51,8.63-7.51,8.63L70,243.06h0l0,0-.49.81c-.64,1.28-1.23,3.52,2.67,3.3l23.06-1.62h0s6.68-.1,11.08-2.83Z" class="cls-1" transform="translate(-24.23 -3)"/><path d="M200.34,3H31.22a7,7,0,0,0-7,7V229.52a7,7,0,0,0,7,7H61.73L76.31,212a6.82,6.82,0,0,1,2.1-2.2c2.15-1.85,5.09-3.84,5.09-3.84l112.2-68.17A26.79,26.79,0,0,1,207.33,134V10A7,7,0,0,0,200.34,3Zm-21.8,122.32c-.26,0-.6.05-1,.06-.73,0-1.67.05-2.67.05H56.55c-1,0-1.94,0-2.67-.05-.41,0-.75,0-1-.06a5.27,5.27,0,0,1,0-10.54c.26,0,.6,0,1-.06.73,0,1.67,0,2.67,0H174.86c1,0,1.94,0,2.67,0,.41,0,.75,0,1,.06a5.27,5.27,0,0,1,0,10.54Zm0-39.49-1,.06c-.73,0-1.67,0-2.67,0H56.55c-1,0-1.94,0-2.67,0l-1-.06a5.28,5.28,0,0,1,0-10.55l1-.06c.73,0,1.67,0,2.67,0H174.86c1,0,1.94,0,2.67,0l1,.06a5.28,5.28,0,0,1,0,10.55Zm0-36.35c-.26,0-.6,0-1,.05-.73,0-1.67,0-2.67,0H56.55c-1,0-1.94,0-2.67,0-.41,0-.75,0-1-.05a5.28,5.28,0,0,1,0-10.55l1-.06c.73,0,1.67,0,2.67,0H174.86c1,0,1.94,0,2.67,0l1,.06a5.28,5.28,0,0,1,0,10.55Z" class="cls-1" transform="translate(-24.23 -3)"/></svg>