<svg id="Layer_1" data-name="Layer 1" xmlns="http://www.w3.org/2000/svg" viewBox="0 0 230.81 227.44"><defs><style>.cls-1{fill:#333;}</style></defs><title>iconrefresh</title><path class="cls-1" d="M130.07,15.74a109.64,109.64,0,0,0-82.24,37V26.41A18.31,18.31,0,0,0,29.58,8.16H27.44A18.3,18.3,0,0,0,9.19,26.41V102A18.31,18.31,0,0,0,27.44,120.2H103A18.3,18.3,0,0,0,121.23,102V99.81A18.3,18.3,0,0,0,103,81.56H74.64A70.86,70.86,0,1,1,73,167.61a19.68,19.68,0,0,0-15.88-7.88c-16,0-25.06,18.17-15.59,31a109.92,109.92,0,1,0,88.57-175Z" transform="translate(-9.19 -8.16)"/></svg>