<svg id="Layer_2" data-name="Layer 2" xmlns="http://www.w3.org/2000/svg" viewBox="0 0 95.14 241.67"><defs><style>.cls-1{fill:#404041;}</style></defs><title>iconpersontie</title><circle class="cls-1" cx="47.49" cy="27.07" r="27.07"/><path class="cls-1" d="M166,72.92a85.53,85.53,0,0,0-12.47-5.41.06.06,0,0,0,0,0l-.22-.12-1.54-.5a4.7,4.7,0,0,0-.92-.09,5.47,5.47,0,0,0-5.25,3.94h0l-19,48.5c-.75,1.93-2,1.93-2.75,0l-19-48.49h0c0-.1-.07-.21-.11-.31l-.07-.18a5.75,5.75,0,0,0-5.34-3.45,5.91,5.91,0,0,0-1.12.11l-1.47.49-.22.11v0a85.13,85.13,0,0,0-13,5.68h0a11.36,11.36,0,0,0-6,10v54.37h0c.73,13.64,17,28.37,17,36.24a1.55,1.55,0,0,0,.07.43v60.1a11.36,11.36,0,0,0,11.32,11.33h38.76a11.32,11.32,0,0,0,11.29-11.33l0-4.78H156l-.19-55.77c.18-8.55,16.06-21.56,16.76-36.22h0V83.2A11.35,11.35,0,0,0,166,72.92Z" transform="translate(-77.43 -4)"/><path class="cls-1" d="M131.45,65.38H118.93c-2.08,0-2.78,1.38-1.57,3.06l4.24,5.88a4.14,4.14,0,0,0-.18.6L119,85.37a14,14,0,0,0,.52,7.18l4.27,10.78c.76,1.93,2,1.93,2.77,0l4.28-10.89a14,14,0,0,0,.49-7.18l-2.5-10.34a5.39,5.39,0,0,0-.22-.68L133,68.4C134.2,66.74,133.53,65.38,131.45,65.38Z" transform="translate(-77.43 -4)"/></svg>