<svg id="Layer_1" data-name="Layer 1" xmlns="http://www.w3.org/2000/svg" viewBox="0 0 250 250"><title>icon-wip</title><path d="M240,207.67l-67.61-67.61A46.87,46.87,0,0,0,113,80.81l29,29a7.82,7.82,0,0,1,0,11l-18.41,18.4a7.8,7.8,0,0,1-11,0l-29-29a46.87,46.87,0,0,0,55,60.6L207.67,240a18,18,0,0,0,25.4,0l6.92-6.92A18,18,0,0,0,240,207.67Z"/><path d="M241.92,102.1h-15a101.15,101.15,0,0,0-14-32.69l10.9-10.89a8.11,8.11,0,0,0,0-11.43l-21-21a8.11,8.11,0,0,0-11.43,0L179.91,37.71a99.53,99.53,0,0,0-12.41-6.28,100.9,100.9,0,0,0-19.6-6V8.08A8.11,8.11,0,0,0,139.82,0H110.18a8.11,8.11,0,0,0-8.08,8.08V26.76A101.5,101.5,0,0,0,72.37,40L58.52,26.13a8.11,8.11,0,0,0-11.43,0l-21,21a8.11,8.11,0,0,0,0,11.43L40.67,73.06a102.2,102.2,0,0,0-6.28,12.4A101,101,0,0,0,29,102.1H8.08A8.11,8.11,0,0,0,0,110.18v29.64a8.11,8.11,0,0,0,8.08,8.08H29a101,101,0,0,0,5.4,16.64,102.2,102.2,0,0,0,6.28,12.4L26.13,191.48a8.11,8.11,0,0,0,0,11.43l21,21a8.11,8.11,0,0,0,11.43,0L72.37,210a101.5,101.5,0,0,0,29.73,13.23v18.68a8.11,8.11,0,0,0,8.08,8.08h29.64a8.11,8.11,0,0,0,8.08-8.08V224.61a100.9,100.9,0,0,0,19.6-6,99.53,99.53,0,0,0,12.41-6.28l11.57,11.58a8.11,8.11,0,0,0,11.43,0l21-21a8.11,8.11,0,0,0,0-11.43L213,180.59a101.15,101.15,0,0,0,14-32.69h15a8.11,8.11,0,0,0,8.08-8.08V110.18A8.11,8.11,0,0,0,241.92,102.1ZM128,188.85A63.85,63.85,0,1,1,191.81,125,63.92,63.92,0,0,1,128,188.85Z"/></svg>