<svg id="Layer_1" data-name="Layer 1" xmlns="http://www.w3.org/2000/svg" viewBox="0 0 196.03 250"><title>mandat</title><path d="M200.53,0H51.68A23.66,23.66,0,0,0,28.09,23.59V226.41A23.66,23.66,0,0,0,51.68,250H200.53a23.67,23.67,0,0,0,23.59-23.59V23.59A23.67,23.67,0,0,0,200.53,0ZM57.72,39.76a9.85,9.85,0,0,1,9.83-9.83H187.41a9.86,9.86,0,0,1,9.83,9.83v1a9.86,9.86,0,0,1-9.83,9.83H67.55a9.85,9.85,0,0,1-9.83-9.83Zm0,42.93a9.85,9.85,0,0,1,9.83-9.83H187.41a9.86,9.86,0,0,1,9.83,9.83v1a9.86,9.86,0,0,1-9.83,9.83H67.55a9.85,9.85,0,0,1-9.83-9.83Zm0,43.9v-1a9.85,9.85,0,0,1,9.83-9.83H187.41a9.86,9.86,0,0,1,9.83,9.83v1a9.86,9.86,0,0,1-9.83,9.83H67.55A9.85,9.85,0,0,1,57.72,126.59Zm130.56,77.78v32.19a1.93,1.93,0,0,1-3.17,1.47l-15.58-13.12a1.92,1.92,0,0,0-2.49,0L151.46,238a1.93,1.93,0,0,1-3.18-1.47V204.37a30.16,30.16,0,1,1,40,0Z" transform="translate(-28.09)"/><circle cx="140.2" cy="181.09" r="17.42"/></svg>