<?xml version="1.0" encoding="utf-8"?>
<!-- Generator: Adobe Illustrator 24.0.1, SVG Export Plug-In . SVG Version: 6.00 Build 0)  -->
<svg version="1.1" id="Layer_1" xmlns="http://www.w3.org/2000/svg" xmlns:xlink="http://www.w3.org/1999/xlink" x="0px" y="0px"
	 viewBox="0 0 247.6 246.2" style="enable-background:new 0 0 247.6 246.2;" xml:space="preserve">
<style type="text/css">
	.st0{fill:#231F20;}
</style>
<path class="st0" d="M230.4,22.1L230.4,22.1c-21.4-21.4-56.2-21.4-77.6,0l-31.6,31.6c-1.7,1.7-0.7,4.7,1.8,4.9
	c7.3,0.7,14.5,2.6,21.4,5.7c1.1,0.5,2.4,0.3,3.3-0.6l19.7-19.7c11.4-11.4,29.8-11.4,41.2,0l0,0c11.4,11.4,11.4,29.8,0,41.2
	L161,132.7c-11.4,11.4-29.8,11.4-41.2,0l0,0c-18.6-16.3-34.5,3.3-26.8,16.6c0,0,3.1,3.7,4.8,5.5l0,0c21.4,21.4,56.2,21.4,77.6,0
	l55-55C251.9,78.2,251.9,43.5,230.4,22.1z"/>
<path class="st0" d="M17.2,224.2L17.2,224.2c21.4,21.4,56.2,21.4,77.6,0l31.6-31.6c1.7-1.7,0.7-4.7-1.8-4.9
	c-7.3-0.7-14.5-2.6-21.4-5.7c-1.1-0.5-2.4-0.3-3.3,0.6l-19.7,19.7c-11.4,11.4-29.8,11.4-41.2,0l0,0c-11.4-11.4-11.4-29.8,0-41.2
	l47.4-47.4c11.4-11.4,29.8-11.4,41.2,0l0,0c18.6,16.3,34.5-3.3,26.8-16.6c0,0-3.1-3.7-4.8-5.5l0,0c-21.4-21.4-56.2-21.4-77.6,0
	l-55,55C-4.3,168-4.3,202.7,17.2,224.2z"/>
</svg>
