<svg id="Layer_1" data-name="Layer 1" xmlns="http://www.w3.org/2000/svg" viewBox="0 0 250 199.24"><title>icon-mail</title><path d="M114.93,121.8a14.29,14.29,0,0,0,20.15,0l86.51-86.51c5.54-5.54,3.66-10.08-4.17-10.08H32.59c-7.84,0-9.71,4.54-4.17,10.08Z" transform="translate(0 -25.21)"/><path d="M71.2,114.7,10.08,53.58C4.53,48,0,49.91,0,57.75V191.8c0,7.84,4.53,9.71,10.08,4.17L71.2,134.85A14.29,14.29,0,0,0,71.2,114.7Z" transform="translate(0 -25.21)"/><path d="M160.48,153.18a14.29,14.29,0,0,0-20.15,0l-5.25,5.25a14.38,14.38,0,0,1-20.22-.07l-5.2-5.19a14.29,14.29,0,0,0-20.15,0L28.3,214.38c-5.54,5.54-3.66,10.07,4.17,10.07h185c7.84,0,9.72-4.53,4.18-10.07Z" transform="translate(0 -25.21)"/><path d="M239.92,53.59,178.8,114.72a14.27,14.27,0,0,0,0,20.15L239.92,196c5.55,5.54,10.08,3.66,10.08-4.18V57.76C250,49.92,245.47,48.05,239.92,53.59Z" transform="translate(0 -25.21)"/></svg>