<svg id="Layer_1" data-name="Layer 1" xmlns="http://www.w3.org/2000/svg" viewBox="0 0 212 248.24"><title>icon-group</title><circle cx="102.95" cy="27.8" r="27.8"/><path d="M164.1,71.34a88.4,88.4,0,0,0-19-7.44v0a8.28,8.28,0,0,0-7.5,1.35v-.09l-12.41,8.3a6.28,6.28,0,0,1-6.44,0l-12.12-8.24v0a8.27,8.27,0,0,0-5.07-1.72,8.37,8.37,0,0,0-2.46.37v-.07a88.09,88.09,0,0,0-19.76,7.78h0A11.64,11.64,0,0,0,73.16,81.9v54.62h0a1.17,1.17,0,0,0,0,.26c0,14.28,17.52,29.92,17.52,38.2a1.61,1.61,0,0,0,.06.44v61.73a11.68,11.68,0,0,0,11.64,11.64h39.81a11.63,11.63,0,0,0,11.6-11.64l0-4.91h.06L153.64,175c.18-9,17.25-22.75,17.25-38.24,0-.07,0-.13,0-.2h0V81.9A11.65,11.65,0,0,0,164.1,71.34Z" transform="translate(-19 -0.54)"/><circle cx="33.34" cy="47.3" r="22.17"/><path d="M74.06,181.22c1.47-.76,2.91-1.61,4.32-2.52-6.19-11.16-19.61-26.43-19.61-40.65a1.33,1.33,0,0,1,0-.34h0V80.78C57.42,85,54.5,94.1,54.1,95.36c-.51,1.65-2.48,1.92-3-.09s-5.8-16.67-5.8-16.67a5.24,5.24,0,0,0-5.53-3c-.8.14-1.46.28-2,.39a9.38,9.38,0,0,1-1.46.32,55.1,55.1,0,0,0-13.12,6.08h0A9.58,9.58,0,0,0,19,90.56v43.56h0a1.49,1.49,0,0,0,0,.21c0,5.73,3,11.73,6,17.12a103.56,103.56,0,0,1-3,19.49c-.69,2.53,0,4.71,1.48,5.6a54.32,54.32,0,0,0,7.5,4.71v33.13c0,5.1,3.58,9.28,8,9.28H66.19c4.37,0,7.94-4.18,7.93-9.28l0-3.92h0Z" transform="translate(-19 -0.54)"/><circle cx="172.7" cy="46.79" r="22.32"/><path d="M197.09,75.63H186.76c-1.71,0-2.29,1.14-1.29,2.53L189,83a4,4,0,0,0-.15.49l-2,8.62a11.57,11.57,0,0,0,.43,5.92l3.52,8.89c.63,1.59,1.65,1.59,2.28,0l3.53-9A11.56,11.56,0,0,0,197,92l-2.07-8.53a3.62,3.62,0,0,0-.17-.56l3.62-4.81C199.36,76.75,198.8,75.63,197.09,75.63Z" transform="translate(-19 -0.54)"/><path d="M225.55,81.85a71,71,0,0,0-10.29-4.46v0l-.19-.09-1.26-.42a3.87,3.87,0,0,0-.77-.07,4.51,4.51,0,0,0-4.33,3.25h0l-15.69,40c-.63,1.59-1.65,1.59-2.27,0l-5.46-13.94v31.58h0a2.45,2.45,0,0,1,0,.27c0,14.94-12.28,28.65-18.63,39.48V215a9.36,9.36,0,0,0,9.34,9.34h32a9.33,9.33,0,0,0,9.31-9.34V211h0l-.15-46c.14-7.06,13.25-17.78,13.83-29.88h0V90.33A9.36,9.36,0,0,0,225.55,81.85Z" transform="translate(-19 -0.54)"/></svg>