<svg id="Layer_3" data-name="Layer 3" xmlns="http://www.w3.org/2000/svg" viewBox="0 0 201.88 244.22"><defs><style>.cls-1{fill:#404041;}</style></defs><title>iconqwrite</title><path class="cls-1" d="M136.84,236.52h63.5a7,7,0,0,0,7-7V193.69Z" transform="translate(-24.23 -3)"/><path class="cls-1" d="M106.66,242.59l111.55-67.77a16.43,16.43,0,0,0-17.06-28.08L89.37,214.65l-.09.06c-4.42,2.71-7.51,8.63-7.51,8.63L70,243.07h0l0,0-.49.82c-.64,1.27-1.23,3.51,2.68,3.3l23.06-1.63h0s6.67-.11,11.08-2.83Z" transform="translate(-24.23 -3)"/><path class="cls-1" d="M200.34,3H31.22a7,7,0,0,0-7,7V229.53a7,7,0,0,0,7,7H61.74L76.32,212a6.61,6.61,0,0,1,2.1-2.2c2.15-1.85,5.08-3.84,5.08-3.84l112.2-68.16A26.72,26.72,0,0,1,207.33,134V10A7,7,0,0,0,200.34,3ZM116.07,162.09a13.27,13.27,0,1,1,13.26-13.26A13.27,13.27,0,0,1,116.07,162.09Zm14.69-63v0c-.69.43-5.42,3.75-5.76,13.31,0,.35.06.71.06,1.07a9.62,9.62,0,0,1-19.24,0h-.09c0-27.18,18.27-32.61,18.27-32.61h0a21.79,21.79,0,1,0-28.16-29,9.76,9.76,0,1,1-17.41-8.62,41.21,41.21,0,1,1,52.33,55.82Z" transform="translate(-24.23 -3)"/></svg>