<svg id="Layer_1" data-name="Layer 1" xmlns="http://www.w3.org/2000/svg" viewBox="0 0 208.76 208.9"><defs><style>.cls-1{fill:#404041;}</style></defs><title>iconexpand</title><path class="cls-1" d="M79,51.39,100.43,30c4.95-4.94,3.27-9-3.72-9l-62.83.09A12.79,12.79,0,0,0,21.16,33.82l-.1,62.83c0,7,4,8.67,9,3.72L51.45,79l21.17,21.16a12.75,12.75,0,0,0,18,0l9.58-9.59a12.74,12.74,0,0,0,0-18Z" transform="translate(-21.06 -21)"/><path class="cls-1" d="M100.17,160.37l-9.58-9.58a12.75,12.75,0,0,0-18,0L51.45,172,30,150.52c-5-4.94-9-3.26-9,3.73l.1,62.83A12.78,12.78,0,0,0,33.88,229.8l62.83.1c7,0,8.67-4,3.72-9L79,199.51l21.16-21.17A12.75,12.75,0,0,0,100.17,160.37Z" transform="translate(-21.06 -21)"/><path class="cls-1" d="M150.71,90.52l9.59,9.59a12.74,12.74,0,0,0,18,0L199.43,79l21.42,21.42c5,4.95,9,3.27,9-3.72l-.1-62.83A12.79,12.79,0,0,0,217,21.09L154.17,21c-7,0-8.67,4-3.72,9l21.42,21.43L150.71,72.56A12.74,12.74,0,0,0,150.71,90.52Z" transform="translate(-21.06 -21)"/><path class="cls-1" d="M220.85,150.52,199.43,172l-21.17-21.16a12.74,12.74,0,0,0-18,0l-9.59,9.58a12.75,12.75,0,0,0,0,18l21.16,21.17-21.42,21.42c-4.95,4.95-3.27,9,3.72,9l62.83-.1a12.78,12.78,0,0,0,12.72-12.72l.1-62.83C229.83,147.26,225.8,145.58,220.85,150.52Z" transform="translate(-21.06 -21)"/></svg>