<svg id="Layer_1" data-name="Layer 1" xmlns="http://www.w3.org/2000/svg" viewBox="0 0 213.12 213.34"><defs><style>.cls-1{fill:#404041;}</style></defs><title>iconclose</title><path class="cls-1" d="M193.43,150.82l-25.31-25.37,58.13-58.19a19.75,19.75,0,0,0,0-27.87L211.39,24.53a19.77,19.77,0,0,0-27.87,0L125.44,82.67,67.36,24.53a19.77,19.77,0,0,0-27.87,0L24.63,39.39a19.75,19.75,0,0,0,0,27.87l58.13,58.19L24.63,183.64a19.75,19.75,0,0,0,0,27.87l14.86,14.86a19.77,19.77,0,0,0,27.87,0l58.08-58.14,25.26,25.32,32.82,32.82a19.77,19.77,0,0,0,27.87,0l14.86-14.86a19.75,19.75,0,0,0,0-27.87Z" transform="translate(-18.88 -18.78)"/></svg>