<?xml version="1.0" encoding="iso-8859-1"?>
<!-- Generator: Adobe Illustrator 24.0.1, SVG Export Plug-In . SVG Version: 6.00 Build 0)  -->
<svg version="1.1" id="Layer_1" xmlns="http://www.w3.org/2000/svg" xmlns:xlink="http://www.w3.org/1999/xlink" x="0px" y="0px"
	 viewBox="0 0 250 250" style="enable-background:new 0 0 250 250;" xml:space="preserve">
<path style="fill:#58595B;" d="M234.941,203.719l-64.373-64.373c5.162-15.52,1.569-33.312-10.783-45.664
	c-12.387-12.387-30.243-15.964-45.793-10.74L141.6,110.55c2.905,2.905,2.905,7.614,0,10.519l-17.524,17.524
	c-2.905,2.905-7.614,2.905-10.519,0L85.95,110.986c-5.225,15.55-1.647,33.407,10.74,45.793
	c11.302,11.302,27.159,15.27,41.663,11.909l65.81,65.81c6.678,6.678,17.505,6.678,24.182,0l6.597-6.597
	C241.619,221.224,241.619,210.397,234.941,203.719z"/>
<path style="fill:#58595B;" d="M236.773,103.21h-14.265c-1.246-5.399-2.961-10.689-5.14-15.843
	c-2.267-5.361-4.995-10.462-8.152-15.284l10.369-10.369c2.993-2.993,2.993-7.889,0-10.882l-19.95-19.95
	c-2.993-2.993-7.889-2.993-10.882,0l-11.02,11.02c-3.781-2.251-7.72-4.251-11.811-5.982c-6.048-2.558-12.285-4.476-18.664-5.747
	v-16.48c0-4.232-3.463-7.695-7.695-7.695h-28.214c-4.232,0-7.695,3.463-7.695,7.695v17.783c-4.423,1.163-8.769,2.644-13.021,4.443
	c-5.361,2.267-10.462,4.995-15.284,8.152L62.158,30.883c-2.993-2.993-7.889-2.993-10.882,0l-19.95,19.95
	c-2.993,2.993-2.993,7.889,0,10.882l13.842,13.842c-2.251,3.781-4.251,7.72-5.982,11.811c-2.18,5.154-3.894,10.444-5.14,15.843
	H14.138c-4.232,0-7.695,3.463-7.695,7.695v28.214c0,4.232,3.463,7.695,7.695,7.695h19.907c1.246,5.399,2.961,10.689,5.14,15.843
	c1.73,4.091,3.731,8.03,5.982,11.811l-13.842,13.842c-2.993,2.993-2.993,7.889,0,10.882l19.95,19.95
	c2.993,2.993,7.889,2.993,10.882,0l13.191-13.191c4.821,3.157,9.923,5.885,15.284,8.152c4.253,1.799,8.599,3.28,13.021,4.443v17.783
	c0,4.232,3.463,7.695,7.695,7.695h28.214c4.232,0,7.695-3.463,7.695-7.695v-16.48c6.379-1.271,12.616-3.188,18.664-5.747
	c4.091-1.73,8.03-3.731,11.811-5.982l11.02,11.02c2.993,2.993,7.889,2.993,10.882,0l19.95-19.95c2.993-2.993,2.993-7.889,0-10.882
	l-10.369-10.369c3.157-4.821,5.885-9.923,8.152-15.284c2.18-5.154,3.894-10.444,5.14-15.843h14.265c4.232,0,7.695-3.463,7.695-7.695
	v-28.214C244.467,106.673,241.005,103.21,236.773,103.21z M128.277,185.801c-33.519,0-60.789-27.27-60.789-60.789
	c0-33.519,27.27-60.789,60.789-60.789c33.519,0,60.789,27.27,60.789,60.789C189.065,158.531,161.796,185.801,128.277,185.801z"/>
</svg>
