<svg id="Layer_1" data-name="Layer 1" xmlns="http://www.w3.org/2000/svg" viewBox="0 0 238.16 212.45"><defs><style>.cls-1,.cls-2{fill:#404041;}.cls-1{stroke:#404041;stroke-miterlimit:10;}</style></defs><title>iconbalance</title><path class="cls-1" d="M6,128.1c0,.13,0,.25,0,.38,0,22.33,19.83,40.43,44.29,40.43s44.28-18.1,44.28-40.43v-.38Z" transform="translate(-5.47 -19)"/><path class="cls-1" d="M156,128.15c0,.12,0,.24,0,.37,0,22,19.52,39.79,43.59,39.79s43.6-17.81,43.6-39.79c0-.13,0-.25,0-.37Z" transform="translate(-5.47 -19)"/><rect class="cls-1" x="107.85" y="31.14" width="23.37" height="171.39"/><path class="cls-2" d="M204,63.25H44.13a11.48,11.48,0,1,1,0-23h163a11.48,11.48,0,1,1,0,23H204Z" transform="translate(-5.47 -19)"/><path class="cls-2" d="M75.85,110.06c.82,1.61,1.51,2.91,1.54,2.9s-.63-1.33-1.45-2.94L51.74,62.63c-.82-1.6-1.51-2.91-1.54-2.9s.63,1.34,1.45,2.94Z" transform="translate(-5.47 -19)"/><path class="cls-2" d="M77.4,119.5a6.65,6.65,0,0,1-5.88-3.58l-.39-.74c-.29-.54-.69-1.3-1.11-2.14h0L45.81,65.65c-.42-.83-.8-1.58-1.07-2.13a7.14,7.14,0,0,1-.7-6l1-2.67,2.66-1.15a6.62,6.62,0,0,1,8.41,3.09c.09.17.23.42.39.73.29.55.69,1.31,1.11,2.14L81.78,107c.42.83.8,1.59,1.07,2.14a7.15,7.15,0,0,1,.69,6l-1,2.68L79.93,119A6.52,6.52,0,0,1,77.4,119.5Z" transform="translate(-5.47 -19)"/><path class="cls-2" d="M24.2,110.06c-.82,1.61-1.47,2.93-1.45,2.94s.72-1.3,1.54-2.9L48.5,62.71c.81-1.61,1.47-2.93,1.44-2.94s-.71,1.3-1.53,2.9Z" transform="translate(-5.47 -19)"/><path class="cls-2" d="M22.74,119.54A6.54,6.54,0,0,1,20.2,119l-2.63-1.11-1-2.69a7.14,7.14,0,0,1,.7-6c.27-.56.65-1.31,1.08-2.14l24.2-47.39c.43-.84.82-1.59,1.11-2.14.16-.31.3-.56.4-.73a6.6,6.6,0,0,1,8.42-3.08l2.63,1.11,1,2.69a7.14,7.14,0,0,1-.69,6l-1.08,2.14-24.2,47.39c-.43.84-.82,1.59-1.11,2.14-.17.31-.3.56-.4.73A6.63,6.63,0,0,1,22.74,119.54Z" transform="translate(-5.47 -19)"/><path class="cls-2" d="M225.6,110.06c.82,1.61,1.51,2.91,1.54,2.9s-.63-1.33-1.45-2.94L201.48,62.63c-.82-1.6-1.51-2.91-1.53-2.9s.63,1.34,1.45,2.94Z" transform="translate(-5.47 -19)"/><path class="cls-2" d="M227.15,119.5a6.65,6.65,0,0,1-5.88-3.58l-.39-.74c-.29-.54-.69-1.3-1.11-2.14h0L195.56,65.65l-1.08-2.13a7.2,7.2,0,0,1-.69-6l1-2.67,2.65-1.14a6.61,6.61,0,0,1,8.4,3.09c.1.17.24.42.4.73l1.11,2.14L231.53,107c.42.83.8,1.59,1.07,2.14a7.14,7.14,0,0,1,.7,6l-1,2.68L229.71,119A6.64,6.64,0,0,1,227.15,119.5Z" transform="translate(-5.47 -19)"/><path class="cls-2" d="M174,110.06c-.82,1.61-1.47,2.93-1.45,2.94s.72-1.3,1.54-2.9l24.2-47.39c.82-1.61,1.47-2.93,1.45-2.94s-.72,1.3-1.54,2.9Z" transform="translate(-5.47 -19)"/><path class="cls-2" d="M172.48,119.54A6.48,6.48,0,0,1,170,119l-.06,0-2.61-1.13-1-2.67a7.16,7.16,0,0,1,.71-6c.27-.56.65-1.31,1.07-2.14h0l24.21-47.39c.43-.84.82-1.59,1.11-2.14.16-.31.3-.56.39-.73a6.62,6.62,0,0,1,8.41-3.09l.07,0,2.6,1.13,1,2.67a7.13,7.13,0,0,1-.71,6c-.27.56-.65,1.31-1.07,2.14l-24.21,47.39c-.42.84-.82,1.59-1.11,2.14-.16.31-.3.56-.39.73A6.64,6.64,0,0,1,172.48,119.54Z" transform="translate(-5.47 -19)"/><path class="cls-2" d="M163.12,51.73c-6.05-13.95-20.94-23.82-38.36-23.82S92.44,37.78,86.4,51.73Z" transform="translate(-5.47 -19)"/><ellipse class="cls-2" cx="119.41" cy="17.18" rx="18.82" ry="17.18"/><path class="cls-2" d="M169.08,231.45h-90a11.48,11.48,0,1,1,0-22.95h93.12a11.48,11.48,0,1,1,0,22.95h-3.13Z" transform="translate(-5.47 -19)"/></svg>