<svg id="Layer_1" data-name="Layer 1" xmlns="http://www.w3.org/2000/svg" viewBox="0 0 181.94 220.67"><defs><style>.cls-1{fill:#58595b;}</style></defs><title>iconcopy</title><path class="cls-1" d="M199.89,14.72H91.45A16.16,16.16,0,0,0,75.34,30.83v6.59h91.72A26.27,26.27,0,0,1,193.3,63.66V194.11h6.59A16.16,16.16,0,0,0,216,178V30.83A16.16,16.16,0,0,0,199.89,14.72Z" transform="translate(-34.06 -14.72)"/><path class="cls-1" d="M157.79,56H51A17,17,0,0,0,34.06,72.93V218.46A17,17,0,0,0,51,235.39h106.8a17,17,0,0,0,16.93-16.93V72.93A17,17,0,0,0,157.79,56Zm-2.36,90.84a7.07,7.07,0,0,1-7.05,7h-86a7.07,7.07,0,0,1-7-7v-.7a7.07,7.07,0,0,1,7-7h86a7.07,7.07,0,0,1,7.05,7Zm0-30.81a7.08,7.08,0,0,1-7.05,7.06h-86a7.08,7.08,0,0,1-7-7.06v-.7a7.07,7.07,0,0,1,7-7h86a7.07,7.07,0,0,1,7.05,7Zm0-30.8a7.07,7.07,0,0,1-7.05,7h-86a7.07,7.07,0,0,1-7-7v-.7a7.07,7.07,0,0,1,7-7h86a7.07,7.07,0,0,1,7.05,7Z" transform="translate(-34.06 -14.72)"/></svg>