<svg xmlns="http://www.w3.org/2000/svg" id="Layer_1" data-name="Layer 1" viewBox="0 0 235.66 239.67"><defs><style>.cls-1{fill:#404041}</style></defs><title>iconcirc</title><path d="M241.17,185.72l-4.47-1.15a16.26,16.26,0,0,1-5.34-2.72,62.81,62.81,0,0,1-16.69-24.31,166.85,166.85,0,0,1-6.79-23.86c-.31-1.66-.57-3.06-.57-3.12a2,2,0,0,0-.05-.33c0-.12.07-1.6.2-3.28,0,0,.34-4.37,12.1-31.42,6.5-15,11.9-26.12,11.9-26.12.74-1.52,1.94-4,2.67-5.53l.37-.75a2.68,2.68,0,0,0-1.56-3.77l-67.69-23.7a14.27,14.27,0,0,1-5-3.28L136.64,6.49a5.14,5.14,0,0,0-5-1.29l-17.89,6a4.88,4.88,0,0,0-3.07,4L110,28.37a5.87,5.87,0,0,1-2.88,4.46L74.21,49.65a6.74,6.74,0,0,1-5.46,0L58.14,44.18a2,2,0,0,0-3.07,1.65L53.69,58.25A4.58,4.58,0,0,1,50.35,62L10,70.76a4,4,0,0,0-3,3.73v8.33A6.46,6.46,0,0,0,9.57,87.6S41.64,109,49.19,127.14c8.3,19.87,7.17,41.57,4.76,56.28-2.66,16.25-6.32,25.1-6.32,25.1-.64,1.56-1.7,4.11-2.35,5.67l-.41,1a2.58,2.58,0,0,0,1.79,3.59l100.87,25.82a2,2,0,0,0,2.61-2.29l-.33-2.89a48.12,48.12,0,0,1-.26-6.12s.43-13.87,5-17.1c11.21-7.87,44.64,6,44.64,6,1.56.64,3.74,1.63,4.86,2.19s3,0,4.17-1.18L242,188.68C243.17,187.47,242.8,186.14,241.17,185.72Zm-138.58-40a4.6,4.6,0,0,1-6.15-2.14A37.05,37.05,0,0,1,93.32,134a4.6,4.6,0,0,1,9.06-1.65,27.62,27.62,0,0,0,2.35,7.2A4.61,4.61,0,0,1,102.59,145.74Zm6.28-37a28.54,28.54,0,0,0-4.17,6.33,4.6,4.6,0,0,1-8.3-4,37.74,37.74,0,0,1,5.53-8.39,4.6,4.6,0,1,1,6.94,6Zm18.5,51.59a4.62,4.62,0,0,1-4.49,3.58,4.43,4.43,0,0,1-1-.11,37.07,37.07,0,0,1-9.42-3.53,4.6,4.6,0,0,1,4.36-8.11,27.86,27.86,0,0,0,7.09,2.66A4.61,4.61,0,0,1,127.37,160.36Zm26.15-3.78a37.75,37.75,0,0,1-8.62,5.16,4.65,4.65,0,0,1-1.81.37,4.6,4.6,0,0,1-1.82-8.83,28.58,28.58,0,0,0,6.5-3.89,4.6,4.6,0,0,1,5.75,7.19ZM153,110.67a28.64,28.64,0,0,0-5.25-5.47,4.55,4.55,0,0,1-1.24-1.53c-4.19,11.46-11,23.78-16.18,23.78-7,0-16.89-22.86-19.22-35.17a20.51,20.51,0,0,1-.51-4.17v-.3a19.85,19.85,0,0,1,39.7,0v.31a20.71,20.71,0,0,1-.46,4c-.3,1.64-.75,3.48-1.31,5.43a4.59,4.59,0,0,1,4.95.49,37.9,37.9,0,0,1,7,7.24,4.61,4.61,0,0,1-7.44,5.43Zm13.29,26.6a4.6,4.6,0,0,1-4.43,3.38,4.72,4.72,0,0,1-1.23-.16,4.61,4.61,0,0,1-3.22-5.66,28.35,28.35,0,0,0,1-7.52v-.07a4.61,4.61,0,0,1,9.21,0v.07A37.49,37.49,0,0,1,166.26,137.27Z" class="cls-1" transform="translate(-7.02 -5)"/><circle cx="123.4" cy="82.87" r="11.58" class="cls-1"/></svg>