<svg id="Layer_3" data-name="Layer 3" xmlns="http://www.w3.org/2000/svg" viewBox="0 0 240.32 240.38"><defs><style>.cls-1,.cls-2{fill:#404041;}.cls-1{stroke:#404041;stroke-miterlimit:10;}</style></defs><title>iconloupeoeil</title><path class="cls-1" d="M241.44,214.22,189,161.73A100.18,100.18,0,1,0,162.66,188l52.5,52.5a13.36,13.36,0,0,0,18.83,0l7.45-7.45a13.36,13.36,0,0,0,0-18.83ZM29.3,105.21a76.91,76.91,0,1,1,76.91,76.9A76.91,76.91,0,0,1,29.3,105.21Z" transform="translate(-5.5 -4.5)"/><path class="cls-2" d="M168,85.29C147.23,62.5,125.49,51.5,103.19,52.55c-17.73.84-35.66,9.62-51.87,25.4q-2.13,2.07-4,4.11l.12-.09S23.13,104.9,48.56,128.2l-.17.13c10.69,11.25,21.73,19.32,33,24.08A62.5,62.5,0,0,0,126,154.52c16.79-5.39,30.45-16.92,39.22-26l-.05,0C184.45,109.85,173.72,92.21,168,85.29Zm-7.9,28.37a119.36,119.36,0,0,1-9.06,9.5c-9.63,9-24.84,20-42.64,20.71-18.89.79-37.66-9.82-55.93-31.56-3.43-7.12-.82-13.61,2.45-18.19,1.9-2.15,4-4.4,6.35-6.65l.14-.1-.07,0C71.88,77.24,86.63,67.06,103.9,66.27c18.36-.84,36.81,9,55,29.42C161.94,100.36,163.92,106.68,160.1,113.66Z" transform="translate(-5.5 -4.5)"/><path class="cls-2" d="M107,138.5a33,33,0,1,1,33-33A33,33,0,0,1,107,138.5Zm0-54.7a21.7,21.7,0,1,0,21.7,21.7A21.73,21.73,0,0,0,107,83.8Z" transform="translate(-5.5 -4.5)"/></svg>