<svg id="Layer_1" data-name="Layer 1" xmlns="http://www.w3.org/2000/svg" viewBox="0 0 247.6 246.22"><title>icon-web</title><path d="M83.57,177a188.45,188.45,0,0,0,10.87,37.89c4.56,10.92,10,19.74,15.64,25.5,5.1,5.17,10.23,7.79,15.25,7.79s10.16-2.62,15.25-7.79c5.68-5.76,11.09-14.58,15.64-25.5A187.8,187.8,0,0,0,167.09,177Z" transform="translate(-1.53 -2)"/><path d="M172.09,28.67A209.29,209.29,0,0,1,184.57,73.3H237.8A124.1,124.1,0,0,0,159.89,6.2,112.9,112.9,0,0,1,172.09,28.67Z" transform="translate(-1.53 -2)"/><path d="M184.55,177a209.49,209.49,0,0,1-12.46,44.51A112.62,112.62,0,0,1,159.89,244a124.13,124.13,0,0,0,77.86-67Z" transform="translate(-1.53 -2)"/><path d="M167.11,73.3a188.35,188.35,0,0,0-10.89-38c-4.55-10.92-10-19.74-15.64-25.5C135.49,4.62,130.36,2,125.33,2s-10.15,2.62-15.25,7.79C104.4,15.55,99,24.37,94.44,35.29a189,189,0,0,0-10.89,38Z" transform="translate(-1.53 -2)"/><path d="M78.57,221.55A209.5,209.5,0,0,1,66.12,177H12.92a124.13,124.13,0,0,0,77.85,67A113.64,113.64,0,0,1,78.57,221.55Z" transform="translate(-1.53 -2)"/><path d="M66.1,73.3A209.88,209.88,0,0,1,78.57,28.67,113.92,113.92,0,0,1,90.77,6.2a124.11,124.11,0,0,0-77.9,67.1Z" transform="translate(-1.53 -2)"/><path d="M244.22,90.49H6.44a124.41,124.41,0,0,0,0,69.35H244.19a124.53,124.53,0,0,0,0-69.35ZM81.93,105.67,66.31,148.61a6.29,6.29,0,0,1-5.84,4.13h-.36a6.28,6.28,0,0,1-5.84-4.13l-8.43-23.17-8.42,23.17a6.3,6.3,0,0,1-5.84,4.13h-.37a6.29,6.29,0,0,1-5.84-4.13L9.75,105.67a6.29,6.29,0,0,1,3.76-8h0a6.28,6.28,0,0,1,8,3.75l9.83,27,8.4-23.09a6.27,6.27,0,0,1,5.9-4.13H46a6.27,6.27,0,0,1,5.89,4.13l8.4,23.09,9.84-27a6.26,6.26,0,0,1,8-3.75h0A6.28,6.28,0,0,1,81.93,105.67Zm79.78,0-15.62,42.94a6.29,6.29,0,0,1-5.84,4.13h-.36a6.29,6.29,0,0,1-5.84-4.13l-8.43-23.17-8.42,23.17a6.29,6.29,0,0,1-5.84,4.13H111a6.29,6.29,0,0,1-5.84-4.13L89.53,105.67a6.29,6.29,0,0,1,3.76-8h0a6.28,6.28,0,0,1,8,3.75l9.83,27,8.4-23.09a6.27,6.27,0,0,1,5.9-4.13h.31a6.27,6.27,0,0,1,5.89,4.13l8.4,23.09,9.84-27A6.27,6.27,0,0,1,158,97.62h0A6.27,6.27,0,0,1,161.71,105.67Zm79.55,0-15.62,42.94a6.27,6.27,0,0,1-5.83,4.13h-.37a6.29,6.29,0,0,1-5.84-4.13l-8.43-23.17-8.42,23.17a6.29,6.29,0,0,1-5.84,4.13h-.37a6.29,6.29,0,0,1-5.84-4.13l-15.61-42.94a6.27,6.27,0,0,1,3.75-8h0a6.28,6.28,0,0,1,8,3.75l9.84,27,8.4-23.09A6.26,6.26,0,0,1,205,101.2h.31a6.26,6.26,0,0,1,5.89,4.13l8.4,23.09,9.84-27a6.28,6.28,0,1,1,11.8,4.3Z" transform="translate(-1.53 -2)"/></svg>