<svg id="Layer_1" data-name="Layer 1" xmlns="http://www.w3.org/2000/svg" viewBox="0 0 244 248.83"><title>icon-gear</title><path d="M241.8,158.66l-29.65-16.83a89.94,89.94,0,0,0,0-30.24L241.8,94.76a10.3,10.3,0,0,0,3.87-14L227.06,48a10.32,10.32,0,0,0-14-3.87L183.81,60.68a87.88,87.88,0,0,0-29.68-17.5V10.87A10.3,10.3,0,0,0,143.85.59h-37.7A10.3,10.3,0,0,0,95.87,10.87V43.18a87.88,87.88,0,0,0-29.68,17.5L37,44.09a10.32,10.32,0,0,0-14,3.87L4.33,80.75a10.3,10.3,0,0,0,3.87,14l29.65,16.83a89.94,89.94,0,0,0,0,30.24L8.2,158.66a10.32,10.32,0,0,0-3.87,14l18.61,32.79a10.32,10.32,0,0,0,14,3.87l29.23-16.59a87.88,87.88,0,0,0,29.68,17.5v28.88a10.3,10.3,0,0,0,10.28,10.28h37.7a10.3,10.3,0,0,0,10.28-10.28V210.25a87.88,87.88,0,0,0,29.68-17.5L213,209.34a10.32,10.32,0,0,0,14-3.87l18.61-32.79A10.32,10.32,0,0,0,241.8,158.66ZM125,167.16a40.45,40.45,0,1,1,40.44-40.45A40.49,40.49,0,0,1,125,167.16Z" transform="translate(-3 -0.59)"/></svg>