<svg id="Layer_1" data-name="Layer 1" xmlns="http://www.w3.org/2000/svg" viewBox="0 0 226 224.74"><defs><style>.cls-1{fill:#58595b;}</style></defs><title>iconweb</title><path class="cls-1" d="M86.88,172.4A172.39,172.39,0,0,0,96.8,207c4.16,10,9.1,18,14.28,23.27,4.65,4.72,9.33,7.11,13.92,7.11s9.27-2.39,13.92-7.11C144.1,225,149,217,153.2,207a172.39,172.39,0,0,0,9.92-34.59Z" transform="translate(-12 -12.63)"/><path class="cls-1" d="M179.07,77.71h48.59a113.34,113.34,0,0,0-71.12-61.25A103.45,103.45,0,0,1,167.68,37,191.28,191.28,0,0,1,179.07,77.71Z" transform="translate(-12 -12.63)"/><path class="cls-1" d="M167.68,213a103.45,103.45,0,0,1-11.14,20.51,113.33,113.33,0,0,0,71.07-61.14H179.05A191.16,191.16,0,0,1,167.68,213Z" transform="translate(-12 -12.63)"/><path class="cls-1" d="M163.14,77.71A172.65,172.65,0,0,0,153.2,43c-4.16-10-9.1-18-14.28-23.27-4.65-4.72-9.33-7.11-13.92-7.11s-9.27,2.39-13.92,7.11C105.9,25,101,33.05,96.8,43a172.65,172.65,0,0,0-9.94,34.7Z" transform="translate(-12 -12.63)"/><path class="cls-1" d="M71,172.4H22.39a113.33,113.33,0,0,0,71.07,61.14A103.45,103.45,0,0,1,82.32,213,191.16,191.16,0,0,1,71,172.4Z" transform="translate(-12 -12.63)"/><path class="cls-1" d="M82.32,37A103.45,103.45,0,0,1,93.46,16.46,113.34,113.34,0,0,0,22.34,77.71H70.93A191.28,191.28,0,0,1,82.32,37Z" transform="translate(-12 -12.63)"/><path class="cls-1" d="M233.52,93.4h-217a113.67,113.67,0,0,0,0,63.3h217a113.67,113.67,0,0,0,0-63.3ZM85.2,107.76,71.31,145.94a6.59,6.59,0,0,1-2.7,3.36,5.47,5.47,0,0,1-1.13.58,5.68,5.68,0,0,1-3.7,0,5.47,5.47,0,0,1-1.13-.58,6.59,6.59,0,0,1-2.7-3.36L52.44,125.3l-7.5,20.64a6.66,6.66,0,0,1-2.71,3.36,5.23,5.23,0,0,1-1.13.58,5.68,5.68,0,0,1-3.7,0,5.74,5.74,0,0,1-1.13-.58,6.64,6.64,0,0,1-2.7-3.36L19.69,107.76a6,6,0,0,1,3.24-7.85,6,6,0,0,1,7.53,3.94L39.25,128l7.48-20.57a6.54,6.54,0,0,1,3.3-3.68l.18-.08.21-.09.2-.09a5.27,5.27,0,0,1,1.34-.29h.12l.36,0,.36,0h.12a5.44,5.44,0,0,1,1.35.29l.19.09.21.09.18.08a6.54,6.54,0,0,1,3.3,3.68L65.63,128l8.79-24.17a5.76,5.76,0,1,1,10.78,3.91Zm72.82,0-13.89,38.18a6.59,6.59,0,0,1-2.7,3.36,5.47,5.47,0,0,1-1.13.58,5.68,5.68,0,0,1-3.7,0,5.47,5.47,0,0,1-1.13-.58,6.59,6.59,0,0,1-2.7-3.36l-7.51-20.64-7.5,20.64a6.64,6.64,0,0,1-2.7,3.36,5.74,5.74,0,0,1-1.13.58,5.68,5.68,0,0,1-3.7,0,5.23,5.23,0,0,1-1.13-.58,6.61,6.61,0,0,1-2.71-3.36L92.51,107.76a5.75,5.75,0,1,1,10.77-3.91l8.8,24.17,7.48-20.57a6.49,6.49,0,0,1,3.29-3.68l.18-.08.21-.09.2-.09a5.25,5.25,0,0,1,1.35-.29h.11l.36,0,.37,0h.11a5.25,5.25,0,0,1,1.35.29l.19.09a1.45,1.45,0,0,1,.22.09l.17.08a6.51,6.51,0,0,1,3.3,3.68L138.45,128l8.79-24.17A5.76,5.76,0,1,1,158,107.76Zm72.61,0-13.88,38.18A6.61,6.61,0,0,1,214,149.3a5.23,5.23,0,0,1-1.13.58,5.28,5.28,0,0,1-4.82-.58,6.61,6.61,0,0,1-2.71-3.36l-7.5-20.64-7.51,20.64a6.59,6.59,0,0,1-2.7,3.36,5.47,5.47,0,0,1-1.13.58,5.68,5.68,0,0,1-3.7,0,5.47,5.47,0,0,1-1.13-.58,6.59,6.59,0,0,1-2.7-3.36l-13.89-38.18a5.76,5.76,0,1,1,10.78-3.91L184.69,128l7.48-20.57a6.51,6.51,0,0,1,3.3-3.68l.17-.08.22-.09.19-.09a5.34,5.34,0,0,1,1.35-.29h.11l.37,0,.36,0h.12a5.27,5.27,0,0,1,1.34.29l.2.09.21.09.18.08a6.49,6.49,0,0,1,3.29,3.68L211.06,128l8.8-24.17a5.75,5.75,0,1,1,10.77,3.91Z" transform="translate(-12 -12.63)"/></svg>