<?xml version="1.0" encoding="iso-8859-1"?>
<!-- Generator: Adobe Illustrator 24.0.1, SVG Export Plug-In . SVG Version: 6.00 Build 0)  -->
<svg version="1.1" id="Layer_1" xmlns="http://www.w3.org/2000/svg" xmlns:xlink="http://www.w3.org/1999/xlink" x="0px" y="0px"
	 viewBox="0 0 250 250" style="enable-background:new 0 0 250 250;" xml:space="preserve">
<path style="fill:#404041;" d="M206.023,13H43.311c-3.709,0-6.726,3.017-6.726,6.726v211.215c0,3.709,3.017,6.726,6.726,6.726
	h162.712c3.709,0,6.726-3.017,6.726-6.726V19.726C212.748,16.017,209.731,13,206.023,13z M187.628,179.126l-7.783,13.48
	c-0.141,0.244-0.355,0.502-0.604,0.741v32.128c0,0.742-0.429,0.92-0.954,0.395l-15.29-15.29c-0.525-0.525-1.384-0.525-1.908,0
	l-15.29,15.29c-0.525,0.525-0.954,0.347-0.954-0.395v-32.065c-0.278-0.257-0.521-0.538-0.675-0.804l-7.783-13.48
	c-0.371-0.643-0.569-1.767-0.44-2.498l2.703-15.329c0.129-0.731,0.7-1.719,1.268-2.196l11.924-10.005
	c0.569-0.477,1.641-0.867,2.383-0.867h15.565c0.742,0,1.815,0.39,2.383,0.867l11.924,10.005c0.569,0.477,1.139,1.465,1.268,2.196
	l2.703,15.329C188.197,177.36,187.999,178.484,187.628,179.126z M185.053,130.69c-0.258,0.023-0.577,0.041-0.977,0.056
	c-0.698,0.026-1.609,0.041-2.564,0.041H67.679c-0.955,0-1.866-0.014-2.564-0.041c-0.4-0.015-0.719-0.033-0.977-0.056
	c-3.195-0.282-4.866-2.766-4.866-5.074c0-2.308,1.672-4.792,4.866-5.074c0.258-0.023,0.577-0.041,0.977-0.056
	c0.698-0.026,1.609-0.041,2.564-0.041h113.834c0.955,0,1.866,0.014,2.564,0.041c0.399,0.015,0.719,0.033,0.977,0.056
	c3.195,0.282,4.866,2.766,4.866,5.074C189.92,127.924,188.248,130.408,185.053,130.69z M185.053,92.689
	c-0.258,0.023-0.577,0.041-0.977,0.056c-0.698,0.026-1.609,0.041-2.564,0.041H67.679c-0.955,0-1.866-0.014-2.564-0.041
	c-0.4-0.015-0.719-0.033-0.977-0.056c-3.195-0.282-4.866-2.766-4.866-5.074c0-2.308,1.672-4.792,4.866-5.074
	c0.258-0.023,0.577-0.041,0.977-0.056c0.698-0.026,1.609-0.041,2.564-0.041h113.834c0.955,0,1.866,0.014,2.564,0.041
	c0.399,0.015,0.719,0.033,0.977,0.056c3.195,0.282,4.866,2.766,4.866,5.074C189.92,89.923,188.248,92.407,185.053,92.689z
	 M185.053,57.715c-0.258,0.023-0.577,0.041-0.977,0.056c-0.698,0.026-1.609,0.041-2.564,0.041H67.679
	c-0.955,0-1.866-0.014-2.564-0.041c-0.4-0.015-0.719-0.033-0.977-0.056c-3.195-0.282-4.866-2.766-4.866-5.074
	s1.672-4.792,4.866-5.074c0.258-0.023,0.577-0.041,0.977-0.056c0.698-0.026,1.609-0.041,2.564-0.041h113.834
	c0.955,0,1.866,0.014,2.564,0.041c0.399,0.015,0.719,0.033,0.977,0.056c3.195,0.282,4.866,2.766,4.866,5.074
	S188.248,57.433,185.053,57.715z"/>
<circle style="fill:#404041;" cx="161.953" cy="173.202" r="15.533"/>
</svg>
