<?xml version="1.0" encoding="iso-8859-1"?>
<!-- Generator: Adobe Illustrator 24.0.1, SVG Export Plug-In . SVG Version: 6.00 Build 0)  -->
<svg version="1.1" id="Layer_1" xmlns="http://www.w3.org/2000/svg" xmlns:xlink="http://www.w3.org/1999/xlink" x="0px" y="0px"
	 viewBox="0 0 250 250" style="enable-background:new 0 0 250 250;" xml:space="preserve">
<path style="fill:#4D4D4D;" d="M239.425,182.875l-37.006-37.006c-7.079-7.079-18.556-7.079-25.635,0L154.652,168
	c-10.325,8.005-33.024-4.39-50.629-22.556c-18.165-17.605-30.561-40.304-22.556-50.629l22.131-22.131
	c7.079-7.079,7.079-18.556,0-25.635L66.593,10.043c-7.079-7.079-18.556-7.079-25.635,0L13.875,37.125
	c-22.074,22.074,10.829,88.24,60.161,138.307c50.066,49.332,116.233,82.235,138.307,60.161l27.083-27.083
	C246.504,201.431,246.504,189.954,239.425,182.875z"/>
</svg>
