<svg id="Layer_1" data-name="Layer 1" xmlns="http://www.w3.org/2000/svg" viewBox="0 0 216.81 230.5"><defs><style>.cls-1{fill:#333;}</style></defs><title>iconrefresh</title><path class="cls-1" d="M125.52,24.21A107.52,107.52,0,0,0,54.71,50.69v-23A18,18,0,0,0,36.78,9.76h-2.1A18,18,0,0,0,16.75,27.69v74.23a18,18,0,0,0,17.93,17.93H99.91a18,18,0,0,0,17.93-17.93v-2.1A18,18,0,0,0,99.91,81.89H77.44a69.63,69.63,0,1,1-8,91.56,19.32,19.32,0,0,0-15.61-7.74h0c-15.71,0-24.62,17.85-15.32,30.49a108,108,0,1,0,87-172Z" transform="translate(-16.75 -9.76)"/></svg>