<svg id="Layer_3" data-name="Layer 3" xmlns="http://www.w3.org/2000/svg" viewBox="0 0 207.24 242.67"><defs><style>.cls-1{fill:#404041;}</style></defs><title>icongroup</title><circle class="cls-1" cx="100.63" cy="27.18" r="27.18"/><path class="cls-1" d="M166.11,73.2a85.63,85.63,0,0,0-18.57-7.26h0a8.11,8.11,0,0,0-7.33,1.32v-.08L128.07,75.3a6.12,6.12,0,0,1-6.29,0l-11.85-8v0a8.1,8.1,0,0,0-5-1.68,8,8,0,0,0-2.41.36v-.07a85.72,85.72,0,0,0-19.31,7.61h0a11.38,11.38,0,0,0-6.06,10v53.39h0a1.07,1.07,0,0,0,0,.25c0,14,17.12,29.26,17.12,37.34a1.61,1.61,0,0,0,.06.44v60.34a11.41,11.41,0,0,0,11.38,11.38H144.7A11.36,11.36,0,0,0,156,235.29l0-4.8h.06l-.19-56c.18-8.79,16.87-22.25,16.87-37.38a1.36,1.36,0,0,0,0-.2h0V83.53A11.41,11.41,0,0,0,166.11,73.2Z" transform="translate(-24.27 -4)"/><circle class="cls-1" cx="32.59" cy="46.24" r="21.68"/><path class="cls-1" d="M78.09,180.62c1.44-.75,2.85-1.58,4.23-2.47-6-10.91-19.17-25.83-19.17-39.74a1.19,1.19,0,0,1,.05-.32h-.05V82.43c-1.33,4.13-4.18,13-4.56,14.25-.51,1.61-2.44,1.88-3-.09S50,80.3,50,80.3a5.12,5.12,0,0,0-5.4-3c-.79.14-1.43.27-1.91.38a8.71,8.71,0,0,1-1.43.31A54.33,54.33,0,0,0,28.4,84h0a9.39,9.39,0,0,0-4.15,8v42.58h0a1.49,1.49,0,0,0,0,.21c0,5.6,3,11.47,5.91,16.74a101.06,101.06,0,0,1-2.93,19c-.68,2.47,0,4.61,1.44,5.47a53.38,53.38,0,0,0,7.33,4.6V213c0,5,3.5,9.07,7.77,9.07H70.4c4.27,0,7.76-4.08,7.75-9.07V209.2h0Z" transform="translate(-24.27 -4)"/><circle class="cls-1" cx="168.82" cy="45.74" r="21.82"/><path class="cls-1" d="M198.36,77.4h-10.1c-1.67,0-2.24,1.11-1.26,2.47l3.41,4.74c0,.16-.1.32-.14.48l-2,8.42a11.32,11.32,0,0,0,.42,5.8l3.44,8.68c.61,1.56,1.62,1.56,2.23,0l3.46-8.78a11.28,11.28,0,0,0,.39-5.79l-2-8.33a3.2,3.2,0,0,0-.17-.55l3.54-4.71C200.58,78.5,200,77.4,198.36,77.4Z" transform="translate(-24.27 -4)"/><path class="cls-1" d="M226.18,83.48a68.34,68.34,0,0,0-10.06-4.36v0l-.18-.09-1.24-.41a4.53,4.53,0,0,0-.74-.07,4.42,4.42,0,0,0-4.24,3.18h0l-15.34,39.1c-.61,1.55-1.61,1.55-2.22,0l-5.34-13.63v30.88h0a2.09,2.09,0,0,1,0,.25c0,14.61-12,28-18.21,38.6v36.68a9.16,9.16,0,0,0,9.14,9.13H209a9.11,9.11,0,0,0,9.1-9.13v-3.86h0L218,164.81c.14-6.9,12.95-17.39,13.52-29.21h0V91.77A9.15,9.15,0,0,0,226.18,83.48Z" transform="translate(-24.27 -4)"/></svg>