<svg id="Layer_1" data-name="Layer 1" xmlns="http://www.w3.org/2000/svg" viewBox="0 0 220.64 250.04"><title>icon-write</title><path d="M112,245.31l114.51-69.56a16.87,16.87,0,1,0-17.08-29.1l-.44.27L94.25,216.64l-.09.06c-4.53,2.78-7.71,8.86-7.71,8.86L74.37,245.8h0l-.5.83c-.66,1.32-1.26,3.62,2.74,3.39l23.68-1.66h0s6.85-.1,11.37-2.91Z" transform="translate(-14.21)"/><path d="M140.32,243.74h42a23.07,23.07,0,0,0,23-23V204.25Z" transform="translate(-14.21)"/><path d="M61.93,240.66l.24-.48.75-1.25,11.91-20c1.24-2.27,5.47-9.31,12.09-13.49l.28-.18L202,135.55l.69-.42q1.29-.75,2.64-1.38V23a23.07,23.07,0,0,0-23-23H37.21a23.07,23.07,0,0,0-23,23V220.74a23.07,23.07,0,0,0,23,23h23.5A18.42,18.42,0,0,1,61.93,240.66ZM43.09,38.76a9.62,9.62,0,0,1,9.59-9.58H169.54a9.61,9.61,0,0,1,9.58,9.58v1a9.61,9.61,0,0,1-9.58,9.58H52.68a9.62,9.62,0,0,1-9.59-9.58Zm0,41.85A9.62,9.62,0,0,1,52.68,71H169.54a9.61,9.61,0,0,1,9.58,9.58v1a9.61,9.61,0,0,1-9.58,9.58H52.68a9.62,9.62,0,0,1-9.59-9.58Zm0,42.81v-1a9.62,9.62,0,0,1,9.59-9.58H169.54a9.61,9.61,0,0,1,9.58,9.58v1a9.61,9.61,0,0,1-9.58,9.58H52.68A9.62,9.62,0,0,1,43.09,123.42Z" transform="translate(-14.21)"/></svg>