<svg id="Layer_3" data-name="Layer 3" xmlns="http://www.w3.org/2000/svg" viewBox="0 0 95.14 241.67"><defs><style>.cls-1{fill:#404041;}</style></defs><title>iconperson</title><circle class="cls-1" cx="47.49" cy="27.07" r="27.07"/><path class="cls-1" d="M166,72.92a85.52,85.52,0,0,0-18.5-7.24h0a8.18,8.18,0,0,0-2.39-.36A8,8,0,0,0,140.16,67v-.08L128.08,75a6.06,6.06,0,0,1-6.27,0L110,67V67a8.06,8.06,0,0,0-4.93-1.68,8.25,8.25,0,0,0-2.4.36v-.06A85.65,85.65,0,0,0,83.45,73.2h0a11.36,11.36,0,0,0-6,10v53.17h0a1.23,1.23,0,0,0,0,.25c0,13.91,17,29.14,17,37.19a1.55,1.55,0,0,0,.07.43v60.1a11.36,11.36,0,0,0,11.32,11.33h38.76a11.32,11.32,0,0,0,11.29-11.33l0-4.78H156l-.19-55.77c.18-8.74,16.8-22.15,16.8-37.22a1.38,1.38,0,0,0,0-.2h0V83.2A11.35,11.35,0,0,0,166,72.92Z" transform="translate(-77.43 -4)"/></svg>