<svg xmlns="http://www.w3.org/2000/svg" id="Layer_2" data-name="Layer 2" viewBox="0 0 239 154.94"><defs><style>.cls-1{fill:#404041;stroke:#404041;stroke-miterlimit:10}</style></defs><title>iconhemi</title><path d="M155.12,97.92,143,121.73a5,5,0,0,0,1.08,5.7,18.77,18.77,0,0,1,2.17,2.56,20.05,20.05,0,0,1,2.09,3.22,5,5,0,0,0,5.14,2.7l26.17-4.61A56.09,56.09,0,0,0,155.12,97.92Z" class="cls-1" transform="translate(-5.5 -26.36)"/><path d="M168.92,70.85l-9.07,17.78a66.51,66.51,0,0,1,30.05,40.86l19.32-3.4A86.34,86.34,0,0,0,168.92,70.85Z" class="cls-1" transform="translate(-5.5 -26.36)"/><path d="M240.26,116.94s-9.41-28.51-20.07-42.66c-10.21-13.55-33.65-30-33.65-30a3.1,3.1,0,0,0-4.67,1.16L173.43,62A96.27,96.27,0,0,1,219,124.37l18.81-3.31A3.09,3.09,0,0,0,240.26,116.94Z" class="cls-1" transform="translate(-5.5 -26.36)"/><path d="M125.43,89.41a56,56,0,0,0-20.58,3.9l11.6,23.78a5,5,0,0,0,5.2,2.56,18.77,18.77,0,0,1,3.35-.2,19.72,19.72,0,0,1,3.83.28,5,5,0,0,0,5.25-2.48L146.22,93.4A55.87,55.87,0,0,0,125.43,89.41Z" class="cls-1" transform="translate(-5.5 -26.36)"/><path d="M71.34,130.87l26.23,4.59a5,5,0,0,0,5.13-2.72A28.5,28.5,0,0,1,107,127a5,5,0,0,0,1.07-5.71L96,97.76A56,56,0,0,0,71.34,130.87Z" class="cls-1" transform="translate(-5.5 -26.36)"/><path d="M41.14,125.6l19.92,3.48a66.56,66.56,0,0,1,30.2-40.61L82,70.43A86.32,86.32,0,0,0,41.14,125.6Z" class="cls-1" transform="translate(-5.5 -26.36)"/><path d="M77.52,61.6,69,45a3.09,3.09,0,0,0-4.66-1.14S39.9,61.27,29.51,75.62c-10,13.74-18.78,41-18.78,41a3.1,3.1,0,0,0,2.48,4.12l18.16,3.17A96.24,96.24,0,0,1,77.52,61.6Z" class="cls-1" transform="translate(-5.5 -26.36)"/><path d="M125.12,58.9a85.82,85.82,0,0,0-33.71,6.85L100.28,84a66.59,66.59,0,0,1,50.68.16L160,66.28A85.82,85.82,0,0,0,125.12,58.9Z" class="cls-1" transform="translate(-5.5 -26.36)"/><path d="M87.06,56.84a96.31,96.31,0,0,1,77.49.6L173,41a3.09,3.09,0,0,0-1.81-4.45S142.71,26.86,125,26.86c-17,0-44.21,8.83-44.21,8.83a3.1,3.1,0,0,0-1.88,4.43Z" class="cls-1" transform="translate(-5.5 -26.36)"/><path d="M151.23,148.79c-.08.69,1.4,1.82,3.3,2.51l40.12,14.6a72.53,72.53,0,0,0,2.92-20.43q0-3.69-.36-7.29L155,145.62A5.6,5.6,0,0,0,151.23,148.79Z" class="cls-1" transform="translate(-5.5 -26.36)"/><path d="M243.33,133.77a3.36,3.36,0,0,0-4-3L207,136.46a83.72,83.72,0,0,1,.49,9,82.18,82.18,0,0,1-3.5,23.82l31,11.3a3.19,3.19,0,0,0,4.29-2.32s4.7-19.86,4.7-32.41C244,140.52,243.33,133.77,243.33,133.77Z" class="cls-1" transform="translate(-5.5 -26.36)"/><path d="M98.66,147.52c0-.7-1.69-1.56-3.67-1.91l-42.14-7.43c-.23,2.4-.36,4.83-.36,7.29a72.32,72.32,0,0,0,2.92,20.4l40.06-14.58A5.57,5.57,0,0,0,98.66,147.52Z" class="cls-1" transform="translate(-5.5 -26.36)"/><path d="M42.59,145.47a83.72,83.72,0,0,1,.49-9l-32.43-5.72a3.36,3.36,0,0,0-4,3S6,140.52,6,145.86c0,12.54,4.7,32.41,4.7,32.41A3.19,3.19,0,0,0,15,180.58l31.09-11.32A82.32,82.32,0,0,1,42.59,145.47Z" class="cls-1" transform="translate(-5.5 -26.36)"/></svg>