<svg xmlns="http://www.w3.org/2000/svg" id="Layer_2" data-name="Layer 2" viewBox="0 0 240.88 241.06"><defs><style>.cls-1{fill:#404041}</style></defs><title>iconqoral</title><path d="M42.64,173.89c-3.71-5.11-8.75-4.53-11.2,1.3l-26.2,62.5c-2.45,5.83.34,8.64,6.19,6.25L64.1,222.38C70,220,71.7,213.85,68,208.74Z" class="cls-1" transform="translate(-4.35 -3.73)"/><path d="M125.79,3.73A119.45,119.45,0,1,0,245.23,123.18,119.45,119.45,0,0,0,125.79,3.73Zm-1,200.66A15.13,15.13,0,1,1,140,189.26,15.13,15.13,0,0,1,124.82,204.39Zm16.76-71.81h0c-.79.49-6.19,4.27-6.58,15.18a9.87,9.87,0,0,1,.07,1.22,11,11,0,0,1-21.94,0H113c0-31,20.83-37.19,20.83-37.19h0a24.85,24.85,0,1,0-32.12-33A11.13,11.13,0,0,1,80.2,74.83a11,11,0,0,1,1.7-5.9,47,47,0,1,1,59.68,63.65Z" class="cls-1" transform="translate(-4.35 -3.73)"/></svg>