<svg id="Layer_1" data-name="Layer 1" xmlns="http://www.w3.org/2000/svg" viewBox="0 0 249.54 249.77"><title>icon-oral</title><path d="M125.25,0A124.74,124.74,0,0,0,20.86,193L1,240.43a6.72,6.72,0,0,0,8.74,8.82l48-19.63A124.74,124.74,0,1,0,125.25,0Zm-1,209.55a15.8,15.8,0,1,1,15.8-15.8A15.8,15.8,0,0,1,124.24,209.55Zm17.51-75h0c-.82.51-6.46,4.46-6.86,15.84,0,.42.07.85.07,1.28a11.46,11.46,0,0,1-22.92,0h-.09c0-32.36,21.75-38.84,21.75-38.84h0a26,26,0,1,0-33.54-34.51A11.63,11.63,0,1,1,79.41,68.09a49.08,49.08,0,1,1,62.34,66.47Z" transform="translate(-0.45)"/></svg>