<?xml version="1.0" encoding="utf-8"?>
<!-- Generator: Adobe Illustrator 24.0.1, SVG Export Plug-In . SVG Version: 6.00 Build 0)  -->
<svg version="1.1" id="Layer_1" xmlns="http://www.w3.org/2000/svg" xmlns:xlink="http://www.w3.org/1999/xlink" x="0px" y="0px"
	 viewBox="0 0 250 250" style="enable-background:new 0 0 250 250;" xml:space="preserve">
<path d="M124.6,1C78.8,1,41.6,38.1,41.6,83.9c0,0.4,0.8,13.1,2.1,18.7c9.7,51.5,51.1,146.9,80.3,146.9c29.4,0,72-96,81.5-147.8
	c1.2-5.3,1.9-17.4,1.9-17.8C207.5,38.1,170.4,1,124.6,1z M124.6,132.6c-26.7,0-48.4-21.7-48.4-48.4s21.7-48.4,48.4-48.4
	s48.4,21.7,48.4,48.4S151.3,132.6,124.6,132.6z"/>
</svg>
