<svg id="Layer_1" data-name="Layer 1" xmlns="http://www.w3.org/2000/svg" viewBox="0 0 228.51 182.11"><defs><style>.cls-1{fill:#404041;}</style></defs><title>iconmail</title><path class="cls-1" d="M115.54,122.72a13.05,13.05,0,0,0,18.42,0L213,43.65c5.07-5.07,3.35-9.21-3.81-9.21H40.28c-7.16,0-8.88,4.14-3.81,9.21Z" transform="translate(-10.49 -34.44)"/><path class="cls-1" d="M75.57,116.23,19.7,60.37c-5.06-5.07-9.21-3.35-9.21,3.81V186.71c0,7.16,4.15,8.87,9.21,3.81l55.87-55.87A13.05,13.05,0,0,0,75.57,116.23Z" transform="translate(-10.49 -34.44)"/><path class="cls-1" d="M157.18,151.41a13.05,13.05,0,0,0-18.42,0l-4.8,4.8a13.16,13.16,0,0,1-18.49-.07l-4.74-4.75a13.07,13.07,0,0,0-18.42,0l-55.95,56c-5.06,5.07-3.35,9.21,3.82,9.21H209.3c7.16,0,8.88-4.14,3.81-9.21Z" transform="translate(-10.49 -34.44)"/><path class="cls-1" d="M229.79,60.38l-55.87,55.87a13.05,13.05,0,0,0,0,18.42l55.87,55.87c5.07,5.07,9.21,3.35,9.21-3.81V64.19C239,57,234.86,55.31,229.79,60.38Z" transform="translate(-10.49 -34.44)"/></svg>