<svg id="Layer_1" data-name="Layer 1" xmlns="http://www.w3.org/2000/svg" viewBox="0 0 757.69 649.11"><title>icon-cityhall</title><path d="M155.06,317.61H603a9.7,9.7,0,0,0,6-17.33l-224.25-176a9.69,9.69,0,0,0-12,0l-223.66,176A9.7,9.7,0,0,0,155.06,317.61Z"/><path d="M233.75,191.28H153.81a5.14,5.14,0,0,0-3.17,1.09L2,308a5.17,5.17,0,0,0,3.18,9.24l81.6,0A5.19,5.19,0,0,0,90,316.13l147-115.63A5.16,5.16,0,0,0,233.75,191.28Z"/><path d="M671.41,316.32l81.11,0a5.16,5.16,0,0,0,3.17-9.23L607.61,191.7a5.17,5.17,0,0,0-3.18-1.09H524.36a5.17,5.17,0,0,0-3.19,9.23L668.22,315.22A5.18,5.18,0,0,0,671.41,316.32Z"/><path d="M378.05,101.27a93.64,93.64,0,0,1,9.49.49V11c0-6.07-2.37-11-5.27-11h-8.79c-2.9,0-5.27,5-5.27,11V101.8A92.12,92.12,0,0,1,378.05,101.27Z"/><rect x="586.37" y="344.28" width="125.17" height="304.5" rx="19.92"/><rect x="46.54" y="344.28" width="127.67" height="304.5" rx="19.92"/><path d="M378,10.53c45.5,0,36.5,17.5,90.75,17.5V90.78c-44.5,0-36.25-18.25-90.47-18.25C378.29,73,378,10.53,378,10.53Z"/><rect x="198.54" y="344.11" width="360" height="33.17" rx="9.5"/><rect x="198.54" y="616.28" width="360" height="32.83" rx="9.5"/><rect x="226.62" y="360.94" width="52.92" height="274.67"/><rect x="397.54" y="360.94" width="53.42" height="274.67"/><rect x="307.71" y="360.94" width="53.08" height="274.67"/><rect x="478.54" y="360.94" width="52.5" height="274.67"/></svg>