<svg id="Layer_2" data-name="Layer 2" xmlns="http://www.w3.org/2000/svg" viewBox="0 0 235.66 239.67"><defs><style>.cls-1{fill:#404041;}</style></defs><title>icondistanceparis</title><circle class="cls-1" cx="131.17" cy="41.34" r="11.58"/><circle class="cls-1" cx="75.41" cy="125.21" r="11.58"/><path class="cls-1" d="M241.14,185.72l-4.47-1.15a16.46,16.46,0,0,1-5.34-2.72,62.72,62.72,0,0,1-16.68-24.31,166.85,166.85,0,0,1-6.79-23.86c-.32-1.66-.57-3.06-.57-3.12s0-.2,0-.33.06-1.6.2-3.28c0,0,.34-4.37,12.1-31.42,6.5-15,11.9-26.12,11.9-26.12l2.67-5.53.36-.75a2.67,2.67,0,0,0-1.56-3.77l-67.69-23.7a14.32,14.32,0,0,1-5-3.28L136.62,6.49a5.14,5.14,0,0,0-5-1.29l-17.9,6a4.85,4.85,0,0,0-3.06,4L110,28.37a5.87,5.87,0,0,1-2.88,4.46L74.19,49.65a6.74,6.74,0,0,1-5.46,0L58.12,44.18a2,2,0,0,0-3.07,1.65L53.67,58.25A4.6,4.6,0,0,1,50.33,62L10,70.76a4,4,0,0,0-3,3.73v8.33A6.46,6.46,0,0,0,9.55,87.6S41.62,109,49.17,127.14c8.3,19.87,7.17,41.57,4.76,56.28-2.67,16.25-6.32,25.1-6.32,25.1-.64,1.56-1.7,4.11-2.35,5.67l-.41,1a2.57,2.57,0,0,0,1.78,3.59l100.88,25.82a2,2,0,0,0,2.61-2.29l-.34-2.89a52.11,52.11,0,0,1-.26-6.12s.44-13.87,5-17.1c11.2-7.87,44.63,6,44.63,6,1.56.64,3.75,1.63,4.87,2.19s3,0,4.17-1.18L242,188.68C243.15,187.47,242.78,186.14,241.14,185.72ZM82.29,169.79c-7,0-16.89-22.85-19.22-35.17a19.74,19.74,0,0,1-.5-4.17c0-.1,0-.2,0-.3a19.85,19.85,0,0,1,39.7,0v.31a19.85,19.85,0,0,1-.46,4C99.53,146.82,89.33,169.79,82.29,169.79ZM102,183.16a37,37,0,0,1-10.22,2.27h-.34a4.61,4.61,0,0,1-.33-9.2,27.32,27.32,0,0,0,7.66-1.7,4.6,4.6,0,0,1,3.23,8.62Zm25-21.59a69.85,69.85,0,0,1-5.94,7.85,4.6,4.6,0,1,1-6.92-6.07,60.26,60.26,0,0,0,5.16-6.82,4.6,4.6,0,1,1,7.7,5ZM139.54,132c-.79,3.14-1.71,6.24-2.73,9.2a4.6,4.6,0,1,1-8.7-3c.93-2.72,1.78-5.57,2.5-8.45a4.6,4.6,0,1,1,8.93,2.24ZM143,110a4.61,4.61,0,0,1-4.58,4.29l-.33,0a4.59,4.59,0,0,1-4.27-4.91c.2-2.92.31-5.91.31-8.88a4.6,4.6,0,0,1,9.2,0C143.33,103.69,143.22,106.9,143,110Zm15-63.44a19.75,19.75,0,0,1-.46,3.95C155.28,63,145.09,85.91,138.05,85.91s-16.89-22.85-19.22-35.16a19.84,19.84,0,0,1-.5-4.18c0-.1,0-.2,0-.29a19.85,19.85,0,0,1,39.7,0Z" transform="translate(-7 -5)"/></svg>