<?xml version="1.0" encoding="utf-8"?>
<!-- Generator: Adobe Illustrator 24.0.1, SVG Export Plug-In . SVG Version: 6.00 Build 0)  -->
<svg version="1.1" id="Layer_1" xmlns="http://www.w3.org/2000/svg" xmlns:xlink="http://www.w3.org/1999/xlink" x="0px" y="0px"
	 viewBox="0 0 500 500" style="enable-background:new 0 0 500 500;" xml:space="preserve">
<path d="M293.5,84.3c4.8,5.1,10.7,9,17.3,11.4l105.9,38.8c4.6,1.7,6.8,6.8,4.9,11.3c-14,33.3-29,70.5-36.1,91.4
	c-4.4,12.9-5.5,26.9-3.2,40.3c4.4,25.6,16,69.2,46,102.5c2.9,3.2,2.8,8.2-0.2,11.3l-21.7,22.6c-2.2,2.3-5.6,3.2-8.7,2.3
	c-11.9-3.5-24.2-6.8-32.7-9c-3.5-0.9-6.5-1.7-8.1-2.2c-7.6-2.2-15.2-3.2-22.6-3.2c-32.8,0-59.2,20.3-74.4,56.6l-130.9-37.5
	c-4.7-1.4-7.6-6.2-6.3-11c5.2-20.3,10.7-50.1,9.4-83.4c-2.1-53-19-106.3-69.5-152.8c-3.7-4.3-1-12,4.1-13.2l56.9-14.2
	c4.3-1.1,8.4-2.8,12.2-5.1c0,0,64.2-38.5,84.1-50.4c23.3-13.7,21.9-12.9,21.8-38.5v-1c0-3.7,2.4-7,6-8.1l0.3-0.1
	c3.1-0.9,6.4-0.1,8.7,2.3L293.5,84.3z M261.3,1.2c-0.8,0-1.7,0.1-2.5,0.4l-40.2,12.3c-7.8,2.4-13.2,9.6-13.2,17.8V52
	c0,3-1.6,5.9-4.2,7.4l-84.1,50.4c-0.7,0.4-1.5,0.8-2.4,1l-81.8,20.4c-7.7,1.9-13.2,8.9-13.2,16.9v29.3c0,5.3,2.4,10.4,6.7,13.7
	c43.9,33.9,67.2,79.7,69.5,136.5c2.1,52.4-15.2,95.2-15.4,95.6l-1.6,3.8c-3.3,8.1,1.1,17.3,9.5,19.7L268,498.2
	c1.5,0.4,3,0.6,4.5,0.6c7.2,0,13.9-4.8,15.9-12.1c5.3-19.3,18-48.9,45.9-48.9c3.9,0,8.2,0.6,12.7,1.9c7.7,2.2,36.2,9.3,55,15.6
	c1.9,0.6,3.9,1,5.8,1c4.9,0,9.7-2,13.2-5.6l51.7-53.8c7.7-8,6.5-20.9-2.4-27.5c-36.1-26.7-48.4-75.3-52.3-98.2
	c-1.3-7.5-0.7-15.2,1.8-22.5c7.9-23.4,27.8-72.3,46-114.3l1-2.4c3.6-8.4-0.5-18.1-9.1-21.2L323.2,61.7c-1.3-0.5-2.4-1.2-3.3-2.2
	L267.6,3.9C265.9,2.2,263.6,1.2,261.3,1.2L261.3,1.2z"/>
</svg>
