<svg xmlns="http://www.w3.org/2000/svg" id="Layer_3" data-name="Layer 3" viewBox="0 0 81.22 240.71"><defs><style>.cls-1{fill:#404041}</style></defs><title>iconpersonw</title><path d="M160,72.64a68.18,68.18,0,0,0-12.44-6.07,13.55,13.55,0,0,0-3.35-1.13l-.14,0a5.83,5.83,0,0,0-1.39-.3s-7.51-1.44-9.06,3.26c0,0-5.9,18.34-6.52,20.35s-3,2.33-3.68-.11-7-20.26-7-20.26a6.37,6.37,0,0,0-6.72-3.67c-1,.17-1.78.33-2.38.46a9.78,9.78,0,0,1-1.77.39,67.63,67.63,0,0,0-16,7.39h0a11.67,11.67,0,0,0-5.15,10v53h0a1,1,0,0,0,0,.25c0,7,3.68,14.26,7.34,20.82a126,126,0,0,1-3.64,23.69c-.84,3.08,0,5.73,1.79,6.81A65.72,65.72,0,0,0,99,193.13v40.3c0,6.2,4.35,11.28,9.67,11.28h33.09c5.32,0,9.66-5.08,9.64-11.28l0-4.77h.05l-.1-35.56a65.86,65.86,0,0,0,9.12-5.73,3.9,3.9,0,0,0,.46-.34h0c1.42-1.25,1.95-3.65,1.19-6.38a135.47,135.47,0,0,1-3.46-24c3.51-6.23,7-13.22,7-20.61,0-.06,0-.13,0-.19h0v-53A11.56,11.56,0,0,0,160,72.64Z" class="cls-1" transform="translate(-84.39 -4)"/><circle cx="40.53" cy="26.96" r="26.96" class="cls-1"/></svg>