<svg id="Layer_1" data-name="Layer 1" xmlns="http://www.w3.org/2000/svg" viewBox="0 0 232.67 170.86"><defs><style>.cls-1{fill:#58595b;}</style></defs><title>iconburger</title><path class="cls-1" d="M225.81,104.32c-1.27-.08-2.91-.12-4.62-.12h-193c-1.71,0-3.35,0-4.61.12-15,.87-15.2,19.45-15.2,20.24s.18,19.37,15.2,20.24c1.26.07,2.9.11,4.61.11H221.19c1.71,0,3.35,0,4.62-.11,15-.87,15.19-19.45,15.19-20.24S240.83,105.19,225.81,104.32Z" transform="translate(-8.33 -39.13)"/><path class="cls-1" d="M23.52,79.72c1.27.08,2.91.12,4.62.12H221.19c1.71,0,3.35,0,4.62-.12,15-.87,15.19-19.45,15.19-20.24s-.17-19.37-15.19-20.24c-1.27-.07-2.91-.11-4.62-.11h-193c-1.71,0-3.35,0-4.61.11-15,.87-15.2,19.45-15.2,20.24S8.51,78.85,23.52,79.72Z" transform="translate(-8.33 -39.13)"/><path class="cls-1" d="M225.81,169.39c-1.27-.07-2.91-.11-4.62-.11h-193c-1.7,0-3.34,0-4.62.11-15,.87-15.19,19.45-15.19,20.24s.18,19.37,15.2,20.24c1.26.07,2.9.11,4.61.11H221.19c1.71,0,3.35,0,4.62-.11,15-.87,15.19-19.45,15.19-20.24S240.83,170.26,225.81,169.39Z" transform="translate(-8.33 -39.13)"/></svg>