<svg id="Layer_1" data-name="Layer 1" xmlns="http://www.w3.org/2000/svg" viewBox="0 0 231.7 246.33"><title>icon-refresh</title><path d="M125.76,17.11A115,115,0,0,0,50.08,45.4V20.83A19.21,19.21,0,0,0,30.92,1.67H28.67A19.21,19.21,0,0,0,9.51,20.83v79.33a19.21,19.21,0,0,0,19.16,19.16H98.39a19.21,19.21,0,0,0,19.16-19.16V97.91A19.21,19.21,0,0,0,98.39,78.75h-24a74.42,74.42,0,1,1-8.57,97.84,20.68,20.68,0,0,0-16.69-8.27h0c-16.78,0-26.31,19.08-16.36,32.59a115.43,115.43,0,1,0,93-183.8Z" transform="translate(-9.51 -1.67)"/></svg>