<svg xmlns="http://www.w3.org/2000/svg" id="Layer_1" data-name="Layer 1" viewBox="0 0 230.05 243.67"><defs><style>.cls-1,.cls-2{fill:#404041}.cls-2{stroke:#404041;stroke-miterlimit:10}</style></defs><title>iconcalendar</title><path d="M223.27,38H205v12.2a22.31,22.31,0,1,1-44.62,0V38H90.59V51a22.5,22.5,0,1,1-45,0V38H26.73A16.78,16.78,0,0,0,10,54.8V229.91a16.78,16.78,0,0,0,16.76,16.76H223.27A16.78,16.78,0,0,0,240,229.91V54.8A16.78,16.78,0,0,0,223.27,38ZM219.3,223H31V89.56H219.3Z" class="cls-1" transform="translate(-9.97 -3)"/><path d="M68.09,3A10.59,10.59,0,0,0,57.5,14.05V51a10.6,10.6,0,1,0,21.19,0v-37A10.59,10.59,0,0,0,68.09,3Z" class="cls-1" transform="translate(-9.97 -3)"/><path d="M182.7,3.07a10.4,10.4,0,0,0-10.4,10.85V50.24a10.41,10.41,0,1,0,20.8,0V13.92A10.4,10.4,0,0,0,182.7,3.07Z" class="cls-1" transform="translate(-9.97 -3)"/><rect width="31.7" height="31.92" x="44.18" y="165.04" class="cls-2"/><rect width="31.7" height="31.92" x="99.51" y="165.04" class="cls-2"/><rect width="31.7" height="31.92" x="99.51" y="110" class="cls-2"/><rect width="31.7" height="31.92" x="155.14" y="110" class="cls-2"/><rect width="31.7" height="31.92" x="44.03" y="110.44" class="cls-2"/><rect width="31.7" height="31.92" x="155.14" y="165.04" class="cls-2"/></svg>