<svg id="Layer_2" data-name="Layer 2" xmlns="http://www.w3.org/2000/svg" viewBox="0 0 240.67 191.86"><defs><style>.cls-1{fill:#404041;}</style></defs><title>iconmail</title><path class="cls-1" d="M120,142.44a6.88,6.88,0,0,0,9.7,0L235.86,36.3c2.36-2.37,1.8-4.6,1.44-5.45S235.77,28,232.43,28L17.19,27.9h0c-3.34,0-4.52,2-4.87,2.83s-.92,3.09,1.44,5.45Z" transform="translate(-4.33 -27.9)"/><path class="cls-1" d="M160.7,136.44a6.88,6.88,0,0,0-9.7,0l-26.12,26.13L98.67,136.36a6.87,6.87,0,0,0-9.7,0L13.85,211.48c-2.37,2.37-1.8,4.6-1.45,5.45s1.53,2.83,4.88,2.83h215c3.35,0,4.53-2,4.88-2.83s.92-3.08-1.45-5.45Z" transform="translate(-4.33 -27.9)"/><path class="cls-1" d="M81.31,128.35h0a6.86,6.86,0,0,0,0-9.69L12.61,50c-2.36-2.37-4.6-1.8-5.45-1.45S4.33,50,4.33,53.39V193.62c0,3.35,2,4.53,2.83,4.88a4.26,4.26,0,0,0,1.66.33,5.32,5.32,0,0,0,3.79-1.78Z" transform="translate(-4.33 -27.9)"/><path class="cls-1" d="M242.17,48.76c-.85-.35-3.08-.91-5.45,1.45L168.14,118.8a6.84,6.84,0,0,0,0,9.69l68.58,68.59a5.31,5.31,0,0,0,3.8,1.77,4.47,4.47,0,0,0,1.65-.32c.85-.35,2.83-1.54,2.83-4.88v-140C245,50.3,243,49.12,242.17,48.76Z" transform="translate(-4.33 -27.9)"/></svg>