<svg version="1.1" class="aurogra-logo" xmlns="http://www.w3.org/2000/svg" xmlns:xlink="http://www.w3.org/1999/xlink" x="0px" y="0px"
	 viewBox="0 0 242 248" style="enable-background:new 0 0 242 248;" xml:space="preserve">
<path d="M237.9,194L237.9,194c-22.6-16.6-27.5-49.6-28.4-56.9c0-0.5,0-1,0.1-1.5c2-8.2,14.5-39.3,25.8-65.4l0.6-1.4
	c1.8-4.1-0.1-9-4.2-10.8c0,0,0,0,0,0l-0.4-0.2l-71.1-26c-0.6-0.2-1.2-0.6-1.7-1.1l-26-27.6c-2.2-2.3-5.4-3.2-8.5-2.3l-20,6.1
	c-3.5,1.1-5.9,4.3-5.9,7.9v12c0,1.5-0.8,2.9-2.1,3.7L51.8,57.3c-0.4,0.2-0.8,0.4-1.2,0.5l-43.9,11c-3.6,0.9-6.2,4.2-6.2,7.9v16.3
	c0,2.7,1.3,5.3,3.5,7c23.1,17.9,35.4,42,36.6,71.9c0.5,17.1-2.2,34.2-8.1,50.4l-0.9,2.1c-1.6,3.9,0.2,8.4,4.1,10c0,0,0,0,0,0
	c0.3,0.1,0.6,0.2,0.8,0.3l43.8,12.6c5.5,1.6,11.3-1.6,12.9-7.1c0.3-0.9,0.4-1.9,0.4-2.9V125.1c0-2.4-1.9-4.3-4.3-4.3c0,0,0,0,0,0
	H78.8c-2.4,0-4.4,1.9-4.4,4.3v94.6c0,2.4-2,4.4-4.4,4.3c-0.4,0-0.8-0.1-1.1-0.2l-11-3.1c-2.3-0.7-3.6-3-3-5.3
	c3.7-14.2,5.4-28.8,5-43.5c-0.6-18.9-5.2-36.2-13.4-51.5c-5.9-10.9-13.6-20.7-22.9-29.1c-1.8-1.6-1.9-4.4-0.3-6.2
	c0.6-0.6,1.3-1.1,2.2-1.3l32.5-8.1c0.4-0.1,0.8-0.3,1.2-0.5l54.2-32.5c2.6-1.5,4.1-4.3,4.1-7.3v-9c0-1.7,0.9-3.2,2.3-4
	c1.7-0.9,3.9-0.6,5.2,0.9l16.9,18c4.2,4.4,9.3,7.8,15,9.9l52.3,19.2c2.3,0.8,3.4,3.3,2.6,5.5c0,0,0,0.1,0,0.1c0,0.1,0,0.1-0.1,0.2
	c-2.3,5.4-5,11.9-7.7,18.6c-14.1,34.7-14.1,39-14.1,41.6v0.6c0.1,1.7,2.9,37.5,25.3,62.5c1.5,1.7,1.5,4.3-0.1,5.9L204.1,217
	c-1.1,1.2-2.9,1.6-4.4,1.1c-4.7-1.5-9.9-3.1-14.6-4.3c-1.9-0.5-3.2-2.2-3.2-4.2v-64c0-2.4-1.9-4.3-4.3-4.4c0,0,0,0,0,0h-10.6
	c-2.4,0-4.4,1.9-4.4,4.4v75.7c0,4.7,3.5,8.7,8.1,9.3c1.1,0.1,2.3,0.3,3.4,0.6c5.2,1.3,18.7,4.9,27.9,8l0,0c3.5,1.2,7.4,0.2,10-2.4
	l27.3-28.3c3.7-3.8,3.6-9.9-0.2-13.6C238.6,194.5,238.2,194.2,237.9,194z"/>
<path d="M108.1,89.5h10.6c2.4,0,4.3,1.9,4.3,4.3v143.8c0,2.4-1.9,4.4-4.3,4.4h-10.6c-2.4,0-4.3-1.9-4.3-4.4V93.8
	C103.7,91.4,105.7,89.5,108.1,89.5z"/>
<path d="M137.6,162.1h10.6c2.4,0,4.4,1.9,4.4,4.4v59.7c0,2.4-1.9,4.4-4.4,4.4h-10.6c-2.4,0-4.4-1.9-4.4-4.4v-59.7
	C133.3,164.1,135.2,162.1,137.6,162.1z"/>
</svg>
