<?xml version="1.0" encoding="utf-8"?>
<!-- Generator: Adobe Illustrator 24.0.1, SVG Export Plug-In . SVG Version: 6.00 Build 0)  -->
<svg version="1.1" id="Layer_1" xmlns="http://www.w3.org/2000/svg" xmlns:xlink="http://www.w3.org/1999/xlink" x="0px" y="0px"
	 viewBox="0 0 936 248" style="enable-background:new 0 0 936 248;" xml:space="preserve">
<g id="Logo">
	<path d="M237.7,194.1L237.7,194.1c-22.6-16.6-27.5-49.6-28.4-56.9c-0.1-0.5,0-1,0.1-1.5c2-8.2,14.5-39.3,25.8-65.4l0.6-1.4
		c1.8-4.1-0.1-9-4.3-10.8l-0.4-0.2l-71.1-26c-0.6-0.2-1.2-0.6-1.7-1.1l-26-27.6C130.3,1,127,0.1,124,1l-20,6.1
		c-3.5,1.1-5.9,4.3-5.9,7.9v12c0,1.5-0.8,2.9-2.1,3.7L51.6,57.4c-0.4,0.2-0.8,0.4-1.2,0.5l-43.9,11c-3.6,0.9-6.2,4.2-6.2,7.9v16.3
		c0,2.7,1.3,5.3,3.5,7C27,118,39.3,142.1,40.4,172c0.5,17.1-2.2,34.2-8.1,50.4l-0.9,2.1c-1.6,3.9,0.2,8.4,4.1,10c0,0,0,0,0,0
		c0.3,0.1,0.6,0.2,0.9,0.3l43.8,12.6c5.5,1.6,11.3-1.6,12.9-7.1c0,0,0,0,0,0c0.3-0.9,0.4-1.9,0.4-2.9V125.2c0-2.4-1.9-4.3-4.3-4.3
		H78.7c-2.4,0-4.4,1.9-4.4,4.3v94.6c0,2.4-2,4.4-4.4,4.4c-0.4,0-0.8-0.1-1.2-0.2l-11-3.1c-2.3-0.7-3.6-3-3-5.3
		c3.7-14.2,5.4-28.8,5-43.5c-0.6-18.9-5.2-36.2-13.4-51.5c-5.9-10.9-13.7-20.7-22.8-29.1c-1.8-1.6-1.9-4.4-0.3-6.2c0,0,0,0,0,0
		c0.6-0.6,1.3-1.1,2.2-1.3l32.5-8.1c0.4-0.1,0.8-0.3,1.2-0.5l54.2-32.5c2.6-1.5,4.1-4.3,4.1-7.3v-9c0-1.7,0.9-3.2,2.3-4
		c1.7-0.9,3.9-0.6,5.2,0.9l16.9,18c4.2,4.4,9.3,7.8,15,9.9l52.3,19.2c2.3,0.8,3.4,3.3,2.6,5.6c0,0,0,0,0,0l-0.1,0.2
		c-2.3,5.4-5,11.9-7.7,18.6c-14.1,34.7-14.1,39-14.1,41.6v0.7c0.1,1.7,2.9,37.5,25.3,62.5c1.5,1.7,1.5,4.3-0.1,5.9l-11.2,11.6
		c-1.1,1.2-2.9,1.6-4.4,1.1c-4.7-1.5-9.9-3.1-14.6-4.3c-1.9-0.5-3.2-2.2-3.2-4.2v-64c0-2.4-1.9-4.4-4.3-4.4h0h-10.6
		c-2.4,0-4.4,1.9-4.4,4.4v75.7c0,4.7,3.5,8.7,8.1,9.3c1.1,0.1,2.3,0.3,3.4,0.6c5.2,1.3,18.7,4.9,27.9,8l0,0c3.5,1.2,7.4,0.2,10-2.4
		l27.3-28.3c3.7-3.8,3.6-9.9-0.3-13.6C238.4,194.7,238.1,194.4,237.7,194.1z"/>
	<path d="M107.9,89.7h10.6c2.4,0,4.3,1.9,4.3,4.3v143.8c0,2.4-1.9,4.4-4.3,4.4h-10.6c-2.4,0-4.3-1.9-4.3-4.4V94
		C103.6,91.6,105.5,89.7,107.9,89.7z"/>
	<path d="M137.5,162.3h10.6c2.4,0,4.4,1.9,4.4,4.4v59.7c0,2.4-1.9,4.4-4.4,4.4h-10.6c-2.4,0-4.4-1.9-4.4-4.4v-59.7
		C133.1,164.2,135,162.3,137.5,162.3z"/>
</g>
<g id="Title">
	<path d="M393.3,78.6c1,0,1.7,0.2,1.9,0.7c0.5,0.5,0.5,1.2,0,2.2l-35.5,93.1c-0.3,0.8-0.9,1.5-1.7,1.9c-0.8,0.6-1.7,0.9-2.6,1h-15.9
		c-1,0-1.7-0.2-1.9-1c-0.5-0.5-0.5-1.4,0-1.9L373,81.4c0.3-0.9,0.9-1.6,1.7-2.2c0.8-0.5,1.7-0.7,2.7-0.7H393.3z M440.3,174.6
		c0.3,0.6,0.3,1.3,0,1.9c-0.5,0.6-1.2,1-1.9,1h-15.9c-1,0-1.9-0.4-2.6-1c-0.7-0.5-1.3-1.1-1.7-1.9l-7-18.1l-27.5,0.2
		c-0.5,0-1-0.3-1.2-0.7c-0.2-0.5-0.2-1.2,0-1.7l6.3-16.4c0.3-0.6,0.7-1.2,1.2-1.7c0.5-0.4,1.2-0.7,1.9-0.7h11.6l-6.3-16.2
		c-0.5-1.4-0.5-2.9,0-4.3l9.2-24.1c0.2-0.7,0.7-1.2,1-1.2c0.5,0,1,0.5,1.2,1.2L440.3,174.6z"/>
	<path d="M534.7,78.3c1.3,0,2.4,1.1,2.4,2.4v58.6c0,2.9-0.3,5.8-1,8.7c-0.9,3.4-2.2,6.8-3.9,9.9c-1.9,3.6-4.5,6.9-7.5,9.6
		c-3.1,2.9-7.2,5.1-12.5,7c-6,2-12.3,3-18.6,2.9c-6.3,0.1-12.6-0.9-18.6-2.9c-4.6-1.6-9-3.9-12.8-7c-3-2.8-5.6-6-7.5-9.6
		c-1.8-3.1-3-6.4-3.8-9.9c-0.7-2.8-1-5.8-1-8.7V80.5c0-0.6,0.3-1.2,0.7-1.7c0.4-0.5,1-0.7,1.7-0.7h15.7c1.3,0,2.4,1.1,2.4,2.4v57.9
		c0,1.5,0.2,2.9,0.5,4.3c0.4,1.7,1.1,3.3,1.9,4.8c0.9,1.8,2.3,3.3,3.9,4.6c2.1,1.4,4.4,2.4,6.8,3.1c3.3,1,6.7,1.5,10.1,1.4
		c2.5,0,5-0.2,7.5-0.7c1.9-0.4,3.7-0.9,5.5-1.4c1.4-0.5,2.8-1.3,3.9-2.4c1-0.8,1.9-1.8,2.6-2.9c0.8-0.9,1.3-2,1.7-3.1
		c0.5-1.2,0.7-2.4,1-3.1s0.2-1.9,0.5-3.1V80.5c0-0.6,0.3-1.2,0.7-1.7c0.4-0.5,1-0.7,1.7-0.7h15.9L534.7,78.3z"/>
	<path d="M632.1,121v46.6c0,0.2-0.2,0.7-1,1.4c-0.7,0.8-1.4,1.5-2.2,2.2c-1.3,0.9-2.8,1.6-4.3,2.2c-2.4,0.9-4.8,1.6-7.2,2.2
		l-3.9,0.7c-5.4,1-10.9,1.5-16.4,1.4c-2.7,0-5.3-0.2-7.7-0.5c-3-0.3-6-0.8-8.9-1.7c-3.3-0.9-6.5-2-9.7-3.4c-3.2-1.6-6.2-3.5-8.9-5.8
		c-3-2.4-5.5-5.4-7.5-8.7c-2.3-3.8-4.1-8-5.1-12.3c-2.6-10.8-2.6-22,0-32.8c1-4.4,2.7-8.7,5.1-12.6c2.1-3.4,4.6-6.4,7.5-9.2
		c2.6-2.5,5.5-4.6,8.7-6.3c3-1.5,6.2-2.7,9.4-3.6c3-1,6.1-1.6,9.2-2c2.7-0.2,5.3-0.5,8-0.5c6.2,0,12.5,0.7,18.6,1.9l8,2.2
		c0.5,0.2,0.9,0.5,1.2,1c0.2,0.5,0.2,1.1,0,1.7L619.7,99c-0.3,0.6-1,1.1-1.7,1.2c-0.8,0.2-1.6,0.3-2.4,0.2h-0.2
		c-2.4-0.5-4.8-1-7.5-1.4c-2.9-0.3-5.8-0.5-8.7-0.5c-3.1,0-6.1,0.2-9.2,0.7c-2.9,0.6-5.7,1.4-8.4,2.7c-2.7,1.3-5.2,3.1-7.2,5.3
		c-2.2,2.5-3.8,5.5-4.8,8.7c-1.3,4-2,8.3-1.9,12.5c-0.1,4.2,0.4,8.5,1.6,12.5c0.9,3.1,2.3,6,4.1,8.7c1.7,2.2,3.8,4,6.3,5.3
		c2.4,1.2,4.9,2.2,7.5,2.9c2.8,0.5,5.6,0.8,8.4,0.7c2.7,0,5.5-0.2,8.2-0.5c2.4-0.2,5.1-0.7,8-1.2v-17.8H593c-0.4,0-0.9-0.2-1.2-0.5
		c-0.2-0.4-0.2-1,0-1.4l6.5-16.4c0.3-0.6,0.7-1.1,1.2-1.4c0.5-0.4,1.1-0.7,1.7-0.7H630c0.6,0,1.1,0.3,1.5,0.7
		C631.9,119.8,632.1,120.4,632.1,121z"/>
	<path d="M651.7,90.6c7.5-8.2,19.3-12.3,35.5-12.3s28,4.1,35.5,12.3s11.1,20.5,11.1,37.4c0,33.1-15.7,49.4-46.8,49.4
		c-15.4,0-27.3-4.1-35-12.5s-11.6-20.8-11.6-37.2S644.2,98.8,651.7,90.6z M687.1,157.2c1.1,0,2.3,0,3.4-0.2c1.5,0,2.9-0.3,4.3-0.7
		c1.7-0.4,3.4-0.9,5.1-1.7c1.7-0.9,3.3-2.1,4.8-3.4c1.8-1.5,3.2-3.3,4.3-5.3c1.4-2.4,2.4-5,2.9-7.7c0.8-3.5,1.2-7,1.2-10.6
		c0-3.6-0.4-7.1-1.2-10.6c-0.5-2.7-1.5-5.3-2.9-7.7c-1.2-1.9-2.6-3.6-4.1-5.3c-1.4-1.4-3-2.6-4.8-3.4c-1.6-0.7-3.3-1.3-5.1-1.7
		c-1.5-0.4-3-0.7-4.6-0.7c-1.2,0-2.4-0.2-3.6-0.2c-1.2-0.1-2.4,0-3.6,0.2c-1.5,0.1-3.1,0.3-4.6,0.7c-1.7,0.4-3.4,0.9-5.1,1.7
		c-1.8,0.8-3.4,2-4.8,3.4c-1.8,1.5-3.2,3.3-4.3,5.3c-1.4,2.4-2.4,5-2.9,7.7c-1.6,7-1.6,14.2,0,21.2c0.5,2.7,1.5,5.3,2.9,7.7
		c1.2,2,2.6,3.8,4.3,5.3c1.5,1.3,3.1,2.4,4.8,3.4c1.6,0.7,3.3,1.3,5.1,1.7c1.4,0.4,2.9,0.7,4.3,0.8
		C684.4,157.2,685.7,157.2,687.1,157.2L687.1,157.2z"/>
	<path d="M824.6,174.6c0.3,0.6,0.2,1.4-0.2,1.9c-0.5,0.6-1.2,1-1.9,1h-15.9c-1,0-1.9-0.4-2.7-1c-0.8-0.4-1.4-1.1-1.7-1.9l-9.9-25.8
		h-28.2v26.5c0,0.6-0.3,1.2-0.7,1.7c-0.4,0.5-1,0.7-1.7,0.7h-16.2c-0.6,0-1.3-0.2-1.7-0.7c-0.5-0.4-0.7-1-0.7-1.7V80.5
		c0-0.6,0.3-1.2,0.7-1.7c0.4-0.4,0.9-0.7,1.5-0.7h44.4c2.7,0,5.4,0.2,8,0.7c3,0.6,6,1.5,8.9,2.7c3.1,1.3,6,3.2,8.4,5.6
		c2.4,2.4,4.3,5.8,6.3,10.1c1.8,4.9,2.7,10,2.7,15.2c0,12.1-4.1,21.5-12.3,27.7L824.6,174.6z M787.2,127.8c0.7,0,1.7-0.2,3.1-0.2
		c1.4-0.1,2.8-0.6,4.1-1.2c1.4-0.6,2.7-1.4,3.9-2.4c1.4-1.1,2.4-2.5,3.1-4.1c0.8-2,1.2-4.1,1.2-6.3c0.1-2.6-0.4-5.1-1.5-7.5
		c-0.7-1.8-1.8-3.3-3.4-4.3c-1.3-0.9-2.6-1.6-4.1-2.2c-1.2-0.5-2.4-0.7-3.6-0.7h-26.3v28.7h21.5
		C785.9,127.7,786.6,127.8,787.2,127.8z"/>
	<path d="M888.8,78.6c1,0,1.7,0.2,1.9,0.7c0.5,0.5,0.5,1.2,0,2.2L855,174.6c-0.3,0.9-0.9,1.6-1.7,1.9c-0.8,0.6-1.7,0.9-2.7,1h-15.9
		c-1,0-1.7-0.2-1.9-1c-0.5-0.6-0.5-1.4,0-1.9l35.7-93.1c0.3-0.9,0.9-1.6,1.7-2.2c0.8-0.5,1.7-0.7,2.7-0.7H888.8z M935.8,174.6
		c0.2,0.6,0.2,1.3,0,1.9c-0.5,0.6-1.2,1-1.9,1H918c-1,0-1.9-0.4-2.7-1c-0.8-0.5-1.3-1.1-1.7-1.9l-7-18.1l-27.5,0.2
		c-0.5,0-1-0.3-1.2-0.7c-0.2-0.5-0.2-1.2,0-1.7l6.3-16.4c0.3-0.6,0.7-1.2,1.2-1.7c0.5-0.4,1.2-0.7,1.9-0.7h11.6l-6.3-16.2
		c-0.5-1.4-0.5-2.9,0-4.3l9.2-24.1c0.2-0.7,0.7-1.2,1-1.2c0.5,0,1,0.5,1.2,1.2L935.8,174.6z"/>
</g>
</svg>
