<?xml version="1.0" encoding="utf-8"?>
<!-- Generator: Adobe Illustrator 24.0.1, SVG Export Plug-In . SVG Version: 6.00 Build 0)  -->
<svg version="1.1" id="Layer_2" xmlns="http://www.w3.org/2000/svg" xmlns:xlink="http://www.w3.org/1999/xlink" x="0px" y="0px"
	 viewBox="0 0 250 50" style="enable-background:new 0 0 250 50;" xml:space="preserve">
<g>
	<path d="M16.7,6.2L2.4,43.5l4.9,0c0,0,0.1,0,0.1-0.1L21.6,6.2H16.7z"/>
	<path d="M26.8,20.1c-0.1,0.2-0.1,0.3,0,0.5l2.6,6.7l1.1,2.7h-2.9h-4.4l-1.8,4.8l9.4-0.1l1.4,0l0.5,1.3l2.9,7.4l0,0l0,0l4.9,0
		L29.2,13.8L26.8,20.1z"/>
</g>
<path d="M49,6v23.6c0,1.1,0.1,2.2,0.4,3.2l0,0.1l0,0.1c0.1,0.9,0.6,2,1.4,3.5c0.7,1.3,1.6,2.4,2.7,3.5c1.1,1,2.8,1.8,4.7,2.5
	c2.1,0.7,4.4,1.1,7.1,1.1c2.7,0,5.1-0.4,7.1-1.1c2.1-0.8,3.5-1.6,4.6-2.5c1.1-1,2-2.2,2.7-3.5c0.6-1.2,1.1-2.4,1.4-3.7
	c0.2-0.9,0.3-1.9,0.3-3.1V6.1h-1V6h-3.6v23.8V30l0,0.2c0,0.2,0,0.3-0.1,0.5c0,0.3-0.1,0.7-0.2,1.1c0,0.1,0,0.2-0.1,0.3
	c-0.1,0.3-0.2,0.7-0.4,1.1c-0.2,0.6-0.5,1.3-1,1.9c-0.3,0.4-0.7,0.9-1.3,1.4c-0.7,0.6-1.5,1.1-2.3,1.4c-0.6,0.2-1.4,0.4-2.5,0.7
	c-1,0.2-2.3,0.4-3.6,0.4c-1.8,0-3.5-0.2-4.9-0.7c-1.5-0.5-2.5-1-3.4-1.6l-0.1,0l-0.1,0c-0.6-0.5-1.5-1.3-2.1-2.6
	c-0.4-0.9-0.8-1.7-1-2.6c-0.1-0.6-0.2-1.3-0.2-2.2V6H49z"/>
<path d="M119.3,41.9c0.7-0.3,1.1-0.5,1.2-0.6c0.1-0.1,0.2-0.2,0.3-0.2c0.1-0.1,0.2-0.2,0.3-0.3l0-0.1V22.9h-10.4l-1.8,4.5h5.6h2v2
	v7.5v1.7l-1.7,0.3l-0.6,0.1c-1,0.2-2,0.3-2.9,0.4c-1.3,0.1-2.5,0.2-3.6,0.2c-1.5,0-2.8-0.1-3.9-0.3l-0.1,0l-0.1,0
	c-1-0.3-2.2-0.7-3.5-1.4c-1.2-0.6-2.3-1.6-3.3-2.8c-1-1.2-1.5-2.8-2-4.2c-0.6-1.7-0.8-3.5-0.8-5.9c0-2.1,0.3-4,0.9-5.9
	c0.6-1.7,1.4-3.2,2.4-4.3c0.9-1.1,2.1-1.9,3.6-2.7l0.1,0l0.1,0c1.2-0.5,2.5-1,4-1.2c1.3-0.2,2.7-0.3,4.2-0.3c1.5,0,2.8,0.1,3.8,0.2
	l0.1,0l0.1,0c1,0.2,2,0.4,3,0.6l1.5-3.9L115.8,7c-2.6-0.5-4.9-0.8-7.3-0.8c-1,0-2.1,0.1-3.1,0.2c-1,0.1-2.1,0.3-3.5,0.7
	c-1.3,0.4-2.5,0.8-3.6,1.4c-1,0.5-2,1.2-3.2,2.3c-1,0.9-1.9,2-2.8,3.4c-0.8,1.3-1.4,2.8-1.9,4.6C90,21,89.7,23,89.7,25.3
	c0,2.2,0.2,4.2,0.8,6.4c0.4,1.8,1.1,3.3,1.9,4.5l0,0l0,0c0.6,1.1,1.5,2.1,2.7,3.1c1,0.8,2.1,1.5,3.3,2.2c1.2,0.6,2.5,0.9,3.7,1.3
	c1.2,0.3,2.2,0.5,3.4,0.6c1,0.1,2,0.2,3,0.2c2.3,0,4.4-0.2,6.5-0.6l1.5-0.3C117.6,42.5,118.5,42.2,119.3,41.9z"/>
<path d="M146.1,6.1c-6.1,0-10.6,1.5-13.3,4.5c-2.8,3.1-4.2,7.8-4.2,14.2c0,6.4,1.4,11,4.3,14.2c2.8,3,7.2,4.6,13.1,4.6
	c12,0,17.5-5.9,17.5-18.7c0-6.6-1.3-11.2-4.1-14.3C156.7,7.6,152.2,6.1,146.1,6.1z M158.4,29.5c-0.4,1.6-0.8,2.8-1.4,3.8
	c-0.6,1-1.3,1.9-2.2,2.7c-0.9,0.7-1.7,1.3-2.4,1.7c-0.7,0.4-1.5,0.6-2.5,0.9c-0.8,0.2-1.5,0.3-2.1,0.4c-0.6,0.1-1.1,0.1-1.6,0.1
	c-0.5,0-1.1,0-1.9-0.1c-0.6,0-1.2-0.1-2.1-0.4c-1-0.2-1.8-0.5-2.5-0.9c-0.7-0.4-1.6-0.9-2.4-1.7c-0.8-0.7-1.5-1.5-2.2-2.7
	c-0.6-1-1.1-2.3-1.5-3.8c-0.4-1.6-0.6-3.2-0.6-4.9s0.2-3.3,0.6-4.9c0.4-1.6,0.8-2.8,1.4-3.8c0.6-1,1.3-1.9,2.2-2.7
	c0.9-0.9,1.8-1.4,2.5-1.7c0.8-0.4,1.6-0.6,2.5-0.9c0.9-0.2,1.6-0.3,2.2-0.4c0.6-0.1,1.1-0.1,1.7-0.1c0.4,0,0.7,0,1,0.1
	c0.2,0,0.4,0,0.6,0c0.7,0,1.4,0.1,2.4,0.4c1,0.2,1.8,0.5,2.5,0.9c0.7,0.4,1.8,0.9,2.6,1.9c0.6,0.8,1.3,1.5,1.9,2.5
	c0.6,1,1.1,2.3,1.5,3.8c0.4,1.8,0.6,3.3,0.6,4.9C159,26.3,158.8,27.9,158.4,29.5z"/>
<path d="M196.1,43.5h5l-4.9-12.9l-0.5-1.4l1.2-0.9c2.9-2.2,4.4-5.6,4.4-10c0-2.1-0.3-3.9-1-5.6c-0.8-1.7-1.5-2.9-2.2-3.6
	c-0.7-0.7-1.7-1.4-2.8-1.9c-1.4-0.5-2.4-0.8-3.4-1c-1-0.2-2-0.3-3-0.3h-17.4v37.6h4.7V33.5v-2h2H190h1.4l0.5,1.3L196.1,43.5
	C196,43.5,196,43.5,196.1,43.5z M193.8,24.7c-0.4,0.3-1.2,0.9-2,1.2c-0.8,0.4-1.6,0.6-2.3,0.7l-0.2,0h-0.2c-0.2,0-0.4,0-0.6,0
	c-0.2,0-0.4,0.1-0.7,0.1c-0.3,0-0.6,0-1.1-0.1h-8.7h-2v-2v-12v-2h2h10.4h0.6c0.8,0,1.4,0.2,2.1,0.4c0.9,0.3,1.6,0.7,2.2,1.1
	c0.9,0.5,1.6,1.5,2.2,2.7c0.5,1.2,0.8,2.5,0.8,3.9c0,1.2-0.2,2.4-0.7,3.4C195.3,23.2,194.6,24.1,193.8,24.7z"/>
<g>
	<path d="M223.7,6.2l-14.3,37.3l4.9,0c0,0,0.1,0,0.1-0.1l14.3-37.2H223.7z"/>
	<path d="M233.9,20.1c-0.1,0.2-0.1,0.3,0,0.5l2.6,6.7l1.1,2.7h-2.9h-4.4l-1.8,4.8l9.4-0.1l1.4,0l0.5,1.3l2.9,7.4l0,0l0,0l4.9,0
		l-11.3-29.7L233.9,20.1z"/>
</g>
</svg>
