<svg version="1.1" clas="augora-text" xmlns="http://www.w3.org/2000/svg" xmlns:xlink="http://www.w3.org/1999/xlink"
	 viewBox="0 0 599 248" xml:space="preserve">
<path d="M56.1,75c1,0,1.7,0.3,1.9,0.7c0.5,0.5,0.5,1.2,0,2.2L22.5,171c-0.3,0.8-0.9,1.5-1.7,1.9c-0.8,0.6-1.7,0.9-2.7,1H2.3
	c-1,0-1.7-0.2-1.9-1c-0.5-0.6-0.5-1.4,0-1.9l35.5-93.1c0.3-0.9,0.9-1.6,1.7-2.2c0.8-0.5,1.7-0.7,2.7-0.7H56.1z M103.1,171
	c0.2,0.6,0.2,1.3,0,1.9c-0.5,0.6-1.2,1-1.9,1H85.3c-1,0-1.9-0.4-2.7-1c-0.7-0.5-1.3-1.1-1.7-1.9l-7-18.1l-27.5,0.2
	c-0.5,0-1-0.3-1.2-0.7c-0.2-0.5-0.2-1.2,0-1.7l6.3-16.4c0.3-0.6,0.7-1.2,1.2-1.7c0.5-0.5,1.2-0.7,1.9-0.7h11.6l-6.3-16.2
	c-0.5-1.4-0.5-2.9,0-4.3l9.2-24.1c0.2-0.7,0.7-1.2,1-1.2c0.5,0,1,0.5,1.2,1.2L103.1,171z"/>
<path d="M197.4,74.8c1.3,0,2.4,1.1,2.4,2.4v58.6c0,2.9-0.3,5.8-1,8.7c-0.9,3.4-2.2,6.8-3.9,9.9c-1.9,3.6-4.5,6.9-7.5,9.6
	c-3.1,2.9-7.2,5.1-12.6,7c-6,2-12.3,3-18.6,2.9c-6.3,0.1-12.6-0.9-18.5-2.9c-4.6-1.6-9-3.9-12.8-7c-3-2.8-5.6-6-7.5-9.6
	c-1.8-3.1-3.1-6.4-3.8-9.9c-0.7-2.8-1-5.8-1-8.7V76.9c0-0.6,0.3-1.2,0.7-1.7c0.4-0.5,1-0.7,1.7-0.7h15.7c1.3,0,2.4,1.1,2.4,2.4v57.9
	c0,1.5,0.2,2.9,0.5,4.3c0.4,1.7,1.1,3.3,1.9,4.8c1,1.8,2.3,3.3,3.9,4.6c2.1,1.4,4.4,2.4,6.8,3.1c3.3,1,6.7,1.5,10.1,1.4
	c2.5,0,5-0.2,7.5-0.7c2.2-0.5,4.1-1,5.6-1.4c1.4-0.5,2.8-1.3,3.9-2.4c1-0.8,1.9-1.8,2.6-2.9c0.8-0.9,1.3-2,1.7-3.1
	c0.5-1.2,0.7-2.4,1-3.1s0.2-1.9,0.5-3.1V76.9c0-0.6,0.3-1.2,0.7-1.7c0.4-0.5,1-0.8,1.7-0.7h15.9L197.4,74.8z"/>
<path d="M294.9,117.5V164c0,0.3-0.2,0.7-1,1.4c-0.7,0.8-1.4,1.5-2.2,2.2c-1.3,0.9-2.8,1.7-4.3,2.2c-2.4,0.9-4.8,1.6-7.2,2.2
	l-3.9,0.7c-5.4,1-10.9,1.5-16.4,1.4c-2.6,0-5.3-0.3-7.7-0.5c-3-0.3-6-0.8-8.9-1.7c-3.3-0.9-6.5-2-9.6-3.4c-3.2-1.6-6.2-3.5-8.9-5.8
	c-3-2.4-5.5-5.4-7.5-8.7c-2.3-3.8-4.1-8-5.1-12.3c-2.6-10.8-2.6-22,0-32.8c1-4.4,2.7-8.7,5.1-12.6c2.1-3.4,4.6-6.4,7.5-9.2
	c2.6-2.5,5.5-4.6,8.7-6.3c3-1.5,6.2-2.7,9.4-3.6c3-0.9,6.1-1.6,9.2-1.9c2.7-0.2,5.3-0.5,8-0.5c6.2,0,12.5,0.7,18.6,1.9l8,2.2
	c0.5,0.2,0.9,0.5,1.2,1c0.2,0.5,0.2,1.2,0,1.7l-5.3,13.8c-0.4,0.6-1,1.1-1.7,1.2c-0.8,0.2-1.6,0.3-2.4,0.2H278
	c-2.4-0.5-4.8-1-7.5-1.4c-2.9-0.3-5.8-0.5-8.7-0.5c-3.1,0-6.1,0.2-9.2,0.7c-2.9,0.6-5.7,1.4-8.4,2.7c-2.7,1.3-5.2,3.1-7.2,5.3
	c-2.2,2.5-3.8,5.5-4.8,8.7c-1.3,4.1-2,8.3-1.9,12.6c-0.1,4.2,0.5,8.5,1.7,12.5c0.9,3.1,2.3,6,4.1,8.7c1.7,2.2,3.8,4,6.3,5.3
	c2.4,1.2,4.9,2.2,7.5,2.9c2.8,0.5,5.6,0.8,8.4,0.7c2.7,0,5.5-0.2,8.2-0.5c2.4-0.2,5.1-0.7,8-1.2v-17.8h-18.6c-0.4,0-0.9-0.2-1.2-0.5
	c-0.2-0.5-0.2-1,0-1.4l6.5-16.4c0.3-0.6,0.7-1.1,1.2-1.4c0.5-0.4,1.1-0.7,1.7-0.7h28.7c0.6,0,1.1,0.3,1.5,0.7
	C294.6,116.2,294.9,116.8,294.9,117.5z"/>
<path d="M314.4,87.1c7.5-8.2,19.3-12.3,35.5-12.3s28,4.1,35.5,12.3c7.5,8.2,11.1,20.5,11.1,37.4c0,33.1-15.7,49.4-46.8,49.4
	c-15.4,0-27.3-4.1-35-12.5S303,140.6,303,124.2S306.9,95.3,314.4,87.1z M349.9,153.6c1.1,0,2.3,0,3.4-0.2c1.5,0,2.9-0.3,4.3-0.7
	c3.7-0.7,7.2-2.5,9.9-5.1c1.8-1.5,3.2-3.3,4.3-5.3c1.4-2.4,2.3-5,2.9-7.7c0.8-3.5,1.2-7,1.2-10.6c0-3.6-0.4-7.1-1.2-10.6
	c-0.5-2.7-1.5-5.3-2.9-7.7c-1.2-1.9-2.6-3.6-4.1-5.3c-1.4-1.4-3-2.6-4.8-3.4c-1.6-0.7-3.3-1.3-5.1-1.7c-1.5-0.4-3-0.7-4.6-0.7
	c-1.2,0-2.4-0.2-3.6-0.2c-1.2-0.1-2.4,0-3.6,0.2c-1.6,0.1-3.1,0.3-4.6,0.7c-1.7,0.4-3.4,0.9-5.1,1.7c-1.8,0.8-3.4,2-4.8,3.4
	c-1.8,1.5-3.2,3.3-4.4,5.3c-1.4,2.4-2.3,5-2.9,7.7c-1.6,7-1.6,14.2,0,21.2c0.5,2.7,1.5,5.3,2.9,7.7c1.2,2,2.6,3.8,4.4,5.3
	c1.5,1.3,3.1,2.4,4.8,3.4c1.6,0.7,3.3,1.3,5.1,1.7c1.4,0.4,2.9,0.6,4.3,0.7C347.1,153.6,348.5,153.7,349.9,153.6z"/>
<path d="M487.4,171c0.3,0.6,0.2,1.4-0.2,1.9c-0.5,0.6-1.2,1-1.9,1h-15.9c-1,0-1.9-0.4-2.6-1c-0.8-0.4-1.4-1.1-1.7-1.9l-9.9-25.8
	h-28.2v26.5c0,0.6-0.3,1.2-0.7,1.7c-0.4,0.5-1,0.7-1.7,0.7h-16.2c-0.6,0-1.3-0.3-1.7-0.7c-0.5-0.4-0.8-1-0.7-1.7V76.9
	c0-0.6,0.3-1.2,0.7-1.7c0.4-0.4,0.9-0.7,1.4-0.7h44.4c2.7,0,5.4,0.2,8,0.7c3,0.6,6,1.5,8.9,2.7c3.1,1.3,6,3.2,8.4,5.6
	c2.4,2.4,4.4,5.8,6.3,10.1c1.8,4.9,2.7,10,2.6,15.2c0,12.1-4.1,21.5-12.3,27.7L487.4,171z M450,124.2c0.7,0,1.7-0.2,3.1-0.2
	c1.4-0.1,2.8-0.5,4.1-1.2c1.4-0.6,2.7-1.4,3.9-2.4c1.4-1.1,2.4-2.5,3.1-4.1c0.8-2,1.2-4.1,1.2-6.3c0.1-2.6-0.4-5.1-1.4-7.5
	c-0.7-1.8-1.8-3.3-3.4-4.3c-1.3-0.9-2.6-1.6-4.1-2.2c-1.2-0.4-2.4-0.7-3.6-0.7h-26.3V124H448C448.7,124.2,449.3,124.3,450,124.2z"/>
<path d="M551.5,75c1,0,1.7,0.3,1.9,0.7c0.5,0.5,0.5,1.2,0,2.2L517.8,171c-0.3,0.8-0.9,1.5-1.7,1.9c-0.8,0.6-1.7,0.9-2.7,1h-15.9
	c-1,0-1.7-0.2-1.9-1c-0.5-0.5-0.5-1.4,0-1.9l35.7-93.1c0.3-0.9,0.9-1.6,1.7-2.2c0.8-0.5,1.7-0.7,2.7-0.7H551.5z M598.5,171
	c0.2,0.6,0.2,1.3,0,1.9c-0.5,0.6-1.2,1-1.9,1h-15.9c-1,0-1.9-0.4-2.7-1c-0.7-0.5-1.3-1.1-1.7-1.9l-7-18.1l-27.5,0.2
	c-0.5,0-1-0.3-1.2-0.7c-0.2-0.5-0.2-1.2,0-1.7l6.3-16.4c0.3-0.6,0.7-1.2,1.2-1.7c0.5-0.5,1.2-0.7,1.9-0.7h11.6l-6.3-16.2
	c-0.5-1.4-0.5-2.9,0-4.3l9.2-24.1c0.3-0.7,0.7-1.2,1-1.2c0.5,0,1,0.5,1.2,1.2L598.5,171z"/>
</svg>
