<svg id="Layer_1" data-name="Layer 1" xmlns="http://www.w3.org/2000/svg" viewBox="0 0 241.32 247.1"><title>Logo</title><path d="M242.07,194.44h0c-22.58-16.65-27.52-49.63-28.35-56.9a4.36,4.36,0,0,1,.1-1.48c2-8.17,14.53-39.33,25.81-65.4l.62-1.44a8.18,8.18,0,0,0-4.7-10.93l-71.09-26a4.19,4.19,0,0,1-1.67-1.11l-26-27.59a8.31,8.31,0,0,0-8.47-2.25l-20,6.12a8.3,8.3,0,0,0-5.87,7.94v12a4.34,4.34,0,0,1-2.12,3.73l-44.4,26.6a4.21,4.21,0,0,1-1.18.49l-43.89,11a8.17,8.17,0,0,0-6.19,7.93V93.42a8.92,8.92,0,0,0,3.49,7c23.13,17.86,35.43,42,36.6,71.93a134.27,134.27,0,0,1-8.09,50.36l-.87,2.09a7.63,7.63,0,0,0,5,10.26l43.84,12.56a10.45,10.45,0,0,0,13.34-10V125.53a4.35,4.35,0,0,0-4.35-4.35H83a4.36,4.36,0,0,0-4.36,4.35V220.1a4.36,4.36,0,0,1-5.55,4.19l-11-3.15a4.35,4.35,0,0,1-3-5.29,154.37,154.37,0,0,0,5-43.47c-.64-18.88-5.16-36.22-13.42-51.53A110.22,110.22,0,0,0,27.82,91.79a4.36,4.36,0,0,1,1.86-7.46l32.54-8.12a3.83,3.83,0,0,0,1.18-.49l54.24-32.49a8.51,8.51,0,0,0,4.13-7.29v-9a4.47,4.47,0,0,1,2.33-4,4.35,4.35,0,0,1,5.19.87l16.94,18a38.92,38.92,0,0,0,15,9.9l52.34,19.15a4.35,4.35,0,0,1,2.52,5.78c-2.28,5.41-5,11.93-7.7,18.58-14.12,34.74-14.12,39-14.12,41.59V137c0,.1,0,.2,0,.3v.18c.12,1.72,2.85,37.46,25.28,62.5a4.34,4.34,0,0,1-.12,5.9L208.23,217.5a4.34,4.34,0,0,1-4.45,1.13c-4.74-1.51-9.93-3.08-14.63-4.32a4.37,4.37,0,0,1-3.23-4.21v-64a4.35,4.35,0,0,0-4.35-4.35H171a4.36,4.36,0,0,0-4.36,4.35v75.66a9.41,9.41,0,0,0,8.13,9.31,30,30,0,0,1,3.38.62c5.17,1.33,18.72,4.89,27.9,8h0a9.64,9.64,0,0,0,10-2.45L243.3,208.9A9.64,9.64,0,0,0,242.07,194.44Z" transform="translate(-4.68 -0.98)"/><rect x="103.22" y="89" width="19.31" height="152.52" rx="4.35"/><rect x="132.75" y="161.61" width="19.31" height="68.4" rx="4.35"/></svg>