<?xml version="1.0" encoding="UTF-8" standalone="no"?>
<!-- Created with Inkscape (http://www.inkscape.org/) -->

<svg
   xmlns:dc="http://purl.org/dc/elements/1.1/"
   xmlns:cc="http://creativecommons.org/ns#"
   xmlns:rdf="http://www.w3.org/1999/02/22-rdf-syntax-ns#"
   xmlns:svg="http://www.w3.org/2000/svg"
   xmlns="http://www.w3.org/2000/svg"
   xmlns:sodipodi="http://sodipodi.sourceforge.net/DTD/sodipodi-0.dtd"
   xmlns:inkscape="http://www.inkscape.org/namespaces/inkscape"
   width="962.03363"
   height="414.50748"
   viewBox="0 0 254.53806 109.67177"
   version="1.1"
   id="svg8"
   inkscape:version="0.92.1 r15371"
   sodipodi:docname="FI logo.svg">
  <defs
     id="defs2" />
  <sodipodi:namedview
     id="base"
     pagecolor="#ffffff"
     bordercolor="#666666"
     borderopacity="1.0"
     inkscape:pageopacity="0.0"
     inkscape:pageshadow="2"
     inkscape:zoom="0.87061669"
     inkscape:cx="481.5075"
     inkscape:cy="210.57802"
     inkscape:document-units="px"
     inkscape:current-layer="layer1"
     showgrid="false"
     units="px"
     inkscape:showpageshadow="false"
     borderlayer="true"
     fit-margin-top="0"
     fit-margin-left="0"
     fit-margin-right="0"
     fit-margin-bottom="0"
     inkscape:window-width="1920"
     inkscape:window-height="1017"
     inkscape:window-x="-8"
     inkscape:window-y="-8"
     inkscape:window-maximized="1"
     inkscape:pagecheckerboard="false" />
  <metadata
     id="metadata5">
    <rdf:RDF>
      <cc:Work
         rdf:about="">
        <dc:format>image/svg+xml</dc:format>
        <dc:type
           rdf:resource="http://purl.org/dc/dcmitype/StillImage" />
        <dc:title></dc:title>
      </cc:Work>
    </rdf:RDF>
  </metadata>
  <g
     inkscape:label="Layer 1"
     inkscape:groupmode="layer"
     id="layer1"
     transform="translate(-71.038646,-180.47736)">
    <g
       id="g4640">
      <g
         id="g4660">
        <path
           style="fill:#c9442a;fill-opacity:1;stroke-width:0.26458332"
           d="m 198.45385,254.4257 c -1.55888,-0.3781 -3.41271,-1.17518 -4.30809,-1.85231 -0.50947,-0.38528 -0.5098,-0.40612 -0.0198,-1.24841 1.17348,-2.01707 1.76867,-2.86952 1.94119,-2.78024 3.61158,1.86902 5.92668,2.42658 7.4521,1.79473 0.8981,-0.372 1.07088,-1.16445 0.33887,-1.55419 -0.25467,-0.13558 -1.4961,-0.43963 -2.75875,-0.67566 -1.26265,-0.23603 -2.80878,-0.61017 -3.43583,-0.83141 -2.88817,-1.019 -4.14763,-3.88857 -2.8965,-6.5994 0.61623,-1.33517 1.40554,-2.06187 3.0751,-2.83115 2.6037,-1.19969 8.2092,-0.61807 10.41979,1.08116 l 0.6335,0.48696 -0.98893,1.83093 -0.98893,1.83093 -1.51417,-0.75049 c -1.93611,-0.95962 -4.23579,-1.23517 -5.17462,-0.62003 -1.43927,0.94305 -0.81202,1.35074 3.29861,2.14399 2.92725,0.56489 4.68757,1.54361 5.48353,3.04879 1.28718,2.4341 0.30061,5.52126 -2.17624,6.80985 -2.14746,1.11722 -5.53378,1.40651 -8.38085,0.71595 z m 18.73638,0.008 c -2.93256,-0.80556 -5.3065,-3.11775 -6.09829,-5.93964 -0.55694,-1.98492 -0.53066,-3.30243 0.10704,-5.36706 2.46664,-7.98607 15.26313,-7.98607 17.72977,0 0.2903,0.93989 0.52782,2.21051 0.52782,2.82362 0,1.5588 -0.70619,3.76631 -1.63825,5.121 -2.07787,3.02008 -6.6304,4.46022 -10.62809,3.36208 z m 4.59755,-4.84449 c 1.05635,-0.55296 2.11254,-2.36205 2.11254,-3.61843 0,-1.24967 -1.05637,-3.06356 -2.11666,-3.63451 -1.09268,-0.58839 -2.80167,-0.50743 -3.85481,0.18262 -0.80964,0.53049 -1.6874,2.32262 -1.69563,3.46197 -0.003,0.44211 0.26208,1.33508 0.5895,1.98438 0.98232,1.94801 3.05254,2.62514 4.96506,1.62398 z m 13.39365,4.85754 c -0.56211,-0.20039 -1.36858,-0.69637 -1.79216,-1.10218 -1.33153,-1.27568 -1.55145,-2.64652 -1.55145,-9.67077 v -6.30198 h 2.77813 2.77812 v 5.5415 c 0,5.47646 0.007,5.5502 0.63855,6.28385 0.55129,0.64091 0.8315,0.74236 2.05052,0.74236 1.01882,0 1.68824,-0.17177 2.40416,-0.61689 l 0.99219,-0.6169 v -5.66696 -5.66696 h 2.77812 2.77813 v 8.59896 8.59896 h -2.77813 -2.77812 v -1.0708 -1.07081 l -0.99219,0.78469 c -1.83684,1.4527 -5.13134,2.00913 -7.30587,1.23393 z m 60.10991,-0.0208 c -1.55887,-0.3781 -3.4127,-1.17517 -4.30809,-1.8523 -0.50947,-0.38529 -0.5098,-0.40613 -0.0198,-1.24841 1.17349,-2.01707 1.76867,-2.86953 1.94119,-2.78025 3.61159,1.86903 5.92669,2.42658 7.4521,1.79474 0.89811,-0.37201 1.07089,-1.16446 0.33887,-1.55419 -0.25466,-0.13559 -1.4961,-0.43964 -2.75875,-0.67567 -1.26265,-0.23603 -2.80877,-0.61016 -3.43583,-0.8314 -2.88816,-1.019 -4.14762,-3.88857 -2.89649,-6.59941 0.61622,-1.33517 1.40553,-2.06187 3.07509,-2.83115 2.6037,-1.19969 8.2092,-0.61806 10.41979,1.08116 l 0.6335,0.48696 -0.98893,1.83093 -0.98893,1.83094 -1.51417,-0.7505 c -1.93611,-0.95962 -4.23579,-1.23517 -5.17462,-0.62002 -1.43927,0.94304 -0.81201,1.35074 3.29861,2.14399 2.92726,0.56488 4.68757,1.5436 5.48353,3.04879 1.28719,2.4341 0.30062,5.52125 -2.17624,6.80984 -2.14746,1.11722 -5.53377,1.40651 -8.38085,0.71595 z m 18.482,-0.11237 c -3.91216,-1.25004 -6.00011,-4.14263 -6.00011,-8.31243 0,-2.27525 0.46927,-3.78732 1.65821,-5.34309 3.32436,-4.35003 10.03668,-4.71709 13.66488,-0.74727 1.5027,1.64419 2.11067,3.17606 2.32633,5.8615 l 0.15405,1.91823 h -6.12361 c -3.56676,0 -6.12361,0.102 -6.12361,0.24428 0,0.54417 1.40014,1.85683 2.2959,2.15246 1.3365,0.44108 4.08197,0.17645 5.23652,-0.50476 l 0.93484,-0.55157 1.19322,1.77719 c 1.34342,2.0009 1.33884,2.01775 -0.80462,2.95963 -2.59615,1.1408 -5.88256,1.35405 -8.412,0.54583 z m 6.43531,-10.60921 c 0,-1.1895 -1.51674,-2.09927 -3.49986,-2.09927 -1.39348,0 -2.32309,0.40081 -3.04016,1.31078 -0.76053,0.96511 -0.45538,1.07047 3.10044,1.07047 2.25811,0 3.43958,-0.0968 3.43958,-0.28198 z m -154.51666,2.26636 v -8.59896 h 2.77813 2.77812 v 8.59896 8.59896 h -2.77812 -2.77813 z m 8.99584,0 v -8.59896 h 2.77812 2.77813 v 1.10445 1.10446 l 0.59861,-0.56237 c 1.56315,-1.4685 5.07679,-2.25977 7.3293,-1.65054 1.4798,0.40024 3.0251,1.89971 3.41864,3.31726 0.17598,0.63387 0.29275,3.60385 0.29364,7.46851 l 0.001,6.41615 h -2.77812 -2.77813 v -5.52057 c 0,-5.13109 -0.0376,-5.56832 -0.53239,-6.1974 -0.96839,-1.23112 -3.31477,-1.23086 -4.77818,5.3e-4 l -0.77484,0.65199 v 5.53273 5.53273 h -2.77813 -2.77812 v -8.59896 z m 77.52291,0 v -8.59896 h 2.77812 2.77813 v 1.10445 1.10446 l 0.59861,-0.56237 c 1.52391,-1.43164 5.04743,-2.27181 6.92663,-1.65162 1.12834,0.37239 2.79351,1.73232 2.79351,2.28145 0,0.51745 0.0933,0.47789 1.09649,-0.46512 2.55243,-2.39921 6.95215,-2.72537 8.8967,-0.65953 1.27829,1.35803 1.38389,2.07065 1.38389,9.3388 v 6.7074 h -2.62701 -2.62701 l -0.085,-5.71191 -0.085,-5.7119 -0.74236,-0.6381 c -1.10655,-0.95114 -2.76381,-0.75485 -4.08628,0.48398 -0.58046,0.54375 -0.59532,0.69521 -0.59532,6.06779 v 5.51014 h -2.77812 -2.77813 v -5.70057 c 0,-5.69968 -10e-5,-5.70067 -0.64943,-6.35 -0.97425,-0.97426 -2.71999,-0.77037 -4.04692,0.47264 -0.58045,0.54375 -0.59531,0.69521 -0.59531,6.06779 v 5.51014 h -2.77813 -2.77812 z m 30.69166,0 v -8.59896 h 2.77813 2.77812 v 8.59896 8.59896 h -2.77812 -2.77813 z M 167.09984,235.37134 c -0.46291,-0.23609 -1.04104,-0.85028 -1.28573,-1.36593 -0.86438,-1.82154 0.0316,-3.74996 2.01901,-4.3454 2.14471,-0.64257 4.36087,1.57359 3.71829,3.7183 -0.59386,1.98214 -2.65954,2.90697 -4.45157,1.99303 z m 117.21041,0 c -0.46291,-0.23609 -1.04104,-0.85028 -1.28573,-1.36593 -0.86438,-1.82154 0.0316,-3.74996 2.01901,-4.3454 2.14471,-0.64257 4.36086,1.57359 3.71829,3.7183 -0.59386,1.98214 -2.65954,2.90697 -4.45157,1.99303 z"
           id="path4621"
           inkscape:connector-curvature="0"
           sodipodi:nodetypes="ccccccscccccccsccccccccscscccsccccccccscccscsccccccccccccccccccccscscccccccccscccscsccsscccsscsscssccccccccccccccccccccccscscccccccccccccccsccscccccscscccsccscccccccccccccccsccccscc" />
        <path
           style="fill:#00afcb;fill-opacity:1;stroke-width:0.26458332"
           d="m 188.97361,226.01181 c -2.10991,-0.64181 -3.7304,-2.0959 -4.73531,-4.2491 -0.58657,-1.25681 -0.68039,-1.82006 -0.68342,-4.10265 -0.004,-3.22563 0.50047,-4.86997 2.02736,-6.60462 1.31857,-1.49796 2.74872,-2.25796 4.61061,-2.45012 1.88366,-0.19441 3.67852,0.33877 4.92194,1.46213 l 1.00429,0.90731 v -0.95683 -0.95683 h 2.77812 2.77813 v 8.46667 8.46666 h -2.77813 -2.77812 v -0.95744 -0.95745 l -0.92183,0.70312 c -1.70875,1.30332 -4.29841,1.81477 -6.22364,1.22915 z m 6.28203,-5.34773 0.88079,-0.54436 -0.0748,-2.79199 -0.0748,-2.79199 -1.02717,-0.53246 c -2.06573,-1.07081 -4.5011,-0.44828 -5.49134,1.40369 -1.19909,2.24256 -0.0242,5.27946 2.28518,5.90696 0.88212,0.23969 2.5695,-0.0734 3.50219,-0.64985 z m 57.74714,5.34773 c -2.10992,-0.64181 -3.7304,-2.0959 -4.73532,-4.2491 -0.58657,-1.25681 -0.68039,-1.82006 -0.68342,-4.10265 -0.004,-3.22563 0.50047,-4.86997 2.02737,-6.60462 1.31856,-1.49796 2.74871,-2.25796 4.6106,-2.45012 1.88366,-0.19441 3.67853,0.33877 4.92194,1.46213 l 1.00429,0.90731 v -0.95683 -0.95683 h 2.77812 2.77813 v 8.46667 8.46666 h -2.77813 -2.77812 v -0.95744 -0.95745 l -0.92183,0.70312 c -1.70875,1.30332 -4.29841,1.81477 -6.22363,1.22915 z m 6.28202,-5.34773 0.88079,-0.54436 -0.0748,-2.79199 -0.0748,-2.79199 -1.02718,-0.53246 c -2.06572,-1.07081 -4.50109,-0.44828 -5.49134,1.40369 -1.19909,2.24256 -0.0242,5.27946 2.28518,5.90696 0.88212,0.23969 2.5695,-0.0734 3.50219,-0.64985 z m 37.04413,5.30769 c -2.63278,-0.6205 -5.00524,-2.5529 -6.10428,-4.97203 -0.42912,-0.94456 -0.55788,-1.76517 -0.5655,-3.60426 -0.0116,-2.79556 0.48812,-4.1552 2.21618,-6.02992 3.09891,-3.36193 9.63219,-3.75327 12.98512,-0.77781 l 1.13334,1.00575 -1.78501,1.63564 -1.78502,1.63564 -0.85503,-0.65218 c -1.26967,-0.96842 -2.91227,-1.09648 -4.35925,-0.33987 -1.54834,0.80961 -2.2024,2.01508 -2.06809,3.81157 0.13011,1.74026 0.91628,2.84544 2.43732,3.42632 1.41277,0.53955 2.59908,0.37774 3.94954,-0.53871 l 0.95198,-0.64604 1.75261,1.63949 1.75262,1.63949 -1.12431,0.99773 c -1.92286,1.70639 -5.5806,2.46483 -8.53222,1.76919 z m 17.44441,-0.23344 c -4.11311,-1.31425 -6.15505,-4.33775 -5.95776,-8.82165 0.11302,-2.56876 0.74947,-4.08408 2.42159,-5.76552 1.77574,-1.78562 3.55268,-2.47384 6.39961,-2.4786 3.04286,-0.005 4.61247,0.64199 6.45954,2.66298 1.5027,1.64419 2.11067,3.17605 2.32633,5.8615 l 0.15405,1.91823 h -6.12361 c -3.76524,0 -6.12361,0.0985 -6.12361,0.25576 0,0.57319 1.88519,2.10772 2.80026,2.27939 1.42965,0.2682 3.7247,-0.0487 4.75508,-0.65669 l 0.91192,-0.53805 1.19322,1.77719 c 1.34342,2.0009 1.33884,2.01775 -0.80462,2.95963 -2.59615,1.1408 -5.88256,1.35405 -8.412,0.54583 z m 6.42943,-10.65796 c -0.008,-0.46357 -0.81042,-1.4033 -1.49808,-1.75497 -0.31785,-0.16255 -1.2141,-0.29555 -1.99165,-0.29555 -1.39792,0 -2.32657,0.39983 -3.04441,1.31078 -0.76053,0.96511 -0.45538,1.07047 3.10044,1.07047 2.57841,0 3.43811,-0.0828 3.4337,-0.33073 z m -154.24619,-0.99219 v -11.90625 h 3.04271 3.0427 v 9.26042 9.26042 h 4.7625 4.7625 v 2.64583 2.64583 h -7.8052 -7.80521 z m 48.94791,0 v -11.90625 h 8.73125 8.73125 v 2.64584 2.64583 h -5.68854 -5.68854 v 1.98438 1.98437 h 5.55625 5.55625 v 2.64583 2.64584 h -5.55625 -5.55625 v 4.63021 4.6302 h -3.04271 -3.04271 z m 20.37292,3.3073 v -8.59896 h 2.77812 2.77813 v 1.10445 1.10446 l 0.59531,-0.54543 c 0.81514,-0.74684 2.53573,-1.58162 3.71647,-1.80313 l 0.97988,-0.18383 v 2.63859 2.63859 l -0.65112,-0.12447 c -0.91836,-0.17556 -3.18702,0.41583 -3.97602,1.03646 l -0.66452,0.52271 v 5.40476 5.40475 h -2.77813 -2.77812 z m 34.39583,0 v -8.59896 h 2.77812 2.77813 v 1.10445 1.10446 l 0.59861,-0.56237 c 0.91806,-0.86248 3.01586,-1.68874 4.66305,-1.83662 2.78649,-0.25018 4.91082,0.81773 5.88268,2.95726 0.42959,0.94574 0.48637,1.8411 0.49151,7.75001 l 0.006,6.68072 h -2.77813 -2.77813 v -5.52056 c 0,-5.13109 -0.0376,-5.56832 -0.53239,-6.1974 -0.9684,-1.23112 -3.31477,-1.23086 -4.77818,5.3e-4 l -0.77484,0.65199 v 5.53273 5.53273 h -2.77813 -2.77812 v -8.59896 z"
           id="path4621-9"
           inkscape:connector-curvature="0"
           sodipodi:nodetypes="cccccccccccccccccccccccccccccccccccccccccccccccccccsccccccccsccccscccccccccccccccsscccsscccscscccccccccccccccccccccccccccccccccccccccccsccccccccccccccccccsccccccscsccccccc" />
        <path
           style="fill:#c84529;fill-opacity:1;stroke-width:0.26458332"
           d="m 109.83141,289.88454 c -1.9596,-0.61964 -3.27452,-2.1452 -4.06835,-4.72006 -1.34543,-4.36399 -2.71781,-12.38781 -3.19817,-18.69859 l -0.17193,-2.25875 -2.515313,-0.86054 c -18.317571,-6.26681 -30.354986,-24.5898 -28.684621,-43.66286 0.173941,-1.98615 0.545121,-4.64355 0.824845,-5.90534 3.650944,-16.46878 16.412937,-29.16634 32.905789,-32.73965 5.23808,-1.13488 8.72784,-0.55966 11.05388,1.82202 3.7054,3.794 2.57416,9.34081 -3.34685,16.41075 -3.40281,4.06309 -4.79042,5.03229 -7.18905,5.02127 -4.49065,-0.0206 -7.339585,-5.16658 -4.94048,-8.92388 0.20907,-0.32742 0.28808,-0.59522 0.17558,-0.59512 -0.11249,1.1e-4 -1.183694,0.5827 -2.380452,1.29465 -8.389762,4.99108 -13.776432,12.98528 -15.169515,22.51263 -0.481945,3.29605 -0.191725,8.78417 0.632262,11.95614 1.971224,7.58829 6.709194,14.19246 13.198338,18.39692 1.606425,1.04083 4.999467,2.79693 5.122797,2.65135 0.0274,-0.0323 0.18976,-2.26141 0.36086,-4.95354 1.16628,-18.35132 5.5977,-34.64694 11.94709,-43.93296 6.99249,-10.22654 17.07133,-13.94247 27.21085,-10.03225 7.22422,2.78595 12.46978,10.16678 14.88277,20.94098 0.53322,2.38083 0.60974,3.42218 0.59922,8.15339 -0.0137,6.1577 -0.38876,8.52178 -2.22876,14.04919 -5.59872,16.81879 -20.7074,28.65032 -38.04197,29.79048 -2.8594,0.18808 -2.64291,-0.29161 -2.04565,4.53264 0.49593,4.00585 1.23981,7.89954 2.10662,11.02665 0.74098,2.6732 0.79961,3.46351 0.36463,4.91536 -0.89926,3.00145 -4.34796,4.7756 -7.40442,3.80912 z m 9.95538,-36.54116 c 7.57375,-1.42679 14.42456,-5.77397 19.12125,-12.13339 4.85137,-6.56887 7.25253,-14.99609 6.42124,-22.53633 -0.39089,-3.54553 -1.098,-6.04897 -2.5283,-8.9511 -1.4891,-3.02143 -3.12019,-4.90087 -5.09478,-5.87051 -1.32032,-0.64835 -1.82158,-0.74407 -3.89649,-0.74407 -2.07715,0 -2.57554,0.0954 -3.90254,0.74703 -6.73512,3.30729 -12.2833,15.9402 -14.71993,33.51651 -0.73174,5.27831 -1.48451,16.18504 -1.14079,16.52875 0.20694,0.20695 3.25576,-0.0888 5.74034,-0.55689 z"
           id="path4621-4"
           inkscape:connector-curvature="0"
           sodipodi:nodetypes="ccscssscccccccsscccscsssccccccscscscscc" />
      </g>
    </g>
  </g>
</svg>
