<svg id="LR" xmlns="http://www.w3.org/2000/svg" viewBox="0 0 481.78 338"><defs><style>.cls-1{fill:none;}.cls-2{fill:#202f55;}.cls-3{fill:#fa4a4a;}</style></defs><title>lr</title><g id="Text"><path class="cls-1" d="M227.64,358c-8.16,0-9.2,10-9.2,15.47v4c0,5.12.76,17.21,8.54,17.21,8.91,0,9.66-11.31,9.66-18.75C236.64,369.16,235.8,358,227.64,358Z" transform="translate(-7.22 -80.56)"/><path class="cls-1" d="M83.41,356.11c-7,0-9,7.64-9,11.31H91.75C91.75,365.2,91.56,356.11,83.41,356.11Z" transform="translate(-7.22 -80.56)"/><path class="cls-1" d="M129.73,358c-8.44,0-9.29,12.28-9.29,17.4v4c0,5.31,1,15.27,9.38,15.27,8.16,0,9-11.89,9-19C138.83,368.68,138.08,358,129.73,358Z" transform="translate(-7.22 -80.56)"/><path class="cls-1" d="M53.08,262.77c-7,0-9,7.63-9,11.3H61.43C61.43,271.85,61.24,262.77,53.08,262.77Z" transform="translate(-7.22 -80.56)"/><path class="cls-1" d="M46.55,351.67c0-10.45-5.82-13.35-13.7-13.35-6.28,0-6.28,1.74-6.28,8.71v17.2h5.35C38,364.23,46.55,362.49,46.55,351.67Z" transform="translate(-7.22 -80.56)"/><path class="cls-1" d="M350.77,387.14c0,4.45,2.15,7.54,5.63,7.54,5.44,0,8.71-5.12,8.71-11.7v-5.6C361.74,377.47,350.77,378,350.77,387.14Z" transform="translate(-7.22 -80.56)"/><path class="cls-2" d="M83.78,352.82c-12.57,0-19.7,6.67-19.7,21.95,0,16.14,8.63,25.13,23,25.13a36.37,36.37,0,0,0,13.22-2.61V393a24,24,0,0,1-8.81,1.64c-13.23,0-17.07-13.73-17.07-23.39h26.73C101.13,364.81,99.81,352.82,83.78,352.82Zm-9.38,14.6c0-3.67,2-11.31,9-11.31,8.15,0,8.34,9.09,8.34,11.31Z" transform="translate(-7.22 -80.56)"/><path class="cls-2" d="M56.86,351.09c0-17.31-19.41-17.31-26.44-17.31H7.35v2.13c8.72,1.45,8.9,1.45,8.9,11v51.91H26.57V368.77h5.82L49,398.84H59.77L42.52,367C49.92,365.78,56.86,362.1,56.86,351.09ZM31.92,364.23H26.57V347c0-7,0-8.71,6.28-8.71,7.88,0,13.7,2.9,13.7,13.35C46.55,362.49,38,364.23,31.92,364.23Z" transform="translate(-7.22 -80.56)"/><path class="cls-2" d="M468.46,362.39c0-4.15,3.56-5.31,6.56-5.31,5.26,0,9.76,3.67,11.17,4.64v-7.25a41,41,0,0,0-10.51-1.65c-11.06,0-15.66,6-15.66,13,0,13.34,20.54,13.92,20.54,23.39,0,3.38-2.16,6.48-8.06,6.48-5.26,0-9.66-3.1-12.38-5v7.54a43.28,43.28,0,0,0,12,1.74c9.28,0,16.88-3.87,16.88-13.34C489,371.77,468.46,371.58,468.46,362.39Z" transform="translate(-7.22 -80.56)"/><path class="cls-2" d="M90.06,336a10.13,10.13,0,0,0,1.41-3.19c0-2.51-2.34-3.67-4.31-3.67-3.57,0-4,2.61-4.51,4.93l-2.44,12.08h3.94Z" transform="translate(-7.22 -80.56)"/><path class="cls-2" d="M437.89,352.82c-9.28,0-14.25,9-15.66,12.38H422V352.82l-16.88,3.1v1.93c5.91.19,7.5,1.84,7.5,8.6h0v32.39H422V375.25c0-6.86,5.35-15.85,11.53-15.85s6.29,6.76,6.29,14.4v25h9.38V366.45C449.24,359,446.42,352.82,437.89,352.82Z" transform="translate(-7.22 -80.56)"/><path class="cls-2" d="M14.35,251h0v54.52h9.38V237.83L7.22,240.24v1.94C12.76,242.47,14.35,244.11,14.35,251Z" transform="translate(-7.22 -80.56)"/><path class="cls-2" d="M56.74,306.55A36.5,36.5,0,0,0,70,303.94v-4.25a23.84,23.84,0,0,1-8.82,1.65c-13.22,0-17.07-13.73-17.07-23.4H70.81c0-6.47-1.31-18.46-17.35-18.46-12.57,0-19.7,6.67-19.7,21.94C33.76,297.57,42.39,306.55,56.74,306.55Zm-3.66-43.78c8.16,0,8.35,9.08,8.35,11.3H44.08C44.08,270.4,46.05,262.77,53.08,262.77Z" transform="translate(-7.22 -80.56)"/><path class="cls-2" d="M317.48,356.11c5.81,0,6.75,6,6.75,9.95h11.06c0-7.82-6.84-13.24-17.25-13.24-13.41,0-18.66,9.67-18.66,22.91,0,14.6,7.78,24.17,20.91,24.17,7.79,0,9.94-1.06,13.32-2.32v-4.25a32.3,32.3,0,0,1-9,1.35c-8.53,0-14.91-7.83-14.91-22.14C309.69,363.27,311.1,356.11,317.48,356.11Z" transform="translate(-7.22 -80.56)"/><path class="cls-2" d="M274.15,357.85c5.72.19,7.22,1.84,7.22,8.6v32.39h9.38v-46l-16.6,3.1Z" transform="translate(-7.22 -80.56)"/><path class="cls-2" d="M85.63,269.05c0-4.16,3.56-5.32,6.56-5.32,5.25,0,9.75,3.68,11.16,4.64v-7.25a41.51,41.51,0,0,0-10.51-1.64c-11.06,0-15.66,6-15.66,12.95,0,13.34,20.54,13.92,20.54,23.39,0,3.39-2.15,6.48-8.06,6.48-5.25,0-9.66-3.09-12.38-5v7.53a42.9,42.9,0,0,0,12,1.74c9.28,0,16.88-3.86,16.88-13.33C106.16,278.42,85.63,278.23,85.63,269.05Z" transform="translate(-7.22 -80.56)"/><path class="cls-2" d="M286.24,333.1a6,6,0,0,0-.08,12.09,6.13,6.13,0,0,0,6.09-6.09A6,6,0,0,0,286.24,333.1Z" transform="translate(-7.22 -80.56)"/><path class="cls-2" d="M230.35,352.82c-7.31,0-10,4.06-11.72,7.25h-.19v-28.9l-16.59,2.42v1.93c5.62.29,7.22,1.84,7.22,8.6v54.72h2.53l6.37-5.42c2.26,2.32,5.73,6.48,12.1,6.48,12.19,0,16.89-10.54,16.89-22.62C247,365.49,243.77,352.82,230.35,352.82ZM227,394.68c-7.78,0-8.54-12.09-8.54-17.21v-4c0-5.42,1-15.47,9.2-15.47s9,11.12,9,17.89C236.64,383.37,235.89,394.68,227,394.68Z" transform="translate(-7.22 -80.56)"/><path class="cls-2" d="M359.11,352.82c-13.5,0-16.6,6.77-17.63,13.15h11.16c0-4.25.38-9.86,6.57-9.86,5.9,0,5.9,6.77,5.9,12.86v4.93c-6,.19-24.66,1.25-24.66,14.88,0,5.7,5.25,11.12,12.57,11.12s10.41-4.74,12.09-6.77v5.71h9.39V369.45C374.5,359.88,372.43,352.82,359.11,352.82Zm6,30.16c0,6.58-3.27,11.7-8.71,11.7-3.48,0-5.63-3.09-5.63-7.54,0-9.18,11-9.67,14.34-9.76Z" transform="translate(-7.22 -80.56)"/><path class="cls-2" d="M249.58,335.52c5.53.29,7.13,1.94,7.13,8.8v54.52h9.38V331.17l-16.51,2.42Z" transform="translate(-7.22 -80.56)"/><path class="cls-2" d="M132.83,352.82c-5.82,0-10,4.94-12.1,7.83h-.19v-7.83l-16.79,3.1v1.93c5.81.19,7.32,1.84,7.32,8.6v52.1h9.37V392.84h.19c1.69,3.1,4.51,7.06,11.82,7.06,13.5,0,16.69-12.57,16.69-24.26C149.14,363.46,144.74,352.82,132.83,352.82Zm-3,41.86c-8.34,0-9.38-10-9.38-15.27v-4c0-5.12.85-17.4,9.29-17.4s9.1,10.64,9.1,17.6C138.83,382.79,138,394.68,129.82,394.68Z" transform="translate(-7.22 -80.56)"/><path class="cls-2" d="M393.34,333.1a6,6,0,0,0-.09,12.09,6.14,6.14,0,0,0,6.1-6.09A6,6,0,0,0,393.34,333.1Z" transform="translate(-7.22 -80.56)"/><path class="cls-2" d="M381.25,357.85c5.72.19,7.22,1.84,7.22,8.6v32.39h9.38v-46l-16.6,3.1Z" transform="translate(-7.22 -80.56)"/><path class="cls-2" d="M180,357.85c5.63.19,7.23,1.84,7.23,8.6v10.64c0,8-4.13,16.24-10.23,16.24-4.5,0-7.68-2.61-7.68-11.41v-29.1l-16.61,3.1v1.93c5.73.19,7.22,1.84,7.22,8.6v13.73c0,7.15,0,19.72,12.57,19.72,9.1,0,12.95-7.74,14.54-12h.19v10.93h9.37v-46l-16.6,3.1Z" transform="translate(-7.22 -80.56)"/></g><g id="Logo"><path class="cls-3" d="M226.46,80.56h28.62v225H226.46V80.56Z" transform="translate(-7.22 -80.56)"/><path class="cls-2" d="M263.51,187.72H255v17.65l54.85,80.85,23.42-8.08-50.67-74.87c37.72-9.65,41.82-37.93,41.82-49.71,0-18.35-10.1-29.46-18.57-35.56A64.45,64.45,0,0,0,269,106.47h-14V123.6h2.59c27.09,0,39.71,9.52,39.71,30C297.35,175.59,285.33,187.72,263.51,187.72Z" transform="translate(-7.22 -80.56)"/><rect class="cls-2" x="168.13" y="25.76" width="28.61" height="175.78"/></g></svg>