<?xml version="1.0" encoding="utf-8"?>
<!-- Generator: Adobe Illustrator 24.0.1, SVG Export Plug-In . SVG Version: 6.00 Build 0)  -->
<svg version="1.1" id="LR" xmlns="http://www.w3.org/2000/svg" xmlns:xlink="http://www.w3.org/1999/xlink" x="0px" y="0px"
	 viewBox="0 0 481.8 338" style="enable-background:new 0 0 481.8 338;" xml:space="preserve">
<style type="text/css">
	.st0{fill:#202F55;}
	.st1{fill:#FA4A4A;}
</style>
<g id="Text">
	<path class="st0" d="M76.6,272.3c-12.6,0-19.7,6.7-19.7,22c0,16.1,8.6,25.1,23,25.1c4.5,0,9-0.9,13.2-2.6v-4.3
		c-2.8,1.1-5.8,1.7-8.8,1.6c-13.2,0-17.1-13.7-17.1-23.4h26.7C93.9,284.3,92.6,272.3,76.6,272.3z M67.2,286.9c0-3.7,2-11.3,9-11.3
		c8.2,0,8.3,9.1,8.3,11.3H67.2z"/>
	<path class="st0" d="M49.6,270.5c0-17.3-19.4-17.3-26.4-17.3H0.1v2.1c8.7,1.5,8.9,1.5,8.9,11v51.9h10.3v-30.1h5.8l16.6,30.1h10.8
		l-17.3-31.8C42.7,285.2,49.6,281.5,49.6,270.5z M24.7,283.7h-5.4v-17.2c0-7,0-8.7,6.3-8.7c7.9,0,13.7,2.9,13.7,13.4
		C39.3,281.9,30.8,283.7,24.7,283.7z"/>
	<path class="st0" d="M461.2,281.8c0-4.1,3.6-5.3,6.6-5.3c5.3,0,9.8,3.7,11.2,4.6v-7.3c-3.4-1-6.9-1.6-10.5-1.6
		c-11.1,0-15.7,6-15.7,13c0,13.3,20.5,13.9,20.5,23.4c0,3.4-2.2,6.5-8.1,6.5c-5.3,0-9.7-3.1-12.4-5v7.5c3.9,1.1,7.9,1.7,12,1.7
		c9.3,0,16.9-3.9,16.9-13.3C481.8,291.2,461.2,291,461.2,281.8z"/>
	<path class="st0" d="M82.8,255.4c0.7-1,1.1-2.1,1.4-3.2c0-2.5-2.3-3.7-4.3-3.7c-3.6,0-4,2.6-4.5,4.9L73,265.6h3.9L82.8,255.4z"/>
	<path class="st0" d="M430.7,272.3c-9.3,0-14.3,9-15.7,12.4h-0.2v-12.4l-16.9,3.1v1.9c5.9,0.2,7.5,1.8,7.5,8.6l0,0v32.4h9.4v-23.6
		c0-6.9,5.4-15.9,11.5-15.9s6.3,6.8,6.3,14.4v25h9.4v-32.3C442,278.4,439.2,272.3,430.7,272.3z"/>
	<path class="st0" d="M7.1,170.4L7.1,170.4V225h9.4v-67.7L0,159.7v1.9C5.5,161.9,7.1,163.6,7.1,170.4z"/>
	<path class="st0" d="M49.5,226c4.5,0,9-0.9,13.3-2.6v-4.3c-2.8,1.1-5.8,1.7-8.8,1.6c-13.2,0-17.1-13.7-17.1-23.4h26.7
		c0-6.5-1.3-18.5-17.3-18.5c-12.6,0-19.7,6.7-19.7,21.9C26.5,217,35.2,226,49.5,226z M45.9,182.2c8.2,0,8.3,9.1,8.3,11.3H36.9
		C36.9,189.8,38.8,182.2,45.9,182.2z"/>
	<path class="st0" d="M310.3,275.5c5.8,0,6.8,6,6.8,10h11.1c0-7.8-6.8-13.2-17.3-13.2c-13.4,0-18.7,9.7-18.7,22.9
		c0,14.6,7.8,24.2,20.9,24.2c7.8,0,9.9-1.1,13.3-2.3v-4.3c-2.9,0.9-6,1.3-9,1.4c-8.5,0-14.9-7.8-14.9-22.1
		C302.5,282.7,303.9,275.5,310.3,275.5z"/>
	<path class="st0" d="M266.9,277.3c5.7,0.2,7.2,1.8,7.2,8.6v32.4h9.4v-46l-16.6,3.1V277.3z"/>
	<path class="st0" d="M78.4,188.5c0-4.2,3.6-5.3,6.6-5.3c5.3,0,9.8,3.7,11.2,4.6v-7.3c-3.4-1-7-1.5-10.5-1.6c-11.1,0-15.7,6-15.7,13
		c0,13.3,20.5,13.9,20.5,23.4c0,3.4-2.2,6.5-8.1,6.5c-5.3,0-9.7-3.1-12.4-5v7.5c3.9,1.1,7.9,1.7,12,1.7c9.3,0,16.9-3.9,16.9-13.3
		C98.9,197.9,78.4,197.7,78.4,188.5z"/>
	<path class="st0" d="M279,252.5c-3.3,0-6.1,2.7-6.1,6s2.7,6.1,6,6.1c3.4,0,6.1-2.7,6.1-6.1C285,255.2,282.3,252.5,279,252.5
		C279,252.5,279,252.5,279,252.5z"/>
	<path class="st0" d="M223.1,272.3c-7.3,0-10,4.1-11.7,7.3h-0.2v-28.9l-16.6,2.4v1.9c5.6,0.3,7.2,1.8,7.2,8.6v54.7h2.5l6.4-5.4
		c2.3,2.3,5.7,6.5,12.1,6.5c12.2,0,16.9-10.5,16.9-22.6C239.8,284.9,236.6,272.3,223.1,272.3z M219.8,314.1
		c-7.8,0-8.5-12.1-8.5-17.2v-4c0-5.4,1-15.5,9.2-15.5s9,11.1,9,17.9C229.4,302.8,228.7,314.1,219.8,314.1z"/>
	<path class="st0" d="M351.9,272.3c-13.5,0-16.6,6.8-17.6,13.1h11.2c0-4.3,0.4-9.9,6.6-9.9c5.9,0,5.9,6.8,5.9,12.9v4.9
		c-6,0.2-24.7,1.3-24.7,14.9c0,5.7,5.3,11.1,12.6,11.1s10.4-4.7,12.1-6.8v5.7h9.4v-29.4C367.3,279.3,365.2,272.3,351.9,272.3z
		 M357.9,302.4c0,6.6-3.3,11.7-8.7,11.7c-3.5,0-5.6-3.1-5.6-7.5c0-9.2,11-9.7,14.3-9.8V302.4z"/>
	<path class="st0" d="M242.4,255c5.5,0.3,7.1,1.9,7.1,8.8v54.5h9.4v-67.7l-16.5,2.4V255z"/>
	<path class="st0" d="M125.6,272.3c-5.8,0-10,4.9-12.1,7.8h-0.2v-7.8l-16.8,3.1v1.9c5.8,0.2,7.3,1.8,7.3,8.6V338h9.4v-25.7h0.2
		c1.7,3.1,4.5,7.1,11.8,7.1c13.5,0,16.7-12.6,16.7-24.3C141.9,282.9,137.5,272.3,125.6,272.3z M122.6,314.1c-8.3,0-9.4-10-9.4-15.3
		v-4c0-5.1,0.8-17.4,9.3-17.4s9.1,10.6,9.1,17.6C131.6,302.2,130.8,314.1,122.6,314.1L122.6,314.1z"/>
	<path class="st0" d="M386.1,252.5c-3.3,0-6.1,2.7-6.1,6s2.7,6.1,6,6.1c3.4,0,6.1-2.7,6.1-6.1C392.1,255.2,389.4,252.5,386.1,252.5
		C386.1,252.5,386.1,252.5,386.1,252.5z"/>
	<path class="st0" d="M374,277.3c5.7,0.2,7.2,1.8,7.2,8.6v32.4h9.4v-46l-16.6,3.1V277.3z"/>
	<path class="st0" d="M172.8,277.3c5.6,0.2,7.2,1.8,7.2,8.6v10.6c0,8-4.1,16.2-10.2,16.2c-4.5,0-7.7-2.6-7.7-11.4v-29.1l-16.6,3.1
		v1.9c5.7,0.2,7.2,1.8,7.2,8.6v13.7c0,7.1,0,19.7,12.6,19.7c9.1,0,12.9-7.7,14.5-12h0.2v10.9h9.4v-46l-16.6,3.1L172.8,277.3z"/>
</g>
<g id="Logo">
	<path class="st1" d="M219.2,0h28.6v225h-28.6V0z"/>
	<path class="st0" d="M256.3,107.2h-8.5v17.6l54.9,80.9l23.4-8.1l-50.7-74.9c37.7-9.6,41.8-37.9,41.8-49.7
		c0-18.4-10.1-29.5-18.6-35.6c-10.8-7.5-23.7-11.5-36.9-11.5h-14V43h2.6c27.1,0,39.7,9.5,39.7,30C290.1,95,278.1,107.2,256.3,107.2z
		"/>
	<rect x="168.1" y="25.8" class="st0" width="28.6" height="175.8"/>
</g>
</svg>
