<?xml version="1.0" encoding="UTF-8" standalone="no"?>
<svg width="97px" xmlns="http://www.w3.org/2000/svg" viewBox="0 0 97 68" version="1.1" height="68px">
 <path d="m1.4543 34.325c0-1.376-0.3194-1.705-1.429-1.763l0.000017-0.388 3.3096-0.484v13.566h-1.8806v-10.931zm11.151 10.621c-0.358 0.136-1.354 0.523-2.6517 0.523-2.8769 0-4.6068-1.802-4.6068-5.039 0-3.062 1.429-4.399 3.9486-4.399 3.2159 0 3.4789 2.403 3.4789 3.702h-5.3592c0 1.938 0.7712 4.69 3.4222 4.69 0.79 0 1.448-0.194 1.768-0.33v0.853zm-1.712-5.989c0-0.445-0.037-2.267-1.6729-2.267-1.4103 0-1.8053 1.531-1.8053 2.267h3.4782zm8.405-1.143c-0.282-0.194-1.184-0.93-2.237-0.93-0.602 0-1.316 0.232-1.316 1.066 0 1.841 4.117 1.879 4.117 4.845 0 1.899-1.523 2.674-3.384 2.674-1.147 0-1.975-0.232-2.407-0.349v-1.511c0.545 0.387 1.429 1.007 2.482 1.007 1.185 0 1.617-0.62 1.617-1.298 0-1.899-4.118-2.015-4.118-4.69 0-1.395 0.921-2.597 3.14-2.597 0.959 0 1.787 0.252 2.106 0.329v1.454zm-17.462 15.75c0-1.918-0.0374-1.918-1.7862-2.209l-0.000001-0.427h4.6258c1.4103 0 5.3024 0 5.3024 3.47 0 2.209-1.3914 2.945-2.8768 3.197l3.4591 6.377h-2.1618l-3.3281-6.028h-1.1659v6.028h-2.0685v-10.408zm2.0685 3.469h1.072c1.2219 0 2.9329-0.349 2.9329-2.519 0-2.094-1.1656-2.675-2.7452-2.675-1.2597 0-1.2597 0.349-1.2597 1.745v3.449zm14.779 6.628c-0.357 0.136-1.354 0.524-2.651 0.524-2.877 0-4.607-1.803-4.607-5.039 0-3.063 1.429-4.4 3.949-4.4 3.215 0 3.479 2.404 3.479 3.702h-5.359c0 1.938 0.77 4.69 3.422 4.69 0.789 0 1.447-0.194 1.767-0.329v0.852zm-1.711-5.988c0-0.446-0.038-2.268-1.673-2.268-1.41 0-1.805 1.531-1.805 2.268h3.478zm-1.824-6.686c0.094-0.466 0.188-0.989 0.903-0.989 0.395 0 0.865 0.233 0.865 0.736 0 0.136-0.17 0.446-0.282 0.64l-1.185 2.035h-0.79l0.489-2.422zm5.697 6.492c0-1.357-0.301-1.686-1.466-1.725v-0.388l3.365-0.62v1.57h0.038c0.414-0.581 1.26-1.57 2.426-1.57 2.388 0 3.271 2.132 3.271 4.574 0 2.345-0.639 4.865-3.347 4.865-1.466 0-2.03-0.795-2.369-1.415h-0.038v5.155h-1.88v-10.446zm1.88 2.597c0 1.066 0.207 3.062 1.881 3.062 1.636 0 1.805-2.384 1.805-3.818 0-1.395-0.15-3.527-1.824-3.527-1.692 0-1.862 2.461-1.862 3.488v0.795zm13.388 1.705h-0.037c-0.32 0.853-1.091 2.404-2.915 2.404-2.52 0-2.52-2.52-2.52-3.954v-2.752c0-1.357-0.3-1.686-1.448-1.725v-0.388l3.329-0.62v5.834c0 1.764 0.639 2.287 1.541 2.287 1.223 0 2.05-1.648 2.05-3.256v-2.132c0-1.357-0.32-1.686-1.448-1.725v-0.388l3.328-0.62v9.226h-1.88v-2.191zm4.381-8.779c0-1.356-0.32-1.667-1.448-1.725v-0.388l3.328-0.484v5.795h0.038c0.338-0.64 0.884-1.454 2.35-1.454 2.689 0 3.329 2.539 3.329 4.904 0 2.422-0.941 4.535-3.385 4.535-1.279 0-1.974-0.834-2.426-1.299l-1.278 1.086h-0.508v-10.97zm1.88 6.686c0 1.027 0.151 3.45 1.712 3.45 1.786 0 1.936-2.267 1.936-3.76 0-1.356-0.169-3.585-1.805-3.585s-1.843 2.015-1.843 3.101v0.794zm7.672-6.647c0-1.376-0.32-1.706-1.429-1.764v-0.388l3.309-0.484v13.567h-1.88v-10.931zm4.945 4.438c0-1.357-0.301-1.686-1.448-1.725v-0.388l3.328-0.62v9.226h-1.88v-6.493zm-0.207-5.485c0-0.659 0.526-1.202 1.184-1.202 0.64 0 1.204 0.524 1.204 1.202s-0.564 1.221-1.222 1.221c-0.64 0-1.166-0.543-1.166-1.221zm10.68 11.726c-0.677 0.252-1.109 0.465-2.67 0.465-2.633 0-4.193-1.919-4.193-4.846 0-2.655 1.053-4.593 3.742-4.593 2.087 0 3.459 1.086 3.459 2.655h-2.218c0-0.794-0.189-1.996-1.354-1.996-1.279 0-1.561 1.435-1.561 3.295 0 2.868 1.279 4.438 2.99 4.438 0.583 0 1.354-0.116 1.805-0.271v0.853zm6.317-0.892c-0.338 0.407-0.977 1.357-2.425 1.357-1.467 0-2.52-1.086-2.52-2.229 0-2.733 3.742-2.946 4.945-2.985v-0.988c0-1.221 0-2.578-1.184-2.578-1.241 0-1.316 1.124-1.316 1.977h-2.238c0.207-1.279 0.828-2.636 3.535-2.636 2.67 0 3.084 1.415 3.084 3.334v5.892h-1.881v-1.144zm0-3.159c-0.677 0.019-2.876 0.116-2.876 1.958 0 0.891 0.432 1.511 1.128 1.511 1.091 0 1.748-1.027 1.748-2.345v-1.124zm4.682-2.19c0-1.357-0.3-1.686-1.447-1.725v-0.388l3.328-0.62v9.226h-1.881v-6.493zm-0.206-5.485c0-0.659 0.526-1.202 1.184-1.202 0.639 0 1.204 0.524 1.204 1.202s-0.565 1.221-1.223 1.221c-0.639 0-1.165-0.543-1.165-1.221zm5.057 5.485c0-1.357-0.319-1.686-1.504-1.725v-0.388l3.385-0.62v2.481h0.037c0.283-0.678 1.279-2.481 3.14-2.481 1.711 0 2.276 1.241 2.276 2.733v6.493h-1.881v-5.02c0-1.531 0-2.888-1.26-2.888-1.24 0-2.312 1.803-2.312 3.179v4.729h-1.881v-6.493zm14.742-0.95c-0.282-0.193-1.185-0.93-2.238-0.93-0.602 0-1.316 0.233-1.316 1.066 0 1.841 4.118 1.88 4.118 4.845 0 1.899-1.523 2.675-3.385 2.675-1.147 0-1.974-0.233-2.406-0.349v-1.512c0.545 0.388 1.428 1.008 2.482 1.008 1.184 0 1.617-0.62 1.617-1.299 0-1.899-4.118-2.015-4.118-4.69 0-1.395 0.921-2.597 3.14-2.597 0.959 0 1.786 0.252 2.106 0.33v1.453zm-46.344-34.886h1.698c4.375 0 6.785-2.432 6.785-6.849 0-4.098-2.53-6.0074-7.963-6.0074h-0.519v-3.4329h2.802c2.657 0 5.352 0.8427 7.394 2.3118 1.699 1.2222 3.724 3.4505 3.724 7.1285 0 2.363-0.823 8.032-8.385 9.966l10.158 15.013-4.695 1.619-10.998-16.21-0.001-3.539zm-15.977-16.321h5.736v35.243h-5.736v-35.243z" fill="#202F55"/>
 <path d="m43.983 0.15726h5.738v45.102h-5.738v-45.102 0.00026z" fill="#FA4A4A"/>
</svg>
